ply
format ascii 1.0
comment Created by Blender 2.79 (sub 0) - www.blender.org, source file: ''
element vertex 499
property float x
property float y
property float z
property float nx
property float ny
property float nz
property float s
property float t
element face 512
property list uchar uint vertex_indices
end_header
0.000000 1.539337 1.935015 0.000000 1.000000 0.000000 0.868591 0.681066
0.000000 1.509759 2.235324 0.000000 0.980987 0.193915 0.847433 0.733811
0.294540 1.480750 2.235324 0.191382 0.962157 0.193915 0.816202 0.696482
0.300310 1.509759 1.935015 0.195074 0.980773 0.000000 0.838463 0.646947
0.000000 0.300310 3.444774 0.000000 0.200964 0.979583 0.533736 0.805300
-0.000000 -0.000001 3.474352 0.000000 0.000000 1.000000 0.500000 0.759358
0.058588 0.294539 3.444774 0.039186 0.197089 0.979583 0.539816 0.795434
0.000000 -0.000001 0.395677 0.000000 0.000000 -1.000000 1.000000 0.240642
0.000000 0.300309 0.425255 0.000000 0.200964 -0.979583 0.975675 0.291763
0.058588 0.294539 0.425255 0.039186 0.197089 -0.979583 0.969510 0.284402
0.000000 1.509760 1.634705 0.000000 0.980987 -0.193915 0.885597 0.626266
0.294540 1.480750 1.634705 0.191382 0.962157 -0.193915 0.857444 0.595293
0.000000 0.589079 3.357177 0.000000 0.387860 0.921690 0.582549 0.841345
0.114924 0.577760 3.357177 0.075655 0.380413 0.921690 0.590888 0.819010
0.000000 1.422162 1.345936 0.000000 0.924741 -0.380535 0.900276 0.570349
0.277450 1.394836 1.345936 0.180395 0.906980 -0.380535 0.874583 0.542487
0.000000 0.855210 3.214927 0.000000 0.559771 0.828639 0.649081 0.859550
0.166843 0.838777 3.214927 0.109195 0.548997 0.828639 0.649765 0.824872
0.000000 1.279911 1.079805 0.000000 0.833338 -0.552751 0.913824 0.513898
0.249699 1.255319 1.079805 0.162572 0.817316 -0.552751 0.890967 0.489217
0.000000 1.088476 3.023490 0.000000 0.710135 0.704031 0.720845 0.853085
0.212351 1.067561 3.023490 0.138524 0.696493 0.704031 0.706423 0.811342
0.000000 1.088475 0.846539 0.000000 0.710135 -0.704031 0.927163 0.457347
0.212351 1.067561 0.846539 0.138524 0.696493 -0.704031 0.907539 0.436062
0.000000 1.279912 2.790225 0.000000 0.833338 0.552751 0.778704 0.824670
0.249699 1.255319 2.790225 0.162572 0.817316 0.552751 0.752936 0.782039
0.000000 0.855210 0.655102 0.000000 0.559771 -0.828639 0.941160 0.401107
0.166843 0.838777 0.655102 0.109195 0.548997 -0.828639 0.925278 0.383628
0.000000 1.422162 2.524093 0.000000 0.924741 0.380535 0.819100 0.782797
0.277450 1.394836 2.524093 0.180395 0.906980 0.380535 0.788619 0.742368
0.000000 0.589078 0.512852 0.000000 0.387860 -0.921690 0.956843 0.345670
0.114924 0.577760 0.512852 0.075655 0.380413 -0.921690 0.945384 0.332691
0.327275 0.790111 0.655102 0.214209 0.517136 -0.828639 0.910370 0.362448
0.225431 0.544238 0.512852 0.148412 0.358348 -0.921690 0.934859 0.316919
0.544238 1.313907 2.524093 0.353893 0.854366 0.380535 0.762962 0.700087
0.577760 1.394836 2.235324 0.375408 0.906339 0.193915 0.789122 0.655956
0.114924 0.277450 0.425255 0.076907 0.185644 -0.979583 0.964114 0.275507
0.589079 1.422162 1.935015 0.382672 0.923856 0.000000 0.811554 0.608762
0.114924 0.277450 3.444774 0.076907 0.185644 0.979583 0.543757 0.784261
0.577760 1.394836 1.634705 0.375408 0.906339 -0.193915 0.831688 0.559777
0.225431 0.544238 3.357177 0.148412 0.358348 0.921690 0.594039 0.795396
0.544238 1.313907 1.345936 0.353862 0.854366 -0.380535 0.850662 0.509912
0.327275 0.790111 3.214927 0.214209 0.517136 0.828639 0.645633 0.790504
0.489801 1.182485 1.079805 0.318888 0.769890 -0.552751 0.869449 0.459908
0.416542 1.005620 3.023490 0.271737 0.656056 0.704031 0.692355 0.770629
0.416542 1.005620 0.846539 0.271737 0.656056 -0.704031 0.889000 0.410479
0.489801 1.182485 2.790225 0.318888 0.769890 0.552751 0.731300 0.739251
0.790111 1.182485 1.345936 0.513749 0.768914 -0.380535 0.828185 0.473643
0.711081 1.064208 1.079805 0.462966 0.692892 -0.552751 0.849125 0.426757
0.475129 0.711081 3.214927 0.310984 0.465407 0.828639 0.638505 0.757083
0.604725 0.905034 3.023490 0.394513 0.590442 0.704031 0.678125 0.731264
0.604725 0.905034 0.846539 0.394513 0.590442 -0.704031 0.871546 0.381179
0.711081 1.064208 2.790225 0.462966 0.692892 0.552751 0.711655 0.697094
0.475129 0.711081 0.655102 0.310984 0.465407 -0.828639 0.896565 0.337994
0.790111 1.182485 2.524093 0.513749 0.768914 0.380535 0.740062 0.657249
0.327275 0.489801 0.512852 0.215491 0.322489 -0.921690 0.925487 0.298682
0.838778 1.255319 2.235324 0.545000 0.815668 0.193915 0.764722 0.613726
0.166843 0.249698 0.425255 0.111637 0.167089 -0.979583 0.959678 0.265317
0.855210 1.279912 1.935015 0.555559 0.831446 0.000000 0.786922 0.567950
0.166844 0.249698 3.444774 0.111637 0.167089 0.979583 0.545656 0.772332
0.838778 1.255319 1.634705 0.545000 0.815668 -0.193915 0.807756 0.520972
0.327275 0.489801 3.357177 0.215491 0.322489 0.921690 0.593336 0.771527
0.416542 0.416541 0.512852 0.274270 0.274270 -0.921690 0.917519 0.278354
0.212351 0.212351 0.425255 0.142094 0.142094 -0.979583 0.956403 0.254117
1.067561 1.067561 2.235324 0.693655 0.693655 0.193915 0.741820 0.570896
1.088476 1.088476 1.935015 0.707083 0.707083 0.000000 0.763648 0.525648
0.212351 0.212351 3.444774 0.142094 0.142094 0.979583 0.545694 0.760158
1.067561 1.067561 1.634705 0.693655 0.693655 -0.193915 0.784976 0.479933
0.416542 0.416542 3.357177 0.274270 0.274270 0.921690 0.589727 0.748158
1.005621 1.005620 1.345936 0.653890 0.653890 -0.380535 0.806694 0.434582
0.604725 0.604725 3.214927 0.395795 0.395795 0.828639 0.629258 0.725098
0.905035 0.905034 1.079805 0.589251 0.589251 -0.552751 0.829728 0.390486
0.769669 0.769669 3.023490 0.502121 0.502121 0.704031 0.663426 0.693598
0.769669 0.769669 0.846539 0.502121 0.502121 -0.704031 0.855106 0.348721
0.905035 0.905034 2.790225 0.589251 0.589251 0.552751 0.692815 0.656161
0.604725 0.604725 0.655102 0.395795 0.395795 -0.828639 0.883985 0.310706
1.005621 1.005620 2.524093 0.653890 0.653890 0.380535 0.718557 0.614770
0.711082 0.475129 3.214927 0.465407 0.310984 0.828639 0.618347 0.694991
0.905035 0.604725 3.023490 0.590442 0.394513 0.704031 0.648036 0.658030
1.064209 0.711081 1.079805 0.692892 0.462966 -0.552751 0.810887 0.351746
0.905035 0.604725 0.846539 0.590442 0.394513 -0.704031 0.839558 0.313620
1.064209 0.711081 2.790225 0.692892 0.462966 0.552751 0.674031 0.617002
0.711081 0.475129 0.655102 0.465407 0.310984 -0.828639 0.872779 0.281021
1.182485 0.790111 2.524093 0.768914 0.513749 0.380535 0.697489 0.573407
0.489801 0.327274 0.512852 0.322489 0.215491 -0.921690 0.911271 0.256353
1.255319 0.838777 2.235324 0.815668 0.545000 0.193915 0.719457 0.528372
0.249699 0.166843 0.425255 0.167089 0.111637 -0.979583 0.954501 0.242240
1.279913 0.855210 1.935015 0.831446 0.555559 0.000000 0.740872 0.482813
0.249699 0.166843 3.444774 0.167089 0.111637 0.979583 0.544090 0.748191
1.255319 0.838777 1.634705 0.815668 0.545000 -0.193915 0.762621 0.437570
0.489802 0.327275 3.357177 0.322489 0.215491 0.921690 0.583866 0.725881
1.182485 0.790111 1.345936 0.768914 0.513749 -0.380535 0.785621 0.393526
1.394836 0.577759 2.235324 0.906339 0.375408 0.193915 0.696820 0.487001
1.422163 0.589078 1.935015 0.923856 0.382672 0.000000 0.717763 0.440334
0.277451 0.114923 3.444774 0.185644 0.076907 0.979583 0.541069 0.736829
0.277450 0.114923 0.425255 0.185644 0.076907 -0.979583 0.954196 0.230072
1.394836 0.577759 1.634705 0.906339 0.375408 -0.193915 0.739895 0.394731
0.544238 0.225430 3.357177 0.358348 0.148412 0.921690 0.576210 0.705186
1.313907 0.544238 1.345936 0.854366 0.353862 -0.380535 0.764269 0.351210
0.790111 0.327274 3.214927 0.517136 0.214209 0.828639 0.606026 0.667194
1.182485 0.489801 1.079805 0.769890 0.318888 -0.552751 0.792108 0.311120
1.005621 0.416541 3.023490 0.656056 0.271737 0.704031 0.631784 0.625009
1.005621 0.416541 0.846539 0.656056 0.271737 -0.704031 0.824738 0.276336
1.182485 0.489801 2.790225 0.769890 0.318888 0.552751 0.654776 0.580194
0.790111 0.327274 0.655102 0.517136 0.214209 -0.828639 0.863175 0.249374
1.313907 0.544238 2.524093 0.854366 0.353862 0.380535 0.676129 0.533890
0.544238 0.225430 0.512852 0.358348 0.148412 -0.921690 0.907172 0.233157
1.255319 0.249698 1.079805 0.817316 0.162572 -0.552751 0.772698 0.269160
1.067562 0.212351 0.846539 0.696493 0.138524 -0.704031 0.810436 0.237278
1.067562 0.212351 3.023490 0.696493 0.138524 0.704031 0.614538 0.595042
1.255319 0.249698 2.790225 0.817316 0.162572 0.552751 0.634660 0.546370
0.838778 0.166843 0.655102 0.548997 0.109195 -0.828639 0.855576 0.216201
1.394836 0.277450 2.524093 0.906980 0.180395 0.380535 0.653888 0.497001
0.577760 0.114923 0.512852 0.380413 0.075655 -0.921690 0.905829 0.209334
1.480750 0.294539 2.235324 0.962157 0.191382 0.193915 0.673172 0.447676
0.294540 0.058587 0.425255 0.197089 0.039186 -0.979583 0.955710 0.218056
1.509760 0.300309 1.935015 0.980773 0.195074 0.000000 0.693471 0.399144
0.294540 0.058587 3.444774 0.197089 0.039186 0.979583 0.536846 0.726414
1.480750 0.294539 1.634705 0.962157 0.191382 -0.193915 0.715877 0.352303
0.577760 0.114923 3.357177 0.380413 0.075655 0.921690 0.567094 0.686505
1.394836 0.277450 1.345936 0.906980 0.180395 -0.380535 0.741737 0.308378
0.838778 0.166843 3.214927 0.548997 0.109195 0.828639 0.592453 0.642144
0.300310 -0.000001 3.444774 0.200964 0.000000 0.979583 0.531625 0.717243
0.300310 -0.000000 0.425255 0.200964 0.000000 -0.979583 0.959236 0.206691
1.539338 -0.000001 1.935015 1.000000 0.000000 0.000000 0.667088 0.360337
1.509759 -0.000001 1.634705 0.980987 0.000000 -0.193915 0.689435 0.311337
0.589079 -0.000000 3.357177 0.387860 0.000000 0.921690 0.556779 0.670218
1.422163 -0.000000 1.345936 0.924741 0.000000 -0.380535 0.716762 0.265900
0.855210 -0.000000 3.214927 0.559771 0.000000 0.828639 0.577754 0.620282
1.279912 -0.000001 1.079805 0.833338 0.000000 -0.552751 0.751585 0.226444
1.088476 -0.000000 3.023490 0.710135 0.000000 0.704031 0.596217 0.568677
1.088476 -0.000000 0.846539 0.710135 0.000000 -0.704031 0.796368 0.196805
1.279912 -0.000001 2.790225 0.833338 0.000000 0.552751 0.613394 0.516240
0.855210 -0.000001 0.655102 0.559771 0.000000 -0.828639 0.850748 0.181977
1.422163 -0.000000 2.524093 0.924741 0.000000 0.380535 0.630283 0.463618
0.589079 -0.000000 0.512852 0.387860 0.000000 -0.921690 0.908125 0.185598
1.509759 -0.000001 2.235324 0.980987 0.000000 0.193915 0.647826 0.411417
1.067561 -0.212352 3.023490 0.696493 -0.138524 0.704031 0.576804 0.546496
1.255319 -0.249699 2.790225 0.817316 -0.162572 0.552751 0.590807 0.490580
1.067561 -0.212352 0.846539 0.696493 -0.138524 -0.704031 0.782076 0.155242
0.838778 -0.166844 0.655102 0.548997 -0.109195 -0.828639 0.850257 0.147296
1.394836 -0.277451 2.524093 0.906980 -0.180395 0.380535 0.604958 0.434738
0.577760 -0.114924 0.512852 0.380413 -0.075655 -0.921690 0.915313 0.162911
1.480750 -0.294540 2.235324 0.962157 -0.191382 0.193915 0.620185 0.379435
0.294540 -0.058588 0.425255 0.197089 -0.039186 -0.979583 0.964892 0.196521
1.509760 -0.300310 1.935015 0.980773 -0.195074 0.000000 0.637668 0.325281
0.294540 -0.058588 3.444774 0.197089 -0.039186 0.979583 0.525597 0.709562
1.480750 -0.294540 1.634705 0.962157 -0.191382 -0.193915 0.659155 0.273231
0.577760 -0.114924 3.357177 0.380413 -0.075655 0.921690 0.545488 0.656662
1.394836 -0.277451 1.345936 0.906980 -0.180395 -0.380535 0.687446 0.224971
0.838778 -0.166844 3.214927 0.548997 -0.109195 0.828639 0.562053 0.602038
1.255319 -0.249699 1.079805 0.817316 -0.162572 -0.552751 0.726883 0.183702
1.422163 -0.589080 1.935015 0.923856 -0.382672 0.000000 0.604367 0.295717
1.394836 -0.577760 1.634705 0.906339 -0.375408 -0.193915 0.623388 0.239958
0.277450 -0.114924 3.444774 0.185644 -0.076907 0.979583 0.518946 0.703570
0.544238 -0.225431 3.357177 0.358348 -0.148412 0.921690 0.533430 0.646129
1.313907 -0.544238 1.345936 0.854366 -0.353893 -0.380535 0.650886 0.187491
0.790111 -0.327275 3.214927 0.517136 -0.214209 0.828639 0.545503 0.587815
1.182485 -0.489802 1.079805 0.769890 -0.318888 -0.552751 0.694810 0.142131
1.005621 -0.416542 3.023490 0.656056 -0.271737 0.704031 0.556370 0.529069
1.005621 -0.416542 0.846539 0.656056 -0.271737 -0.704031 0.766599 0.112889
1.182485 -0.489802 2.790225 0.769890 -0.318888 0.552751 0.566871 0.470192
0.790111 -0.327275 0.655102 0.517136 -0.214209 -0.828639 0.857598 0.113098
1.313907 -0.544238 2.524093 0.854366 -0.353893 0.380535 0.577747 0.411450
0.544238 -0.225431 0.512852 0.358348 -0.148412 -0.921690 0.929001 0.142627
1.394836 -0.577760 2.235324 0.906339 -0.375408 0.193915 0.589842 0.353143
0.277450 -0.114924 0.425255 0.185644 -0.076907 -0.979583 0.972647 0.188118
0.905035 -0.604725 0.846539 0.590442 -0.394513 -0.704031 0.746905 0.070086
0.711081 -0.475130 0.655102 0.465407 -0.310984 -0.828639 0.881392 0.081416
1.064208 -0.711082 2.790225 0.692892 -0.462966 0.552751 0.541740 0.455837
1.182485 -0.790112 2.524093 0.768914 -0.513749 0.380535 0.548764 0.394844
0.489801 -0.327275 0.512852 0.322489 -0.215491 -0.921690 0.950667 0.126639
1.255319 -0.838778 2.235324 0.815668 -0.545000 0.193915 0.556786 0.334067
0.249699 -0.166844 0.425255 0.167089 -0.111637 -0.979583 0.982246 0.182027
1.279912 -0.855211 1.935015 0.831446 -0.555559 0.000000 0.566803 0.273727
0.249699 -0.166844 3.444774 0.167089 -0.111637 0.979583 0.511848 0.699421
1.255319 -0.838778 1.634705 0.815668 -0.545000 -0.193915 0.580744 0.214255
0.489802 -0.327275 3.357177 0.322489 -0.215491 0.921690 0.520811 0.638850
1.182485 -0.790112 1.345936 0.768914 -0.513749 -0.380535 0.603143 0.156701
0.711081 -0.475130 3.214927 0.465407 -0.310984 0.828639 0.528295 0.577956
1.064208 -0.711082 1.079805 0.692892 -0.462966 -0.552751 0.646917 0.104348
0.905035 -0.604725 3.023490 0.590442 -0.394513 0.704031 0.535087 0.516912
1.067561 -1.067562 1.634705 0.693655 -0.693655 -0.193915 0.531445 0.199395
1.005621 -1.005621 1.345936 0.653890 -0.653890 -0.380535 0.541619 0.137720
0.416542 -0.416542 3.357177 0.274270 -0.274270 0.921690 0.507844 0.634991
0.604725 -0.604725 3.214927 0.395795 -0.395795 0.828639 0.510659 0.572718
0.905035 -0.905035 1.079805 0.589251 -0.589251 -0.552751 0.566520 0.077261
0.769669 -0.769669 3.023490 0.502121 -0.502121 0.704031 0.513227 0.510425
0.769669 -0.769669 0.846539 0.502121 -0.502121 -0.704031 0.701944 0.027695
0.905035 -0.905035 2.790225 0.589251 -0.589251 0.552751 0.515761 0.448129
0.604725 -0.604725 0.655102 0.395795 -0.395795 -0.828639 0.941401 0.057968
1.005621 -1.005621 2.524093 0.653890 -0.653890 0.380535 0.518466 0.385847
0.416542 -0.416542 0.512852 0.274270 -0.274270 -0.921690 0.980103 0.117256
1.067561 -1.067562 2.235324 0.693655 -0.693655 0.193915 0.521605 0.323600
0.212351 -0.212352 0.425255 0.142094 -0.142094 -0.979583 0.993155 0.178696
1.088476 -1.088477 1.935015 0.707083 -0.707083 0.000000 0.525620 0.261424
0.212351 -0.212352 3.444774 0.142094 -0.142094 0.979583 0.504475 0.697219
0.475129 -0.711082 0.655102 0.310984 -0.465407 -0.828639 1.040639 0.055359
0.327275 -0.489802 0.512852 0.215491 -0.322489 -0.921690 1.013419 0.116369
0.790111 -1.182485 2.524093 0.513749 -0.768914 0.380535 0.487622 0.385026
0.838777 -1.255319 2.235324 0.545000 -0.815668 0.193915 0.485512 0.322640
0.166843 -0.249699 0.425255 0.111637 -0.167089 -0.979583 1.004596 0.178391
0.855210 -1.279913 1.935015 0.555559 -0.831446 0.000000 0.482806 0.260287
0.166843 -0.249699 3.444774 0.111637 -0.167089 0.979583 0.497001 0.697020
0.838777 -1.255319 1.634705 0.545000 -0.815668 -0.193915 0.478864 0.198000
0.327275 -0.489802 3.357177 0.215491 -0.322489 0.921690 0.494745 0.634642
0.790111 -1.182485 1.345936 0.513749 -0.768914 -0.380535 0.471915 0.135876
0.475129 -0.711082 3.214927 0.310984 -0.465407 0.828639 0.492859 0.572244
0.711081 -1.064209 1.079805 0.462966 -0.692892 -0.552751 0.454389 0.074330
0.604725 -0.905035 3.023490 0.394513 -0.590442 0.704031 0.491138 0.509836
0.604725 -0.905035 0.846539 0.394513 -0.590442 -0.704031 0.323761 0.019808
0.711081 -1.064209 2.790225 0.462966 -0.692892 0.552751 0.489438 0.447428
0.604725 -0.905035 0.846539 0.394513 -0.590442 -0.704031 1.323761 0.019808
0.225431 -0.544239 3.357177 0.148412 -0.358348 0.921690 0.481734 0.637811
0.327275 -0.790112 3.214927 0.214209 -0.517136 0.828639 0.475169 0.576546
0.544238 -1.313907 1.345936 0.353862 -0.854366 -0.380535 0.407946 0.151818
0.489801 -1.182485 1.079805 0.318888 -0.769890 -0.552751 0.365775 0.097790
0.416542 -1.005621 3.023490 0.271737 -0.656056 0.704031 0.469203 0.515168
0.416542 -1.005621 0.846539 0.271737 -0.656056 -0.704031 0.258319 0.061609
0.489801 -1.182485 2.790225 0.318888 -0.769890 0.552751 0.463347 0.453769
0.475129 -0.711082 0.655102 0.310984 -0.465407 -0.828639 0.040639 0.055359
0.327275 -0.790112 0.655102 0.214209 -0.517136 -0.828639 0.110452 0.075821
0.544238 -1.313907 2.524093 0.353862 -0.854366 0.380535 0.457148 0.392435
0.327275 -0.489802 0.512852 0.215491 -0.322489 -0.921690 0.013419 0.116369
0.225431 -0.544238 0.512852 0.148412 -0.358348 -0.921690 0.044064 0.124184
0.577760 -1.394836 2.235324 0.375408 -0.906339 0.193915 0.450037 0.331275
0.166843 -0.249699 0.425255 0.111637 -0.167089 -0.979583 0.004596 0.178391
0.114924 -0.277451 0.425255 0.076907 -0.185644 -0.979583 0.015678 0.181137
0.589079 -1.422163 1.935015 0.382672 -0.923856 0.000000 0.441103 0.270463
0.114924 -0.277451 3.444774 0.076907 -0.185644 0.979583 0.489595 0.698828
0.000000 -0.000001 0.395677 0.000000 0.000000 -1.000000 0.000000 0.240642
0.577760 -1.394836 1.634705 0.375408 -0.906339 -0.193915 0.428538 0.210350
0.277450 -1.394836 2.524093 0.180395 -0.906980 0.380535 0.427857 0.407601
0.294539 -1.480750 2.235324 0.191382 -0.962157 0.193915 0.416492 0.348748
0.114924 -0.577760 0.512852 0.075655 -0.380413 -0.921690 0.067377 0.139053
0.058588 -0.294540 0.425255 0.039186 -0.197089 -0.979583 0.025588 0.186713
0.300310 -1.509760 1.935015 0.195074 -0.980773 0.000000 0.402730 0.290695
0.058588 -0.294540 3.444774 0.039186 -0.197089 0.979583 0.482429 0.702599
0.294539 -1.480750 1.634705 0.191382 -0.962157 -0.193915 0.384476 0.234171
0.114924 -0.577761 3.357177 0.075655 -0.380413 0.921690 0.469029 0.644424
0.277450 -1.394836 1.345936 0.180395 -0.906980 -0.380535 0.357541 0.180733
0.166843 -0.838778 3.214927 0.109195 -0.548997 0.828639 0.457856 0.585508
0.249698 -1.255319 1.079805 0.162572 -0.817316 -0.552751 0.313010 0.134225
0.212351 -1.067562 3.023490 0.138524 -0.696493 0.704031 0.447781 0.526230
0.212351 -1.067562 0.846539 0.138524 -0.696493 -0.704031 0.236784 0.104443
0.249698 -1.255319 2.790225 0.162572 -0.817316 0.552751 0.438015 0.466851
0.166843 -0.838778 0.655102 0.109195 -0.548997 -0.828639 0.139429 0.106529
0.000000 -1.422163 1.345936 0.000000 -0.924741 -0.380535 0.319100 0.217203
-0.000000 -1.279912 1.079805 0.000000 -0.833338 -0.552751 0.278704 0.175331
0.000000 -0.855211 3.214927 0.000000 -0.559771 0.828639 0.441160 0.598893
-0.000000 -1.088476 3.023490 0.000000 -0.710135 0.704031 0.427163 0.542653
-0.000000 -1.088476 0.846539 0.000000 -0.710135 -0.704031 0.220845 0.146915
-0.000000 -1.279912 2.790225 0.000000 -0.833338 0.552751 0.413824 0.486102
-0.000000 -0.855210 0.655102 0.000000 -0.559771 -0.828639 0.149081 0.140450
0.000000 -1.422163 2.524093 0.000000 -0.924741 0.380535 0.400276 0.429651
0.000000 -0.589079 0.512852 0.000000 -0.387860 -0.921690 0.082549 0.158655
-0.000000 -1.509760 2.235324 0.000000 -0.980987 0.193915 0.385597 0.373734
0.000000 -0.300310 0.425255 0.000000 -0.200964 -0.979583 0.033736 0.194700
-0.000000 -1.539338 1.935015 0.000000 -1.000000 0.000000 0.368591 0.318934
-0.000000 -0.300311 3.444774 0.000000 -0.200964 0.979583 0.475675 0.708236
-0.000000 -1.509760 1.634705 0.000000 -0.980987 -0.193915 0.347433 0.266189
0.000000 -0.589080 3.357177 0.000000 -0.387860 0.921690 0.456843 0.654330
-0.114924 -0.577760 0.512852 -0.075655 -0.380413 -0.921690 0.090888 0.180990
-0.058588 -0.294540 0.425255 -0.039186 -0.197089 -0.979583 0.039816 0.204566
-0.294540 -1.480750 2.235324 -0.191382 -0.962157 0.193915 0.357444 0.404707
-0.300310 -1.509760 1.935015 -0.195074 -0.980773 0.000000 0.338463 0.353053
-0.058588 -0.294540 3.444774 -0.039186 -0.197089 0.979583 0.469510 0.715598
-0.294540 -1.480750 1.634705 -0.191382 -0.962157 -0.193915 0.316202 0.303518
-0.114924 -0.577761 3.357177 -0.075655 -0.380413 0.921690 0.445384 0.667309
-0.277450 -1.394836 1.345936 -0.180395 -0.906980 -0.380535 0.288619 0.257632
-0.166843 -0.838778 3.214927 -0.109195 -0.548997 0.828639 0.425278 0.616371
-0.249699 -1.255319 1.079805 -0.162572 -0.817316 -0.552751 0.252936 0.217961
-0.212351 -1.067562 3.023490 -0.138524 -0.696493 0.704031 0.407539 0.563938
-0.212351 -1.067562 0.846539 -0.138524 -0.696493 -0.704031 0.206423 0.188658
-0.249699 -1.255319 2.790225 -0.162572 -0.817316 0.552751 0.390967 0.510783
-0.166843 -0.838778 0.655102 -0.109195 -0.548997 -0.828639 0.149765 0.175128
-0.277450 -1.394836 2.524093 -0.180395 -0.906980 0.380535 0.374583 0.457513
-0.327275 -0.790112 3.214927 -0.214209 -0.517136 0.828639 0.410370 0.637552
-0.416542 -1.005621 3.023490 -0.271737 -0.656056 0.704031 0.389000 0.589521
-0.489801 -1.182485 1.079805 -0.318888 -0.769890 -0.552751 0.231300 0.260748
-0.416542 -1.005621 0.846539 -0.271737 -0.656056 -0.704031 0.192355 0.229371
-0.489801 -1.182485 2.790225 -0.318888 -0.769890 0.552751 0.369450 0.540092
-0.327275 -0.790111 0.655102 -0.214209 -0.517136 -0.828639 0.145633 0.209496
-0.544238 -1.313907 2.524093 -0.353862 -0.854366 0.380535 0.350662 0.490088
-0.225431 -0.544238 0.512852 -0.148412 -0.358348 -0.921690 0.094040 0.204604
-0.577760 -1.394836 2.235324 -0.375408 -0.906339 0.193915 0.331688 0.440223
-0.114924 -0.277451 0.425255 -0.076907 -0.185644 -0.979583 0.043757 0.215739
-0.589079 -1.422163 1.935015 -0.382672 -0.923856 0.000000 0.311554 0.391238
-0.114924 -0.277451 3.444774 -0.076876 -0.185644 0.979583 0.464114 0.724493
-0.577760 -1.394836 1.634705 -0.375408 -0.906339 -0.193915 0.289123 0.344044
-0.225431 -0.544239 3.357177 -0.148412 -0.358348 0.921690 0.434859 0.683081
-0.544238 -1.313907 1.345936 -0.353862 -0.854366 -0.380535 0.262962 0.299913
-0.838777 -1.255319 2.235324 -0.545000 -0.815668 0.193915 0.307756 0.479028
-0.855210 -1.279913 1.935015 -0.555559 -0.831446 0.000000 0.286922 0.432050
-0.166843 -0.249699 3.444774 -0.111637 -0.167089 0.979583 0.459678 0.734683
-0.166843 -0.249699 0.425255 -0.111637 -0.167089 -0.979583 0.045656 0.227668
-0.838777 -1.255319 1.634705 -0.545000 -0.815668 -0.193915 0.264723 0.386274
-0.327275 -0.489802 3.357177 -0.215491 -0.322489 0.921690 0.425487 0.701317
-0.790111 -1.182485 1.345936 -0.513749 -0.768914 -0.380535 0.240062 0.342751
-0.475129 -0.711082 3.214927 -0.310984 -0.465407 0.828639 0.396565 0.662006
-0.711081 -1.064208 1.079805 -0.462966 -0.692892 -0.552751 0.211655 0.302906
-0.604725 -0.905035 3.023490 -0.394513 -0.590442 0.704031 0.371546 0.618821
-0.604725 -0.905035 0.846539 -0.394513 -0.590442 -0.704031 0.178125 0.268736
-0.711081 -1.064208 2.790225 -0.462966 -0.692892 0.552751 0.349125 0.573243
-0.475129 -0.711082 0.655102 -0.310984 -0.465407 -0.828639 0.138505 0.242917
-0.790111 -1.182485 2.524093 -0.513749 -0.768914 0.380535 0.328185 0.526357
-0.327275 -0.489802 0.512852 -0.215491 -0.322489 -0.921690 0.093336 0.228473
-0.905034 -0.905035 1.079805 -0.589251 -0.589251 -0.552751 0.192815 0.343839
-0.769669 -0.769669 0.846539 -0.502121 -0.502121 -0.704031 0.163426 0.306402
-0.769669 -0.769669 3.023490 -0.502121 -0.502121 0.704031 0.355106 0.651279
-0.905034 -0.905035 2.790225 -0.589251 -0.589251 0.552751 0.329728 0.609514
-0.604725 -0.604725 0.655102 -0.395795 -0.395795 -0.828639 0.129258 0.274901
-1.005620 -1.005621 2.524093 -0.653890 -0.653890 0.380535 0.306694 0.565418
-0.416542 -0.416542 0.512852 -0.274270 -0.274270 -0.921690 0.089727 0.251842
-1.067561 -1.067561 2.235324 -0.693655 -0.693655 0.193915 0.284976 0.520067
-0.212351 -0.212352 0.425255 -0.142094 -0.142094 -0.979583 0.045694 0.239842
-1.088476 -1.088476 1.935015 -0.707083 -0.707083 0.000000 0.263648 0.474352
-0.212351 -0.212352 3.444774 -0.142094 -0.142094 0.979583 0.456403 0.745883
-1.067561 -1.067561 1.634705 -0.693655 -0.693655 -0.193915 0.241820 0.429104
-0.416542 -0.416542 3.357177 -0.274270 -0.274270 0.921690 0.417519 0.721646
-1.005620 -1.005621 1.345936 -0.653890 -0.653890 -0.380535 0.218557 0.385230
-0.604725 -0.604725 3.214927 -0.395795 -0.395795 0.828639 0.383985 0.689294
-0.249698 -0.166844 0.425255 -0.167089 -0.111637 -0.979583 0.044090 0.251809
-1.279912 -0.855210 1.935015 -0.831446 -0.555559 0.000000 0.240872 0.517187
-1.255319 -0.838777 1.634705 -0.815668 -0.545000 -0.193915 0.219457 0.471628
-0.249699 -0.166844 3.444774 -0.167089 -0.111637 0.979583 0.454501 0.757760
-0.489801 -0.327275 3.357177 -0.322489 -0.215491 0.921690 0.411271 0.743647
-1.182485 -0.790112 1.345936 -0.768914 -0.513749 -0.380535 0.197489 0.426593
-0.711081 -0.475130 3.214927 -0.465407 -0.310984 0.828639 0.372779 0.718979
-1.064208 -0.711081 1.079805 -0.692892 -0.462966 -0.552751 0.174031 0.382997
-0.905035 -0.604725 3.023490 -0.590442 -0.394513 0.704031 0.339558 0.686380
-0.905035 -0.604725 0.846539 -0.590442 -0.394513 -0.704031 0.148036 0.341970
-1.064208 -0.711081 2.790225 -0.692892 -0.462966 0.552751 0.310887 0.648254
-0.711081 -0.475130 0.655102 -0.465407 -0.310984 -0.828639 0.118347 0.305009
-1.182485 -0.790112 2.524093 -0.768914 -0.513749 0.380535 0.285621 0.606474
-0.489801 -0.327275 0.512852 -0.322489 -0.215491 -0.921690 0.083866 0.274119
-1.255319 -0.838777 2.235324 -0.815668 -0.545000 0.193915 0.262621 0.562430
-1.005621 -0.416542 0.846539 -0.656056 -0.271737 -0.704031 0.131784 0.374991
-0.790111 -0.327275 0.655102 -0.517136 -0.214209 -0.828639 0.106026 0.332806
-1.182484 -0.489801 2.790225 -0.769890 -0.318888 0.552751 0.292108 0.688880
-1.313907 -0.544238 2.524093 -0.854366 -0.353862 0.380535 0.264269 0.648790
-0.544238 -0.225431 0.512852 -0.358348 -0.148412 -0.921690 0.076210 0.294814
-1.394835 -0.577760 2.235324 -0.906339 -0.375408 0.193915 0.239895 0.605269
-0.277450 -0.114924 0.425255 -0.185644 -0.076907 -0.979583 0.041069 0.263171
-1.422162 -0.589079 1.935015 -0.923856 -0.382672 0.000000 0.217763 0.559666
-0.277450 -0.114924 3.444774 -0.185644 -0.076907 0.979583 0.454196 0.769928
-1.394835 -0.577760 1.634705 -0.906339 -0.375408 -0.193915 0.196821 0.512999
-0.544238 -0.225431 3.357177 -0.358348 -0.148412 0.921690 0.407172 0.766843
-1.313907 -0.544238 1.345936 -0.854366 -0.353862 -0.380535 0.176129 0.466109
-0.790111 -0.327275 3.214927 -0.517136 -0.214209 0.828639 0.363175 0.750626
-1.182484 -0.489801 1.079805 -0.769890 -0.318888 -0.552751 0.154776 0.419806
-1.005621 -0.416542 3.023490 -0.656056 -0.271737 0.704031 0.324738 0.723664
-0.294540 -0.058588 3.444774 -0.197089 -0.039186 0.979583 0.455710 0.781943
-0.577760 -0.114924 3.357177 -0.380413 -0.075655 0.921690 0.405829 0.790666
-1.480749 -0.294540 1.634705 -0.962157 -0.191382 -0.193915 0.173172 0.552324
-1.394836 -0.277451 1.345936 -0.906980 -0.180395 -0.380535 0.153888 0.502999
-0.838777 -0.166844 3.214927 -0.548997 -0.109195 0.828639 0.355576 0.783799
-1.255319 -0.249699 1.079805 -0.817316 -0.162572 -0.552751 0.134660 0.453630
-1.067561 -0.212351 3.023490 -0.696493 -0.138524 0.704031 0.310436 0.762722
-1.067561 -0.212351 0.846539 -0.696493 -0.138524 -0.704031 0.114538 0.404958
-1.255319 -0.249699 2.790225 -0.817316 -0.162572 0.552751 0.272698 0.730840
-0.838777 -0.166844 0.655102 -0.548997 -0.109195 -0.828639 0.092453 0.357856
-1.394836 -0.277451 2.524093 -0.906980 -0.180395 0.380535 0.241737 0.691622
-0.577760 -0.114924 0.512852 -0.380413 -0.075655 -0.921690 0.067094 0.313495
-1.480749 -0.294540 2.235324 -0.962157 -0.191382 0.193915 0.215877 0.647697
-0.294539 -0.058588 0.425255 -0.197089 -0.039186 -0.979583 0.036846 0.273585
-1.509759 -0.300310 1.935015 -0.980773 -0.195074 0.000000 0.193471 0.600856
-1.279912 -0.000000 2.790225 -0.833338 0.000000 0.552751 0.251585 0.773556
-1.422162 -0.000000 2.524093 -0.924741 0.000000 0.380535 0.216762 0.734100
-0.855210 -0.000000 0.655102 -0.559771 0.000000 -0.828639 0.077754 0.379718
-0.589079 -0.000000 0.512852 -0.387860 0.000000 -0.921690 0.056779 0.329782
-1.509759 -0.000000 2.235324 -0.980987 0.000000 0.193915 0.189435 0.688663
-0.300310 -0.000000 0.425255 -0.200964 0.000000 -0.979583 0.031625 0.282757
-1.539337 -0.000000 1.935015 -1.000000 0.000000 0.000000 0.167088 0.639663
-0.300310 -0.000000 3.444774 -0.200964 0.000000 0.979583 0.459236 0.793309
-1.509759 -0.000000 1.634705 -0.980987 0.000000 -0.193915 0.147826 0.588583
-0.589079 -0.000000 3.357177 -0.387860 0.000000 0.921690 0.408125 0.814402
-1.422162 -0.000000 1.345936 -0.924741 0.000000 -0.380535 0.130283 0.536382
-0.855210 -0.000000 3.214927 -0.559771 0.000000 0.828639 0.350748 0.818023
-1.279912 -0.000000 1.079805 -0.833338 0.000000 -0.552751 0.113394 0.483759
-1.088476 -0.000000 3.023490 -0.710135 0.000000 0.704031 0.296368 0.803195
-1.088476 -0.000000 0.846539 -0.710135 0.000000 -0.704031 0.096217 0.431322
-1.480749 0.294539 1.634705 -0.962157 0.191382 -0.193915 0.120185 0.620565
-1.394836 0.277450 1.345936 -0.906980 0.180395 -0.380535 0.104958 0.565262
-0.577760 0.114923 3.357177 -0.380413 0.075655 0.921690 0.415313 0.837089
-0.838777 0.166843 3.214927 -0.548997 0.109195 0.828639 0.350257 0.852704
-1.255318 0.249698 1.079805 -0.817316 0.162572 -0.552751 0.090807 0.509420
-1.067561 0.212351 3.023490 -0.696493 0.138524 0.704031 0.282076 0.844758
-1.067561 0.212351 0.846539 -0.696493 0.138524 -0.704031 0.076804 0.453504
-1.255318 0.249698 2.790225 -0.817316 0.162572 0.552751 0.226883 0.816298
-0.838777 0.166843 0.655102 -0.548997 0.109195 -0.828639 0.062053 0.397962
-1.394836 0.277450 2.524093 -0.906980 0.180395 0.380535 0.187446 0.775028
-0.577760 0.114923 0.512852 -0.380413 0.075655 -0.921690 0.045488 0.343338
-1.480749 0.294539 2.235324 -0.962157 0.191382 0.193915 0.159155 0.726769
-0.294539 0.058587 0.425255 -0.197089 0.039186 -0.979583 0.025597 0.290438
-1.509759 0.300310 1.935015 -0.980773 0.195074 0.000000 0.137668 0.674719
-0.294540 0.058587 3.444774 -0.197089 0.039186 0.979583 0.464892 0.803479
-0.790111 0.327274 0.655102 -0.517136 0.214209 -0.828639 0.045503 0.412185
-0.544238 0.225430 0.512852 -0.358348 0.148412 -0.921690 0.033430 0.353871
-1.313907 0.544237 2.524093 -0.854366 0.353862 0.380535 0.150886 0.812509
-1.394835 0.577759 2.235324 -0.906339 0.375408 0.193915 0.123388 0.760042
-0.277450 0.114923 0.425255 -0.185644 0.076907 -0.979583 0.018946 0.296430
-1.422162 0.589079 1.935015 -0.923856 0.382672 0.000000 0.104367 0.704283
-0.277450 0.114923 3.444774 -0.185644 0.076907 0.979583 0.472647 0.811882
-1.394835 0.577759 1.634705 -0.906339 0.375408 -0.193915 0.089842 0.646857
-0.544238 0.225430 3.357177 -0.358348 0.148412 0.921690 0.429001 0.857373
-1.313907 0.544237 1.345936 -0.854366 0.353862 -0.380535 0.077747 0.588550
-0.790111 0.327274 3.214927 -0.517136 0.214209 0.828639 0.357598 0.886902
-1.182484 0.489801 1.079805 -0.769890 0.318888 -0.552751 0.066871 0.529808
-1.005620 0.416541 3.023490 -0.656056 0.271737 0.704031 0.266599 0.887110
-1.005620 0.416541 0.846539 -0.656056 0.271737 -0.704031 0.056370 0.470931
-1.182484 0.489801 2.790225 -0.769890 0.318888 0.552751 0.194810 0.857869
-0.489801 0.327274 3.357177 -0.322489 0.215491 0.921690 0.450667 0.873361
-0.711081 0.475129 3.214927 -0.465407 0.310984 0.828639 0.381392 0.918583
-1.182485 0.790111 1.345936 -0.768914 0.513749 -0.380535 0.048764 0.605156
-1.064207 0.711081 1.079805 -0.692892 0.462966 -0.552751 0.041740 0.544163
-0.905034 0.604724 3.023490 -0.590442 0.394513 0.704031 0.246905 0.929914
-0.905034 0.604724 0.846539 -0.590442 0.394513 -0.704031 0.035087 0.483088
-1.064207 0.711081 2.790225 -0.692892 0.462966 0.552751 0.146917 0.895652
-0.711081 0.475129 0.655102 -0.465407 0.310984 -0.828639 0.028295 0.422044
-1.182485 0.790111 2.524093 -0.768914 0.513749 0.380535 0.103143 0.843299
-0.489801 0.327274 0.512852 -0.322489 0.215491 -0.921690 0.020811 0.361150
-1.255318 0.838777 2.235324 -0.815668 0.545000 0.193915 0.080745 0.785746
-0.249698 0.166843 0.425255 -0.167089 0.111637 -0.979583 0.011848 0.300579
-1.279912 0.855210 1.935015 -0.831446 0.555559 0.000000 0.066803 0.726273
-0.249699 0.166843 3.444774 -0.167089 0.111637 0.979583 0.482246 0.817973
-1.255318 0.838777 1.634705 -0.815668 0.545000 -0.193915 0.056786 0.665933
-1.005620 1.005620 2.524093 -0.653890 0.653890 0.380535 0.041619 0.862280
-1.067560 1.067560 2.235324 -0.693655 0.693655 0.193915 0.031445 0.800605
-0.416541 0.416541 0.512852 -0.274270 0.274270 -0.921690 0.007844 0.365009
-0.212351 0.212351 0.425255 -0.142094 0.142094 -0.979583 0.004476 0.302781
-1.088475 1.088475 1.935015 -0.707083 0.707083 0.000000 0.025620 0.738576
-0.212351 0.212351 3.444774 -0.142094 0.142094 0.979583 0.493155 0.821304
-1.067560 1.067560 1.634705 -0.693655 0.693655 -0.193915 0.021605 0.676400
-0.416542 0.416541 3.357177 -0.274270 0.274270 0.921690 0.480103 0.882744
-1.005620 1.005620 1.345936 -0.653890 0.653890 -0.380535 0.018466 0.614153
-0.604725 0.604724 3.214927 -0.395795 0.395795 0.828639 0.441401 0.942032
-0.905034 0.905034 1.079805 -0.589251 0.589251 -0.552751 0.015761 0.551871
-0.769668 0.769668 3.023490 -0.502121 0.502121 0.704031 0.201945 0.972305
-0.769668 0.769668 0.846539 -0.502121 0.502121 -0.704031 0.013227 0.489575
-0.905034 0.905034 2.790225 -0.589251 0.589251 0.552751 0.066520 0.922739
-0.604724 0.604724 0.655102 -0.395795 0.395795 -0.828639 0.010659 0.427282
-0.905034 0.905034 1.079805 -0.589251 0.589251 -0.552751 1.015761 0.551871
-1.005620 1.005620 1.345936 -0.653890 0.653890 -0.380535 1.018466 0.614153
-0.790111 1.182484 1.345936 -0.513749 0.768914 -0.380535 0.987622 0.614974
-0.711080 1.064207 1.079805 -0.462966 0.692892 -0.552751 0.989438 0.552572
-0.769668 0.769668 3.023490 -0.502121 0.502121 0.704031 1.201945 0.972305
-0.475129 0.711081 3.214927 -0.310984 0.465407 0.828639 0.540639 0.944641
-0.604725 0.905034 3.023490 -0.394513 0.590442 0.704031 0.823760 0.980193
-0.769668 0.769668 0.846539 -0.502121 0.502121 -0.704031 1.013227 0.489575
-0.604725 0.905034 0.846539 -0.394513 0.590442 -0.704031 0.991138 0.490163
-0.905034 0.905034 2.790225 -0.589251 0.589251 0.552751 1.066520 0.922739
-0.711080 1.064207 2.790225 -0.462966 0.692892 0.552751 0.954389 0.925670
-0.604724 0.604724 0.655102 -0.395795 0.395795 -0.828639 1.010659 0.427282
-0.475129 0.711080 0.655102 -0.310984 0.465407 -0.828639 0.992859 0.427756
-1.005620 1.005620 2.524093 -0.653890 0.653890 0.380535 1.041619 0.862280
-0.790111 1.182484 2.524093 -0.513749 0.768914 0.380535 0.971915 0.864124
-0.416541 0.416541 0.512852 -0.274270 0.274270 -0.921690 1.007844 0.365009
-0.327274 0.489801 0.512852 -0.215491 0.322489 -0.921690 0.994745 0.365358
-1.067560 1.067560 2.235324 -0.693655 0.693655 0.193915 1.031445 0.800605
-0.838777 1.255318 2.235324 -0.545000 0.815668 0.193915 0.978864 0.802000
-0.212351 0.212351 0.425255 -0.142094 0.142094 -0.979583 1.004476 0.302781
-0.166843 0.249698 0.425255 -0.111637 0.167089 -0.979583 0.997001 0.302980
-1.088475 1.088475 1.935015 -0.707083 0.707083 0.000000 1.025620 0.738576
-0.855209 1.279912 1.935015 -0.555559 0.831446 0.000000 0.982806 0.739713
-0.166843 0.249698 3.444774 -0.111637 0.167089 0.979583 0.504596 0.821609
-1.067560 1.067560 1.634705 -0.693655 0.693655 -0.193915 1.021605 0.676400
-0.838777 1.255318 1.634705 -0.545000 0.815668 -0.193915 0.985512 0.677360
-0.327275 0.489801 3.357177 -0.215491 0.322489 0.921690 0.513418 0.883631
-0.225431 0.544237 0.512852 -0.148412 0.358348 -0.921690 0.981734 0.362189
-0.114924 0.277450 0.425255 -0.076907 0.185644 -0.979583 0.989595 0.301172
-0.577759 1.394835 2.235324 -0.375408 0.906339 0.193915 0.928538 0.789650
-0.589078 1.422161 1.935015 -0.382672 0.923856 0.000000 0.941103 0.729537
-0.114924 0.277450 3.444774 -0.076907 0.185644 0.979583 0.515678 0.818863
-0.577759 1.394835 1.634705 -0.375408 0.906339 -0.193915 0.950037 0.668725
-0.225431 0.544237 3.357177 -0.148412 0.358348 0.921690 0.544063 0.875816
-0.544238 1.313906 1.345936 -0.353862 0.854366 -0.380535 0.957148 0.607565
-0.327275 0.790110 3.214927 -0.214209 0.517136 0.828639 0.610452 0.924179
-0.489801 1.182484 1.079805 -0.318888 0.769890 -0.552751 0.963347 0.546231
-0.416541 1.005620 3.023490 -0.271737 0.656056 0.704031 0.758319 0.938392
-0.416541 1.005620 0.846539 -0.271737 0.656056 -0.704031 0.969203 0.484832
-0.489801 1.182484 2.790225 -0.318888 0.769890 0.552751 0.865775 0.902210
-0.327274 0.790110 0.655102 -0.214209 0.517136 -0.828639 0.975169 0.423453
-0.544238 1.313906 2.524093 -0.353862 0.854366 0.380535 0.907946 0.848183
-0.249698 1.255318 1.079805 -0.162572 0.817316 -0.552751 0.938015 0.533149
-0.212351 1.067561 0.846539 -0.138524 0.696493 -0.704031 0.947781 0.473770
-0.212351 1.067561 3.023490 -0.138524 0.696493 0.704031 0.736784 0.895557
-0.249698 1.255318 2.790225 -0.162572 0.817316 0.552751 0.813010 0.865775
-0.166843 0.838777 0.655102 -0.109195 0.548997 -0.828639 0.957856 0.414492
-0.277450 1.394835 2.524093 -0.180395 0.906980 0.380535 0.857541 0.819267
-0.114923 0.577759 0.512852 -0.075655 0.380413 -0.921690 0.969029 0.355576
-0.294539 1.480748 2.235324 -0.191382 0.962157 0.193915 0.884476 0.765829
-0.058587 0.294539 0.425255 -0.039186 0.197089 -0.979583 0.982429 0.297401
-0.300309 1.509758 1.935015 -0.195074 0.980773 0.000000 0.902730 0.709305
-0.058588 0.294539 3.444774 -0.039186 0.197089 0.979583 0.525587 0.813287
-0.294539 1.480748 1.634705 -0.191382 0.962157 -0.193915 0.916492 0.651252
-0.114923 0.577759 3.357177 -0.075655 0.380413 0.921690 0.567376 0.860947
-0.277450 1.394835 1.345936 -0.180395 0.906980 -0.380535 0.927857 0.592399
-0.166843 0.838777 3.214927 -0.109195 0.548997 0.828639 0.639429 0.893471
4 0 1 2 3
3 4 5 6
3 7 8 9
4 10 0 3 11
4 12 4 6 13
4 14 10 11 15
4 16 12 13 17
4 18 14 15 19
4 20 16 17 21
4 22 18 19 23
4 24 20 21 25
4 26 22 23 27
4 28 24 25 29
4 30 26 27 31
4 1 28 29 2
4 8 30 31 9
4 31 27 32 33
4 2 29 34 35
4 9 31 33 36
4 3 2 35 37
3 6 5 38
3 7 9 36
4 11 3 37 39
4 13 6 38 40
4 15 11 39 41
4 17 13 40 42
4 19 15 41 43
4 21 17 42 44
4 23 19 43 45
4 25 21 44 46
4 27 23 45 32
4 29 25 46 34
4 43 41 47 48
4 44 42 49 50
4 45 43 48 51
4 46 44 50 52
4 32 45 51 53
4 34 46 52 54
4 33 32 53 55
4 35 34 54 56
4 36 33 55 57
4 37 35 56 58
3 38 5 59
3 7 36 57
4 39 37 58 60
4 40 38 59 61
4 41 39 60 47
4 42 40 61 49
4 57 55 62 63
4 58 56 64 65
3 59 5 66
3 7 57 63
4 60 58 65 67
4 61 59 66 68
4 47 60 67 69
4 49 61 68 70
4 48 47 69 71
4 50 49 70 72
4 51 48 71 73
4 52 50 72 74
4 53 51 73 75
4 54 52 74 76
4 55 53 75 62
4 56 54 76 64
4 72 70 77 78
4 73 71 79 80
4 74 72 78 81
4 75 73 80 82
4 76 74 81 83
4 62 75 82 84
4 64 76 83 85
4 63 62 84 86
4 65 64 85 87
3 66 5 88
3 7 63 86
4 67 65 87 89
4 68 66 88 90
4 69 67 89 91
4 70 68 90 77
4 71 69 91 79
4 87 85 92 93
3 88 5 94
3 7 86 95
4 89 87 93 96
4 90 88 94 97
4 91 89 96 98
4 77 90 97 99
4 79 91 98 100
4 78 77 99 101
4 80 79 100 102
4 81 78 101 103
4 82 80 102 104
4 83 81 103 105
4 84 82 104 106
4 85 83 105 92
4 86 84 106 95
4 102 100 107 108
4 103 101 109 110
4 104 102 108 111
4 105 103 110 112
4 106 104 111 113
4 92 105 112 114
4 95 106 113 115
4 93 92 114 116
3 94 5 117
3 7 95 115
4 96 93 116 118
4 97 94 117 119
4 98 96 118 120
4 99 97 119 121
4 100 98 120 107
4 101 99 121 109
3 117 5 122
3 7 115 123
4 118 116 124 125
4 119 117 122 126
4 120 118 125 127
4 121 119 126 128
4 107 120 127 129
4 109 121 128 130
4 108 107 129 131
4 110 109 130 132
4 111 108 131 133
4 112 110 132 134
4 113 111 133 135
4 114 112 134 136
4 115 113 135 123
4 116 114 136 124
4 132 130 137 138
4 133 131 139 140
4 134 132 138 141
4 135 133 140 142
4 136 134 141 143
4 123 135 142 144
4 124 136 143 145
3 122 5 146
3 7 123 144
4 125 124 145 147
4 126 122 146 148
4 127 125 147 149
4 128 126 148 150
4 129 127 149 151
4 130 128 150 137
4 131 129 151 139
4 147 145 152 153
4 148 146 154 155
4 149 147 153 156
4 150 148 155 157
4 151 149 156 158
4 137 150 157 159
4 139 151 158 160
4 138 137 159 161
4 140 139 160 162
4 141 138 161 163
4 142 140 162 164
4 143 141 163 165
4 144 142 164 166
4 145 143 165 152
3 146 5 154
3 7 144 166
4 162 160 167 168
4 163 161 169 170
4 164 162 168 171
4 165 163 170 172
4 166 164 171 173
4 152 165 172 174
3 154 5 175
3 7 166 173
4 153 152 174 176
4 155 154 175 177
4 156 153 176 178
4 157 155 177 179
4 158 156 178 180
4 159 157 179 181
4 160 158 180 167
4 161 159 181 169
4 178 176 182 183
4 179 177 184 185
4 180 178 183 186
4 181 179 185 187
4 167 180 186 188
4 169 181 187 189
4 168 167 188 190
4 170 169 189 191
4 171 168 190 192
4 172 170 191 193
4 173 171 192 194
4 174 172 193 195
3 175 5 196
3 7 173 194
4 176 174 195 182
4 177 175 196 184
4 192 190 197 198
4 193 191 199 200
4 194 192 198 201
4 195 193 200 202
3 196 5 203
3 7 194 201
4 182 195 202 204
4 184 196 203 205
4 183 182 204 206
4 185 184 205 207
4 186 183 206 208
4 187 185 207 209
4 188 186 208 210
4 189 187 209 211
4 190 188 212 197
4 191 189 211 199
4 207 205 213 214
4 208 206 215 216
4 209 207 214 217
4 210 208 216 218
4 211 209 217 219
4 220 210 218 221
4 199 211 219 222
4 223 220 221 224
4 200 199 222 225
4 226 223 224 227
4 202 200 225 228
3 203 5 229
3 230 226 227
4 204 202 228 231
4 205 203 229 213
4 206 204 231 215
4 225 222 232 233
4 227 224 234 235
4 228 225 233 236
3 229 5 237
3 230 227 235
4 231 228 236 238
4 213 229 237 239
4 215 231 238 240
4 214 213 239 241
4 216 215 240 242
4 217 214 241 243
4 218 216 242 244
4 219 217 243 245
4 221 218 244 246
4 222 219 245 232
4 224 221 246 234
4 242 240 247 248
4 243 241 249 250
4 244 242 248 251
4 245 243 250 252
4 246 244 251 253
4 232 245 252 254
4 234 246 253 255
4 233 232 254 256
4 235 234 255 257
4 236 233 256 258
3 237 5 259
3 230 235 257
4 238 236 258 260
4 239 237 259 261
4 240 238 260 247
4 241 239 261 249
4 257 255 262 263
4 258 256 264 265
3 259 5 266
3 230 257 263
4 260 258 265 267
4 261 259 266 268
4 247 260 267 269
4 249 261 268 270
4 248 247 269 271
4 250 249 270 272
4 251 248 271 273
4 252 250 272 274
4 253 251 273 275
4 254 252 274 276
4 255 253 275 262
4 256 254 276 264
4 272 270 277 278
4 273 271 279 280
4 274 272 278 281
4 275 273 280 282
4 276 274 281 283
4 262 275 282 284
4 264 276 283 285
4 263 262 284 286
4 265 264 285 287
3 266 5 288
3 230 263 286
4 267 265 287 289
4 268 266 288 290
4 269 267 289 291
4 270 268 290 277
4 271 269 291 279
4 287 285 292 293
3 288 5 294
3 230 286 295
4 289 287 293 296
4 290 288 294 297
4 291 289 296 298
4 277 290 297 299
4 279 291 298 300
4 278 277 299 301
4 280 279 300 302
4 281 278 301 303
4 282 280 302 304
4 283 281 303 305
4 284 282 304 306
4 285 283 305 292
4 286 284 306 295
4 302 300 307 308
4 303 301 309 310
4 304 302 308 311
4 305 303 310 312
4 306 304 311 313
4 292 305 312 314
4 295 306 313 315
4 293 292 314 316
3 294 5 317
3 230 295 315
4 296 293 316 318
4 297 294 317 319
4 298 296 318 320
4 299 297 319 321
4 300 298 320 307
4 301 299 321 309
3 230 315 322
4 318 316 323 324
4 319 317 325 326
4 320 318 324 327
4 321 319 326 328
4 307 320 327 329
4 309 321 328 330
4 308 307 329 331
4 310 309 330 332
4 311 308 331 333
4 312 310 332 334
4 313 311 333 335
4 314 312 334 336
4 315 313 335 322
4 316 314 336 323
3 317 5 325
4 333 331 337 338
4 334 332 339 340
4 335 333 338 341
4 336 334 340 342
4 322 335 341 343
4 323 336 342 344
3 325 5 345
3 230 322 343
4 324 323 344 346
4 326 325 345 347
4 327 324 346 348
4 328 326 347 349
4 329 327 348 350
4 330 328 349 351
4 331 329 350 337
4 332 330 351 339
4 347 345 352 353
4 348 346 354 355
4 349 347 353 356
4 350 348 355 357
4 351 349 356 358
4 337 350 357 359
4 339 351 358 360
4 338 337 359 361
4 340 339 360 362
4 341 338 361 363
4 342 340 362 364
4 343 341 363 365
4 344 342 364 366
3 345 5 352
3 230 343 365
4 346 344 366 354
4 362 360 367 368
4 363 361 369 370
4 364 362 368 371
4 365 363 370 372
4 366 364 371 373
3 352 5 374
3 230 365 372
4 354 366 373 375
4 353 352 374 376
4 355 354 375 377
4 356 353 376 378
4 357 355 377 379
4 358 356 378 380
4 359 357 379 381
4 360 358 380 367
4 361 359 381 369
4 377 375 382 383
4 378 376 384 385
4 379 377 383 386
4 380 378 385 387
4 381 379 386 388
4 367 380 387 389
4 369 381 388 390
4 368 367 389 391
4 370 369 390 392
4 371 368 391 393
4 372 370 392 394
4 373 371 393 395
3 374 5 396
3 230 372 394
4 375 373 395 382
4 376 374 396 384
4 392 390 397 398
4 393 391 399 400
4 394 392 398 401
4 395 393 400 402
3 396 5 403
3 230 394 401
4 382 395 402 404
4 384 396 403 405
4 383 382 404 406
4 385 384 405 407
4 386 383 406 408
4 387 385 407 409
4 388 386 408 410
4 389 387 409 411
4 390 388 410 397
4 391 389 411 399
4 407 405 412 413
4 408 406 414 415
4 409 407 413 416
4 410 408 415 417
4 411 409 416 418
4 397 410 417 419
4 399 411 418 420
4 398 397 419 421
4 400 399 420 422
4 401 398 421 423
4 402 400 422 424
3 403 5 425
3 230 401 423
4 404 402 424 426
4 405 403 425 412
4 406 404 426 414
4 422 420 427 428
4 423 421 429 430
4 424 422 428 431
3 425 5 432
3 230 423 430
4 426 424 431 433
4 412 425 432 434
4 414 426 433 435
4 413 412 434 436
4 415 414 435 437
4 416 413 436 438
4 417 415 437 439
4 418 416 438 440
4 419 417 439 441
4 420 418 440 427
4 421 419 441 429
4 442 443 444 445
4 446 436 447 448
4 449 442 445 450
4 451 446 448 452
4 453 449 450 454
4 455 451 452 456
4 457 453 454 458
4 459 455 456 460
4 461 457 458 462
4 463 459 460 464
3 432 5 465
3 7 461 462
4 466 463 464 467
4 434 432 465 468
4 443 466 467 444
4 436 434 468 447
4 462 458 469 470
4 464 460 471 472
3 465 5 473
3 7 462 470
4 467 464 472 474
4 468 465 473 475
4 444 467 474 476
4 447 468 475 477
4 445 444 476 478
4 448 447 477 479
4 450 445 478 480
4 452 448 479 481
4 454 450 480 482
4 456 452 481 483
4 458 454 482 469
4 460 456 483 471
4 480 478 484 485
4 481 479 486 487
4 482 480 485 488
4 483 481 487 489
4 469 482 488 490
4 471 483 489 491
4 470 469 490 492
4 472 471 491 493
3 473 5 494
3 7 470 492
4 474 472 493 495
4 475 473 494 496
4 476 474 495 497
4 477 475 496 498
4 478 476 497 484
4 479 477 498 486
3 494 5 4
3 7 492 8
4 495 493 0 10
4 4 12 496 494
4 497 495 10 14
4 498 496 12 16
4 484 497 14 18
4 486 498 16 20
4 485 484 18 22
4 487 486 20 24
4 488 485 22 26
4 489 487 24 28
4 490 488 26 30
4 491 489 28 1
4 492 490 30 8
4 493 491 1 0
