ply
format ascii 1.0
comment Created by SmallLuxGPU exporter for Blender 2.5, source file: psor-cube.blend
element vertex 24
property float x
property float y
property float z
element face 12
property list uchar uint vertex_indices
end_header
0.517037 87.358551 50.540123
0.517037 86.327072 50.540123
-0.514438 86.327072 50.540123
-0.514438 87.358551 50.540123
0.517037 87.358551 51.571594
-0.514438 87.358551 51.571594
-0.514438 86.327072 51.571594
0.517037 86.327072 51.571594
0.517037 87.358551 50.540123
0.517037 87.358551 51.571594
0.517037 86.327072 51.571594
0.517037 86.327072 50.540123
0.517037 86.327072 50.540123
0.517037 86.327072 51.571594
-0.514438 86.327072 51.571594
-0.514438 86.327072 50.540123
-0.514438 86.327072 50.540123
-0.514438 86.327072 51.571594
-0.514438 87.358551 51.571594
-0.514438 87.358551 50.540123
0.517037 87.358551 51.571594
0.517037 87.358551 50.540123
-0.514438 87.358551 50.540123
-0.514438 87.358551 51.571594
3 0 1 2
3 0 2 3
3 4 5 6
3 4 6 7
3 8 9 10
3 8 10 11
3 12 13 14
3 12 14 15
3 16 17 18
3 16 18 19
3 20 21 22
3 20 22 23
