ply
format ascii 1.0
comment Created by Blender3D 248 - www.blender.org, source file: simple.blend
element vertex 92
property float x
property float y
property float z
property uchar red
property uchar green
property uchar blue
element face 42
property list uchar uint vertex_indices
end_header
-4.900000 4.900000 5.858243 44 0 255
-4.900002 -4.899998 5.858243 44 0 255
-4.900002 -4.899998 0.490000 44 0 255
-4.900000 4.900000 0.490000 44 0 255
-0.894658 1.109157 2.478389 255 0 0
-0.894658 1.109157 0.478389 255 0 0
-2.809938 0.533219 0.478389 255 0 0
-2.809938 0.533219 2.478389 255 0 0
-2.234000 -1.382060 0.478389 255 0 0
-2.234000 -1.382060 2.478389 255 0 0
-2.809938 0.533219 2.478389 255 0 0
-2.809938 0.533219 0.478389 255 0 0
-0.318721 -0.806123 0.478389 255 0 0
-0.318721 -0.806123 2.478389 255 0 0
-2.234000 -1.382060 0.478389 255 0 0
-2.234000 -1.382060 2.478389 255 0 0
-0.894658 1.109157 0.478389 255 0 0
-0.894658 1.109157 2.478389 255 0 0
-0.318721 -0.806123 0.478389 255 0 0
-0.894658 1.109157 2.478389 255 0 0
-0.318721 -0.806123 2.478389 255 0 0
-0.318721 -0.806123 0.478389 255 0 0
-0.894658 1.109157 2.478389 255 0 0
-2.809938 0.533219 2.478389 255 0 0
-0.318721 -0.806123 2.478389 255 0 0
-2.234000 -1.382060 2.478389 255 0 0
-0.894658 1.109157 0.478389 255 0 0
-0.318721 -0.806123 0.478389 255 0 0
-2.234000 -1.382060 0.478389 255 0 0
-2.809938 0.533219 0.478389 255 0 0
4.900002 4.899997 0.490000 255 255 255
4.900000 4.900000 -0.490000 255 255 255
-4.900000 4.900000 0.490000 255 255 255
-4.899998 4.900002 -0.490000 255 255 255
-4.900001 -4.899999 -0.490000 255 255 255
-4.900002 -4.899998 0.490000 255 255 255
-4.900000 4.900000 0.490000 255 255 255
-4.899998 4.900002 -0.490000 255 255 255
4.900000 -4.900000 -0.490000 255 255 255
4.899997 -4.900003 0.490000 255 255 255
-4.900001 -4.899999 -0.490000 255 255 255
4.899997 -4.900003 0.490000 255 255 255
-4.900002 -4.899998 0.490000 255 255 255
-4.900001 -4.899999 -0.490000 255 255 255
4.900000 4.900000 -0.490000 255 255 255
4.900002 4.899997 0.490000 255 255 255
4.900000 -4.900000 -0.490000 255 255 255
4.900002 4.899997 0.490000 255 255 255
4.899997 -4.900003 0.490000 255 255 255
4.900000 -4.900000 -0.490000 255 255 255
4.900002 4.899997 0.490000 255 255 255
-4.900000 4.900000 0.490000 255 255 255
4.899997 -4.900003 0.490000 255 255 255
-4.900002 -4.899998 0.490000 255 255 255
4.900000 4.900000 -0.490000 255 255 255
4.900000 -4.900000 -0.490000 255 255 255
-4.899998 4.900002 -0.490000 255 255 255
-4.900001 -4.899999 -0.490000 255 255 255
3.174175 2.106087 0.485360 0 223 34
2.086404 1.533089 0.485360 0 237 36
2.343791 2.363474 0.485360 0 226 37
2.916788 1.275702 0.485360 0 242 41
2.343791 2.363474 3.818913 0 239 39
2.086404 1.533089 3.818913 0 246 47
2.916788 1.275702 3.818913 0 249 48
3.174175 2.106087 3.818913 0 245 44
3.174175 2.106087 3.818913 0 245 44
2.916788 1.275702 3.818913 0 249 48
2.916788 1.275702 0.485360 0 242 41
3.174175 2.106087 0.485360 0 223 34
2.916788 1.275702 3.818913 0 249 48
2.086404 1.533089 3.818913 0 246 47
2.086404 1.533089 0.485360 0 237 36
2.916788 1.275702 0.485360 0 242 41
2.086404 1.533089 0.485360 0 237 36
2.343791 2.363474 3.818913 0 239 39
2.343791 2.363474 0.485360 0 226 37
2.086404 1.533089 3.818913 0 246 47
3.174175 2.106087 3.818913 0 245 44
2.343791 2.363474 0.485360 0 226 37
2.343791 2.363474 3.818913 0 239 39
3.174175 2.106087 0.485360 0 223 34
-4.900000 4.900000 0.490000 255 255 255
4.900002 4.899997 0.490000 255 255 255
4.900002 4.899997 0.490000 255 255 255
-4.900000 4.900000 0.490000 244 244 244
-4.900002 -4.899998 0.490000 255 255 255
-4.900002 -4.899998 0.490000 0 0 0
-4.900000 4.900000 0.490000 244 244 244
4.900002 4.899997 0.490000 255 255 255
4.900002 4.899997 5.858243 255 255 255
-4.900000 4.900000 5.858243 250 250 250
3 0 1 2 
3 0 2 3 
3 4 5 6 
3 4 6 7 
3 8 9 10 
3 8 10 11 
3 12 13 14 
3 13 15 14 
3 16 17 18 
3 19 20 21 
3 22 23 24 
3 23 25 24 
3 26 27 28 
3 26 28 29 
3 30 31 32 
3 31 33 32 
3 34 35 36 
3 34 36 37 
3 38 39 40 
3 41 42 43 
3 44 45 46 
3 47 48 49 
3 50 51 52 
3 51 53 52 
3 54 55 56 
3 55 57 56 
3 58 59 60 
3 58 61 59 
3 62 63 64 
3 65 62 64 
3 66 67 68 
3 69 66 68 
3 70 71 72 
3 73 70 72 
3 74 75 76 
3 74 77 75 
3 78 79 80 
3 78 81 79 
4 82 83 84 85 
4 86 82 85 87 
3 88 89 90 
3 88 90 91 
