ply
format ascii 1.0
comment Created by SmallLuxGPU exporter for Blender 2.5, source file: sky.blend
element vertex 482
property float x
property float y
property float z
element face 960
property list uchar uint vertex_indices
end_header
0.710427 0.521861 -0.003603
0.901769 0.559922 0.015611
0.905517 0.521862 0.015611
1.085757 0.596519 0.072517
1.093110 0.521862 0.072517
1.255322 0.630248 0.164927
1.265997 0.521862 0.164927
1.403947 0.659811 0.289290
1.417534 0.521862 0.289290
1.525920 0.684073 0.440827
1.541896 0.521862 0.440827
1.616555 0.702102 0.613713
1.634306 0.521862 0.613713
1.672367 0.713203 0.801306
1.691211 0.521862 0.801306
1.691213 0.716952 0.996397
1.710426 0.521862 0.996397
1.672367 0.713203 1.191487
1.691212 0.521862 1.191487
1.616555 0.702101 1.379080
1.634306 0.521862 1.379080
1.525920 0.684073 1.551967
1.541896 0.521862 1.551967
1.403947 0.659811 1.703503
1.417534 0.521862 1.703503
1.255322 0.630248 1.827866
1.265997 0.521862 1.827866
1.085758 0.596519 1.920276
1.093110 0.521862 1.920276
0.901769 0.559922 1.977182
0.905517 0.521862 1.977182
0.710427 0.521862 1.996397
0.890667 0.596519 1.977182
1.063981 0.668308 1.920276
1.223707 0.734469 1.827866
1.363709 0.792460 1.703503
1.478605 0.840051 1.551967
1.563981 0.875415 1.379080
1.616555 0.897192 1.191487
1.634307 0.904545 0.996397
1.616555 0.897192 0.801306
1.563981 0.875415 0.613713
1.478605 0.840051 0.440827
1.363709 0.792460 0.289290
1.223707 0.734469 0.164927
1.063981 0.668308 0.072517
0.890667 0.596519 0.015611
0.872639 0.630248 0.015611
1.028617 0.734469 0.072517
1.172367 0.830520 0.164927
1.298365 0.914709 0.289290
1.401769 0.983801 0.440827
1.478605 1.035141 0.613713
1.525920 1.066757 0.801306
1.541897 1.077432 0.996397
1.525920 1.066757 1.191487
1.478605 1.035141 1.379080
1.401769 0.983801 1.551967
1.298365 0.914709 1.703503
1.172367 0.830520 1.827866
1.028617 0.734469 1.920276
0.872639 0.630248 1.977182
0.848377 0.659811 1.977182
0.981025 0.792460 1.920276
1.103275 0.914709 1.827866
1.210427 1.021862 1.703503
1.298365 1.109799 1.551967
1.363709 1.175143 1.379080
1.403947 1.215381 1.191487
1.417534 1.228968 0.996397
1.403947 1.215381 0.801306
1.363709 1.175143 0.613713
1.298365 1.109799 0.440827
1.210427 1.021862 0.289290
1.103275 0.914709 0.164927
0.981025 0.792459 0.072517
0.848377 0.659811 0.015611
0.818814 0.684073 0.015611
0.923035 0.840051 0.072517
1.019085 0.983801 0.164927
1.103275 1.109799 0.289290
1.172367 1.213203 0.440827
1.223707 1.290039 0.613713
1.255322 1.337355 0.801306
1.265997 1.353331 0.996397
1.255322 1.337355 1.191487
1.223707 1.290039 1.379080
1.172367 1.213203 1.551967
1.103275 1.109799 1.703503
1.019086 0.983801 1.827866
0.923035 0.840051 1.920276
0.818814 0.684073 1.977182
0.785085 0.702101 1.977182
0.856874 0.875415 1.920276
0.923035 1.035141 1.827866
0.981025 1.175143 1.703503
1.028617 1.290039 1.551967
1.063981 1.375415 1.379080
1.085757 1.427989 1.191487
1.093111 1.445741 0.996397
1.085757 1.427989 0.801306
1.063981 1.375415 0.613713
1.028617 1.290039 0.440827
0.981025 1.175143 0.289290
0.923035 1.035141 0.164927
0.856874 0.875415 0.072517
0.785085 0.702101 0.015611
0.748487 0.713203 0.015611
0.785085 0.897192 0.072517
0.818814 1.066756 0.164927
0.848377 1.215381 0.289290
0.872639 1.337355 0.440827
0.890667 1.427989 0.613713
0.901769 1.483801 0.801306
0.905518 1.502647 0.996397
0.901769 1.483801 1.191487
0.890667 1.427989 1.379080
0.872639 1.337355 1.551967
0.848377 1.215381 1.703503
0.818814 1.066757 1.827866
0.785085 0.897192 1.920276
0.748487 0.713203 1.977182
0.710427 0.716952 1.977182
0.710427 0.904545 1.920276
0.710427 1.077432 1.827866
0.710427 1.228968 1.703503
0.710427 1.353331 1.551967
0.710427 1.445741 1.379080
0.710427 1.502646 1.191487
0.710427 1.521861 0.996397
0.710427 1.502647 0.801306
0.710427 1.445741 0.613713
0.710427 1.353331 0.440827
0.710427 1.228968 0.289290
0.710427 1.077432 0.164927
0.710427 0.904545 0.072517
0.710427 0.716952 0.015611
0.672367 0.713203 0.015611
0.635769 0.897192 0.072517
0.602041 1.066756 0.164927
0.572478 1.215381 0.289290
0.548216 1.337354 0.440827
0.530187 1.427989 0.613713
0.519086 1.483801 0.801306
0.515337 1.502646 0.996397
0.519086 1.483801 1.191487
0.530187 1.427989 1.379080
0.548216 1.337354 1.551967
0.572478 1.215381 1.703503
0.602041 1.066756 1.827866
0.635769 0.897192 1.920276
0.672367 0.713203 1.977182
0.635769 0.702101 1.977182
0.563981 0.875415 1.920276
0.497820 1.035141 1.827866
0.439829 1.175143 1.703503
0.392238 1.290039 1.551967
0.356874 1.375415 1.379080
0.335097 1.427989 1.191487
0.327744 1.445741 0.996397
0.335097 1.427989 0.801306
0.356874 1.375415 0.613713
0.392238 1.290039 0.440827
0.439829 1.175143 0.289290
0.497820 1.035141 0.164927
0.563981 0.875415 0.072517
0.635770 0.702101 0.015611
0.602041 0.684073 0.015611
0.497820 0.840051 0.072517
0.401769 0.983801 0.164927
0.317580 1.109799 0.289290
0.248488 1.213203 0.440827
0.197147 1.290039 0.613713
0.165532 1.337354 0.801306
0.154857 1.353331 0.996397
0.165532 1.337354 1.191487
0.197147 1.290039 1.379080
0.248488 1.213203 1.551967
0.317580 1.109799 1.703503
0.401769 0.983801 1.827866
0.497820 0.840051 1.920276
0.602041 0.684073 1.977182
0.572478 0.659811 1.977182
0.439829 0.792459 1.920276
0.317580 0.914709 1.827866
0.210427 1.021861 1.703503
0.122490 1.109799 1.551967
0.057146 1.175143 1.379080
0.016908 1.215381 1.191487
0.003321 1.228968 0.996397
0.016908 1.215381 0.801306
0.057146 1.175143 0.613713
0.122490 1.109799 0.440827
0.210427 1.021861 0.289290
0.317580 0.914709 0.164927
0.439829 0.792459 0.072517
0.572478 0.659811 0.015611
0.548216 0.630248 0.015611
0.392238 0.734469 0.072517
0.248488 0.830520 0.164927
0.122490 0.914709 0.289290
0.019086 0.983801 0.440827
-0.057750 1.035141 0.613713
-0.105066 1.066756 0.801306
-0.121042 1.077431 0.996397
-0.105066 1.066756 1.191487
-0.057750 1.035141 1.379080
0.019086 0.983801 1.551967
0.122490 0.914709 1.703503
0.248488 0.830520 1.827866
0.392238 0.734469 1.920276
0.548216 0.630248 1.977182
0.530187 0.596519 1.977182
0.356874 0.668308 1.920276
0.197147 0.734469 1.827866
0.057146 0.792459 1.703503
-0.057750 0.840051 1.551967
-0.143126 0.875415 1.379080
-0.195700 0.897192 1.191487
-0.213452 0.904545 0.996397
-0.195700 0.897192 0.801306
-0.143126 0.875415 0.613713
-0.057750 0.840051 0.440827
0.057146 0.792459 0.289290
0.197148 0.734469 0.164927
0.356874 0.668308 0.072517
0.530188 0.596519 0.015611
0.519086 0.559922 0.015611
0.335097 0.596519 0.072517
0.165532 0.630248 0.164927
0.016908 0.659811 0.289290
-0.105066 0.684073 0.440827
-0.195700 0.702101 0.613713
-0.251512 0.713203 0.801306
-0.270358 0.716952 0.996397
-0.251512 0.713203 1.191487
-0.195700 0.702101 1.379080
-0.105066 0.684073 1.551967
0.016908 0.659811 1.703503
0.165532 0.630248 1.827866
0.335097 0.596519 1.920276
0.519086 0.559922 1.977182
0.515337 0.521862 1.977182
0.327744 0.521861 1.920276
0.154857 0.521861 1.827866
0.003321 0.521861 1.703503
-0.121042 0.521861 1.551967
-0.213452 0.521861 1.379080
-0.270357 0.521861 1.191487
-0.289572 0.521861 0.996397
-0.270358 0.521861 0.801306
-0.213452 0.521861 0.613713
-0.121042 0.521861 0.440827
0.003321 0.521861 0.289290
0.154857 0.521861 0.164927
0.327744 0.521862 0.072517
0.515337 0.521862 0.015611
0.519086 0.483801 0.015611
0.335097 0.447204 0.072517
0.165533 0.413475 0.164927
0.016908 0.383912 0.289290
-0.105065 0.359650 0.440827
-0.195700 0.341622 0.613713
-0.251512 0.330520 0.801306
-0.270357 0.326771 0.996397
-0.251512 0.330520 1.191487
-0.195700 0.341622 1.379080
-0.105065 0.359650 1.551967
0.016908 0.383912 1.703503
0.165532 0.413475 1.827866
0.335097 0.447204 1.920276
0.519086 0.483801 1.977182
0.530187 0.447204 1.977182
0.356874 0.375415 1.920276
0.197148 0.309254 1.827866
0.057146 0.251264 1.703503
-0.057750 0.203672 1.551967
-0.143126 0.168308 1.379080
-0.195700 0.146531 1.191487
-0.213452 0.139178 0.996397
-0.195700 0.146531 0.801306
-0.143126 0.168308 0.613713
-0.057750 0.203672 0.440827
0.057146 0.251264 0.289290
0.197148 0.309254 0.164927
0.356874 0.375415 0.072517
0.530188 0.447204 0.015611
0.548216 0.413475 0.015611
0.392238 0.309254 0.072517
0.248488 0.213203 0.164927
0.122490 0.129014 0.289290
0.019086 0.059922 0.440827
-0.057750 0.008582 0.613713
-0.105065 -0.023033 0.801306
-0.121042 -0.033708 0.996397
-0.105065 -0.023033 1.191487
-0.057750 0.008582 1.379080
0.019086 0.059922 1.551967
0.122490 0.129014 1.703503
0.248488 0.213203 1.827866
0.392238 0.309254 1.920276
0.548216 0.413475 1.977182
0.572478 0.383912 1.977182
0.439829 0.251264 1.920276
0.317580 0.129014 1.827866
0.210428 0.021862 1.703503
0.122490 -0.066076 1.551967
0.057146 -0.131420 1.379080
0.016908 -0.171658 1.191487
0.003321 -0.185245 0.996397
0.016908 -0.171658 0.801306
0.057146 -0.131420 0.613713
0.122490 -0.066076 0.440827
0.210428 0.021862 0.289290
0.317580 0.129014 0.164927
0.439830 0.251264 0.072517
0.572478 0.383912 0.015611
0.602041 0.359650 0.015611
0.497820 0.203672 0.072517
0.401769 0.059922 0.164927
0.317580 -0.066076 0.289290
0.248488 -0.169480 0.440827
0.197148 -0.246316 0.613713
0.165533 -0.293631 0.801306
0.154858 -0.309608 0.996397
0.165533 -0.293631 1.191487
0.197148 -0.246316 1.379080
0.248488 -0.169480 1.551967
0.317580 -0.066076 1.703503
0.401769 0.059922 1.827866
0.497820 0.203672 1.920276
0.602041 0.359650 1.977182
0.635770 0.341622 1.977182
0.563981 0.168308 1.920276
0.497820 0.008582 1.827866
0.439829 -0.131420 1.703503
0.392238 -0.246316 1.551967
0.356874 -0.331691 1.379080
0.335097 -0.384265 1.191487
0.327744 -0.402017 0.996397
0.335097 -0.384265 0.801306
0.356874 -0.331691 0.613713
0.392238 -0.246316 0.440827
0.439829 -0.131420 0.289290
0.497820 0.008582 0.164927
0.563981 0.168309 0.072517
0.635770 0.341622 0.015611
0.672367 0.330520 0.015611
0.635770 0.146532 0.072517
0.602041 -0.023033 0.164927
0.572478 -0.171658 0.289290
0.548216 -0.293631 0.440827
0.530188 -0.384265 0.613713
0.519086 -0.440077 0.801306
0.515337 -0.458923 0.996397
0.519086 -0.440078 1.191487
0.530188 -0.384265 1.379080
0.548216 -0.293631 1.551967
0.572478 -0.171658 1.703503
0.602041 -0.023033 1.827866
0.635770 0.146531 1.920276
0.672367 0.330520 1.977182
0.710427 0.326771 1.977182
0.710427 0.139178 1.920276
0.710427 -0.033708 1.827866
0.710427 -0.185245 1.703503
0.710427 -0.309607 1.551967
0.710427 -0.402017 1.379080
0.710428 -0.458923 1.191487
0.710427 -0.478138 0.996397
0.710427 -0.458923 0.801306
0.710427 -0.402017 0.613713
0.710427 -0.309607 0.440827
0.710427 -0.185245 0.289290
0.710427 -0.033708 0.164927
0.710427 0.139179 0.072517
0.710427 0.326772 0.015611
0.748487 0.330520 0.015611
0.785085 0.146532 0.072517
0.818814 -0.023033 0.164927
0.848377 -0.171658 0.289290
0.872639 -0.293631 0.440827
0.890667 -0.384265 0.613713
0.901769 -0.440077 0.801306
0.905518 -0.458923 0.996397
0.901769 -0.440077 1.191487
0.890667 -0.384265 1.379080
0.872639 -0.293631 1.551967
0.848377 -0.171658 1.703503
0.818814 -0.023033 1.827866
0.785085 0.146532 1.920276
0.748488 0.330520 1.977182
0.785085 0.341622 1.977182
0.856874 0.168308 1.920276
0.923035 0.008582 1.827866
0.981025 -0.131419 1.703503
1.028617 -0.246315 1.551967
1.063981 -0.331691 1.379080
1.085757 -0.384265 1.191487
1.093111 -0.402017 0.996397
1.085757 -0.384265 0.801306
1.063981 -0.331691 0.613713
1.028617 -0.246315 0.440827
0.981025 -0.131419 0.289290
0.923035 0.008582 0.164927
0.856874 0.168309 0.072517
0.785085 0.341622 0.015611
0.818814 0.359650 0.015611
0.923035 0.203672 0.072517
1.019085 0.059922 0.164927
1.103275 -0.066076 0.289290
1.172367 -0.169479 0.440827
1.223707 -0.246315 0.613713
1.255322 -0.293631 0.801306
1.265997 -0.309607 0.996397
1.255322 -0.293631 1.191487
1.223707 -0.246315 1.379080
1.172367 -0.169479 1.551967
1.103275 -0.066076 1.703503
1.019085 0.059922 1.827866
0.923035 0.203672 1.920276
0.818814 0.359650 1.977182
0.848377 0.383912 1.977182
0.981025 0.251264 1.920276
1.103275 0.129014 1.827866
1.210427 0.021862 1.703503
1.298365 -0.066076 1.551967
1.363708 -0.131419 1.379080
1.403947 -0.171658 1.191487
1.417534 -0.185245 0.996397
1.403947 -0.171658 0.801306
1.363708 -0.131419 0.613713
1.298365 -0.066076 0.440827
1.210427 0.021862 0.289290
1.103274 0.129014 0.164927
0.981025 0.251264 0.072517
0.848377 0.383912 0.015611
0.872639 0.413475 0.015611
1.028617 0.309254 0.072517
1.172367 0.213204 0.164927
1.298365 0.129014 0.289290
1.401768 0.059922 0.440827
1.478605 0.008582 0.613713
1.525920 -0.023033 0.801306
1.541896 -0.033708 0.996397
1.525920 -0.023033 1.191487
1.478605 0.008582 1.379080
1.401768 0.059922 1.551967
1.298365 0.129014 1.703503
1.172367 0.213204 1.827866
1.028617 0.309254 1.920276
0.872639 0.413475 1.977182
0.890667 0.447204 1.977182
1.063980 0.375415 1.920276
1.223707 0.309254 1.827866
1.363708 0.251264 1.703503
1.478604 0.203672 1.551967
1.563980 0.168309 1.379080
1.616554 0.146532 1.191487
1.634306 0.139179 0.996397
1.616554 0.146532 0.801306
1.563980 0.168309 0.613713
1.478604 0.203672 0.440827
1.363708 0.251264 0.289290
1.223707 0.309254 0.164927
1.063980 0.375415 0.072517
0.890667 0.447204 0.015611
0.901769 0.483801 0.015611
1.085757 0.447204 0.072517
1.255322 0.413475 0.164927
1.403947 0.383912 0.289290
1.525920 0.359650 0.440827
1.616554 0.341622 0.613713
1.672366 0.330520 0.801306
1.691212 0.326772 0.996397
1.672366 0.330520 1.191487
1.616554 0.341622 1.379080
1.525920 0.359650 1.551967
1.403947 0.383912 1.703503
1.255322 0.413475 1.827866
1.085757 0.447204 1.920276
0.901769 0.483801 1.977182
3 0 1 2
3 2 1 3
3 2 3 4
3 4 3 5
3 4 5 6
3 6 5 7
3 6 7 8
3 8 7 9
3 8 9 10
3 10 9 11
3 10 11 12
3 12 11 13
3 12 13 14
3 14 13 15
3 14 15 16
3 16 15 17
3 16 17 18
3 18 17 19
3 18 19 20
3 20 19 21
3 20 21 22
3 22 21 23
3 22 23 24
3 24 23 25
3 24 25 26
3 26 25 27
3 26 27 28
3 28 27 29
3 28 29 30
3 29 31 30
3 32 31 29
3 27 33 32
3 27 32 29
3 25 34 33
3 25 33 27
3 23 35 34
3 23 34 25
3 21 36 35
3 21 35 23
3 19 37 36
3 19 36 21
3 17 38 37
3 17 37 19
3 15 39 38
3 15 38 17
3 13 40 39
3 13 39 15
3 11 41 40
3 11 40 13
3 9 42 41
3 9 41 11
3 7 43 42
3 7 42 9
3 5 44 43
3 5 43 7
3 3 45 44
3 3 44 5
3 1 46 45
3 1 45 3
3 0 46 1
3 0 47 46
3 46 47 48
3 46 48 45
3 45 48 49
3 45 49 44
3 44 49 50
3 44 50 43
3 43 50 51
3 43 51 42
3 42 51 52
3 42 52 41
3 41 52 53
3 41 53 40
3 40 53 54
3 40 54 39
3 39 54 55
3 39 55 38
3 38 55 56
3 38 56 37
3 37 56 57
3 37 57 36
3 36 57 58
3 36 58 35
3 35 58 59
3 35 59 34
3 34 59 60
3 34 60 33
3 33 60 61
3 33 61 32
3 61 31 32
3 62 31 61
3 60 63 62
3 60 62 61
3 59 64 63
3 59 63 60
3 58 65 64
3 58 64 59
3 57 66 65
3 57 65 58
3 56 67 66
3 56 66 57
3 55 68 67
3 55 67 56
3 54 69 68
3 54 68 55
3 53 70 69
3 53 69 54
3 52 71 70
3 52 70 53
3 51 72 71
3 51 71 52
3 50 73 72
3 50 72 51
3 49 74 73
3 49 73 50
3 48 75 74
3 48 74 49
3 47 76 75
3 47 75 48
3 0 76 47
3 0 77 76
3 76 77 78
3 76 78 75
3 75 78 79
3 75 79 74
3 74 79 80
3 74 80 73
3 73 80 81
3 73 81 72
3 72 81 82
3 72 82 71
3 71 82 83
3 71 83 70
3 70 83 84
3 70 84 69
3 69 84 85
3 69 85 68
3 68 85 86
3 68 86 67
3 67 86 87
3 67 87 66
3 66 87 88
3 66 88 65
3 65 88 89
3 65 89 64
3 64 89 90
3 64 90 63
3 63 90 91
3 63 91 62
3 91 31 62
3 92 31 91
3 90 93 92
3 90 92 91
3 89 94 93
3 89 93 90
3 88 95 94
3 88 94 89
3 87 96 95
3 87 95 88
3 86 97 96
3 86 96 87
3 85 98 97
3 85 97 86
3 84 99 98
3 84 98 85
3 83 100 99
3 83 99 84
3 82 101 100
3 82 100 83
3 81 102 101
3 81 101 82
3 80 103 102
3 80 102 81
3 79 104 103
3 79 103 80
3 78 105 104
3 78 104 79
3 77 106 105
3 77 105 78
3 0 106 77
3 0 107 106
3 106 107 108
3 106 108 105
3 105 108 109
3 105 109 104
3 104 109 110
3 104 110 103
3 103 110 111
3 103 111 102
3 102 111 112
3 102 112 101
3 101 112 113
3 101 113 100
3 100 113 114
3 100 114 99
3 99 114 115
3 99 115 98
3 98 115 116
3 98 116 97
3 97 116 117
3 97 117 96
3 96 117 118
3 96 118 95
3 95 118 119
3 95 119 94
3 94 119 120
3 94 120 93
3 93 120 121
3 93 121 92
3 121 31 92
3 122 31 121
3 120 123 122
3 120 122 121
3 119 124 123
3 119 123 120
3 118 125 124
3 118 124 119
3 117 126 125
3 117 125 118
3 116 127 126
3 116 126 117
3 115 128 127
3 115 127 116
3 114 129 128
3 114 128 115
3 113 130 129
3 113 129 114
3 112 131 130
3 112 130 113
3 111 132 131
3 111 131 112
3 110 133 132
3 110 132 111
3 109 134 133
3 109 133 110
3 108 135 134
3 108 134 109
3 107 136 135
3 107 135 108
3 0 136 107
3 0 137 136
3 136 137 138
3 136 138 135
3 135 138 139
3 135 139 134
3 134 139 140
3 134 140 133
3 133 140 141
3 133 141 132
3 132 141 142
3 132 142 131
3 131 142 143
3 131 143 130
3 130 143 144
3 130 144 129
3 129 144 145
3 129 145 128
3 128 145 146
3 128 146 127
3 127 146 147
3 127 147 126
3 126 147 148
3 126 148 125
3 125 148 149
3 125 149 124
3 124 149 150
3 124 150 123
3 123 150 151
3 123 151 122
3 151 31 122
3 152 31 151
3 150 153 152
3 150 152 151
3 149 154 153
3 149 153 150
3 148 155 154
3 148 154 149
3 147 156 155
3 147 155 148
3 146 157 156
3 146 156 147
3 145 158 157
3 145 157 146
3 144 159 158
3 144 158 145
3 143 160 159
3 143 159 144
3 142 161 160
3 142 160 143
3 141 162 161
3 141 161 142
3 140 163 162
3 140 162 141
3 139 164 163
3 139 163 140
3 138 165 164
3 138 164 139
3 137 166 165
3 137 165 138
3 0 166 137
3 0 167 166
3 166 167 168
3 166 168 165
3 165 168 169
3 165 169 164
3 164 169 170
3 164 170 163
3 163 170 171
3 163 171 162
3 162 171 172
3 162 172 161
3 161 172 173
3 161 173 160
3 160 173 174
3 160 174 159
3 159 174 175
3 159 175 158
3 158 175 176
3 158 176 157
3 157 176 177
3 157 177 156
3 156 177 178
3 156 178 155
3 155 178 179
3 155 179 154
3 154 179 180
3 154 180 153
3 153 180 181
3 153 181 152
3 181 31 152
3 182 31 181
3 180 183 182
3 180 182 181
3 179 184 183
3 179 183 180
3 178 185 184
3 178 184 179
3 177 186 185
3 177 185 178
3 176 187 186
3 176 186 177
3 175 188 187
3 175 187 176
3 174 189 188
3 174 188 175
3 173 190 189
3 173 189 174
3 172 191 190
3 172 190 173
3 171 192 191
3 171 191 172
3 170 193 192
3 170 192 171
3 169 194 193
3 169 193 170
3 168 195 194
3 168 194 169
3 167 196 195
3 167 195 168
3 0 196 167
3 0 197 196
3 196 197 198
3 196 198 195
3 195 198 199
3 195 199 194
3 194 199 200
3 194 200 193
3 193 200 201
3 193 201 192
3 192 201 202
3 192 202 191
3 191 202 203
3 191 203 190
3 190 203 204
3 190 204 189
3 189 204 205
3 189 205 188
3 188 205 206
3 188 206 187
3 187 206 207
3 187 207 186
3 186 207 208
3 186 208 185
3 185 208 209
3 185 209 184
3 184 209 210
3 184 210 183
3 183 210 211
3 183 211 182
3 211 31 182
3 212 31 211
3 210 213 212
3 210 212 211
3 209 214 213
3 209 213 210
3 208 215 214
3 208 214 209
3 207 216 215
3 207 215 208
3 206 217 216
3 206 216 207
3 205 218 217
3 205 217 206
3 204 219 218
3 204 218 205
3 203 220 219
3 203 219 204
3 202 221 220
3 202 220 203
3 201 222 221
3 201 221 202
3 200 223 222
3 200 222 201
3 199 224 223
3 199 223 200
3 198 225 224
3 198 224 199
3 197 226 225
3 197 225 198
3 0 226 197
3 0 227 226
3 226 227 228
3 226 228 225
3 225 228 229
3 225 229 224
3 224 229 230
3 224 230 223
3 223 230 231
3 223 231 222
3 222 231 232
3 222 232 221
3 221 232 233
3 221 233 220
3 220 233 234
3 220 234 219
3 219 234 235
3 219 235 218
3 218 235 236
3 218 236 217
3 217 236 237
3 217 237 216
3 216 237 238
3 216 238 215
3 215 238 239
3 215 239 214
3 214 239 240
3 214 240 213
3 213 240 241
3 213 241 212
3 241 31 212
3 242 31 241
3 240 243 242
3 240 242 241
3 239 244 243
3 239 243 240
3 238 245 244
3 238 244 239
3 237 246 245
3 237 245 238
3 236 247 246
3 236 246 237
3 235 248 247
3 235 247 236
3 234 249 248
3 234 248 235
3 233 250 249
3 233 249 234
3 232 251 250
3 232 250 233
3 231 252 251
3 231 251 232
3 230 253 252
3 230 252 231
3 229 254 253
3 229 253 230
3 228 255 254
3 228 254 229
3 227 256 255
3 227 255 228
3 0 256 227
3 0 257 256
3 256 257 258
3 256 258 255
3 255 258 259
3 255 259 254
3 254 259 260
3 254 260 253
3 253 260 261
3 253 261 252
3 252 261 262
3 252 262 251
3 251 262 263
3 251 263 250
3 250 263 264
3 250 264 249
3 249 264 265
3 249 265 248
3 248 265 266
3 248 266 247
3 247 266 267
3 247 267 246
3 246 267 268
3 246 268 245
3 245 268 269
3 245 269 244
3 244 269 270
3 244 270 243
3 243 270 271
3 243 271 242
3 271 31 242
3 272 31 271
3 270 273 272
3 270 272 271
3 269 274 273
3 269 273 270
3 268 275 274
3 268 274 269
3 267 276 275
3 267 275 268
3 266 277 276
3 266 276 267
3 265 278 277
3 265 277 266
3 264 279 278
3 264 278 265
3 263 280 279
3 263 279 264
3 262 281 280
3 262 280 263
3 261 282 281
3 261 281 262
3 260 283 282
3 260 282 261
3 259 284 283
3 259 283 260
3 258 285 284
3 258 284 259
3 257 286 285
3 257 285 258
3 0 286 257
3 0 287 286
3 286 287 288
3 286 288 285
3 285 288 289
3 285 289 284
3 284 289 290
3 284 290 283
3 283 290 291
3 283 291 282
3 282 291 292
3 282 292 281
3 281 292 293
3 281 293 280
3 280 293 294
3 280 294 279
3 279 294 295
3 279 295 278
3 278 295 296
3 278 296 277
3 277 296 297
3 277 297 276
3 276 297 298
3 276 298 275
3 275 298 299
3 275 299 274
3 274 299 300
3 274 300 273
3 273 300 301
3 273 301 272
3 301 31 272
3 302 31 301
3 300 303 302
3 300 302 301
3 299 304 303
3 299 303 300
3 298 305 304
3 298 304 299
3 297 306 305
3 297 305 298
3 296 307 306
3 296 306 297
3 295 308 307
3 295 307 296
3 294 309 308
3 294 308 295
3 293 310 309
3 293 309 294
3 292 311 310
3 292 310 293
3 291 312 311
3 291 311 292
3 290 313 312
3 290 312 291
3 289 314 313
3 289 313 290
3 288 315 314
3 288 314 289
3 287 316 315
3 287 315 288
3 0 316 287
3 0 317 316
3 316 317 318
3 316 318 315
3 315 318 319
3 315 319 314
3 314 319 320
3 314 320 313
3 313 320 321
3 313 321 312
3 312 321 322
3 312 322 311
3 311 322 323
3 311 323 310
3 310 323 324
3 310 324 309
3 309 324 325
3 309 325 308
3 308 325 326
3 308 326 307
3 307 326 327
3 307 327 306
3 306 327 328
3 306 328 305
3 305 328 329
3 305 329 304
3 304 329 330
3 304 330 303
3 303 330 331
3 303 331 302
3 331 31 302
3 332 31 331
3 330 333 332
3 330 332 331
3 329 334 333
3 329 333 330
3 328 335 334
3 328 334 329
3 327 336 335
3 327 335 328
3 326 337 336
3 326 336 327
3 325 338 337
3 325 337 326
3 324 339 338
3 324 338 325
3 323 340 339
3 323 339 324
3 322 341 340
3 322 340 323
3 321 342 341
3 321 341 322
3 320 343 342
3 320 342 321
3 319 344 343
3 319 343 320
3 318 345 344
3 318 344 319
3 317 346 345
3 317 345 318
3 0 346 317
3 0 347 346
3 346 347 348
3 346 348 345
3 345 348 349
3 345 349 344
3 344 349 350
3 344 350 343
3 343 350 351
3 343 351 342
3 342 351 352
3 342 352 341
3 341 352 353
3 341 353 340
3 340 353 354
3 340 354 339
3 339 354 355
3 339 355 338
3 338 355 356
3 338 356 337
3 337 356 357
3 337 357 336
3 336 357 358
3 336 358 335
3 335 358 359
3 335 359 334
3 334 359 360
3 334 360 333
3 333 360 361
3 333 361 332
3 361 31 332
3 362 31 361
3 360 363 362
3 360 362 361
3 359 364 363
3 359 363 360
3 358 365 364
3 358 364 359
3 357 366 365
3 357 365 358
3 356 367 366
3 356 366 357
3 355 368 367
3 355 367 356
3 354 369 368
3 354 368 355
3 353 370 369
3 353 369 354
3 352 371 370
3 352 370 353
3 351 372 371
3 351 371 352
3 350 373 372
3 350 372 351
3 349 374 373
3 349 373 350
3 348 375 374
3 348 374 349
3 347 376 375
3 347 375 348
3 0 376 347
3 0 377 376
3 376 377 378
3 376 378 375
3 375 378 379
3 375 379 374
3 374 379 380
3 374 380 373
3 373 380 381
3 373 381 372
3 372 381 382
3 372 382 371
3 371 382 383
3 371 383 370
3 370 383 384
3 370 384 369
3 369 384 385
3 369 385 368
3 368 385 386
3 368 386 367
3 367 386 387
3 367 387 366
3 366 387 388
3 366 388 365
3 365 388 389
3 365 389 364
3 364 389 390
3 364 390 363
3 363 390 391
3 363 391 362
3 391 31 362
3 392 31 391
3 390 393 392
3 390 392 391
3 389 394 393
3 389 393 390
3 388 395 394
3 388 394 389
3 387 396 395
3 387 395 388
3 386 397 396
3 386 396 387
3 385 398 397
3 385 397 386
3 384 399 398
3 384 398 385
3 383 400 399
3 383 399 384
3 382 401 400
3 382 400 383
3 381 402 401
3 381 401 382
3 380 403 402
3 380 402 381
3 379 404 403
3 379 403 380
3 378 405 404
3 378 404 379
3 377 406 405
3 377 405 378
3 0 406 377
3 0 407 406
3 406 407 408
3 406 408 405
3 405 408 409
3 405 409 404
3 404 409 410
3 404 410 403
3 403 410 411
3 403 411 402
3 402 411 412
3 402 412 401
3 401 412 413
3 401 413 400
3 400 413 414
3 400 414 399
3 399 414 415
3 399 415 398
3 398 415 416
3 398 416 397
3 397 416 417
3 397 417 396
3 396 417 418
3 396 418 395
3 395 418 419
3 395 419 394
3 394 419 420
3 394 420 393
3 393 420 421
3 393 421 392
3 421 31 392
3 422 31 421
3 420 423 422
3 420 422 421
3 419 424 423
3 419 423 420
3 418 425 424
3 418 424 419
3 417 426 425
3 417 425 418
3 416 427 426
3 416 426 417
3 415 428 427
3 415 427 416
3 414 429 428
3 414 428 415
3 413 430 429
3 413 429 414
3 412 431 430
3 412 430 413
3 411 432 431
3 411 431 412
3 410 433 432
3 410 432 411
3 409 434 433
3 409 433 410
3 408 435 434
3 408 434 409
3 407 436 435
3 407 435 408
3 0 436 407
3 0 437 436
3 436 437 438
3 436 438 435
3 435 438 439
3 435 439 434
3 434 439 440
3 434 440 433
3 433 440 441
3 433 441 432
3 432 441 442
3 432 442 431
3 431 442 443
3 431 443 430
3 430 443 444
3 430 444 429
3 429 444 445
3 429 445 428
3 428 445 446
3 428 446 427
3 427 446 447
3 427 447 426
3 426 447 448
3 426 448 425
3 425 448 449
3 425 449 424
3 424 449 450
3 424 450 423
3 423 450 451
3 423 451 422
3 451 31 422
3 452 31 451
3 450 453 452
3 450 452 451
3 449 454 453
3 449 453 450
3 448 455 454
3 448 454 449
3 447 456 455
3 447 455 448
3 446 457 456
3 446 456 447
3 445 458 457
3 445 457 446
3 444 459 458
3 444 458 445
3 443 460 459
3 443 459 444
3 442 461 460
3 442 460 443
3 441 462 461
3 441 461 442
3 440 463 462
3 440 462 441
3 439 464 463
3 439 463 440
3 438 465 464
3 438 464 439
3 437 466 465
3 437 465 438
3 0 466 437
3 0 467 466
3 466 467 468
3 466 468 465
3 465 468 469
3 465 469 464
3 464 469 470
3 464 470 463
3 463 470 471
3 463 471 462
3 462 471 472
3 462 472 461
3 461 472 473
3 461 473 460
3 460 473 474
3 460 474 459
3 459 474 475
3 459 475 458
3 458 475 476
3 458 476 457
3 457 476 477
3 457 477 456
3 456 477 478
3 456 478 455
3 455 478 479
3 455 479 454
3 454 479 480
3 454 480 453
3 453 480 481
3 453 481 452
3 481 31 452
3 30 31 481
3 480 28 30
3 480 30 481
3 479 26 28
3 479 28 480
3 478 24 26
3 478 26 479
3 477 22 24
3 477 24 478
3 476 20 22
3 476 22 477
3 475 18 20
3 475 20 476
3 474 16 18
3 474 18 475
3 473 14 16
3 473 16 474
3 472 12 14
3 472 14 473
3 471 10 12
3 471 12 472
3 470 8 10
3 470 10 471
3 469 6 8
3 469 8 470
3 468 4 6
3 468 6 469
3 467 2 4
3 467 4 468
3 0 2 467
