ply
format ascii 1.0
comment Created by Blender 2.80 (sub 75) - www.blender.org, source file: ''
element vertex 100
property float x
property float y
property float z
property float nx
property float ny
property float nz
property float s
property float t
element face 162
property list uchar uint vertex_indices
end_header
-2.320192 -2.320192 1.659653 0.000000 0.000000 1.000000 0.000100 0.000100
-1.804594 -2.320192 1.659653 0.000000 0.000000 1.000000 0.111189 0.000100
-1.804594 -1.804594 1.659653 0.000000 0.000000 1.000000 0.111189 0.111189
-2.320192 -1.804594 1.659653 -0.000000 0.000000 1.000000 0.000100 0.111189
-1.288996 -2.320192 1.659653 0.000000 0.000000 1.000000 0.222278 0.000100
-1.288996 -1.804594 1.659653 0.000000 0.000000 1.000000 0.222278 0.111189
-0.773397 -2.320192 1.659653 0.000000 0.000000 1.000000 0.333366 0.000100
-0.773397 -1.804594 1.659653 0.000000 0.000000 1.000000 0.333366 0.111189
-0.257799 -2.320192 1.659653 0.000000 0.000000 1.000000 0.444455 0.000100
-0.257799 -1.804594 1.659653 0.000000 0.000000 1.000000 0.444455 0.111189
0.257799 -2.320192 1.659653 0.000000 0.000000 1.000000 0.555544 0.000100
0.257799 -1.804594 1.659653 0.000000 0.000000 1.000000 0.555544 0.111189
0.773397 -2.320192 1.659653 0.000000 0.000000 1.000000 0.666633 0.000100
0.773397 -1.804594 1.659653 0.000000 0.000000 1.000000 0.666633 0.111189
1.288996 -2.320192 1.659653 0.000000 0.000000 1.000000 0.777722 0.000100
1.288996 -1.804594 1.659653 0.000000 0.000000 1.000000 0.777722 0.111189
1.804594 -2.320192 1.659653 0.000000 0.000000 1.000000 0.888811 0.000100
1.804594 -1.804594 1.659653 0.000000 0.000000 1.000000 0.888811 0.111189
2.320192 -2.320192 1.659653 0.000000 0.000000 1.000000 0.999900 0.000100
2.320192 -1.804594 1.659653 0.000000 0.000000 1.000000 0.999900 0.111189
-1.804594 -1.288996 1.659653 0.000000 0.000000 1.000000 0.111189 0.222278
-2.320192 -1.288996 1.659653 -0.000000 0.000000 1.000000 0.000100 0.222278
-1.288996 -1.288996 1.659653 0.000000 0.000000 1.000000 0.222278 0.222278
-0.773397 -1.288996 1.659653 0.000000 0.000000 1.000000 0.333367 0.222278
-0.257799 -1.288996 1.659653 0.000000 0.000000 1.000000 0.444455 0.222278
0.257799 -1.288996 1.659653 0.000000 0.000000 1.000000 0.555544 0.222278
0.773397 -1.288996 1.659653 0.000000 0.000000 1.000000 0.666633 0.222278
1.288996 -1.288996 1.659653 0.000000 0.000000 1.000000 0.777722 0.222278
1.804594 -1.288996 1.659653 0.000000 0.000000 1.000000 0.888811 0.222278
2.320192 -1.288996 1.659653 0.000000 0.000000 1.000000 0.999900 0.222278
-1.804594 -0.773397 1.659653 0.000000 0.000000 1.000000 0.111189 0.333367
-2.320192 -0.773397 1.659653 -0.000000 0.000000 1.000000 0.000100 0.333367
-1.288996 -0.773397 1.659653 0.000000 0.000000 1.000000 0.222278 0.333367
-0.773397 -0.773397 1.659653 0.000000 0.000000 1.000000 0.333367 0.333367
-0.257799 -0.773397 1.659653 0.000000 0.000000 1.000000 0.444455 0.333367
0.257799 -0.773397 1.659653 0.000000 0.000000 1.000000 0.555544 0.333367
0.773397 -0.773397 1.659653 0.000000 0.000000 1.000000 0.666633 0.333367
1.288996 -0.773397 1.659653 0.000000 0.000000 1.000000 0.777722 0.333367
1.804594 -0.773397 1.659653 0.000000 0.000000 1.000000 0.888811 0.333367
2.320192 -0.773397 1.659653 0.000000 0.000000 1.000000 0.999900 0.333367
-1.804594 -0.257799 1.659653 0.000000 0.000000 1.000000 0.111189 0.444456
-2.320192 -0.257799 1.659653 -0.000000 0.000000 1.000000 0.000100 0.444456
-1.288996 -0.257799 1.659653 0.000000 0.000000 1.000000 0.222278 0.444456
-0.773397 -0.257799 1.659653 0.000000 0.000000 1.000000 0.333367 0.444456
-0.257799 -0.257799 1.659653 0.000000 0.000000 1.000000 0.444455 0.444456
0.257799 -0.257799 1.659653 0.000000 0.000000 1.000000 0.555544 0.444456
0.773397 -0.257799 1.659653 0.000000 0.000000 1.000000 0.666633 0.444456
1.288996 -0.257799 1.659653 0.000000 0.000000 1.000000 0.777722 0.444456
1.804594 -0.257799 1.659653 0.000000 0.000000 1.000000 0.888811 0.444456
2.320192 -0.257799 1.659653 0.000000 0.000000 1.000000 0.999900 0.444456
-1.804594 0.257799 1.659653 0.000000 0.000000 1.000000 0.111189 0.555545
-2.320192 0.257799 1.659653 -0.000000 0.000000 1.000000 0.000100 0.555545
-1.288996 0.257799 1.659653 0.000000 0.000000 1.000000 0.222278 0.555545
-0.773397 0.257799 1.659653 0.000000 0.000000 1.000000 0.333367 0.555545
-0.257799 0.257799 1.659653 0.000000 0.000000 1.000000 0.444455 0.555545
0.257799 0.257799 1.659653 0.000000 0.000000 1.000000 0.555544 0.555545
0.773397 0.257799 1.659653 0.000000 0.000000 1.000000 0.666633 0.555545
1.288996 0.257799 1.659653 0.000000 0.000000 1.000000 0.777722 0.555544
1.804594 0.257799 1.659653 0.000000 0.000000 1.000000 0.888811 0.555544
2.320192 0.257799 1.659653 0.000000 0.000000 1.000000 0.999900 0.555544
-1.804594 0.773397 1.659653 0.000000 0.000000 1.000000 0.111189 0.666633
-2.320192 0.773397 1.659653 -0.000000 0.000000 1.000000 0.000100 0.666633
-1.288996 0.773397 1.659653 0.000000 0.000000 1.000000 0.222278 0.666633
-0.773397 0.773397 1.659653 0.000000 0.000000 1.000000 0.333367 0.666633
-0.257799 0.773397 1.659653 0.000000 0.000000 1.000000 0.444455 0.666633
0.257799 0.773397 1.659653 0.000000 0.000000 1.000000 0.555544 0.666633
0.773397 0.773397 1.659653 0.000000 0.000000 1.000000 0.666633 0.666633
1.288996 0.773397 1.659653 0.000000 0.000000 1.000000 0.777722 0.666633
1.804594 0.773397 1.659653 0.000000 0.000000 1.000000 0.888811 0.666633
2.320192 0.773397 1.659653 0.000000 0.000000 1.000000 0.999900 0.666633
-1.804594 1.288996 1.659653 0.000000 0.000000 1.000000 0.111189 0.777722
-2.320192 1.288996 1.659653 -0.000000 0.000000 1.000000 0.000100 0.777722
-1.288996 1.288996 1.659653 0.000000 0.000000 1.000000 0.222278 0.777722
-0.773397 1.288996 1.659653 0.000000 0.000000 1.000000 0.333367 0.777722
-0.257799 1.288996 1.659653 0.000000 0.000000 1.000000 0.444456 0.777722
0.257799 1.288996 1.659653 0.000000 0.000000 1.000000 0.555544 0.777722
0.773397 1.288996 1.659653 0.000000 0.000000 1.000000 0.666633 0.777722
1.288996 1.288996 1.659653 0.000000 0.000000 1.000000 0.777722 0.777722
1.804594 1.288996 1.659653 0.000000 0.000000 1.000000 0.888811 0.777722
2.320192 1.288996 1.659653 0.000000 0.000000 1.000000 0.999900 0.777722
-1.804594 1.804594 1.659653 0.000000 0.000000 1.000000 0.111189 0.888811
-2.320192 1.804594 1.659653 -0.000000 0.000000 1.000000 0.000100 0.888811
-1.288996 1.804594 1.659653 0.000000 0.000000 1.000000 0.222278 0.888811
-0.773397 1.804594 1.659653 0.000000 0.000000 1.000000 0.333367 0.888811
-0.257799 1.804594 1.659653 0.000000 0.000000 1.000000 0.444456 0.888811
0.257799 1.804594 1.659653 0.000000 0.000000 1.000000 0.555544 0.888811
0.773397 1.804594 1.659653 0.000000 0.000000 1.000000 0.666633 0.888811
1.288996 1.804594 1.659653 0.000000 0.000000 1.000000 0.777722 0.888811
1.804594 1.804594 1.659653 0.000000 0.000000 1.000000 0.888811 0.888811
2.320192 1.804594 1.659653 0.000000 0.000000 1.000000 0.999900 0.888811
-1.804594 2.320192 1.659653 0.000000 0.000000 1.000000 0.111189 0.999900
-2.320192 2.320192 1.659653 -0.000000 0.000000 1.000000 0.000100 0.999900
-1.288996 2.320192 1.659653 0.000000 0.000000 1.000000 0.222278 0.999900
-0.773397 2.320192 1.659653 0.000000 0.000000 1.000000 0.333367 0.999900
-0.257799 2.320192 1.659653 0.000000 0.000000 1.000000 0.444456 0.999900
0.257799 2.320192 1.659653 0.000000 0.000000 1.000000 0.555544 0.999900
0.773397 2.320192 1.659653 0.000000 0.000000 1.000000 0.666633 0.999900
1.288996 2.320192 1.659653 0.000000 0.000000 1.000000 0.777722 0.999900
1.804594 2.320192 1.659653 0.000000 0.000000 1.000000 0.888811 0.999900
2.320192 2.320192 1.659653 0.000000 0.000000 1.000000 0.999900 0.999900
3 0 1 2
3 0 2 3
3 1 4 5
3 1 5 2
3 4 6 7
3 4 7 5
3 6 8 9
3 6 9 7
3 8 10 11
3 8 11 9
3 10 12 13
3 10 13 11
3 12 14 15
3 12 15 13
3 14 16 17
3 14 17 15
3 16 18 19
3 16 19 17
3 3 2 20
3 3 20 21
3 2 5 22
3 2 22 20
3 5 7 23
3 5 23 22
3 7 9 24
3 7 24 23
3 9 11 25
3 9 25 24
3 11 13 26
3 11 26 25
3 13 15 27
3 13 27 26
3 15 17 28
3 15 28 27
3 17 19 29
3 17 29 28
3 21 20 30
3 21 30 31
3 20 22 32
3 20 32 30
3 22 23 33
3 22 33 32
3 23 24 34
3 23 34 33
3 24 25 35
3 24 35 34
3 25 26 36
3 25 36 35
3 26 27 37
3 26 37 36
3 27 28 38
3 27 38 37
3 28 29 39
3 28 39 38
3 31 30 40
3 31 40 41
3 30 32 42
3 30 42 40
3 32 33 43
3 32 43 42
3 33 34 44
3 33 44 43
3 34 35 45
3 34 45 44
3 35 36 46
3 35 46 45
3 36 37 47
3 36 47 46
3 37 38 48
3 37 48 47
3 38 39 49
3 38 49 48
3 41 40 50
3 41 50 51
3 40 42 52
3 40 52 50
3 42 43 53
3 42 53 52
3 43 44 54
3 43 54 53
3 44 45 55
3 44 55 54
3 45 46 56
3 45 56 55
3 46 47 57
3 46 57 56
3 47 48 58
3 47 58 57
3 48 49 59
3 48 59 58
3 51 50 60
3 51 60 61
3 50 52 62
3 50 62 60
3 52 53 63
3 52 63 62
3 53 54 64
3 53 64 63
3 54 55 65
3 54 65 64
3 55 56 66
3 55 66 65
3 56 57 67
3 56 67 66
3 57 58 68
3 57 68 67
3 58 59 69
3 58 69 68
3 61 60 70
3 61 70 71
3 60 62 72
3 60 72 70
3 62 63 73
3 62 73 72
3 63 64 74
3 63 74 73
3 64 65 75
3 64 75 74
3 65 66 76
3 65 76 75
3 66 67 77
3 66 77 76
3 67 68 78
3 67 78 77
3 68 69 79
3 68 79 78
3 71 70 80
3 71 80 81
3 70 72 82
3 70 82 80
3 72 73 83
3 72 83 82
3 73 74 84
3 73 84 83
3 74 75 85
3 74 85 84
3 75 76 86
3 75 86 85
3 76 77 87
3 76 87 86
3 77 78 88
3 77 88 87
3 78 79 89
3 78 89 88
3 81 80 90
3 81 90 91
3 80 82 92
3 80 92 90
3 82 83 93
3 82 93 92
3 83 84 94
3 83 94 93
3 84 85 95
3 84 95 94
3 85 86 96
3 85 96 95
3 86 87 97
3 86 97 96
3 87 88 98
3 87 98 97
3 88 89 99
3 88 99 98
