ply
format ascii 1.0
comment Created by Blender3D 249 - www.blender.org, source file: simple-mat.blend
element vertex 26
property float x
property float y
property float z
element face 12
property list uchar uint vertex_indices
end_header
-0.132824 -2.727822 2.717927 
-0.132824 -2.727822 1.493848 
-1.356904 -2.727822 2.717927 
-1.356903 -2.727822 1.493848 
-1.356904 -3.951901 1.493848 
-1.356904 -3.951901 2.717927 
-1.356904 -2.727822 2.717927 
-1.356903 -2.727822 1.493848 
-0.132824 -3.951901 1.493848 
-0.132825 -3.951901 2.717927 
-1.356904 -3.951901 1.493848 
-1.356904 -3.951901 2.717927 
-0.132824 -2.727822 1.493848 
-0.132824 -2.727822 2.717927 
-0.132824 -3.951901 1.493848 
-0.132824 -2.727822 2.717927 
-0.132825 -3.951901 2.717927 
-0.132824 -3.951901 1.493848 
-0.132824 -2.727822 2.717927 
-1.356904 -2.727822 2.717927 
-0.132825 -3.951901 2.717927 
-1.356904 -3.951901 2.717927 
-0.132824 -2.727822 1.493848 
-0.132824 -3.951901 1.493848 
-1.356903 -2.727822 1.493848 
-1.356904 -3.951901 1.493848 
3 0 1 2 
3 1 3 2 
3 4 5 6 
3 4 6 7 
3 8 9 10 
3 9 11 10 
3 12 13 14 
3 15 16 17 
3 18 19 20 
3 19 21 20 
3 22 23 24 
3 23 25 24 
