ply
format ascii 1.0
comment Created by Blender3D 249 - www.blender.org, source file: simple-mat.blend
element vertex 26
property float x
property float y
property float z
property float nx
property float ny
property float nz
property uchar red
property uchar green
property uchar blue
element face 12
property list uchar uint vertex_indices
end_header
-0.894658 1.109157 0.478389 0.000000 0.000000 -1.000000 255 0 0
-2.234000 -1.382060 0.478389 0.000000 0.000000 -1.000000 255 0 0
-2.809938 0.533219 0.478389 0.000000 0.000000 -1.000000 255 0 0
-0.318721 -0.806123 0.478389 0.000000 0.000000 -1.000000 255 0 0
-2.809938 0.533219 2.478389 0.000000 0.000000 1.000000 255 0 0
-2.234000 -1.382060 2.478389 0.000000 0.000000 1.000000 255 0 0
-0.318721 -0.806123 2.478389 0.000000 0.000000 1.000000 255 0 0
-0.894658 1.109157 2.478389 0.000000 -0.000000 1.000000 255 0 0
-0.894658 1.109157 2.478389 0.957640 0.287968 0.000000 255 0 0
-0.318721 -0.806123 2.478389 0.957640 0.287968 0.000000 255 0 0
-0.318721 -0.806123 0.478389 0.957640 0.287968 0.000000 255 0 0
-0.894658 1.109157 0.478389 0.957640 0.287969 -0.000000 255 0 0
-0.894658 1.109157 2.478389 0.957640 0.287969 -0.000000 255 0 0
-0.318721 -0.806123 0.478389 0.957640 0.287969 -0.000000 255 0 0
-0.318721 -0.806123 2.478389 0.287969 -0.957640 0.000000 255 0 0
-2.234000 -1.382060 2.478389 0.287969 -0.957640 0.000000 255 0 0
-2.234000 -1.382060 0.478389 0.287969 -0.957640 0.000000 255 0 0
-0.318721 -0.806123 0.478389 0.287969 -0.957640 -0.000000 255 0 0
-2.234000 -1.382060 0.478389 -0.957640 -0.287969 -0.000000 255 0 0
-2.809938 0.533219 2.478389 -0.957640 -0.287969 -0.000000 255 0 0
-2.809938 0.533219 0.478389 -0.957640 -0.287969 -0.000000 255 0 0
-2.234000 -1.382060 2.478389 -0.957640 -0.287969 -0.000000 255 0 0
-2.809938 0.533219 0.478389 -0.287969 0.957640 0.000000 255 0 0
-2.809938 0.533219 2.478389 -0.287969 0.957640 0.000000 255 0 0
-0.894658 1.109157 2.478389 -0.287969 0.957640 0.000000 255 0 0
-0.894658 1.109157 0.478389 -0.287969 0.957640 0.000000 255 0 0
3 0 1 2 
3 0 3 1 
3 4 5 6 
3 7 4 6 
3 8 9 10 
3 11 12 13 
3 14 15 16 
3 17 14 16 
3 18 19 20 
3 21 19 18 
3 22 23 24 
3 24 25 22 
