ply
format ascii 1.0
comment Created by Blender3D 249 - www.blender.org, source file: simple-mat.blend
element vertex 6
property float x
property float y
property float z
property float nx
property float ny
property float nz
property uchar red
property uchar green
property uchar blue
element face 2
property list uchar uint vertex_indices
end_header
2.596576 -5.899560 5.319345 -0.171184 0.518699 -0.837644 255 255 255
1.720423 -6.188713 5.319345 -0.171184 0.518699 -0.837644 255 255 255
1.478216 -5.454809 5.823303 -0.171184 0.518699 -0.837644 255 255 255
1.478216 -5.454809 5.823303 -0.171184 0.518698 -0.837644 255 255 255
2.354369 -5.165656 5.823303 -0.171184 0.518698 -0.837644 255 255 255
2.596576 -5.899560 5.319345 -0.171184 0.518698 -0.837644 255 255 255
3 0 1 2 
3 3 4 5 
