ply
format ascii 1.0
comment Created by Blender3D 249 - www.blender.org, source file: simple-mat.blend
element vertex 24
property float x
property float y
property float z
property float nx
property float ny
property float nz
property uchar red
property uchar green
property uchar blue
element face 12
property list uchar uint vertex_indices
end_header
3.174175 2.106087 3.818913 0.296065 0.955168 0.000000 0 245 44
3.174175 2.106087 0.485360 0.296065 0.955168 0.000000 0 223 34
2.343791 2.363474 0.485360 0.296065 0.955168 0.000000 0 226 37
2.343791 2.363474 3.818913 0.296065 0.955168 0.000000 0 239 39
2.086404 1.533089 0.485360 -0.955168 0.296065 -0.000000 0 237 36
2.086404 1.533089 3.818913 -0.955168 0.296065 -0.000000 0 246 47
2.343791 2.363474 3.818913 -0.955168 0.296065 -0.000000 0 239 39
2.343791 2.363474 0.485360 -0.955168 0.296065 0.000000 0 226 37
2.916788 1.275702 0.485360 -0.296065 -0.955168 -0.000000 0 242 41
2.916788 1.275702 3.818913 -0.296065 -0.955168 -0.000000 0 249 48
2.086404 1.533089 0.485360 -0.296065 -0.955168 -0.000000 0 237 36
2.086404 1.533089 3.818913 -0.296065 -0.955168 0.000000 0 246 47
3.174175 2.106087 0.485360 0.955168 -0.296065 -0.000000 0 223 34
3.174175 2.106087 3.818913 0.955168 -0.296065 -0.000000 0 245 44
2.916788 1.275702 0.485360 0.955168 -0.296065 -0.000000 0 242 41
2.916788 1.275702 3.818913 0.955168 -0.296065 0.000000 0 249 48
3.174175 2.106087 3.818913 -0.000000 -0.000000 1.000000 0 245 44
2.343791 2.363474 3.818913 -0.000000 -0.000000 1.000000 0 239 39
2.916788 1.275702 3.818913 -0.000000 -0.000000 1.000000 0 249 48
2.086404 1.533089 3.818913 0.000000 -0.000000 1.000000 0 246 47
3.174175 2.106087 0.485360 0.000000 0.000000 -1.000000 0 223 34
2.916788 1.275702 0.485360 0.000000 0.000000 -1.000000 0 242 41
2.086404 1.533089 0.485360 0.000000 0.000000 -1.000000 0 237 36
2.343791 2.363474 0.485360 0.000000 -0.000000 -1.000000 0 226 37
3 0 1 2 
3 0 2 3 
3 4 5 6 
3 4 6 7 
3 8 9 10 
3 9 11 10 
3 12 13 14 
3 13 15 14 
3 16 17 18 
3 17 19 18 
3 20 21 22 
3 20 22 23 
