ply
format ascii 1.0
comment Created by Blender3D 249 - www.blender.org, source file: simple-mat.blend
element vertex 162
property float x
property float y
property float z
property float nx
property float ny
property float nz
property uchar red
property uchar green
property uchar blue
element face 320
property list uchar uint vertex_indices
end_header
2.127028 -2.679221 1.306284 0.350017 -0.587725 -0.729423 255 255 255
2.222321 -2.746135 1.443831 0.523881 -0.686819 -0.503769 255 255 255
2.064573 -2.818882 1.431199 0.262856 -0.808985 -0.525712 255 255 255
2.275627 -2.582068 1.337215 0.604358 -0.439100 -0.664754 255 255 255
2.167127 -2.503239 1.226084 0.425306 -0.309000 -0.850642 255 255 255
2.355425 -2.640044 1.480769 0.723594 -0.525712 -0.447218 255 255 255
1.985869 -2.576663 1.198449 0.141789 -0.436445 -0.888455 255 255 255
1.931953 -2.742606 1.306284 0.062288 -0.681204 -0.729423 255 255 255
1.796072 -2.623805 1.226084 -0.162450 -0.499985 -0.850642 255 255 255
1.754629 -2.751354 1.337215 -0.230842 -0.710471 -0.664754 255 255 255
1.894192 -2.852752 1.443831 -0.020112 -0.863582 -0.503769 255 255 255
1.724150 -2.845161 1.480769 -0.276376 -0.850642 -0.447218 255 255 255
1.845321 -2.472229 1.155832 -0.080477 -0.247719 -0.965453 255 255 255
2.038189 -2.409561 1.155832 0.210730 -0.153081 -0.965453 255 255 255
1.898628 -2.308165 1.131804 0.000000 0.000000 -1.000000 255 255 255
2.322104 -2.410722 1.306285 0.667104 -0.151250 -0.729423 255 255 255
2.435628 -2.308165 1.431200 0.850642 0.000000 -0.525712 255 255 255
2.415190 -2.480671 1.443832 0.815088 -0.285989 -0.503769 255 255 255
2.180944 -2.308165 1.198450 0.458907 0.000000 -0.888455 255 255 255
2.322104 -2.205609 1.306285 0.667104 0.151250 -0.729423 255 255 255
2.167127 -2.113091 1.226084 0.425306 0.309000 -0.850642 255 255 255
2.275627 -2.034262 1.337215 0.604358 0.439100 -0.664754 255 255 255
2.355425 -1.976286 1.480769 0.723594 0.525712 -0.447218 255 255 255
2.415190 -2.135659 1.443832 0.815088 0.285989 -0.503769 255 255 255
2.038189 -2.206769 1.155832 0.210730 0.153081 -0.965453 255 255 255
1.616310 -2.640049 1.306284 -0.450789 -0.514481 -0.729423 255 255 255
1.582118 -2.751354 1.443831 -0.491317 -0.710471 -0.503769 255 255 255
1.464184 -2.623806 1.431200 -0.688162 -0.499985 -0.525712 255 255 255
1.670228 -2.474107 1.198450 -0.371258 -0.269723 -0.888455 255 255 255
1.495745 -2.474107 1.306286 -0.628620 -0.269723 -0.729423 255 255 255
1.566742 -2.308165 1.226086 -0.525712 0.000000 -0.850642 255 255 255
1.432630 -2.308165 1.337218 -0.747032 0.000000 -0.664754 255 255 255
1.379322 -2.472230 1.443833 -0.827540 -0.247719 -0.503769 255 255 255
1.333991 -2.308165 1.480769 -0.894406 0.000000 -0.447188 255 255 255
1.726119 -2.308165 1.155832 -0.260475 0.000000 -0.965453 255 255 255
1.495745 -2.142223 1.306286 -0.628620 0.269723 -0.729423 255 255 255
1.379322 -2.144100 1.443833 -0.827540 0.247719 -0.503769 255 255 255
1.464184 -1.992525 1.431200 -0.688162 0.499985 -0.525712 255 255 255
1.670228 -2.142224 1.198450 -0.371258 0.269723 -0.888455 255 255 255
1.616310 -1.976282 1.306284 -0.450789 0.514481 -0.729423 255 255 255
1.796072 -1.992526 1.226084 -0.162450 0.499985 -0.850642 255 255 255
1.754629 -1.864977 1.337215 -0.230842 0.710471 -0.664754 255 255 255
1.582118 -1.864976 1.443831 -0.491317 0.710471 -0.503769 255 255 255
1.724150 -1.771169 1.480769 -0.276376 0.850642 -0.447218 255 255 255
1.845321 -2.144101 1.155832 -0.080477 0.247719 -0.965453 255 255 255
1.931953 -1.873724 1.306284 0.062288 0.681204 -0.729423 255 255 255
1.894192 -1.763578 1.443831 -0.020112 0.863582 -0.503769 255 255 255
2.064573 -1.797448 1.431199 0.262856 0.808985 -0.525712 255 255 255
1.985869 -2.039667 1.198449 0.141789 0.436445 -0.888455 255 255 255
2.127028 -1.937109 1.306284 0.350017 0.587725 -0.729423 255 255 255
2.222321 -1.870195 1.443831 0.523881 0.686819 -0.503769 255 255 255
2.496589 -2.410722 1.588605 0.950743 -0.151250 -0.270486 255 255 255
2.499016 -2.503240 1.763089 0.951048 -0.309000 0.000000 255 255 255
2.448139 -2.582069 1.616343 0.864834 -0.439100 -0.243294 255 255 255
2.496589 -2.205608 1.588605 0.950743 0.151250 -0.270486 255 255 255
2.529912 -2.308165 1.763089 0.999908 0.000000 -0.013123 255 255 255
2.499016 -2.113090 1.763089 0.951048 0.309000 0.000000 255 255 255
2.504189 -2.206768 1.909835 0.957793 0.153081 0.243263 255 255 255
2.463264 -2.308165 2.045409 0.894406 0.000000 0.447188 255 255 255
2.504189 -2.409562 1.909835 0.957793 -0.153081 0.243263 255 255 255
2.448139 -2.034261 1.616343 0.864834 0.439100 -0.243294 255 255 255
1.985870 -2.908552 1.588604 0.149937 -0.950957 -0.270486 255 255 255
1.898628 -2.939450 1.763089 0.000000 -1.000000 0.000000 255 255 255
1.807936 -2.915422 1.616343 -0.150334 -0.958220 -0.243294 255 255 255
2.180948 -2.845166 1.588604 0.437666 -0.857479 -0.270486 255 255 255
2.093705 -2.908552 1.763089 0.308969 -0.950957 -0.013123 255 255 255
2.269688 -2.818885 1.763089 0.587756 -0.809015 0.000000 255 255 255
2.182191 -2.852755 1.909836 0.441572 -0.863582 0.243294 255 255 255
2.073105 -2.845161 2.045409 0.276376 -0.850642 0.447218 255 255 255
1.989319 -2.915422 1.909835 0.150334 -0.958220 0.243294 255 255 255
2.328937 -2.746137 1.616343 0.684866 -0.686819 -0.243294 255 255 255
1.354584 -2.576664 1.588604 -0.858089 -0.436445 -0.270486 255 255 255
1.298239 -2.503240 1.763089 -0.951048 -0.309000 0.000000 255 255 255
1.293066 -2.409562 1.616344 -0.957793 -0.153081 -0.243263 255 255 255
1.475149 -2.742609 1.588605 -0.680258 -0.681204 -0.270486 255 255 255
1.387907 -2.679224 1.763089 -0.808924 -0.587725 -0.013123 255 255 255
1.527567 -2.818885 1.763089 -0.587756 -0.809015 0.000000 255 255 255
1.468318 -2.746137 1.909835 -0.684866 -0.686819 0.243294 255 255 255
1.441830 -2.640044 2.045409 -0.723594 -0.525712 0.447218 255 255 255
1.349116 -2.582069 1.909835 -0.864834 -0.439100 0.243294 255 255 255
1.615064 -2.852755 1.616343 -0.441572 -0.863582 -0.243294 255 255 255
1.475149 -1.873721 1.588605 -0.680258 0.681204 -0.270486 255 255 255
1.527567 -1.797445 1.763089 -0.587756 0.809015 0.000000 255 255 255
1.615064 -1.763576 1.616343 -0.441572 0.863582 -0.243294 255 255 255
1.354584 -2.039666 1.588604 -0.858089 0.436445 -0.270486 255 255 255
1.387907 -1.937106 1.763089 -0.808924 0.587725 -0.013123 255 255 255
1.298239 -2.113090 1.763089 -0.951048 0.309000 0.000000 255 255 255
1.349116 -2.034261 1.909835 -0.864834 0.439100 0.243294 255 255 255
1.441830 -1.976286 2.045409 -0.723594 0.525712 0.447218 255 255 255
1.468318 -1.870193 1.909835 -0.684866 0.686819 0.243294 255 255 255
1.293066 -2.206768 1.616344 -0.957793 0.153081 -0.243263 255 255 255
2.180948 -1.771164 1.588604 0.437666 0.857479 -0.270486 255 255 255
2.269688 -1.797445 1.763089 0.587756 0.809015 0.000000 255 255 255
2.328937 -1.870193 1.616343 0.684866 0.686819 -0.243294 255 255 255
1.985870 -1.707778 1.588604 0.149937 0.950957 -0.270486 255 255 255
2.093705 -1.707778 1.763089 0.308969 0.950957 -0.013123 255 255 255
1.898628 -1.676880 1.763089 0.000000 1.000000 0.000000 255 255 255
1.989319 -1.700908 1.909835 0.150334 0.958220 0.243294 255 255 255
2.073105 -1.771169 2.045409 0.276376 0.850642 0.447218 255 255 255
2.182191 -1.763576 1.909836 0.441572 0.863582 0.243294 255 255 255
1.807936 -1.700908 1.616343 -0.150334 0.958220 -0.243294 255 255 255
2.442671 -2.576664 1.937574 0.858089 -0.436445 0.270486 255 255 255
2.417933 -2.472230 2.082345 0.827540 -0.247719 0.503769 255 255 255
2.333071 -2.623806 2.094978 0.688162 -0.499985 0.525712 255 255 255
2.409348 -2.679224 1.763089 0.808924 -0.587725 0.013123 255 255 255
2.322106 -2.742609 1.937574 0.680258 -0.681204 0.270486 255 255 255
2.215137 -2.751354 2.082347 0.491317 -0.710471 0.503769 255 255 255
1.811385 -2.908552 1.937574 -0.149937 -0.950957 0.270486 255 255 255
1.903063 -2.852752 2.082347 0.020112 -0.863582 0.503769 255 255 255
1.732682 -2.818882 2.094979 -0.262856 -0.808985 0.525712 255 255 255
1.703550 -2.908552 1.763089 -0.308969 -0.950957 0.013123 255 255 255
1.616307 -2.845166 1.937574 -0.437666 -0.857479 0.270486 255 255 255
1.574934 -2.746135 2.082347 -0.523881 -0.686819 0.503769 255 255 255
1.300666 -2.410722 1.937574 -0.950743 -0.151250 0.270486 255 255 255
1.382065 -2.480671 2.082346 -0.815088 -0.285989 0.503769 255 255 255
1.361627 -2.308165 2.094978 -0.850642 0.000000 0.525712 255 255 255
1.267343 -2.308165 1.763089 -0.999908 0.000000 0.013123 255 255 255
1.300666 -2.205608 1.937574 -0.950743 0.151250 0.270486 255 255 255
1.382065 -2.135659 2.082346 -0.815088 0.285989 0.503769 255 255 255
1.616307 -1.771164 1.937574 -0.437666 0.857479 0.270486 255 255 255
1.574934 -1.870195 2.082347 -0.523881 0.686819 0.503769 255 255 255
1.732682 -1.797448 2.094979 -0.262856 0.808985 0.525712 255 255 255
1.703550 -1.707778 1.763089 -0.308969 0.950957 0.013123 255 255 255
1.811385 -1.707778 1.937574 -0.149937 0.950957 0.270486 255 255 255
1.903063 -1.763578 2.082347 0.020112 0.863582 0.503769 255 255 255
2.322106 -1.873721 1.937574 0.680258 0.681204 0.270486 255 255 255
2.215137 -1.864976 2.082347 0.491317 0.710471 0.503769 255 255 255
2.333071 -1.992525 2.094978 0.688162 0.499985 0.525712 255 255 255
2.409348 -1.937106 1.763089 0.808924 0.587725 0.013123 255 255 255
2.442671 -2.039666 1.937574 0.858089 0.436445 0.270486 255 255 255
2.417933 -2.144100 2.082345 0.827540 0.247719 0.503769 255 255 255
2.180945 -2.640049 2.219894 0.450789 -0.514481 0.729423 255 255 255
2.001183 -2.623805 2.300094 0.162450 -0.499985 0.850642 255 255 255
2.042626 -2.751354 2.188963 0.230842 -0.710471 0.664754 255 255 255
2.301510 -2.474107 2.219893 0.628620 -0.269723 0.729423 255 255 255
2.127027 -2.474106 2.327729 0.371258 -0.269723 0.888455 255 255 255
2.230513 -2.308165 2.300092 0.525712 0.000000 0.850642 255 255 255
2.071136 -2.308165 2.370346 0.260475 0.000000 0.965453 255 255 255
1.898628 -2.308165 2.394374 0.000000 0.000000 1.000000 255 255 255
1.951934 -2.472229 2.370347 0.080477 -0.247719 0.965453 255 255 255
2.364625 -2.308165 2.188961 0.747032 0.000000 0.664754 255 255 255
1.670227 -2.679221 2.219894 -0.350017 -0.587725 0.729423 255 255 255
1.630128 -2.503239 2.300094 -0.425306 -0.309000 0.850642 255 255 255
1.521628 -2.582068 2.188963 -0.604358 -0.439100 0.664754 255 255 255
1.865302 -2.742606 2.219894 -0.062288 -0.681204 0.729423 255 255 255
1.811386 -2.576663 2.327729 -0.141789 -0.436445 0.888455 255 255 255
1.759066 -2.409561 2.370347 -0.210730 -0.153081 0.965453 255 255 255
1.475151 -2.205609 2.219893 -0.667104 0.151250 0.729423 255 255 255
1.630128 -2.113091 2.300094 -0.425306 0.309000 0.850642 255 255 255
1.521628 -2.034262 2.188963 -0.604358 0.439100 0.664754 255 255 255
1.475151 -2.410722 2.219893 -0.667104 -0.151250 0.729423 255 255 255
1.616311 -2.308165 2.327729 -0.458907 0.000000 0.888455 255 255 255
1.759066 -2.206769 2.370347 -0.210730 0.153081 0.965453 255 255 255
1.865302 -1.873724 2.219894 -0.062288 0.681204 0.729423 255 255 255
2.001183 -1.992526 2.300094 0.162450 0.499985 0.850642 255 255 255
2.042626 -1.864977 2.188963 0.230842 0.710471 0.664754 255 255 255
1.670227 -1.937109 2.219894 -0.350017 0.587725 0.729423 255 255 255
1.811386 -2.039667 2.327729 -0.141789 0.436445 0.888455 255 255 255
1.951934 -2.144101 2.370347 0.080477 0.247719 0.965453 255 255 255
2.301510 -2.142223 2.219893 0.628620 0.269723 0.729423 255 255 255
2.180945 -1.976282 2.219894 0.450789 0.514481 0.729423 255 255 255
2.127027 -2.142224 2.327729 0.371258 0.269723 0.888455 255 255 255
3 0 1 2 
3 1 0 3 
3 4 3 0 
3 3 5 1 
3 0 6 4 
3 6 0 7 
3 2 7 0 
3 7 8 6 
3 9 10 11 
3 10 9 7 
3 8 7 9 
3 7 2 10 
3 12 6 8 
3 6 12 13 
3 14 13 12 
3 13 4 6 
3 15 16 17 
3 17 3 15 
3 4 15 3 
3 3 17 5 
3 15 4 18 
3 18 19 15 
3 16 15 19 
3 19 18 20 
3 21 22 23 
3 23 19 21 
3 20 21 19 
3 19 23 16 
3 24 20 18 
3 18 13 24 
3 14 24 13 
3 13 18 4 
3 25 26 27 
3 26 25 9 
3 8 9 25 
3 9 11 26 
3 25 28 8 
3 28 25 29 
3 27 29 25 
3 29 30 28 
3 31 32 33 
3 32 31 29 
3 30 29 31 
3 29 27 32 
3 34 28 30 
3 28 34 12 
3 14 12 34 
3 12 8 28 
3 35 36 37 
3 36 35 31 
3 30 31 35 
3 31 33 36 
3 35 38 30 
3 38 35 39 
3 37 39 35 
3 39 40 38 
3 41 42 43 
3 42 41 39 
3 40 39 41 
3 39 37 42 
3 44 38 40 
3 38 44 34 
3 14 34 44 
3 34 30 38 
3 45 46 47 
3 46 45 41 
3 40 41 45 
3 41 43 46 
3 45 48 40 
3 48 45 49 
3 47 49 45 
3 49 20 48 
3 21 50 22 
3 50 21 49 
3 20 49 21 
3 49 47 50 
3 24 48 20 
3 48 24 44 
3 14 44 24 
3 44 40 48 
3 51 52 53 
3 53 17 51 
3 16 51 17 
3 17 53 5 
3 51 16 54 
3 54 55 51 
3 52 51 55 
3 55 54 56 
3 57 58 59 
3 59 55 57 
3 56 57 55 
3 55 59 52 
3 60 56 54 
3 54 23 60 
3 22 60 23 
3 23 54 16 
3 61 62 63 
3 63 10 61 
3 2 61 10 
3 10 63 11 
3 61 2 64 
3 64 65 61 
3 62 61 65 
3 65 64 66 
3 67 68 69 
3 69 65 67 
3 66 67 65 
3 65 69 62 
3 70 66 64 
3 64 1 70 
3 5 70 1 
3 1 64 2 
3 71 72 73 
3 73 32 71 
3 27 71 32 
3 32 73 33 
3 71 27 74 
3 74 75 71 
3 72 71 75 
3 75 74 76 
3 77 78 79 
3 79 75 77 
3 76 77 75 
3 75 79 72 
3 80 76 74 
3 74 26 80 
3 11 80 26 
3 26 74 27 
3 81 82 83 
3 83 42 81 
3 37 81 42 
3 42 83 43 
3 81 37 84 
3 84 85 81 
3 82 81 85 
3 85 84 86 
3 87 88 89 
3 89 85 87 
3 86 87 85 
3 85 89 82 
3 90 86 84 
3 84 36 90 
3 33 90 36 
3 36 84 37 
3 91 92 93 
3 93 50 91 
3 47 91 50 
3 50 93 22 
3 91 47 94 
3 94 95 91 
3 92 91 95 
3 95 94 96 
3 97 98 99 
3 99 95 97 
3 96 97 95 
3 95 99 92 
3 100 96 94 
3 94 46 100 
3 43 100 46 
3 46 94 47 
3 101 102 103 
3 102 101 59 
3 52 59 101 
3 59 58 102 
3 101 104 52 
3 104 101 105 
3 103 105 101 
3 105 66 104 
3 67 106 68 
3 106 67 105 
3 66 105 67 
3 105 103 106 
3 70 104 66 
3 104 70 53 
3 5 53 70 
3 53 52 104 
3 107 108 109 
3 108 107 69 
3 62 69 107 
3 69 68 108 
3 107 110 62 
3 110 107 111 
3 109 111 107 
3 111 76 110 
3 77 112 78 
3 112 77 111 
3 76 111 77 
3 111 109 112 
3 80 110 76 
3 110 80 63 
3 11 63 80 
3 63 62 110 
3 113 114 115 
3 114 113 79 
3 72 79 113 
3 79 78 114 
3 113 116 72 
3 116 113 117 
3 115 117 113 
3 117 86 116 
3 87 118 88 
3 118 87 117 
3 86 117 87 
3 117 115 118 
3 90 116 86 
3 116 90 73 
3 33 73 90 
3 73 72 116 
3 119 120 121 
3 120 119 89 
3 82 89 119 
3 89 88 120 
3 119 122 82 
3 122 119 123 
3 121 123 119 
3 123 96 122 
3 97 124 98 
3 124 97 123 
3 96 123 97 
3 123 121 124 
3 100 122 96 
3 122 100 83 
3 43 83 100 
3 83 82 122 
3 125 126 127 
3 126 125 99 
3 92 99 125 
3 99 98 126 
3 125 128 92 
3 128 125 129 
3 127 129 125 
3 129 56 128 
3 57 130 58 
3 130 57 129 
3 56 129 57 
3 129 127 130 
3 60 128 56 
3 128 60 93 
3 22 93 60 
3 93 92 128 
3 131 132 133 
3 133 106 131 
3 103 131 106 
3 106 133 68 
3 131 103 134 
3 134 135 131 
3 132 131 135 
3 135 134 136 
3 137 138 139 
3 139 135 137 
3 136 137 135 
3 135 139 132 
3 140 136 134 
3 134 102 140 
3 58 140 102 
3 102 134 103 
3 141 142 143 
3 143 112 141 
3 109 141 112 
3 112 143 78 
3 141 109 144 
3 144 145 141 
3 142 141 145 
3 145 144 132 
3 139 138 146 
3 146 145 139 
3 132 139 145 
3 145 146 142 
3 133 132 144 
3 144 108 133 
3 68 133 108 
3 108 144 109 
3 147 148 149 
3 149 118 147 
3 115 147 118 
3 118 149 88 
3 147 115 150 
3 150 151 147 
3 148 147 151 
3 151 150 142 
3 146 138 152 
3 152 151 146 
3 142 146 151 
3 151 152 148 
3 143 142 150 
3 150 114 143 
3 78 143 114 
3 114 150 115 
3 153 154 155 
3 155 124 153 
3 121 153 124 
3 124 155 98 
3 153 121 156 
3 156 157 153 
3 154 153 157 
3 157 156 148 
3 152 138 158 
3 158 157 152 
3 148 152 157 
3 157 158 154 
3 149 148 156 
3 156 120 149 
3 88 149 120 
3 120 156 121 
3 159 136 140 
3 140 130 159 
3 127 159 130 
3 130 140 58 
3 159 127 160 
3 160 161 159 
3 136 159 161 
3 161 160 154 
3 158 138 137 
3 137 161 158 
3 154 158 161 
3 161 137 136 
3 155 154 160 
3 160 126 155 
3 98 155 126 
3 126 160 127 
