ply
format ascii 1.0
comment Created by Blender3D 249 - www.blender.org, source file: 
element vertex 24
property float x
property float y
property float z
element face 12
property list uchar uint vertex_indices
end_header
3.775332 3.845772 3.607152 
3.775332 3.845772 0.003744 
-3.755316 3.845773 0.003744 
-3.755317 3.845772 3.607152 
-3.755317 -3.674709 0.003744 
-3.755317 -3.674709 3.607152 
-3.755317 3.845772 3.607152 
-3.755316 3.845773 0.003744 
3.775332 -3.674710 0.003744 
3.775331 -3.674710 3.607152 
-3.755317 -3.674709 0.003744 
-3.755317 -3.674709 3.607152 
3.775332 3.845772 0.003744 
3.775332 3.845772 3.607152 
3.775332 -3.674710 0.003744 
3.775331 -3.674710 3.607152 
3.775332 3.845772 3.607152 
-3.755317 3.845772 3.607152 
-3.755317 -3.674709 3.607152 
3.775331 -3.674710 3.607152 
3.775332 3.845772 0.003744 
3.775332 -3.674710 0.003744 
-3.755317 -3.674709 0.003744 
-3.755316 3.845773 0.003744 
3 0 1 2 
3 0 2 3 
3 4 5 6 
3 4 6 7 
3 8 9 10 
3 9 11 10 
3 12 13 14 
3 13 15 14 
3 16 17 18 
3 16 18 19 
3 20 21 22 
3 20 22 23 
