ply
format ascii 1.0
comment Created by SmallLuxGPU exporter for Blender 2.5, source file: <memory1>
element vertex 646
property float x
property float y
property float z
element face 1282
property list uchar uint vertex_indices
end_header
0.441802 0.902594 0.378972
0.316229 0.842899 0.367539
0.361803 0.962221 0.276388
0.391555 0.791353 0.479289
0.512753 0.856225 0.494273
0.262869 0.740988 0.474262
0.562274 0.978754 0.402065
0.484459 1.033885 0.293654
0.597194 1.116118 0.325385
0.516194 1.174968 0.230004
0.398469 1.096015 0.203055
0.425323 1.240989 0.149346
0.666776 1.065565 0.433667
0.624147 0.934363 0.518927
0.723600 1.024280 0.552785
0.253366 1.036631 0.180087
0.285272 1.178258 0.116582
0.138197 1.124681 0.105570
0.096779 0.985752 0.180087
0.210088 0.903428 0.266646
0.052790 0.861815 0.276388
0.159797 0.792070 0.367539
-0.055516 0.948504 0.203055
-0.012280 1.081576 0.116582
-0.162456 1.050005 0.149346
-0.119111 0.757355 0.402065
-0.254681 0.766160 0.433667
-0.228103 0.847958 0.325385
-0.143074 0.685073 0.518927
-0.007026 0.687335 0.494272
-0.276385 0.699360 0.552785
0.023119 0.766553 0.378971
-0.088563 0.847695 0.293654
-0.197165 0.943179 0.230003
0.129157 0.706093 0.479289
0.027156 1.203851 0.062213
-0.124640 1.166390 0.084955
-0.084442 1.290111 0.038061
0.181495 1.254000 0.062213
0.069216 1.336980 0.025407
0.221076 1.389381 0.038061
-0.042628 1.418801 0.009561
0.000000 1.550000 0.000000
0.111605 1.468915 0.009561
0.326319 1.312918 0.084955
0.752247 1.329887 0.378973
0.670817 1.387543 0.276389
0.770215 1.467759 0.367540
0.842515 1.412050 0.479290
0.818272 1.276738 0.494274
0.850648 1.550000 0.474264
0.717043 1.191777 0.402066
0.640564 1.248746 0.293655
0.554901 1.311327 0.203056
0.778382 1.146651 0.518927
0.566540 1.467678 0.180088
0.441704 1.393568 0.116582
0.447210 1.550000 0.105571
0.566540 1.632322 0.180088
0.679848 1.550000 0.266647
0.670817 1.712457 0.276389
0.770215 1.632241 0.367540
0.554902 1.788672 0.203056
0.441704 1.706432 0.116582
0.425323 1.859011 0.149346
0.717043 1.908223 0.402066
0.597194 1.983882 0.325385
0.666776 2.034435 0.433667
0.778382 1.953349 0.518927
0.818272 1.823262 0.494274
0.723600 2.075720 0.552785
0.752247 1.770113 0.378973
0.640565 1.851254 0.293655
0.516194 1.925032 0.230004
0.842515 1.687950 0.479290
0.337599 1.631140 0.062214
0.221076 1.710619 0.038061
0.326319 1.787082 0.084955
0.337599 1.468860 0.062214
0.223984 1.550000 0.025407
0.111605 1.631085 0.009561
-0.479199 0.929764 0.378972
-0.574776 1.030745 0.367539
-0.447211 1.024273 0.276389
-0.600523 0.943178 0.479290
-0.501373 0.847957 0.494273
-0.688189 1.050003 0.474264
-0.369536 0.838722 0.402065
-0.341150 0.929764 0.293654
-0.308633 1.030746 0.203055
-0.392635 0.766159 0.518927
-0.409951 1.150396 0.180087
-0.265395 1.163816 0.116582
-0.361800 1.287137 0.105571
-0.506729 1.283597 0.180088
-0.550009 1.150396 0.266647
-0.638195 1.287136 0.276391
-0.671458 1.163815 0.367541
-0.589216 1.416930 0.203058
-0.449297 1.416930 0.116583
-0.525730 1.550000 0.149348
-0.790662 1.418345 0.402069
-0.824180 1.550000 0.433672
-0.738174 1.550000 0.325390
-0.866809 1.418800 0.518930
-0.822618 1.290110 0.494276
-0.894425 1.550000 0.552785
-0.737962 1.285919 0.378974
-0.695304 1.417208 0.293658
-0.638052 1.550000 0.230007
-0.762696 1.166389 0.479291
-0.320818 1.417209 0.062214
-0.403354 1.550000 0.084956
-0.273266 1.550000 0.038061
-0.225429 1.285920 0.062214
-0.181206 1.418346 0.025407
-0.137952 1.550000 0.009561
-0.737962 1.814081 0.378974
-0.671458 1.936185 0.367541
-0.638195 1.812864 0.276391
-0.762696 1.933611 0.479291
-0.822618 1.809890 0.494276
-0.688189 2.049997 0.474264
-0.790662 1.681655 0.402069
-0.695304 1.682791 0.293658
-0.589216 1.683070 0.203058
-0.866809 1.681200 0.518930
-0.506729 1.816402 0.180088
-0.449297 1.683070 0.116583
-0.361800 1.812863 0.105571
-0.409951 1.949604 0.180087
-0.550009 1.949604 0.266647
-0.447211 2.075727 0.276389
-0.574776 2.069255 0.367539
-0.308633 2.069254 0.203055
-0.265395 1.936184 0.116582
-0.162456 2.049995 0.149346
-0.369536 2.261278 0.402065
-0.254681 2.333840 0.433667
-0.228103 2.252042 0.325385
-0.392635 2.333840 0.518927
-0.501373 2.252043 0.494273
-0.276385 2.400640 0.552785
-0.479199 2.170236 0.378972
-0.341150 2.170236 0.293654
-0.197165 2.156821 0.230003
-0.600523 2.156822 0.479290
-0.225429 1.814080 0.062214
-0.124640 1.933610 0.084955
-0.084442 1.809889 0.038061
-0.320818 1.682791 0.062214
-0.181206 1.681654 0.025407
-0.042628 1.681199 0.009561
0.023119 2.333447 0.378971
0.159797 2.307930 0.367539
0.052790 2.238185 0.276388
0.129157 2.393907 0.479289
-0.007026 2.412664 0.494272
0.262869 2.359012 0.474262
-0.119111 2.342645 0.402065
-0.088563 2.252305 0.293654
-0.055516 2.151496 0.203055
-0.143074 2.414927 0.518927
0.096779 2.114248 0.180087
-0.012280 2.018424 0.116582
0.138197 1.975320 0.105570
0.253366 2.063369 0.180087
0.210088 2.196572 0.266646
0.361804 2.137779 0.276388
0.316229 2.257101 0.367539
0.398469 2.003984 0.203055
0.285272 1.921742 0.116582
0.562274 2.121246 0.402065
0.624147 2.165637 0.518927
0.512753 2.243775 0.494273
0.441802 2.197406 0.378972
0.484459 2.066115 0.293654
0.391555 2.308647 0.479289
0.181495 1.846000 0.062213
0.027156 1.896149 0.062213
0.069216 1.763020 0.025407
0.918241 1.248745 0.742942
0.947213 1.387542 0.723604
0.960967 1.311326 0.860079
0.919554 1.174966 0.882650
0.870465 1.116117 0.767544
0.951058 1.240987 1.000000
0.855476 1.191776 0.626053
0.891875 1.329886 0.604893
0.910136 1.467759 0.593935
0.804731 1.065564 0.656882
0.959966 1.550000 0.719883
0.910136 1.632241 0.593935
0.947213 1.712458 0.723604
0.986715 1.632322 0.859941
0.986715 1.467677 0.859941
1.000000 1.550000 1.000000
0.987689 1.393568 1.000000
0.987689 1.706432 1.000000
0.960967 1.788674 0.860079
0.951058 1.859013 1.000000
0.971871 1.550000 1.235513
0.959253 1.710620 1.232455
0.935787 1.631085 1.343116
0.935787 1.468915 1.343116
0.959253 1.389380 1.232455
0.894425 1.550000 1.447215
0.989761 1.468859 1.117430
0.989761 1.631141 1.117430
0.964376 1.787083 1.117350
0.964376 1.312917 1.117350
0.918241 1.851255 0.742942
0.870465 1.983883 0.767544
0.919554 1.925034 0.882650
0.891875 1.770114 0.604893
0.855476 1.908224 0.626053
0.804731 2.034436 0.656882
-0.002760 0.583608 0.742941
0.138199 0.598945 0.723603
0.069961 0.562312 0.860079
-0.072524 0.559561 0.882650
-0.143661 0.588062 0.767543
0.000000 0.550000 1.000000
-0.076335 0.625697 0.626052
0.066265 0.633758 0.604892
0.203033 0.658997 0.593933
-0.212052 0.634957 0.656882
0.296648 0.637019 0.719882
0.359468 0.709826 0.593933
0.447216 0.699352 0.723603
0.383207 0.637018 0.859941
0.226619 0.586139 0.859941
0.309017 0.598944 1.000000
0.156435 0.562312 1.000000
0.453991 0.658994 1.000000
0.523952 0.709823 0.860079
0.587786 0.740983 1.000000
0.300323 0.625695 1.235515
0.449185 0.687331 1.232457
0.366289 0.685071 1.343118
0.212052 0.634957 1.343118
0.143661 0.588062 1.232456
0.276385 0.699360 1.447215
0.228681 0.583607 1.117431
0.383023 0.633756 1.117431
0.523490 0.706088 1.117350
0.072524 0.559561 1.117350
0.570268 0.769798 0.742941
0.681641 0.856221 0.767543
0.640841 0.791349 0.882650
0.484950 0.769799 0.604892
0.605053 0.847096 0.626053
0.709407 0.934361 0.656882
-0.919948 1.253998 0.742942
-0.861804 1.124678 0.723604
-0.917730 1.178256 0.860079
-0.964376 1.312917 0.882650
-0.959253 1.389380 0.767545
-0.951058 1.240987 1.000000
-0.902656 1.336979 0.626055
-0.850924 1.203849 0.604894
-0.784657 1.081573 0.593934
-0.935787 1.468915 0.656884
-0.776630 0.985748 0.719882
-0.687975 0.948501 0.593934
-0.670820 0.861810 0.723604
-0.749882 0.903424 0.859941
-0.846659 1.036627 0.859941
-0.809018 0.962217 1.000000
-0.891008 1.096013 1.000000
-0.707108 0.842894 1.000000
-0.637147 0.792065 0.860079
-0.587786 0.740983 1.000000
-0.786262 0.978752 1.235515
-0.681641 0.856221 1.232457
-0.709407 0.934361 1.343118
-0.804731 1.065564 1.343118
-0.870465 1.116117 1.232456
-0.723600 1.024280 1.447215
-0.848429 1.033882 1.117431
-0.753041 0.902590 1.117431
-0.640841 0.791349 1.117350
-0.919554 1.174966 1.117350
-0.565796 0.766549 0.742941
-0.449185 0.687331 0.767543
-0.523490 0.706088 0.882650
-0.592160 0.847692 0.604892
-0.481531 0.757352 0.626052
-0.366289 0.685071 0.656882
-0.565796 2.333451 0.742941
-0.670820 2.238190 0.723604
-0.637147 2.307935 0.860079
-0.523490 2.393911 0.882650
-0.449185 2.412668 0.767543
-0.587786 2.359017 1.000000
-0.481531 2.342648 0.626052
-0.592160 2.252308 0.604892
-0.687975 2.151499 0.593934
-0.366289 2.414929 0.656882
-0.776630 2.114252 0.719882
-0.784657 2.018427 0.593934
-0.861804 1.975322 0.723604
-0.846659 2.063373 0.859941
-0.749882 2.196576 0.859941
-0.809018 2.137783 1.000000
-0.707108 2.257106 1.000000
-0.891008 2.003987 1.000000
-0.917730 1.921744 0.860079
-0.951058 1.859013 1.000000
-0.786262 2.121248 1.235515
-0.870465 1.983883 1.232456
-0.804731 2.034436 1.343118
-0.709407 2.165639 1.343118
-0.681641 2.243779 1.232457
-0.723600 2.075720 1.447215
-0.753041 2.197410 1.117431
-0.848429 2.066118 1.117431
-0.919554 1.925034 1.117350
-0.640841 2.308651 1.117350
-0.919948 1.846002 0.742942
-0.959253 1.710620 0.767545
-0.964376 1.787083 0.882650
-0.850924 1.896150 0.604894
-0.902656 1.763021 0.626055
-0.935787 1.631085 0.656884
0.570268 2.330202 0.742941
0.447216 2.400648 0.723603
0.523952 2.390177 0.860079
0.640841 2.308651 0.882650
0.681641 2.243779 0.767543
0.587786 2.359017 1.000000
0.605053 2.252904 0.626053
0.484950 2.330201 0.604892
0.359468 2.390174 0.593933
0.709407 2.165639 0.656882
0.296648 2.462981 0.719882
0.203033 2.441003 0.593933
0.138199 2.501055 0.723603
0.226619 2.513861 0.859941
0.383207 2.462982 0.859941
0.309017 2.501056 1.000000
0.453991 2.441006 1.000000
0.156435 2.537688 1.000000
0.069961 2.537688 0.860079
0.000000 2.550000 1.000000
0.300323 2.474305 1.235515
0.143661 2.511938 1.232456
0.212052 2.465043 1.343118
0.366289 2.414929 1.343118
0.449185 2.412668 1.232457
0.276385 2.400640 1.447215
0.383023 2.466244 1.117431
0.228681 2.516393 1.117431
0.072524 2.540439 1.117350
0.523490 2.393911 1.117350
-0.002760 2.516392 0.742941
-0.143661 2.511938 0.767543
-0.072524 2.540439 0.882650
0.066265 2.466241 0.604892
-0.076335 2.474303 0.626052
-0.212052 2.465043 0.656882
0.850924 1.203849 1.395106
0.784657 1.081573 1.406066
0.861804 1.124678 1.276396
0.762696 1.166389 1.520709
0.822618 1.290110 1.505724
0.688189 1.050003 1.525736
0.902656 1.336979 1.373945
0.919948 1.253998 1.257058
0.917730 1.178256 1.139921
0.866809 1.418800 1.481070
0.846659 1.036627 1.140059
0.891008 1.096013 1.000000
0.809018 0.962217 1.000000
0.749882 0.903424 1.140059
0.776630 0.985748 1.280118
0.670820 0.861810 1.276396
0.687975 0.948501 1.406066
0.637147 0.792065 1.139921
0.707108 0.842894 1.000000
0.481531 0.757352 1.373948
0.392635 0.766159 1.481073
0.501373 0.847957 1.505727
0.592160 0.847692 1.395108
0.565796 0.766549 1.257059
0.600523 0.943178 1.520710
0.753041 0.902590 0.882569
0.848429 1.033882 0.882569
0.786262 0.978752 0.764485
-0.066265 0.633758 1.395108
-0.203033 0.658997 1.406067
-0.138199 0.598945 1.276397
-0.129157 0.706093 1.520711
0.007026 0.687335 1.505728
-0.262869 0.740988 1.525738
0.076335 0.625697 1.373948
0.002760 0.583608 1.257059
-0.069961 0.562312 1.139921
0.143074 0.685073 1.481073
-0.226619 0.586139 1.140059
-0.156435 0.562312 1.000000
-0.309017 0.598944 1.000000
-0.383207 0.637018 1.140059
-0.296648 0.637019 1.280118
-0.447216 0.699352 1.276397
-0.359468 0.709826 1.406067
-0.523952 0.709823 1.139921
-0.453991 0.658994 1.000000
-0.605053 0.847096 1.373947
-0.624147 0.934363 1.481073
-0.512753 0.856225 1.505727
-0.484950 0.769799 1.395108
-0.570268 0.769798 1.257059
-0.391555 0.791353 1.520711
-0.383023 0.633756 0.882569
-0.228681 0.583607 0.882569
-0.300323 0.625695 0.764485
-0.891875 1.329886 1.395107
-0.910136 1.467759 1.406065
-0.947213 1.387542 1.276396
-0.842515 1.412050 1.520710
-0.818272 1.276738 1.505726
-0.850648 1.550000 1.525736
-0.855476 1.191776 1.373947
-0.918241 1.248745 1.257058
-0.960967 1.311326 1.139921
-0.778382 1.146651 1.481073
-0.986715 1.467677 1.140059
-0.987689 1.393568 1.000000
-1.000000 1.550000 1.000000
-0.986715 1.632322 1.140059
-0.959966 1.550000 1.280117
-0.947213 1.712458 1.276396
-0.910136 1.632241 1.406065
-0.960967 1.788674 1.139921
-0.987689 1.706432 1.000000
-0.855476 1.908224 1.373947
-0.778382 1.953349 1.481073
-0.818272 1.823262 1.505726
-0.891875 1.770114 1.395107
-0.918241 1.851255 1.257058
-0.842515 1.687950 1.520710
-0.989761 1.631141 0.882570
-0.989761 1.468859 0.882570
-0.971871 1.550000 0.764487
-0.484950 2.330201 1.395108
-0.359468 2.390174 1.406067
-0.447216 2.400648 1.276397
-0.391555 2.308647 1.520711
-0.512753 2.243775 1.505727
-0.262869 2.359012 1.525738
-0.605053 2.252904 1.373947
-0.570268 2.330202 1.257059
-0.523952 2.390177 1.139921
-0.624147 2.165637 1.481073
-0.383207 2.462982 1.140059
-0.453991 2.441006 1.000000
-0.309017 2.501056 1.000000
-0.226619 2.513861 1.140059
-0.296648 2.462981 1.280118
-0.138199 2.501055 1.276397
-0.203033 2.441003 1.406067
-0.069961 2.537688 1.139921
-0.156435 2.537688 1.000000
0.076335 2.474303 1.373948
0.143074 2.414927 1.481073
0.007026 2.412664 1.505728
-0.066265 2.466241 1.395108
0.002760 2.516392 1.257059
-0.129157 2.393907 1.520711
-0.228681 2.516393 0.882569
-0.383023 2.466244 0.882569
-0.300323 2.474305 0.764485
0.592160 2.252308 1.395108
0.687975 2.151499 1.406066
0.670820 2.238190 1.276396
0.600523 2.156822 1.520710
0.501373 2.252043 1.505727
0.688189 2.049997 1.525736
0.481531 2.342648 1.373948
0.565796 2.333451 1.257059
0.637147 2.307935 1.139921
0.392635 2.333840 1.481073
0.749882 2.196576 1.140059
0.707108 2.257106 1.000000
0.809018 2.137783 1.000000
0.846659 2.063373 1.140059
0.776630 2.114252 1.280118
0.861804 1.975322 1.276396
0.784657 2.018427 1.406066
0.917730 1.921744 1.139921
0.891008 2.003987 1.000000
0.902656 1.763021 1.373945
0.866809 1.681200 1.481070
0.822618 1.809890 1.505724
0.850924 1.896150 1.395106
0.919948 1.846002 1.257058
0.762696 1.933611 1.520709
0.848429 2.066118 0.882569
0.753041 2.197410 0.882569
0.786262 2.121248 0.764485
0.341150 0.929764 1.706346
0.447211 1.024273 1.723611
0.308633 1.030746 1.796945
0.197165 0.943179 1.769997
0.228103 0.847958 1.674615
0.162456 1.050005 1.850654
0.369536 0.838722 1.597935
0.479199 0.929764 1.621028
0.574776 1.030745 1.632461
0.254681 0.766160 1.566333
0.550009 1.150396 1.733353
0.671458 1.163815 1.632459
0.638195 1.287136 1.723609
0.506729 1.283597 1.819912
0.409951 1.150396 1.819913
0.361800 1.287137 1.894429
0.265395 1.163816 1.883418
0.449297 1.416930 1.883417
0.589216 1.416930 1.796942
0.525730 1.550000 1.850652
0.181206 1.418346 1.974593
0.273266 1.550000 1.961939
0.137952 1.550000 1.990439
0.042628 1.418801 1.990439
0.084442 1.290111 1.961939
0.000000 1.550000 2.000000
0.225429 1.285920 1.937786
0.320818 1.417209 1.937786
0.403354 1.550000 1.915044
0.124640 1.166390 1.915045
0.695304 1.417208 1.706342
0.738174 1.550000 1.674610
0.638052 1.550000 1.769993
0.737962 1.285919 1.621026
0.790662 1.418345 1.597931
0.824180 1.550000 1.566328
-0.484459 1.033885 1.706346
-0.361803 0.962221 1.723612
-0.398469 1.096015 1.796945
-0.516194 1.174968 1.769996
-0.597194 1.116118 1.674615
-0.425323 1.240989 1.850654
-0.562274 0.978754 1.597935
-0.441802 0.902594 1.621028
-0.316229 0.842899 1.632461
-0.666776 1.065565 1.566333
-0.210088 0.903428 1.733354
-0.159797 0.792070 1.632461
-0.052790 0.861815 1.723612
-0.096779 0.985752 1.819913
-0.253366 1.036631 1.819913
-0.138197 1.124681 1.894430
-0.285272 1.178258 1.883418
0.012280 1.081576 1.883418
0.055516 0.948504 1.796945
-0.069216 1.336980 1.974593
-0.111605 1.468915 1.990439
-0.221076 1.389381 1.961939
-0.181495 1.254000 1.937787
-0.027156 1.203851 1.937787
-0.326319 1.312918 1.915045
0.088563 0.847695 1.706346
-0.023119 0.766553 1.621029
0.119111 0.757355 1.597935
-0.640565 1.851254 1.706345
-0.670817 1.712457 1.723611
-0.554902 1.788672 1.796944
-0.516194 1.925032 1.769996
-0.597194 1.983882 1.674615
-0.425323 1.859011 1.850654
-0.717043 1.908223 1.597934
-0.752247 1.770113 1.621027
-0.770215 1.632241 1.632460
-0.666776 2.034435 1.566333
-0.679848 1.550000 1.733353
-0.770215 1.467759 1.632460
-0.670817 1.387543 1.723611
-0.566540 1.467678 1.819912
-0.566540 1.632322 1.819912
-0.447210 1.550000 1.894429
-0.441704 1.706432 1.883418
-0.441704 1.393568 1.883418
-0.554901 1.311327 1.796944
-0.223984 1.550000 1.974593
-0.111605 1.631085 1.990439
-0.221076 1.710619 1.961939
-0.337599 1.631140 1.937786
-0.337599 1.468860 1.937786
-0.326319 1.787082 1.915045
-0.640564 1.248746 1.706345
-0.752247 1.329887 1.621027
-0.717043 1.191777 1.597934
0.088563 2.252305 1.706346
-0.052790 2.238185 1.723612
0.055516 2.151496 1.796945
0.197165 2.156821 1.769997
0.228103 2.252042 1.674615
0.162456 2.049995 1.850654
0.119111 2.342645 1.597935
-0.023119 2.333447 1.621029
-0.159797 2.307930 1.632461
0.254681 2.333840 1.566333
-0.210088 2.196572 1.733354
-0.316229 2.257101 1.632461
-0.361804 2.137779 1.723612
-0.253366 2.063369 1.819913
-0.096779 2.114248 1.819913
-0.138197 1.975320 1.894430
0.012280 2.018424 1.883418
-0.285272 1.921742 1.883418
-0.398469 2.003984 1.796945
-0.069216 1.763020 1.974593
0.042628 1.681199 1.990439
0.084442 1.809889 1.961939
-0.027156 1.896149 1.937787
-0.181495 1.846000 1.937787
0.124640 1.933610 1.915045
-0.484459 2.066115 1.706346
-0.441802 2.197406 1.621028
-0.562274 2.121246 1.597935
0.695304 1.682791 1.706342
0.638195 1.812864 1.723609
0.589216 1.683070 1.796942
0.790662 1.681655 1.597931
0.737962 1.814081 1.621026
0.671458 1.936185 1.632459
0.550009 1.949604 1.733353
0.574776 2.069255 1.632461
0.447211 2.075727 1.723611
0.409951 1.949604 1.819913
0.506729 1.816402 1.819912
0.361800 1.812863 1.894429
0.449297 1.683070 1.883417
0.265395 1.936184 1.883418
0.308633 2.069254 1.796945
0.181206 1.681654 1.974593
0.320818 1.682791 1.937786
0.225429 1.814080 1.937786
0.341150 2.170236 1.706346
0.479199 2.170236 1.621028
0.369536 2.261278 1.597935
5.000000 5.000000 0.000000
-4.999998 5.000002 0.000000
-5.000000 -4.999999 0.000000
5.000000 -5.000000 0.000000
3 0 1 2
3 1 0 3
3 4 3 0
3 3 5 1
3 0 6 4
3 6 0 7
3 2 7 0
3 7 8 6
3 9 10 11
3 10 9 7
3 8 7 9
3 7 2 10
3 12 6 8
3 6 12 13
3 14 13 12
3 13 4 6
3 15 10 2
3 10 15 16
3 17 16 15
3 16 11 10
3 15 18 17
3 18 15 19
3 2 19 15
3 19 20 18
3 21 1 5
3 1 21 19
3 20 19 21
3 19 2 1
3 22 18 20
3 18 22 23
3 24 23 22
3 23 17 18
3 25 26 27
3 26 25 28
3 29 28 25
3 28 30 26
3 25 31 29
3 31 25 32
3 27 32 25
3 32 20 31
3 22 33 24
3 33 22 32
3 20 32 22
3 32 27 33
3 21 31 20
3 31 21 34
3 5 34 21
3 34 29 31
3 35 36 37
3 36 35 23
3 17 23 35
3 23 24 36
3 35 38 17
3 38 35 39
3 37 39 35
3 39 40 38
3 41 42 43
3 41 43 39
3 40 39 43
3 39 37 41
3 44 38 40
3 38 44 16
3 11 16 44
3 16 17 38
3 45 46 47
3 47 48 45
3 49 45 48
3 48 47 50
3 45 49 51
3 51 52 45
3 46 45 52
3 52 51 8
3 9 11 53
3 53 52 9
3 8 9 52
3 52 53 46
3 12 8 51
3 51 54 12
3 14 12 54
3 54 51 49
3 55 46 53
3 53 56 55
3 57 55 56
3 56 53 11
3 55 57 58
3 58 59 55
3 46 55 59
3 59 58 60
3 61 50 47
3 47 59 61
3 60 61 59
3 59 47 46
3 62 60 58
3 58 63 62
3 64 62 63
3 63 58 57
3 65 66 67
3 67 68 65
3 69 65 68
3 68 67 70
3 65 69 71
3 71 72 65
3 66 65 72
3 72 71 60
3 62 64 73
3 73 72 62
3 60 62 72
3 72 73 66
3 61 60 71
3 71 74 61
3 50 61 74
3 74 71 69
3 75 76 77
3 77 63 75
3 57 75 63
3 63 77 64
3 75 57 78
3 78 79 75
3 76 75 79
3 79 78 40
3 43 42 80
3 80 79 43
3 40 43 79
3 79 80 76
3 44 40 78
3 78 56 44
3 11 44 56
3 56 78 57
3 81 82 83
3 82 81 84
3 85 84 81
3 84 86 82
3 81 87 85
3 87 81 88
3 83 88 81
3 88 27 87
3 33 89 24
3 89 33 88
3 27 88 33
3 88 83 89
3 26 87 27
3 87 26 90
3 30 90 26
3 90 85 87
3 91 89 83
3 89 91 92
3 93 92 91
3 92 24 89
3 91 94 93
3 94 91 95
3 83 95 91
3 95 96 94
3 97 82 86
3 82 97 95
3 96 95 97
3 95 83 82
3 98 94 96
3 94 98 99
3 100 99 98
3 99 93 94
3 101 102 103
3 102 101 104
3 105 104 101
3 104 106 102
3 101 107 105
3 107 101 108
3 103 108 101
3 108 96 107
3 98 109 100
3 109 98 108
3 96 108 98
3 108 103 109
3 97 107 96
3 107 97 110
3 86 110 97
3 110 105 107
3 111 112 113
3 112 111 99
3 93 99 111
3 99 100 112
3 111 114 93
3 114 111 115
3 113 115 111
3 115 37 114
3 116 42 41
3 116 41 115
3 37 115 41
3 115 113 116
3 36 114 37
3 114 36 92
3 24 92 36
3 92 93 114
3 117 118 119
3 118 117 120
3 121 120 117
3 120 122 118
3 117 123 121
3 123 117 124
3 119 124 117
3 124 103 123
3 109 125 100
3 125 109 124
3 103 124 109
3 124 119 125
3 102 123 103
3 123 102 126
3 106 126 102
3 126 121 123
3 127 125 119
3 125 127 128
3 129 128 127
3 128 100 125
3 127 130 129
3 130 127 131
3 119 131 127
3 131 132 130
3 133 118 122
3 118 133 131
3 132 131 133
3 131 119 118
3 134 130 132
3 130 134 135
3 136 135 134
3 135 129 130
3 137 138 139
3 138 137 140
3 141 140 137
3 140 142 138
3 137 143 141
3 143 137 144
3 139 144 137
3 144 132 143
3 134 145 136
3 145 134 144
3 132 144 134
3 144 139 145
3 133 143 132
3 143 133 146
3 122 146 133
3 146 141 143
3 147 148 149
3 148 147 135
3 129 135 147
3 135 136 148
3 147 150 129
3 150 147 151
3 149 151 147
3 151 113 150
3 152 42 116
3 152 116 151
3 113 151 116
3 151 149 152
3 112 150 113
3 150 112 128
3 100 128 112
3 128 129 150
3 153 154 155
3 154 153 156
3 157 156 153
3 156 158 154
3 153 159 157
3 159 153 160
3 155 160 153
3 160 139 159
3 145 161 136
3 161 145 160
3 139 160 145
3 160 155 161
3 138 159 139
3 159 138 162
3 142 162 138
3 162 157 159
3 163 161 155
3 161 163 164
3 165 164 163
3 164 136 161
3 163 166 165
3 166 163 167
3 155 167 163
3 167 168 166
3 169 154 158
3 154 169 167
3 168 167 169
3 167 155 154
3 170 166 168
3 166 170 171
3 64 171 170
3 171 165 166
3 172 67 66
3 67 172 173
3 174 173 172
3 173 70 67
3 172 175 174
3 175 172 176
3 66 176 172
3 176 168 175
3 170 73 64
3 73 170 176
3 168 176 170
3 176 66 73
3 169 175 168
3 175 169 177
3 158 177 169
3 177 174 175
3 178 77 76
3 77 178 171
3 165 171 178
3 171 64 77
3 178 179 165
3 179 178 180
3 76 180 178
3 180 149 179
3 80 42 152
3 80 152 180
3 149 180 152
3 180 76 80
3 148 179 149
3 179 148 164
3 136 164 148
3 164 165 179
3 181 182 183
3 183 184 181
3 185 181 184
3 184 183 186
3 181 185 187
3 187 188 181
3 182 181 188
3 188 187 49
3 48 50 189
3 189 188 48
3 49 48 188
3 188 189 182
3 54 49 187
3 187 190 54
3 14 54 190
3 190 187 185
3 191 182 189
3 189 192 191
3 193 191 192
3 192 189 50
3 191 193 194
3 194 195 191
3 182 191 195
3 195 194 196
3 197 186 183
3 183 195 197
3 196 197 195
3 195 183 182
3 198 196 194
3 194 199 198
3 200 198 199
3 199 194 193
3 201 202 203
3 203 204 201
3 205 201 204
3 204 203 206
3 201 205 207
3 207 208 201
3 202 201 208
3 208 207 196
3 198 200 209
3 209 208 198
3 196 198 208
3 208 209 202
3 197 196 207
3 207 210 197
3 186 197 210
3 210 207 205
3 211 212 213
3 213 199 211
3 193 211 199
3 199 213 200
3 211 193 214
3 214 215 211
3 212 211 215
3 215 214 69
3 68 70 216
3 216 215 68
3 69 68 215
3 215 216 212
3 74 69 214
3 214 192 74
3 50 74 192
3 192 214 193
3 217 218 219
3 219 220 217
3 221 217 220
3 220 219 222
3 217 221 223
3 223 224 217
3 218 217 224
3 224 223 29
3 34 5 225
3 225 224 34
3 29 34 224
3 224 225 218
3 28 29 223
3 223 226 28
3 30 28 226
3 226 223 221
3 227 218 225
3 225 228 227
3 229 227 228
3 228 225 5
3 227 229 230
3 230 231 227
3 218 227 231
3 231 230 232
3 233 222 219
3 219 231 233
3 232 233 231
3 231 219 218
3 234 232 230
3 230 235 234
3 236 234 235
3 235 230 229
3 237 238 239
3 239 240 237
3 241 237 240
3 240 239 242
3 237 241 243
3 243 244 237
3 238 237 244
3 244 243 232
3 234 236 245
3 245 244 234
3 232 234 244
3 244 245 238
3 233 232 243
3 243 246 233
3 222 233 246
3 246 243 241
3 247 248 249
3 249 235 247
3 229 247 235
3 235 249 236
3 247 229 250
3 250 251 247
3 248 247 251
3 251 250 4
3 13 14 252
3 252 251 13
3 4 13 251
3 251 252 248
3 3 4 250
3 250 228 3
3 5 3 228
3 228 250 229
3 253 254 255
3 255 256 253
3 257 253 256
3 256 255 258
3 253 257 259
3 259 260 253
3 254 253 260
3 260 259 105
3 110 86 261
3 261 260 110
3 105 110 260
3 260 261 254
3 104 105 259
3 259 262 104
3 106 104 262
3 262 259 257
3 263 254 261
3 261 264 263
3 265 263 264
3 264 261 86
3 263 265 266
3 266 267 263
3 254 263 267
3 267 266 268
3 269 258 255
3 255 267 269
3 268 269 267
3 267 255 254
3 270 268 266
3 266 271 270
3 272 270 271
3 271 266 265
3 273 274 275
3 275 276 273
3 277 273 276
3 276 275 278
3 273 277 279
3 279 280 273
3 274 273 280
3 280 279 268
3 270 272 281
3 281 280 270
3 268 270 280
3 280 281 274
3 269 268 279
3 279 282 269
3 258 269 282
3 282 279 277
3 283 284 285
3 285 271 283
3 265 283 271
3 271 285 272
3 283 265 286
3 286 287 283
3 284 283 287
3 287 286 85
3 90 30 288
3 288 287 90
3 85 90 287
3 287 288 284
3 84 85 286
3 286 264 84
3 86 84 264
3 264 286 265
3 289 290 291
3 291 292 289
3 293 289 292
3 292 291 294
3 289 293 295
3 295 296 289
3 290 289 296
3 296 295 141
3 146 122 297
3 297 296 146
3 141 146 296
3 296 297 290
3 140 141 295
3 295 298 140
3 142 140 298
3 298 295 293
3 299 290 297
3 297 300 299
3 301 299 300
3 300 297 122
3 299 301 302
3 302 303 299
3 290 299 303
3 303 302 304
3 305 294 291
3 291 303 305
3 304 305 303
3 303 291 290
3 306 304 302
3 302 307 306
3 308 306 307
3 307 302 301
3 309 310 311
3 311 312 309
3 313 309 312
3 312 311 314
3 309 313 315
3 315 316 309
3 310 309 316
3 316 315 304
3 306 308 317
3 317 316 306
3 304 306 316
3 316 317 310
3 305 304 315
3 315 318 305
3 294 305 318
3 318 315 313
3 319 320 321
3 321 307 319
3 301 319 307
3 307 321 308
3 319 301 322
3 322 323 319
3 320 319 323
3 323 322 121
3 126 106 324
3 324 323 126
3 121 126 323
3 323 324 320
3 120 121 322
3 322 300 120
3 122 120 300
3 300 322 301
3 325 326 327
3 327 328 325
3 329 325 328
3 328 327 330
3 325 329 331
3 331 332 325
3 326 325 332
3 332 331 174
3 177 158 333
3 333 332 177
3 174 177 332
3 332 333 326
3 173 174 331
3 331 334 173
3 70 173 334
3 334 331 329
3 335 326 333
3 333 336 335
3 337 335 336
3 336 333 158
3 335 337 338
3 338 339 335
3 326 335 339
3 339 338 340
3 341 330 327
3 327 339 341
3 340 341 339
3 339 327 326
3 342 340 338
3 338 343 342
3 344 342 343
3 343 338 337
3 345 346 347
3 347 348 345
3 349 345 348
3 348 347 350
3 345 349 351
3 351 352 345
3 346 345 352
3 352 351 340
3 342 344 353
3 353 352 342
3 340 342 352
3 352 353 346
3 341 340 351
3 351 354 341
3 330 341 354
3 354 351 349
3 355 356 357
3 357 343 355
3 337 355 343
3 343 357 344
3 355 337 358
3 358 359 355
3 356 355 359
3 359 358 157
3 162 142 360
3 360 359 162
3 157 162 359
3 359 360 356
3 156 157 358
3 358 336 156
3 158 156 336
3 336 358 337
3 361 362 363
3 362 361 364
3 365 364 361
3 364 366 362
3 361 367 365
3 367 361 368
3 363 368 361
3 368 205 367
3 210 369 186
3 369 210 368
3 205 368 210
3 368 363 369
3 204 367 205
3 367 204 370
3 206 370 204
3 370 365 367
3 371 369 363
3 369 371 372
3 373 372 371
3 372 186 369
3 371 374 373
3 374 371 375
3 363 375 371
3 375 376 374
3 377 362 366
3 362 377 375
3 376 375 377
3 375 363 362
3 378 374 376
3 374 378 379
3 236 379 378
3 379 373 374
3 380 239 238
3 239 380 381
3 382 381 380
3 381 242 239
3 380 383 382
3 383 380 384
3 238 384 380
3 384 376 383
3 378 245 236
3 245 378 384
3 376 384 378
3 384 238 245
3 377 383 376
3 383 377 385
3 366 385 377
3 385 382 383
3 386 249 248
3 249 386 379
3 373 379 386
3 379 236 249
3 386 387 373
3 387 386 388
3 248 388 386
3 388 185 387
3 190 252 14
3 252 190 388
3 185 388 190
3 388 248 252
3 184 387 185
3 387 184 372
3 186 372 184
3 372 373 387
3 389 390 391
3 390 389 392
3 393 392 389
3 392 394 390
3 389 395 393
3 395 389 396
3 391 396 389
3 396 241 395
3 246 397 222
3 397 246 396
3 241 396 246
3 396 391 397
3 240 395 241
3 395 240 398
3 242 398 240
3 398 393 395
3 399 397 391
3 397 399 400
3 401 400 399
3 400 222 397
3 399 402 401
3 402 399 403
3 391 403 399
3 403 404 402
3 405 390 394
3 390 405 403
3 404 403 405
3 403 391 390
3 406 402 404
3 402 406 407
3 272 407 406
3 407 401 402
3 408 275 274
3 275 408 409
3 410 409 408
3 409 278 275
3 408 411 410
3 411 408 412
3 274 412 408
3 412 404 411
3 406 281 272
3 281 406 412
3 404 412 406
3 412 274 281
3 405 411 404
3 411 405 413
3 394 413 405
3 413 410 411
3 414 285 284
3 285 414 407
3 401 407 414
3 407 272 285
3 414 415 401
3 415 414 416
3 284 416 414
3 416 221 415
3 226 288 30
3 288 226 416
3 221 416 226
3 416 284 288
3 220 415 221
3 415 220 400
3 222 400 220
3 400 401 415
3 417 418 419
3 418 417 420
3 421 420 417
3 420 422 418
3 417 423 421
3 423 417 424
3 419 424 417
3 424 277 423
3 282 425 258
3 425 282 424
3 277 424 282
3 424 419 425
3 276 423 277
3 423 276 426
3 278 426 276
3 426 421 423
3 427 425 419
3 425 427 428
3 429 428 427
3 428 258 425
3 427 430 429
3 430 427 431
3 419 431 427
3 431 432 430
3 433 418 422
3 418 433 431
3 432 431 433
3 431 419 418
3 434 430 432
3 430 434 435
3 308 435 434
3 435 429 430
3 436 311 310
3 311 436 437
3 438 437 436
3 437 314 311
3 436 439 438
3 439 436 440
3 310 440 436
3 440 432 439
3 434 317 308
3 317 434 440
3 432 440 434
3 440 310 317
3 433 439 432
3 439 433 441
3 422 441 433
3 441 438 439
3 442 321 320
3 321 442 435
3 429 435 442
3 435 308 321
3 442 443 429
3 443 442 444
3 320 444 442
3 444 257 443
3 262 324 106
3 324 262 444
3 257 444 262
3 444 320 324
3 256 443 257
3 443 256 428
3 258 428 256
3 428 429 443
3 445 446 447
3 446 445 448
3 449 448 445
3 448 450 446
3 445 451 449
3 451 445 452
3 447 452 445
3 452 313 451
3 318 453 294
3 453 318 452
3 313 452 318
3 452 447 453
3 312 451 313
3 451 312 454
3 314 454 312
3 454 449 451
3 455 453 447
3 453 455 456
3 457 456 455
3 456 294 453
3 455 458 457
3 458 455 459
3 447 459 455
3 459 460 458
3 461 446 450
3 446 461 459
3 460 459 461
3 459 447 446
3 462 458 460
3 458 462 463
3 344 463 462
3 463 457 458
3 464 347 346
3 347 464 465
3 466 465 464
3 465 350 347
3 464 467 466
3 467 464 468
3 346 468 464
3 468 460 467
3 462 353 344
3 353 462 468
3 460 468 462
3 468 346 353
3 461 467 460
3 467 461 469
3 450 469 461
3 469 466 467
3 470 357 356
3 357 470 463
3 457 463 470
3 463 344 357
3 470 471 457
3 471 470 472
3 356 472 470
3 472 293 471
3 298 360 142
3 360 298 472
3 293 472 298
3 472 356 360
3 292 471 293
3 471 292 456
3 294 456 292
3 456 457 471
3 473 474 475
3 474 473 476
3 477 476 473
3 476 478 474
3 473 479 477
3 479 473 480
3 475 480 473
3 480 349 479
3 354 481 330
3 481 354 480
3 349 480 354
3 480 475 481
3 348 479 349
3 479 348 482
3 350 482 348
3 482 477 479
3 483 481 475
3 481 483 484
3 485 484 483
3 484 330 481
3 483 486 485
3 486 483 487
3 475 487 483
3 487 488 486
3 489 474 478
3 474 489 487
3 488 487 489
3 487 475 474
3 490 486 488
3 486 490 491
3 200 491 490
3 491 485 486
3 492 203 202
3 203 492 493
3 494 493 492
3 493 206 203
3 492 495 494
3 495 492 496
3 202 496 492
3 496 488 495
3 490 209 200
3 209 490 496
3 488 496 490
3 496 202 209
3 489 495 488
3 495 489 497
3 478 497 489
3 497 494 495
3 498 213 212
3 213 498 491
3 485 491 498
3 491 200 213
3 498 499 485
3 499 498 500
3 212 500 498
3 500 329 499
3 334 216 70
3 216 334 500
3 329 500 334
3 500 212 216
3 328 499 329
3 499 328 484
3 330 484 328
3 484 485 499
3 501 502 503
3 503 504 501
3 505 501 504
3 504 503 506
3 501 505 507
3 507 508 501
3 502 501 508
3 508 507 382
3 385 366 509
3 509 508 385
3 382 385 508
3 508 509 502
3 381 382 507
3 507 510 381
3 242 381 510
3 510 507 505
3 511 502 509
3 509 512 511
3 513 511 512
3 512 509 366
3 511 513 514
3 514 515 511
3 502 511 515
3 515 514 516
3 517 506 503
3 503 515 517
3 516 517 515
3 515 503 502
3 518 516 514
3 514 519 518
3 520 518 519
3 519 514 513
3 521 522 523
3 523 524 521
3 525 521 524
3 524 523 526
3 521 525 527
3 527 528 521
3 522 521 528
3 528 527 516
3 518 520 529
3 529 528 518
3 516 518 528
3 528 529 522
3 517 516 527
3 527 530 517
3 506 517 530
3 530 527 525
3 531 532 533
3 533 519 531
3 513 531 519
3 519 533 520
3 531 513 534
3 534 535 531
3 532 531 535
3 535 534 365
3 370 206 536
3 536 535 370
3 365 370 535
3 535 536 532
3 364 365 534
3 534 512 364
3 366 364 512
3 512 534 513
3 537 538 539
3 539 540 537
3 541 537 540
3 540 539 542
3 537 541 543
3 543 544 537
3 538 537 544
3 544 543 410
3 413 394 545
3 545 544 413
3 410 413 544
3 544 545 538
3 409 410 543
3 543 546 409
3 278 409 546
3 546 543 541
3 547 538 545
3 545 548 547
3 549 547 548
3 548 545 394
3 547 549 550
3 550 551 547
3 538 547 551
3 551 550 552
3 553 542 539
3 539 551 553
3 552 553 551
3 551 539 538
3 554 552 550
3 550 555 554
3 506 554 555
3 555 550 549
3 556 525 524
3 524 557 556
3 558 556 557
3 557 524 526
3 556 558 559
3 559 560 556
3 525 556 560
3 560 559 552
3 554 506 530
3 530 560 554
3 552 554 560
3 560 530 525
3 553 552 559
3 559 561 553
3 542 553 561
3 561 559 558
3 562 505 504
3 504 555 562
3 549 562 555
3 555 504 506
3 562 549 563
3 563 564 562
3 505 562 564
3 564 563 393
3 398 242 510
3 510 564 398
3 393 398 564
3 564 510 505
3 392 393 563
3 563 548 392
3 394 392 548
3 548 563 549
3 565 566 567
3 567 568 565
3 569 565 568
3 568 567 570
3 565 569 571
3 571 572 565
3 566 565 572
3 572 571 438
3 441 422 573
3 573 572 441
3 438 441 572
3 572 573 566
3 437 438 571
3 571 574 437
3 314 437 574
3 574 571 569
3 575 566 573
3 573 576 575
3 577 575 576
3 576 573 422
3 575 577 578
3 578 579 575
3 566 575 579
3 579 578 580
3 581 570 567
3 567 579 581
3 580 581 579
3 579 567 566
3 582 580 578
3 578 583 582
3 542 582 583
3 583 578 577
3 584 558 557
3 557 585 584
3 586 584 585
3 585 557 526
3 584 586 587
3 587 588 584
3 558 584 588
3 588 587 580
3 582 542 561
3 561 588 582
3 580 582 588
3 588 561 558
3 581 580 587
3 587 589 581
3 570 581 589
3 589 587 586
3 590 541 540
3 540 583 590
3 577 590 583
3 583 540 542
3 590 577 591
3 591 592 590
3 541 590 592
3 592 591 421
3 426 278 546
3 546 592 426
3 421 426 592
3 592 546 541
3 420 421 591
3 591 576 420
3 422 420 576
3 576 591 577
3 593 594 595
3 595 596 593
3 597 593 596
3 596 595 598
3 593 597 599
3 599 600 593
3 594 593 600
3 600 599 466
3 469 450 601
3 601 600 469
3 466 469 600
3 600 601 594
3 465 466 599
3 599 602 465
3 350 465 602
3 602 599 597
3 603 594 601
3 601 604 603
3 605 603 604
3 604 601 450
3 603 605 606
3 606 607 603
3 594 603 607
3 607 606 608
3 609 598 595
3 595 607 609
3 608 609 607
3 607 595 594
3 610 608 606
3 606 611 610
3 570 610 611
3 611 606 605
3 612 586 585
3 585 613 612
3 614 612 613
3 613 585 526
3 612 614 615
3 615 616 612
3 586 612 616
3 616 615 608
3 610 570 589
3 589 616 610
3 608 610 616
3 616 589 586
3 609 608 615
3 615 617 609
3 598 609 617
3 617 615 614
3 618 569 568
3 568 611 618
3 605 618 611
3 611 568 570
3 618 605 619
3 619 620 618
3 569 618 620
3 620 619 449
3 454 314 574
3 574 620 454
3 449 454 620
3 620 574 569
3 448 449 619
3 619 604 448
3 450 448 604
3 604 619 605
3 621 622 623
3 623 533 621
3 532 621 533
3 533 623 520
3 621 532 624
3 624 625 621
3 622 621 625
3 625 624 494
3 497 478 626
3 626 625 497
3 494 497 625
3 625 626 622
3 493 494 624
3 624 536 493
3 206 493 536
3 536 624 532
3 627 622 626
3 626 628 627
3 629 627 628
3 628 626 478
3 627 629 630
3 630 631 627
3 622 627 631
3 631 630 632
3 633 520 623
3 623 631 633
3 632 633 631
3 631 623 622
3 634 632 630
3 630 635 634
3 598 634 635
3 635 630 629
3 636 614 613
3 613 523 636
3 522 636 523
3 523 613 526
3 636 522 637
3 637 638 636
3 614 636 638
3 638 637 632
3 634 598 617
3 617 638 634
3 632 634 638
3 638 617 614
3 633 632 637
3 637 529 633
3 520 633 529
3 529 637 522
3 639 597 596
3 596 635 639
3 629 639 635
3 635 596 598
3 639 629 640
3 640 641 639
3 597 639 641
3 641 640 477
3 482 350 602
3 602 641 482
3 477 482 641
3 641 602 597
3 476 477 640
3 640 628 476
3 478 476 628
3 628 640 629
3 642 643 644
3 642 644 645
