ply
format ascii 1.0
comment Created by Blender3D 2.51 (sub 1) - www.blender.org, source file: egyptcat.blend
element vertex 28
property float x
property float y
property float z
element face 12
property list uchar uint vertex_indices
end_header
10.642315 8.315351 7.322051 
10.642309 8.315356 0.006215 
-11.766085 8.315361 0.006215 
-11.766088 8.315357 7.322051 
-11.766088 -14.093038 0.006215 
-11.766092 -14.093037 7.322051 
-11.766088 8.315357 7.322051 
-11.766085 8.315361 0.006215 
10.642309 -14.093040 0.006215 
10.642302 -14.093047 7.322051 
-11.766088 -14.093038 0.006215 
10.642302 -14.093047 7.322051 
-11.766092 -14.093037 7.322051 
-11.766088 -14.093038 0.006215 
10.642309 8.315356 0.006215 
10.642315 8.315351 7.322051 
10.642309 -14.093040 0.006215 
10.642315 8.315351 7.322051 
10.642302 -14.093047 7.322051 
10.642309 -14.093040 0.006215 
10.642315 8.315351 7.322051 
-11.766088 8.315357 7.322051 
10.642302 -14.093047 7.322051 
-11.766092 -14.093037 7.322051 
10.642309 8.315356 0.006215 
10.642309 -14.093040 0.006215 
-11.766088 -14.093038 0.006215 
-11.766085 8.315361 0.006215 
3 0 1 2
3 0 2 3
3 4 5 6
3 4 6 7
3 8 9 10
3 11 12 13
3 14 15 16
3 17 18 19
3 20 21 22
3 21 23 22
3 24 25 26
3 24 26 27
