ply
format ascii 1.0
comment Created by SmallLuxGPU exporter for Blender 2.5, source file: egyptcat.blend
element vertex 56
property float x
property float y
property float z
property uchar red
property uchar green
property uchar blue
element face 28
property list uchar uint vertex_indices
end_header
7.662871 -1.524239 1.155167 255 255 255
7.218266 -2.989902 1.155167 255 255 255
7.218262 -2.989914 5.623867 255 255 255
7.662868 -1.524254 5.623867 255 255 255
7.218266 -2.989902 1.155167 255 255 255
6.496268 -4.340667 1.155167 255 255 255
6.496263 -4.340674 5.623867 255 255 255
7.218262 -2.989914 5.623867 255 255 255
6.496268 -4.340667 1.155167 255 255 255
5.524621 -5.524621 1.155167 255 255 255
5.524618 -5.524625 5.623867 255 255 255
6.496263 -4.340674 5.623867 255 255 255
5.524621 -5.524621 1.155167 255 255 255
4.340667 -6.496268 1.155167 255 255 255
4.340666 -6.496269 5.623867 255 255 255
5.524618 -5.524625 5.623867 255 255 255
4.340667 -6.496268 1.155167 255 255 255
2.989902 -7.218267 1.155167 255 255 255
2.989905 -7.218266 5.623867 255 255 255
4.340666 -6.496269 5.623867 255 255 255
2.989902 -7.218267 1.155167 255 255 255
1.524238 -7.662871 1.155167 255 255 255
1.524244 -7.662870 5.623867 255 255 255
2.989905 -7.218266 5.623867 255 255 255
1.524238 -7.662871 1.155167 255 255 255
-0.000003 -7.812995 1.155167 255 255 255
0.000007 -7.812995 5.623867 255 255 255
1.524244 -7.662870 5.623867 255 255 255
-0.000003 -7.812995 1.155167 255 255 255
-1.524243 -7.662870 1.155167 255 255 255
-1.524230 -7.662872 5.623867 255 255 255
0.000007 -7.812995 5.623867 255 255 255
-1.524243 -7.662870 1.155167 255 255 255
-2.989907 -7.218265 1.155167 255 255 255
-2.989891 -7.218272 5.623867 255 255 255
-1.524230 -7.662872 5.623867 255 255 255
-2.989907 -7.218265 1.155167 255 255 255
-4.340671 -6.496265 1.155167 255 255 255
-4.340653 -6.496277 5.623867 255 255 255
-2.989891 -7.218272 5.623867 255 255 255
-4.340671 -6.496265 1.155167 255 255 255
-5.524625 -5.524618 1.155167 255 255 255
-5.524608 -5.524636 5.623867 255 255 255
-4.340653 -6.496277 5.623867 255 255 255
-5.524625 -5.524618 1.155167 255 255 255
-6.496271 -4.340663 1.155167 255 255 255
-6.496255 -4.340686 5.623867 255 255 255
-5.524608 -5.524636 5.623867 255 255 255
-6.496271 -4.340663 1.155167 255 255 255
-7.218269 -2.989898 1.155167 255 255 255
-7.218256 -2.989928 5.623867 255 255 255
-6.496255 -4.340686 5.623867 255 255 255
-7.218269 -2.989898 1.155167 255 255 255
-7.662872 -1.524233 1.155167 255 255 255
-7.662865 -1.524268 5.623867 255 255 255
-7.218256 -2.989928 5.623867 255 255 255
3 0 1 2
3 0 2 3
3 4 5 6
3 4 6 7
3 8 9 10
3 8 10 11
3 12 13 14
3 12 14 15
3 16 17 18
3 16 18 19
3 20 21 22
3 20 22 23
3 24 25 26
3 24 26 27
3 28 29 30
3 28 30 31
3 32 33 34
3 32 34 35
3 36 37 38
3 36 38 39
3 40 41 42
3 40 42 43
3 44 45 46
3 44 46 47
3 48 49 50
3 48 50 51
3 52 53 54
3 52 54 55
