ply
format ascii 1.0
comment Created by Blender 2.79 (sub 0) - www.blender.org, source file: ''
element vertex 162
property float x
property float y
property float z
property float nx
property float ny
property float nz
element face 320
property list uchar uint vertex_indices
end_header
-0.576370 -0.406812 -1.622380 0.000000 0.000000 -1.000000
-0.428552 -0.514207 -1.599063 0.210944 -0.153233 -0.965392
-0.632830 -0.580582 -1.599063 -0.080569 -0.247963 -0.965392
-0.049933 -0.789287 -1.220223 0.723594 -0.525712 -0.447218
-0.132914 -0.728998 -1.373219 0.604205 -0.438978 -0.664968
0.014905 -0.621603 -1.260295 0.815180 -0.285714 -0.503800
-0.759084 -0.406812 -1.599063 -0.260750 0.000000 -0.965392
-0.632830 -0.233042 -1.599063 -0.080569 0.247963 -0.965392
-0.428552 -0.299417 -1.599063 0.210944 0.153264 -0.965392
0.049803 -0.728999 -1.077579 0.864986 -0.438978 -0.243049
-0.777447 -1.025675 -1.220223 -0.276376 -0.850642 -0.447218
-0.597933 -1.035522 -1.260296 -0.019837 -0.863552 -0.503800
-0.689292 -1.101899 -1.077580 -0.150212 -0.958281 -0.243049
-1.227081 -0.406812 -1.220220 -0.894406 0.000000 -0.447188
-1.180974 -0.580582 -1.260294 -0.827448 -0.247963 -0.503800
-1.272333 -0.514207 -1.077578 -0.957823 -0.153264 -0.243049
-0.777447 0.212051 -1.220223 -0.276376 0.850642 -0.447218
-0.928468 0.114502 -1.260296 -0.491531 0.710288 -0.503800
-0.893573 0.221900 -1.077580 -0.441725 0.863582 -0.243049
-0.049933 -0.024337 -1.220223 0.723594 0.525712 -0.447218
-0.189374 0.089146 -1.260296 0.523637 0.686972 -0.503800
-0.076450 0.089148 -1.077580 0.684805 0.686972 -0.243049
-0.076450 -0.902772 -1.077580 0.684805 -0.686972 -0.243049
-0.893573 -1.035524 -1.077580 -0.441725 -0.863582 -0.243049
-1.272333 -0.299417 -1.077578 -0.957823 0.153264 -0.243049
-0.689292 0.288275 -1.077580 -0.150212 0.958281 -0.243049
0.049803 -0.084625 -1.077579 0.864986 0.438978 -0.243049
-0.375293 -1.025675 -0.569502 0.276376 -0.850642 0.447218
-0.224272 -0.928126 -0.529429 0.491531 -0.710288 0.503800
-0.406988 -0.928125 -0.416505 0.230781 -0.710288 0.664968
-1.102808 -0.789287 -0.569502 -0.723594 -0.525712 0.447218
-0.963367 -0.902770 -0.529429 -0.523637 -0.686972 0.503800
-1.019826 -0.728998 -0.416506 -0.604205 -0.438978 0.664968
-1.102808 -0.024337 -0.569502 -0.723594 0.525712 0.447218
-1.167645 -0.192021 -0.529430 -0.815180 0.285714 0.503800
-1.019826 -0.084626 -0.416506 -0.604205 0.438978 0.664968
-0.375293 0.212051 -0.569502 0.276376 0.850642 0.447218
-0.554807 0.221898 -0.529429 0.019837 0.863552 0.503800
-0.406988 0.114501 -0.416505 0.230781 0.710288 0.664968
0.074341 -0.406812 -0.569505 0.894406 0.000000 0.447188
0.028234 -0.233042 -0.529431 0.827448 0.247963 0.503800
-0.028228 -0.406812 -0.416509 0.746849 0.000000 0.664968
-0.393656 -0.406812 -0.190662 0.260750 0.000000 0.965392
-0.519910 -0.233042 -0.190661 0.080569 0.247963 0.965392
-0.576370 -0.406812 -0.167344 0.000000 0.000000 1.000000
-0.193892 -0.406812 -0.275998 0.525712 0.000000 0.850642
-0.313154 -0.215574 -0.244149 0.368206 0.267495 0.890408
-0.112073 -0.215574 -0.368423 0.631733 0.267495 0.727531
-0.458181 -0.043056 -0.275996 0.162450 0.499985 0.850642
-0.251017 -0.024335 -0.368422 0.449629 0.518143 0.727531
-0.075700 -0.043055 -0.512380 0.688162 0.499985 0.525712
-0.224272 0.114502 -0.529429 0.491531 0.710288 0.503800
-0.724188 -0.299417 -0.190662 -0.210944 0.153233 0.965392
-0.676911 -0.097384 -0.244148 -0.140629 0.432844 0.890408
-0.614776 0.093855 -0.368421 -0.059206 0.683493 0.727531
-0.885800 -0.182001 -0.275996 -0.425306 0.309000 0.850642
-0.839589 0.020808 -0.368421 -0.353832 0.587725 0.727531
-0.767612 0.181759 -0.512379 -0.262856 0.808985 0.525712
-0.963367 0.089146 -0.529429 -0.523637 0.686972 0.503800
-0.724188 -0.514207 -0.190662 -0.210944 -0.153233 0.965392
-0.901724 -0.406812 -0.244149 -0.455123 0.000000 0.890408
-1.064401 -0.288622 -0.368422 -0.668325 0.154881 0.727531
-0.885800 -0.631623 -0.275996 -0.425306 -0.309000 0.850642
-1.064401 -0.525002 -0.368422 -0.668325 -0.154881 0.727531
-1.195232 -0.406812 -0.512380 -0.850642 0.000000 0.525712
-1.167645 -0.621603 -0.529430 -0.815180 -0.285714 0.503800
-0.519910 -0.580582 -0.190661 0.080569 -0.247963 0.965392
-0.676911 -0.716240 -0.244148 -0.140629 -0.432844 0.890408
-0.839589 -0.834431 -0.368421 -0.353832 -0.587725 0.727531
-0.458181 -0.770568 -0.275996 0.162450 -0.499985 0.850642
-0.614776 -0.907479 -0.368421 -0.059206 -0.683493 0.727531
-0.767612 -0.995383 -0.512379 -0.262856 -0.808985 0.525712
-0.554807 -1.035522 -0.529429 0.019837 -0.863552 0.503800
-0.313154 -0.598050 -0.244149 0.368206 -0.267495 0.890408
-0.251017 -0.789289 -0.368422 0.449629 -0.518143 0.727531
-0.112073 -0.598050 -0.368423 0.631733 -0.267495 0.727531
-0.075700 -0.770569 -0.512380 0.688162 -0.499985 0.525712
0.028234 -0.580582 -0.529431 0.827448 -0.247963 0.503800
0.119592 -0.299417 -0.712147 0.957823 0.153264 0.243049
0.115542 -0.182000 -0.894862 0.951048 0.309000 0.000000
0.050608 -0.097383 -0.693779 0.859310 0.432844 0.272408
0.012206 0.020810 -0.894862 0.808985 0.587756 0.008850
-0.088336 0.093858 -0.693778 0.677206 0.683493 0.272408
-0.148746 0.181762 -0.894862 0.587756 0.809015 0.000000
-0.259167 0.221900 -0.712145 0.441725 0.863582 0.243049
-0.463448 0.288275 -0.712145 0.150212 0.958281 0.243049
-0.576370 0.320706 -0.894862 0.000000 0.999969 0.000000
-0.676912 0.285098 -0.693779 -0.146123 0.950987 0.272408
-0.801185 0.285099 -0.894863 -0.309000 0.951018 0.008850
-0.901727 0.212050 -0.693778 -0.440748 0.855251 0.272408
-1.003995 0.181762 -0.894862 -0.587756 0.809015 0.000000
-1.076290 0.089148 -0.712145 -0.684805 0.686972 0.243049
-1.202543 -0.084625 -0.712146 -0.864986 0.438978 0.243049
-1.268282 -0.182000 -0.894862 -0.951048 0.309000 0.000000
-1.265485 -0.288621 -0.693779 -0.949614 0.154881 0.272408
-1.303888 -0.406812 -0.894862 -0.999939 0.000000 0.008850
-1.265485 -0.525003 -0.693779 -0.949614 -0.154881 0.272408
-1.268282 -0.631624 -0.894862 -0.951048 -0.309000 0.000000
-1.202543 -0.728999 -0.712146 -0.864986 -0.438978 0.243049
-1.076290 -0.902772 -0.712145 -0.684805 -0.686972 0.243049
-1.003995 -0.995386 -0.894862 -0.587756 -0.809015 0.000000
-0.901728 -1.025674 -0.693779 -0.440748 -0.855251 0.272408
-0.801186 -1.098723 -0.894863 -0.309000 -0.951018 0.008850
-0.676913 -1.098722 -0.693779 -0.146123 -0.950987 0.272408
-0.576370 -1.134330 -0.894862 0.000000 -1.000000 0.000000
-0.463448 -1.101899 -0.712145 0.150212 -0.958281 0.243049
-0.259167 -1.035524 -0.712145 0.441725 -0.863582 0.243049
-0.148746 -0.995386 -0.894862 0.587756 -0.809015 0.000000
-0.088336 -0.907482 -0.693779 0.677206 -0.683493 0.272408
0.012206 -0.834435 -0.894864 0.808985 -0.587756 0.008850
0.050608 -0.716242 -0.693780 0.859310 -0.432844 0.272408
0.115542 -0.631624 -0.894862 0.951048 -0.309000 0.000000
0.119592 -0.514207 -0.712147 0.957823 -0.153264 0.243049
-0.351555 0.285099 -0.894862 0.309000 0.951018 -0.008850
-0.251013 0.212050 -1.095947 0.440748 0.855251 -0.272408
-0.475828 0.285098 -1.095947 0.146123 0.950987 -0.272408
-0.385128 0.181759 -1.277346 0.262856 0.808985 -0.525712
-0.597933 0.221898 -1.260296 -0.019837 0.863552 -0.503800
-1.164946 0.020811 -0.894862 -0.808985 0.587756 -0.008850
-1.064403 0.093859 -1.095946 -0.677206 0.683493 -0.272408
-1.203347 -0.097381 -1.095946 -0.859310 0.432844 -0.272408
-1.077040 -0.043055 -1.277345 -0.688162 0.499985 -0.525712
-1.180974 -0.233042 -1.260294 -0.827448 0.247963 -0.503800
-1.164946 -0.834435 -0.894862 -0.808985 -0.587756 -0.008850
-1.203348 -0.716243 -1.095946 -0.859310 -0.432844 -0.272408
-1.064403 -0.907483 -1.095946 -0.677206 -0.683493 -0.272408
-1.077040 -0.770569 -1.277345 -0.688162 -0.499985 -0.525712
-0.928468 -0.928126 -1.260296 -0.491531 -0.710288 -0.503800
-0.351555 -1.098723 -0.894862 0.309000 -0.951018 -0.008850
-0.475828 -1.098722 -1.095947 0.146123 -0.950987 -0.272408
-0.251013 -1.025674 -1.095947 0.440748 -0.855251 -0.272408
-0.385128 -0.995383 -1.277346 0.262856 -0.808985 -0.525712
-0.189374 -0.902770 -1.260296 0.523637 -0.686972 -0.503800
0.151148 -0.406812 -0.894862 0.999939 0.000000 -0.008850
0.112745 -0.525003 -1.095945 0.949614 -0.154881 -0.272408
0.112745 -0.288621 -1.095945 0.949614 0.154881 -0.272408
0.042491 -0.406812 -1.277345 0.850642 0.000000 -0.525712
0.014905 -0.192021 -1.260295 0.815180 0.285714 -0.503800
-0.132914 -0.084626 -1.373219 0.604205 0.438978 -0.664968
-0.266940 -0.182001 -1.513729 0.425306 0.309000 -0.850642
-0.313152 0.020808 -1.421303 0.353832 0.587756 -0.727531
-0.475830 -0.097383 -1.545576 0.140629 0.432844 -0.890408
-0.537965 0.093856 -1.421302 0.059206 0.683493 -0.727531
-0.694560 -0.043056 -1.513729 -0.162450 0.499985 -0.850642
-0.745752 0.114501 -1.373219 -0.230781 0.710288 -0.664968
-0.901724 -0.024336 -1.421303 -0.449629 0.518143 -0.727531
-0.839587 -0.215575 -1.545576 -0.368206 0.267495 -0.890408
-1.040668 -0.215574 -1.421301 -0.631733 0.267495 -0.727531
-0.958848 -0.406812 -1.513727 -0.525712 0.000000 -0.850642
-1.124513 -0.406812 -1.373216 -0.746849 0.000000 -0.664968
-1.040668 -0.598050 -1.421301 -0.631733 -0.267495 -0.727531
-0.839587 -0.598051 -1.545575 -0.368206 -0.267495 -0.890408
-0.901724 -0.789289 -1.421302 -0.449629 -0.518143 -0.727531
-0.694560 -0.770568 -1.513729 -0.162450 -0.499985 -0.850642
-0.745752 -0.928125 -1.373219 -0.230781 -0.710288 -0.664968
-0.088339 -0.288622 -1.421302 0.668325 0.154881 -0.727531
-0.088338 -0.525003 -1.421302 0.668325 -0.154881 -0.727531
-0.251016 -0.406812 -1.545575 0.455123 0.000000 -0.890408
-0.266940 -0.631623 -1.513729 0.425306 -0.309000 -0.850642
-0.537964 -0.907479 -1.421303 0.059206 -0.683493 -0.727531
-0.475828 -0.716240 -1.545576 0.140629 -0.432844 -0.890408
-0.313151 -0.834432 -1.421302 0.353832 -0.587756 -0.727531
3 0 1 2
3 3 4 5
3 0 2 6
3 0 6 7
3 0 7 8
3 3 5 9
3 10 11 12
3 13 14 15
3 16 17 18
3 19 20 21
3 3 9 22
3 10 12 23
3 13 15 24
3 16 18 25
3 19 21 26
3 27 28 29
3 30 31 32
3 33 34 35
3 36 37 38
3 39 40 41
3 42 43 44
3 45 46 42
3 41 47 45
3 42 46 43
3 46 48 43
3 45 47 46
3 47 49 46
3 46 49 48
3 49 38 48
3 41 40 47
3 40 50 47
3 47 50 49
3 50 51 49
3 49 51 38
3 51 36 38
3 43 52 44
3 48 53 43
3 38 54 48
3 43 53 52
3 53 55 52
3 48 54 53
3 54 56 53
3 53 56 55
3 56 35 55
3 38 37 54
3 37 57 54
3 54 57 56
3 57 58 56
3 56 58 35
3 58 33 35
3 52 59 44
3 55 60 52
3 35 61 55
3 52 60 59
3 60 62 59
3 55 61 60
3 61 63 60
3 60 63 62
3 63 32 62
3 35 34 61
3 34 64 61
3 61 64 63
3 64 65 63
3 63 65 32
3 65 30 32
3 59 66 44
3 62 67 59
3 32 68 62
3 59 67 66
3 67 69 66
3 62 68 67
3 68 70 67
3 67 70 69
3 70 29 69
3 32 31 68
3 31 71 68
3 68 71 70
3 71 72 70
3 70 72 29
3 72 27 29
3 66 42 44
3 69 73 66
3 29 74 69
3 66 73 42
3 73 45 42
3 69 74 73
3 74 75 73
3 73 75 45
3 75 41 45
3 29 28 74
3 28 76 74
3 74 76 75
3 76 77 75
3 75 77 41
3 77 39 41
3 78 40 39
3 79 80 78
3 26 81 79
3 78 80 40
3 80 50 40
3 79 81 80
3 81 82 80
3 80 82 50
3 82 51 50
3 26 21 81
3 21 83 81
3 81 83 82
3 83 84 82
3 82 84 51
3 84 36 51
3 85 37 36
3 86 87 85
3 25 88 86
3 85 87 37
3 87 57 37
3 86 88 87
3 88 89 87
3 87 89 57
3 89 58 57
3 25 18 88
3 18 90 88
3 88 90 89
3 90 91 89
3 89 91 58
3 91 33 58
3 92 34 33
3 93 94 92
3 24 95 93
3 92 94 34
3 94 64 34
3 93 95 94
3 95 96 94
3 94 96 64
3 96 65 64
3 24 15 95
3 15 97 95
3 95 97 96
3 97 98 96
3 96 98 65
3 98 30 65
3 99 31 30
3 100 101 99
3 23 102 100
3 99 101 31
3 101 71 31
3 100 102 101
3 102 103 101
3 101 103 71
3 103 72 71
3 23 12 102
3 12 104 102
3 102 104 103
3 104 105 103
3 103 105 72
3 105 27 72
3 106 28 27
3 107 108 106
3 22 109 107
3 106 108 28
3 108 76 28
3 107 109 108
3 109 110 108
3 108 110 76
3 110 77 76
3 22 9 109
3 9 111 109
3 109 111 110
3 111 112 110
3 110 112 77
3 112 39 77
3 84 85 36
3 83 113 84
3 21 114 83
3 84 113 85
3 113 86 85
3 83 114 113
3 114 115 113
3 113 115 86
3 115 25 86
3 21 20 114
3 20 116 114
3 114 116 115
3 116 117 115
3 115 117 25
3 117 16 25
3 91 92 33
3 90 118 91
3 18 119 90
3 91 118 92
3 118 93 92
3 90 119 118
3 119 120 118
3 118 120 93
3 120 24 93
3 18 17 119
3 17 121 119
3 119 121 120
3 121 122 120
3 120 122 24
3 122 13 24
3 98 99 30
3 97 123 98
3 15 124 97
3 98 123 99
3 123 100 99
3 97 124 123
3 124 125 123
3 123 125 100
3 125 23 100
3 15 14 124
3 14 126 124
3 124 126 125
3 126 127 125
3 125 127 23
3 127 10 23
3 105 106 27
3 104 128 105
3 12 129 104
3 105 128 106
3 128 107 106
3 104 129 128
3 129 130 128
3 128 130 107
3 130 22 107
3 12 11 129
3 11 131 129
3 129 131 130
3 131 132 130
3 130 132 22
3 132 3 22
3 112 78 39
3 111 133 112
3 9 134 111
3 112 133 78
3 133 79 78
3 111 134 133
3 134 135 133
3 133 135 79
3 135 26 79
3 9 5 134
3 5 136 134
3 134 136 135
3 136 137 135
3 135 137 26
3 137 19 26
3 138 20 19
3 139 140 138
3 8 141 139
3 138 140 20
3 140 116 20
3 139 141 140
3 141 142 140
3 140 142 116
3 142 117 116
3 8 7 141
3 7 143 141
3 141 143 142
3 143 144 142
3 142 144 117
3 144 16 117
3 144 17 16
3 143 145 144
3 7 146 143
3 144 145 17
3 145 121 17
3 143 146 145
3 146 147 145
3 145 147 121
3 147 122 121
3 7 6 146
3 6 148 146
3 146 148 147
3 148 149 147
3 147 149 122
3 149 13 122
3 149 14 13
3 148 150 149
3 6 151 148
3 149 150 14
3 150 126 14
3 148 151 150
3 151 152 150
3 150 152 126
3 152 127 126
3 6 2 151
3 2 153 151
3 151 153 152
3 153 154 152
3 152 154 127
3 154 10 127
3 137 138 19
3 136 155 137
3 5 156 136
3 137 155 138
3 155 139 138
3 136 156 155
3 156 157 155
3 155 157 139
3 157 8 139
3 5 4 156
3 4 158 156
3 156 158 157
3 158 1 157
3 157 1 8
3 1 0 8
3 154 11 10
3 153 159 154
3 2 160 153
3 154 159 11
3 159 131 11
3 153 160 159
3 160 161 159
3 159 161 131
3 161 132 131
3 2 1 160
3 1 158 160
3 160 158 161
3 158 4 161
3 161 4 132
3 4 3 132
