ply
format ascii 1.0
comment Created by Blender 2.83.5 - www.blender.org, source file: ''
element vertex 240
property float x
property float y
property float z
property float nx
property float ny
property float nz
property float s
property float t
element face 80
property list uchar uint vertex_indices
end_header
0.000000 0.000000 1.000000 0.102381 -0.315090 -0.943523 0.818181 0.000000
0.425323 -0.309011 1.149346 0.102381 -0.315090 -0.943523 0.772726 0.078731
-0.162456 -0.499995 1.149346 0.102381 -0.315090 -0.943523 0.863635 0.078731
0.723607 -0.525725 1.552781 0.700224 -0.268032 -0.661699 0.727272 0.157461
0.425323 -0.309011 1.149346 0.700224 -0.268032 -0.661699 0.681818 0.078731
0.850648 0.000000 1.474264 0.700224 -0.268032 -0.661699 0.636363 0.157461
0.000000 0.000000 1.000000 -0.268034 -0.194737 -0.943523 0.090909 0.000000
-0.162456 -0.499995 1.149346 -0.268034 -0.194737 -0.943523 0.045454 0.078731
-0.525730 0.000000 1.149348 -0.268034 -0.194737 -0.943523 0.136363 0.078731
0.000000 0.000000 1.000000 -0.268034 0.194737 -0.943523 0.272727 0.000000
-0.525730 0.000000 1.149348 -0.268034 0.194737 -0.943523 0.227273 0.078731
-0.162456 0.499995 1.149346 -0.268034 0.194737 -0.943523 0.318182 0.078731
0.000000 0.000000 1.000000 0.102381 0.315090 -0.943523 0.454545 0.000000
-0.162456 0.499995 1.149346 0.102381 0.315090 -0.943523 0.409090 0.078731
0.425323 0.309011 1.149346 0.102381 0.315090 -0.943523 0.500000 0.078731
0.723607 -0.525725 1.552781 0.904989 -0.268031 -0.330385 0.727272 0.157461
0.850648 0.000000 1.474264 0.904989 -0.268031 -0.330385 0.636363 0.157461
0.951058 -0.309013 2.000000 0.904989 -0.268031 -0.330385 0.681818 0.236191
-0.276388 -0.850649 1.552780 0.024747 -0.943521 -0.330386 0.909090 0.157461
0.262869 -0.809012 1.474262 0.024747 -0.943521 -0.330386 0.818181 0.157461
0.000000 -1.000000 2.000000 0.024747 -0.943521 -0.330386 0.863635 0.236191
-0.894426 0.000000 1.552784 -0.889697 -0.315095 -0.330385 0.181818 0.157461
-0.688189 -0.499997 1.474264 -0.889697 -0.315095 -0.330385 0.090909 0.157461
-0.951058 -0.309013 2.000000 -0.889697 -0.315095 -0.330385 0.136363 0.236191
-0.276388 0.850649 1.552780 -0.574602 0.748784 -0.330388 0.363636 0.157461
-0.688189 0.499997 1.474264 -0.574602 0.748784 -0.330388 0.272727 0.157461
-0.587786 0.809017 2.000000 -0.574602 0.748784 -0.330388 0.318182 0.236191
0.723607 0.525725 1.552781 0.534576 0.777865 -0.330387 0.545454 0.157461
0.262869 0.809012 1.474262 0.534576 0.777865 -0.330387 0.454545 0.157461
0.587786 0.809017 2.000000 0.534576 0.777865 -0.330387 0.500000 0.236191
0.723607 -0.525725 1.552781 0.802609 -0.583126 -0.125627 0.727272 0.157461
0.951058 -0.309013 2.000000 0.802609 -0.583126 -0.125627 0.681818 0.236191
0.587786 -0.809017 2.000000 0.802609 -0.583126 -0.125627 0.772726 0.236191
-0.276388 -0.850649 1.552780 -0.306569 -0.943522 -0.125629 0.909090 0.157461
0.000000 -1.000000 2.000000 -0.306569 -0.943522 -0.125629 0.863635 0.236191
-0.587786 -0.809017 2.000000 -0.306569 -0.943522 -0.125629 0.954545 0.236191
-0.894426 0.000000 1.552784 -0.992077 -0.000000 -0.125628 0.181818 0.157461
-0.951058 -0.309013 2.000000 -0.992077 -0.000000 -0.125628 0.136363 0.236191
-0.951058 0.309013 2.000000 -0.992077 -0.000000 -0.125628 0.227273 0.236191
-0.276388 0.850649 1.552780 -0.306569 0.943522 -0.125629 0.363636 0.157461
-0.587786 0.809017 2.000000 -0.306569 0.943522 -0.125629 0.318182 0.236191
0.000000 1.000000 2.000000 -0.306569 0.943522 -0.125629 0.409090 0.236191
0.723607 0.525725 1.552781 0.802609 0.583126 -0.125627 0.545454 0.157461
0.587786 0.809017 2.000000 0.802609 0.583126 -0.125627 0.500000 0.236191
0.951058 0.309013 2.000000 0.802609 0.583126 -0.125627 0.590909 0.236191
0.276388 -0.850649 2.447220 0.408946 -0.628425 0.661699 0.818181 0.314921
0.688189 -0.499997 2.525736 0.408946 -0.628425 0.661699 0.727272 0.314921
0.162456 -0.499995 2.850654 0.408946 -0.628425 0.661699 0.772726 0.393651
-0.723607 -0.525725 2.447220 -0.471300 -0.583122 0.661699 1.000000 0.314921
-0.262869 -0.809012 2.525738 -0.471300 -0.583122 0.661699 0.909091 0.314921
-0.425323 -0.309011 2.850654 -0.471300 -0.583122 0.661699 0.954545 0.393651
-0.723607 0.525725 2.447220 -0.700224 0.268032 0.661699 0.272727 0.314921
-0.850648 0.000000 2.525736 -0.700224 0.268032 0.661699 0.181818 0.314921
-0.425323 0.309011 2.850654 -0.700224 0.268032 0.661699 0.227273 0.393651
0.276388 0.850649 2.447220 0.038531 0.748779 0.661699 0.454545 0.314921
-0.262869 0.809012 2.525738 0.038531 0.748779 0.661699 0.363636 0.314921
0.162456 0.499995 2.850654 0.038531 0.748779 0.661699 0.409090 0.393651
0.894426 0.000000 2.447216 0.724042 0.194736 0.661695 0.636363 0.314921
0.688189 0.499997 2.525736 0.724042 0.194736 0.661695 0.545454 0.314921
0.525730 0.000000 2.850652 0.724042 0.194736 0.661695 0.590909 0.393651
0.525730 0.000000 2.850652 0.268034 0.194737 0.943523 0.590909 0.393651
0.162456 0.499995 2.850654 0.268034 0.194737 0.943523 0.500000 0.393651
0.000000 0.000000 3.000000 0.268034 0.194737 0.943523 0.545454 0.472382
0.525730 0.000000 2.850652 0.491119 0.356821 0.794658 0.590909 0.393651
0.688189 0.499997 2.525736 0.491119 0.356821 0.794658 0.545454 0.314921
0.162456 0.499995 2.850654 0.491119 0.356821 0.794658 0.500000 0.393651
0.688189 0.499997 2.525736 0.408946 0.628425 0.661699 0.545454 0.314921
0.276388 0.850649 2.447220 0.408946 0.628425 0.661699 0.454545 0.314921
0.162456 0.499995 2.850654 0.408946 0.628425 0.661699 0.500000 0.393651
0.162456 0.499995 2.850654 -0.102381 0.315090 0.943523 0.409090 0.393651
-0.425323 0.309011 2.850654 -0.102381 0.315090 0.943523 0.318182 0.393651
0.000000 0.000000 3.000000 -0.102381 0.315090 0.943523 0.363636 0.472382
0.162456 0.499995 2.850654 -0.187594 0.577345 0.794658 0.409090 0.393651
-0.262869 0.809012 2.525738 -0.187594 0.577345 0.794658 0.363636 0.314921
-0.425323 0.309011 2.850654 -0.187594 0.577345 0.794658 0.318182 0.393651
-0.262869 0.809012 2.525738 -0.471300 0.583122 0.661699 0.363636 0.314921
-0.723607 0.525725 2.447220 -0.471300 0.583122 0.661699 0.272727 0.314921
-0.425323 0.309011 2.850654 -0.471300 0.583122 0.661699 0.318182 0.393651
-0.425323 0.309011 2.850654 -0.331305 0.000000 0.943524 0.227273 0.393651
-0.425323 -0.309011 2.850654 -0.331305 0.000000 0.943524 0.136363 0.393651
0.000000 0.000000 3.000000 -0.331305 0.000000 0.943524 0.181818 0.472382
-0.425323 0.309011 2.850654 -0.607060 0.000000 0.794656 0.227273 0.393651
-0.850648 0.000000 2.525736 -0.607060 0.000000 0.794656 0.181818 0.314921
-0.425323 -0.309011 2.850654 -0.607060 0.000000 0.794656 0.136363 0.393651
-0.850648 0.000000 2.525736 -0.700224 -0.268032 0.661699 0.181818 0.314921
-0.723607 -0.525725 2.447220 -0.700224 -0.268032 0.661699 0.090909 0.314921
-0.425323 -0.309011 2.850654 -0.700224 -0.268032 0.661699 0.136363 0.393651
-0.425323 -0.309011 2.850654 -0.102381 -0.315090 0.943523 0.954545 0.393651
0.162456 -0.499995 2.850654 -0.102381 -0.315090 0.943523 0.863635 0.393651
0.000000 0.000000 3.000000 -0.102381 -0.315090 0.943523 0.909090 0.472382
-0.425323 -0.309011 2.850654 -0.187594 -0.577345 0.794658 0.954545 0.393651
-0.262869 -0.809012 2.525738 -0.187594 -0.577345 0.794658 0.909091 0.314921
0.162456 -0.499995 2.850654 -0.187594 -0.577345 0.794658 0.863635 0.393651
-0.262869 -0.809012 2.525738 0.038531 -0.748779 0.661699 0.909091 0.314921
0.276388 -0.850649 2.447220 0.038531 -0.748779 0.661699 0.818181 0.314921
0.162456 -0.499995 2.850654 0.038531 -0.748779 0.661699 0.863635 0.393651
0.162456 -0.499995 2.850654 0.268034 -0.194737 0.943523 0.772726 0.393651
0.525730 0.000000 2.850652 0.268034 -0.194737 0.943523 0.681818 0.393651
0.000000 0.000000 3.000000 0.268034 -0.194737 0.943523 0.727272 0.472382
0.162456 -0.499995 2.850654 0.491119 -0.356821 0.794658 0.772726 0.393651
0.688189 -0.499997 2.525736 0.491119 -0.356821 0.794658 0.727272 0.314921
0.525730 0.000000 2.850652 0.491119 -0.356821 0.794658 0.681818 0.393651
0.688189 -0.499997 2.525736 0.724042 -0.194736 0.661695 0.727272 0.314921
0.894426 0.000000 2.447216 0.724042 -0.194736 0.661695 0.636363 0.314921
0.525730 0.000000 2.850652 0.724042 -0.194736 0.661695 0.681818 0.393651
0.951058 0.309013 2.000000 0.889697 0.315095 0.330385 0.590909 0.236191
0.688189 0.499997 2.525736 0.889697 0.315095 0.330385 0.545454 0.314921
0.894426 0.000000 2.447216 0.889697 0.315095 0.330385 0.636363 0.314921
0.951058 0.309013 2.000000 0.794656 0.577348 0.187595 0.590909 0.236191
0.587786 0.809017 2.000000 0.794656 0.577348 0.187595 0.500000 0.236191
0.688189 0.499997 2.525736 0.794656 0.577348 0.187595 0.545454 0.314921
0.587786 0.809017 2.000000 0.574602 0.748784 0.330388 0.500000 0.236191
0.276388 0.850649 2.447220 0.574602 0.748784 0.330388 0.454545 0.314921
0.688189 0.499997 2.525736 0.574602 0.748784 0.330388 0.545454 0.314921
0.000000 1.000000 2.000000 -0.024747 0.943521 0.330386 0.409090 0.236191
-0.262869 0.809012 2.525738 -0.024747 0.943521 0.330386 0.363636 0.314921
0.276388 0.850649 2.447220 -0.024747 0.943521 0.330386 0.454545 0.314921
0.000000 1.000000 2.000000 -0.303531 0.934171 0.187597 0.409090 0.236191
-0.587786 0.809017 2.000000 -0.303531 0.934171 0.187597 0.318182 0.236191
-0.262869 0.809012 2.525738 -0.303531 0.934171 0.187597 0.363636 0.314921
-0.587786 0.809017 2.000000 -0.534576 0.777865 0.330386 0.318182 0.236191
-0.723607 0.525725 2.447220 -0.534576 0.777865 0.330386 0.272727 0.314921
-0.262869 0.809012 2.525738 -0.534576 0.777865 0.330386 0.363636 0.314921
-0.951058 0.309013 2.000000 -0.904989 0.268031 0.330385 0.227273 0.236191
-0.850648 0.000000 2.525736 -0.904989 0.268031 0.330385 0.181818 0.314921
-0.723607 0.525725 2.447220 -0.904989 0.268031 0.330385 0.272727 0.314921
-0.951058 0.309013 2.000000 -0.982246 0.000000 0.187599 0.227273 0.236191
-0.951058 -0.309013 2.000000 -0.982246 0.000000 0.187599 0.136363 0.236191
-0.850648 0.000000 2.525736 -0.982246 0.000000 0.187599 0.181818 0.314921
-0.951058 -0.309013 2.000000 -0.904989 -0.268031 0.330385 0.136363 0.236191
-0.723607 -0.525725 2.447220 -0.904989 -0.268031 0.330385 0.090909 0.314921
-0.850648 0.000000 2.525736 -0.904989 -0.268031 0.330385 0.181818 0.314921
-0.587786 -0.809017 2.000000 -0.534576 -0.777865 0.330386 0.954545 0.236191
-0.262869 -0.809012 2.525738 -0.534576 -0.777865 0.330386 0.909091 0.314921
-0.723607 -0.525725 2.447220 -0.534576 -0.777865 0.330386 1.000000 0.314921
-0.587786 -0.809017 2.000000 -0.303531 -0.934171 0.187597 0.954545 0.236191
0.000000 -1.000000 2.000000 -0.303531 -0.934171 0.187597 0.863635 0.236191
-0.262869 -0.809012 2.525738 -0.303531 -0.934171 0.187597 0.909091 0.314921
0.000000 -1.000000 2.000000 -0.024747 -0.943521 0.330386 0.863635 0.236191
0.276388 -0.850649 2.447220 -0.024747 -0.943521 0.330386 0.818181 0.314921
-0.262869 -0.809012 2.525738 -0.024747 -0.943521 0.330386 0.909091 0.314921
0.587786 -0.809017 2.000000 0.574602 -0.748784 0.330388 0.772726 0.236191
0.688189 -0.499997 2.525736 0.574602 -0.748784 0.330388 0.727272 0.314921
0.276388 -0.850649 2.447220 0.574602 -0.748784 0.330388 0.818181 0.314921
0.587786 -0.809017 2.000000 0.794656 -0.577348 0.187595 0.772726 0.236191
0.951058 -0.309013 2.000000 0.794656 -0.577348 0.187595 0.681818 0.236191
0.688189 -0.499997 2.525736 0.794656 -0.577348 0.187595 0.727272 0.314921
0.951058 -0.309013 2.000000 0.889697 -0.315095 0.330385 0.681818 0.236191
0.894426 0.000000 2.447216 0.889697 -0.315095 0.330385 0.636363 0.314921
0.688189 -0.499997 2.525736 0.889697 -0.315095 0.330385 0.727272 0.314921
0.587786 0.809017 2.000000 0.306569 0.943522 0.125629 0.500000 0.236191
0.000000 1.000000 2.000000 0.306569 0.943522 0.125629 0.409090 0.236191
0.276388 0.850649 2.447220 0.306569 0.943522 0.125629 0.454545 0.314921
0.587786 0.809017 2.000000 0.303531 0.934171 -0.187597 0.500000 0.236191
0.262869 0.809012 1.474262 0.303531 0.934171 -0.187597 0.454545 0.157461
0.000000 1.000000 2.000000 0.303531 0.934171 -0.187597 0.409090 0.236191
0.262869 0.809012 1.474262 0.024747 0.943521 -0.330386 0.454545 0.157461
-0.276388 0.850649 1.552780 0.024747 0.943521 -0.330386 0.363636 0.157461
0.000000 1.000000 2.000000 0.024747 0.943521 -0.330386 0.409090 0.236191
-0.587786 0.809017 2.000000 -0.802609 0.583126 0.125627 0.318182 0.236191
-0.951058 0.309013 2.000000 -0.802609 0.583126 0.125627 0.227273 0.236191
-0.723607 0.525725 2.447220 -0.802609 0.583126 0.125627 0.272727 0.314921
-0.587786 0.809017 2.000000 -0.794656 0.577348 -0.187595 0.318182 0.236191
-0.688189 0.499997 1.474264 -0.794656 0.577348 -0.187595 0.272727 0.157461
-0.951058 0.309013 2.000000 -0.794656 0.577348 -0.187595 0.227273 0.236191
-0.688189 0.499997 1.474264 -0.889697 0.315095 -0.330385 0.272727 0.157461
-0.894426 0.000000 1.552784 -0.889697 0.315095 -0.330385 0.181818 0.157461
-0.951058 0.309013 2.000000 -0.889697 0.315095 -0.330385 0.227273 0.236191
-0.951058 -0.309013 2.000000 -0.802609 -0.583126 0.125627 0.136363 0.236191
-0.587786 -0.809017 2.000000 -0.802609 -0.583126 0.125627 0.045454 0.236191
-0.723607 -0.525725 2.447220 -0.802609 -0.583126 0.125627 0.090909 0.314921
-0.951058 -0.309013 2.000000 -0.794656 -0.577348 -0.187595 0.136363 0.236191
-0.688189 -0.499997 1.474264 -0.794656 -0.577348 -0.187595 0.090909 0.157461
-0.587786 -0.809017 2.000000 -0.794656 -0.577348 -0.187595 0.045454 0.236191
-0.688189 -0.499997 1.474264 -0.574602 -0.748784 -0.330388 0.090909 0.157461
-0.276388 -0.850649 1.552780 -0.574602 -0.748784 -0.330388 0.000000 0.157461
-0.587786 -0.809017 2.000000 -0.574602 -0.748784 -0.330388 0.045454 0.236191
0.000000 -1.000000 2.000000 0.306569 -0.943522 0.125629 0.863635 0.236191
0.587786 -0.809017 2.000000 0.306569 -0.943522 0.125629 0.772726 0.236191
0.276388 -0.850649 2.447220 0.306569 -0.943522 0.125629 0.818181 0.314921
0.000000 -1.000000 2.000000 0.303531 -0.934171 -0.187597 0.863635 0.236191
0.262869 -0.809012 1.474262 0.303531 -0.934171 -0.187597 0.818181 0.157461
0.587786 -0.809017 2.000000 0.303531 -0.934171 -0.187597 0.772726 0.236191
0.262869 -0.809012 1.474262 0.534576 -0.777865 -0.330387 0.818181 0.157461
0.723607 -0.525725 1.552781 0.534576 -0.777865 -0.330387 0.727272 0.157461
0.587786 -0.809017 2.000000 0.534576 -0.777865 -0.330387 0.772726 0.236191
0.951058 -0.309013 2.000000 0.992077 0.000000 0.125628 0.681818 0.236191
0.951058 0.309013 2.000000 0.992077 0.000000 0.125628 0.590909 0.236191
0.894426 0.000000 2.447216 0.992077 0.000000 0.125628 0.636363 0.314921
0.951058 -0.309013 2.000000 0.982246 0.000000 -0.187599 0.681818 0.236191
0.850648 0.000000 1.474264 0.982246 0.000000 -0.187599 0.636363 0.157461
0.951058 0.309013 2.000000 0.982246 0.000000 -0.187599 0.590909 0.236191
0.850648 0.000000 1.474264 0.904989 0.268031 -0.330385 0.636363 0.157461
0.723607 0.525725 1.552781 0.904989 0.268031 -0.330385 0.545454 0.157461
0.951058 0.309013 2.000000 0.904989 0.268031 -0.330385 0.590909 0.236191
0.425323 0.309011 1.149346 0.471300 0.583122 -0.661699 0.500000 0.078731
0.262869 0.809012 1.474262 0.471300 0.583122 -0.661699 0.454545 0.157461
0.723607 0.525725 1.552781 0.471300 0.583122 -0.661699 0.545454 0.157461
0.425323 0.309011 1.149346 0.187594 0.577345 -0.794658 0.500000 0.078731
-0.162456 0.499995 1.149346 0.187594 0.577345 -0.794658 0.409090 0.078731
0.262869 0.809012 1.474262 0.187594 0.577345 -0.794658 0.454545 0.157461
-0.162456 0.499995 1.149346 -0.038530 0.748779 -0.661699 0.409090 0.078731
-0.276388 0.850649 1.552780 -0.038530 0.748779 -0.661699 0.363636 0.157461
0.262869 0.809012 1.474262 -0.038530 0.748779 -0.661699 0.454545 0.157461
-0.162456 0.499995 1.149346 -0.408946 0.628425 -0.661698 0.318182 0.078731
-0.688189 0.499997 1.474264 -0.408946 0.628425 -0.661698 0.272727 0.157461
-0.276388 0.850649 1.552780 -0.408946 0.628425 -0.661698 0.363636 0.157461
-0.162456 0.499995 1.149346 -0.491119 0.356821 -0.794657 0.318182 0.078731
-0.525730 0.000000 1.149348 -0.491119 0.356821 -0.794657 0.227273 0.078731
-0.688189 0.499997 1.474264 -0.491119 0.356821 -0.794657 0.272727 0.157461
-0.525730 0.000000 1.149348 -0.724042 0.194736 -0.661695 0.227273 0.078731
-0.894426 0.000000 1.552784 -0.724042 0.194736 -0.661695 0.181818 0.157461
-0.688189 0.499997 1.474264 -0.724042 0.194736 -0.661695 0.272727 0.157461
-0.525730 0.000000 1.149348 -0.724042 -0.194736 -0.661695 0.136363 0.078731
-0.688189 -0.499997 1.474264 -0.724042 -0.194736 -0.661695 0.090909 0.157461
-0.894426 0.000000 1.552784 -0.724042 -0.194736 -0.661695 0.181818 0.157461
-0.525730 0.000000 1.149348 -0.491119 -0.356821 -0.794657 0.136363 0.078731
-0.162456 -0.499995 1.149346 -0.491119 -0.356821 -0.794657 0.045454 0.078731
-0.688189 -0.499997 1.474264 -0.491119 -0.356821 -0.794657 0.090909 0.157461
-0.162456 -0.499995 1.149346 -0.408946 -0.628425 -0.661699 0.045454 0.078731
-0.276388 -0.850649 1.552780 -0.408946 -0.628425 -0.661699 0.000000 0.157461
-0.688189 -0.499997 1.474264 -0.408946 -0.628425 -0.661699 0.090909 0.157461
0.850648 0.000000 1.474264 0.700224 0.268032 -0.661699 0.636363 0.157461
0.425323 0.309011 1.149346 0.700224 0.268032 -0.661699 0.590909 0.078731
0.723607 0.525725 1.552781 0.700224 0.268032 -0.661699 0.545454 0.157461
0.850648 0.000000 1.474264 0.607060 0.000000 -0.794656 0.636363 0.157461
0.425323 -0.309011 1.149346 0.607060 0.000000 -0.794656 0.681818 0.078731
0.425323 0.309011 1.149346 0.607060 0.000000 -0.794656 0.590909 0.078731
0.425323 -0.309011 1.149346 0.331305 0.000000 -0.943524 0.681818 0.078731
0.000000 0.000000 1.000000 0.331305 0.000000 -0.943524 0.636363 0.000000
0.425323 0.309011 1.149346 0.331305 0.000000 -0.943524 0.590909 0.078731
-0.162456 -0.499995 1.149346 -0.038530 -0.748779 -0.661699 0.863635 0.078731
0.262869 -0.809012 1.474262 -0.038530 -0.748779 -0.661699 0.818181 0.157461
-0.276388 -0.850649 1.552780 -0.038530 -0.748779 -0.661699 0.909090 0.157461
-0.162456 -0.499995 1.149346 0.187594 -0.577345 -0.794658 0.863635 0.078731
0.425323 -0.309011 1.149346 0.187594 -0.577345 -0.794658 0.772726 0.078731
0.262869 -0.809012 1.474262 0.187594 -0.577345 -0.794658 0.818181 0.157461
0.425323 -0.309011 1.149346 0.471300 -0.583122 -0.661699 0.772726 0.078731
0.723607 -0.525725 1.552781 0.471300 -0.583122 -0.661699 0.727272 0.157461
0.262869 -0.809012 1.474262 0.471300 -0.583122 -0.661699 0.818181 0.157461
3 0 1 2
3 3 4 5
3 6 7 8
3 9 10 11
3 12 13 14
3 15 16 17
3 18 19 20
3 21 22 23
3 24 25 26
3 27 28 29
3 30 31 32
3 33 34 35
3 36 37 38
3 39 40 41
3 42 43 44
3 45 46 47
3 48 49 50
3 51 52 53
3 54 55 56
3 57 58 59
3 60 61 62
3 63 64 65
3 66 67 68
3 69 70 71
3 72 73 74
3 75 76 77
3 78 79 80
3 81 82 83
3 84 85 86
3 87 88 89
3 90 91 92
3 93 94 95
3 96 97 98
3 99 100 101
3 102 103 104
3 105 106 107
3 108 109 110
3 111 112 113
3 114 115 116
3 117 118 119
3 120 121 122
3 123 124 125
3 126 127 128
3 129 130 131
3 132 133 134
3 135 136 137
3 138 139 140
3 141 142 143
3 144 145 146
3 147 148 149
3 150 151 152
3 153 154 155
3 156 157 158
3 159 160 161
3 162 163 164
3 165 166 167
3 168 169 170
3 171 172 173
3 174 175 176
3 177 178 179
3 180 181 182
3 183 184 185
3 186 187 188
3 189 190 191
3 192 193 194
3 195 196 197
3 198 199 200
3 201 202 203
3 204 205 206
3 207 208 209
3 210 211 212
3 213 214 215
3 216 217 218
3 219 220 221
3 222 223 224
3 225 226 227
3 228 229 230
3 231 232 233
3 234 235 236
3 237 238 239
