ply
format ascii 1.0
comment Created by Blender 2.83.5 - www.blender.org, source file: ''
element vertex 13
property float x
property float y
property float z
property float nx
property float ny
property float nz
property float s
property float t
element face 5
property list uchar uint vertex_indices
end_header
-0.866025 0.500000 1.000000 -0.377056 0.846883 0.374991 0.250000 0.490000
0.000000 0.000000 3.000000 -0.377056 0.846883 0.374991 0.250000 0.250000
0.207912 0.978148 1.000000 -0.377056 0.846883 0.374991 0.478254 0.324164
0.406737 -0.913545 1.000000 -0.192740 -0.906771 0.374991 0.108932 0.055836
0.000000 0.000000 3.000000 -0.192740 -0.906771 0.374991 0.250000 0.250000
-0.743145 -0.669131 1.000000 -0.192740 -0.906771 0.374991 0.021746 0.324164
-0.743145 -0.669131 1.000000 -0.921950 -0.096901 0.374991 0.021746 0.324164
0.000000 0.000000 3.000000 -0.921950 -0.096901 0.374991 0.250000 0.250000
-0.866025 0.500000 1.000000 -0.921950 -0.096901 0.374991 0.250000 0.490000
0.207912 0.978148 1.000000 0.000000 0.000000 -1.000000 0.978254 0.324164
0.406737 -0.913545 1.000000 0.000000 0.000000 -1.000000 0.608932 0.055836
-0.743145 -0.669131 1.000000 0.000000 0.000000 -1.000000 0.521746 0.324164
-0.866025 0.500000 1.000000 0.000000 -0.000000 -1.000000 0.750000 0.490000
3 0 1 2
3 3 4 5
3 6 7 8
3 9 10 11
3 11 12 9
