ply
format ascii 1.0
comment Created by SmallLuxGPU exporter for Blender 2.5, source file: SLGAudiRS8.blend
element vertex 36
property float x
property float y
property float z
property float nx
property float ny
property float nz
property float s
property float t
element face 40
property list uchar uint vertex_indices
end_header
3.494123 -1.447665 0.397103 -0.388379 -0.156194 -0.908139 0 0
3.536019 -1.442108 0.349260 -0.666799 0.507309 -0.545824 0 0
3.512522 -1.475973 0.344545 -0.669088 0.508438 -0.541978 0 0
3.478816 -1.477245 0.390863 -0.406354 -0.16715 -0.898282 0 0
3.512523 1.516685 0.344545 -0.669088 -0.508438 -0.541978 0 0
3.536020 1.482821 0.349260 -0.666799 -0.507309 -0.545824 0 0
3.494124 1.488378 0.397103 -0.388379 0.156194 -0.908139 0 0
3.478816 1.517958 0.390863 -0.406354 0.16715 -0.898282 0 0
3.580964 -1.437064 0.300985 -0.396008 0.858974 0.324473 0 0
3.555901 -1.474681 0.297476 -0.400616 0.872066 0.281045 0 0
3.555902 1.515394 0.297476 -0.400616 -0.872066 0.281045 0 0
3.580965 1.477777 0.300985 -0.396008 -0.858974 0.324473 0 0
3.510760 -1.437064 0.300985 0 0.634083 0.773247 0 0
3.474188 -1.442108 0.349260 0 0.109622 -0.993957 0 0
3.474188 1.482821 0.349260 0 -0.109653 -0.993957 0 0
3.510761 1.477777 0.300985 0 -0.634083 0.773247 0 0
3.441740 -1.447665 0.397103 0 -0.583972 -0.811731 0 0
3.441741 1.488378 0.397103 0 0.583972 -0.811731 0 0
3.486103 -1.474681 0.297476 0 0.663228 0.748375 0 0
3.450686 -1.475973 0.344545 0 0.0290536 -0.999573 0 0
3.486103 1.515394 0.297476 0 -0.663228 0.748375 0 0
3.450686 1.516685 0.344545 0 -0.0249947 -0.999664 0 0
3.414164 -1.477245 0.390863 0 -0.61919 -0.785211 0 0
3.414165 1.517958 0.390863 0 0.61919 -0.785211 0 0
3.867624 -0.721313 0.307278 0.636219 -0.662099 -0.395978 0 0
3.742330 -1.116135 0.291484 0.688742 -0.254036 -0.679006 0 0
3.742330 -1.116135 0.278324 0.632801 -0.296182 0.715384 0 0
3.872180 -0.721313 0.294997 0.539781 -0.611866 0.578112 0 0
3.742331 1.156848 0.278324 0.632801 0.296182 0.715415 0 0
3.742331 1.156848 0.291484 0.688742 0.254036 -0.679006 0 0
3.867625 0.762026 0.307278 0.636219 0.662099 -0.395978 0 0
3.872182 0.762026 0.294997 0.539781 0.611835 0.578112 0 0
3.560702 -1.473676 0.275784 0.610034 0.406018 -0.68038 0 0
3.560702 -1.473676 0.261750 0.668905 0.311747 0.674764 0 0
3.560703 1.514389 0.261750 0.668905 -0.311747 0.674764 0 0
3.560703 1.514389 0.275784 0.610065 -0.406018 -0.68038 0 0
3 0 1 2
3 0 2 3
3 4 5 6
3 4 6 7
3 1 8 9
3 1 9 2
3 10 11 5
3 10 5 4
3 12 13 1
3 12 1 8
3 5 14 15
3 5 15 11
3 16 13 1
3 16 1 0
3 5 14 17
3 5 17 6
3 2 9 18
3 2 18 19
3 20 10 4
3 20 4 21
3 2 3 22
3 2 22 19
3 23 7 4
3 23 4 21
3 9 8 12
3 9 12 18
3 15 11 10
3 15 10 20
3 0 3 22
3 0 22 16
3 23 7 6
3 23 6 17
3 24 25 26
3 24 26 27
3 28 29 30
3 28 30 31
3 25 32 33
3 25 33 26
3 34 35 29
3 34 29 28
