ply
format ascii 1.0
comment Created by SmallLuxGPU exporter for Blender 2.5, source file: media.blend
element vertex 88
property float x
property float y
property float z
element face 44
property list uchar uint vertex_indices
end_header
-10.000000 5.000000 4.200000
-10.000000 5.000000 3.900000
-10.000000 -3.000000 3.900000
-10.000000 -3.000000 4.200000
-10.000000 5.000000 2.400000
-10.000000 5.000000 2.099999
-10.000000 -3.000000 2.099999
-10.000000 -3.000000 2.400000
-10.000000 5.000000 3.600000
-10.000000 5.000000 3.300000
-10.000000 -3.000000 3.300000
-10.000000 -3.000000 3.600000
-10.000000 5.000000 3.000000
-10.000000 5.000000 2.700000
-10.000000 -3.000000 2.700000
-10.000000 -3.000000 3.000000
-10.000000 5.000000 0.599999
-10.000000 5.000000 0.299999
-10.000000 -3.000000 0.299999
-10.000000 -3.000000 0.599999
-10.000000 5.000000 1.200000
-10.000000 5.000000 0.900000
-10.000000 -3.000000 0.900000
-10.000000 -3.000000 1.200000
-10.000000 5.000000 1.800000
-10.000000 5.000000 1.500000
-10.000000 -3.000000 1.500000
-10.000000 -3.000000 1.800000
-10.000000 5.000000 6.600000
-10.000000 5.000000 6.300000
-10.000000 -3.000000 6.300000
-10.000000 -3.000000 6.600000
-10.000000 5.000000 4.800000
-10.000000 5.000000 4.500000
-10.000000 -3.000000 4.500000
-10.000000 -3.000000 4.800000
-10.000000 5.000000 6.000000
-10.000000 5.000000 5.700000
-10.000000 -3.000000 5.700000
-10.000000 -3.000000 6.000000
-10.000000 5.000000 5.400000
-10.000000 5.000000 5.099999
-10.000000 -3.000000 5.099999
-10.000000 -3.000000 5.400000
-10.000000 5.000000 7.800000
-10.000000 5.000000 7.500000
-10.000000 -3.000000 7.500000
-10.000000 -3.000000 7.800000
-10.000000 5.000000 8.400000
-10.000000 5.000000 8.100000
-10.000000 -3.000000 8.100000
-10.000000 -3.000000 8.400000
-10.000000 5.000000 7.200000
-10.000000 5.000000 6.900000
-10.000000 -3.000000 6.900000
-10.000000 -3.000000 7.200000
-10.000000 5.000000 9.000000
-10.000000 5.000000 8.700000
-10.000000 -3.000000 8.700000
-10.000000 -3.000000 9.000000
-10.000000 10.000000 9.000000
-10.000000 10.000000 0.000000
-10.000000 5.000000 0.000000
-10.000000 5.000000 9.000000
-10.000000 -3.000000 9.000000
-10.000000 -3.000000 0.000000
-10.000000 -8.000000 0.000000
-10.000000 -8.000000 9.000000
9.000000 10.000000 0.000000
9.000000 -8.000000 0.000000
-10.000000 -8.000000 0.000000
-10.000000 10.000000 0.000000
9.000000 10.000000 9.000000
-10.000000 10.000000 9.000000
-10.000000 -8.000000 9.000000
8.999999 -8.000001 9.000000
9.000000 10.000000 0.000000
9.000000 10.000000 9.000000
8.999999 -8.000001 9.000000
9.000000 -8.000000 0.000000
9.000000 -8.000000 0.000000
8.999999 -8.000001 9.000000
-10.000000 -8.000000 9.000000
-10.000000 -8.000000 0.000000
9.000000 10.000000 9.000000
9.000000 10.000000 0.000000
-10.000000 10.000000 0.000000
-10.000000 10.000000 9.000000
3 0 1 2
3 0 2 3
3 4 5 6
3 4 6 7
3 8 9 10
3 8 10 11
3 12 13 14
3 12 14 15
3 16 17 18
3 16 18 19
3 20 21 22
3 20 22 23
3 24 25 26
3 24 26 27
3 28 29 30
3 28 30 31
3 32 33 34
3 32 34 35
3 36 37 38
3 36 38 39
3 40 41 42
3 40 42 43
3 44 45 46
3 44 46 47
3 48 49 50
3 48 50 51
3 52 53 54
3 52 54 55
3 56 57 58
3 56 58 59
3 60 61 62
3 60 62 63
3 64 65 66
3 64 66 67
3 68 69 70
3 68 70 71
3 72 73 74
3 72 74 75
3 76 77 78
3 76 78 79
3 80 81 82
3 80 82 83
3 84 85 86
3 84 86 87
