ply
format ascii 1.0
comment Created by SmallLuxGPU exporter for Blender 2.5, source file: cornell.blend
element vertex 52
property float x
property float y
property float z
element face 26
property list uchar uint vertex_indices
end_header
-4.230000 2.472627 3.298032
-2.650000 2.962627 3.297642
-3.140000 4.562626 3.296368
-4.720000 4.062626 3.296766
-4.230000 2.469999 -0.001967
-4.230000 2.472627 3.298032
-4.720000 4.062626 3.296766
-4.720000 4.059999 -0.003233
-4.720000 4.059999 -0.003233
-4.720000 4.062626 3.296766
-3.140000 4.562626 3.296368
-3.140000 4.559999 -0.003631
-3.140000 4.559999 -0.003631
-3.140000 4.562626 3.296368
-2.650000 2.962627 3.297642
-2.650000 2.959999 -0.002357
-2.650000 2.959999 -0.002357
-2.650000 2.962627 3.297642
-4.230000 2.472627 3.298032
-4.230000 2.469999 -0.001967
-1.300000 0.651314 1.649482
-0.820000 2.251313 1.648208
-2.400000 2.721313 1.647834
-2.900000 1.141314 1.649092
-2.900000 1.140000 -0.000908
-2.900000 1.141314 1.649092
-2.400000 2.721313 1.647834
-2.400000 2.719999 -0.002166
-1.300000 0.650000 -0.000518
-1.300000 0.651314 1.649482
-2.900000 1.141314 1.649092
-2.900000 1.140000 -0.000908
-0.820000 2.249999 -0.001792
-0.820000 2.251313 1.648208
-1.300000 0.651314 1.649482
-1.300000 0.650000 -0.000518
-2.400000 2.719999 -0.002166
-2.400000 2.721313 1.647834
-0.820000 2.251313 1.648208
-0.820000 2.249999 -0.001792
-5.495999 5.591999 -0.004453
0.000000 5.591999 -0.004453
0.000000 5.596368 5.483545
-5.560000 5.596368 5.483545
-5.560000 0.004370 5.487998
-5.560000 5.596369 5.483545
0.000000 5.596369 5.483545
0.000000 0.004370 5.487998
-5.528000 0.000000 0.000000
0.000000 0.000000 0.000000
0.000000 5.591999 -0.004453
-5.496000 5.591999 -0.004453
3 0 1 2
3 0 2 3
3 4 5 6
3 4 6 7
3 8 9 10
3 8 10 11
3 12 13 14
3 12 14 15
3 16 17 18
3 16 18 19
3 20 21 22
3 20 22 23
3 24 25 26
3 24 26 27
3 28 29 30
3 28 30 31
3 32 33 34
3 32 34 35
3 36 37 38
3 36 38 39
3 40 41 42
3 40 42 43
3 44 45 46
3 44 46 47
3 48 49 50
3 48 50 51
