ply
format ascii 1.0
comment Created by Blender 2.69 (sub 0) - www.blender.org, source file: 'cornell.blend'
element vertex 12
property float x
property float y
property float z
property float nx
property float ny
property float nz
element face 3
property list uchar uint vertex_indices
end_header
-5.495999 5.591999 -0.004453 0.000000 -1.000000 0.000796
0.000000 5.591999 -0.004453 0.000000 -1.000000 0.000796
0.000000 5.596368 5.483545 0.000000 -1.000000 0.000796
-5.560000 5.596368 5.483545 0.000000 -1.000000 0.000796
-5.560000 0.004370 5.487998 0.000000 -0.000796 -1.000000
-5.560000 5.596369 5.483545 0.000000 -0.000796 -1.000000
0.000000 5.596369 5.483545 0.000000 -0.000796 -1.000000
0.000000 0.004370 5.487998 0.000000 -0.000796 -1.000000
-5.528000 0.000000 0.000000 0.000000 0.000796 1.000000
0.000000 0.000000 0.000000 0.000000 0.000796 1.000000
0.000000 5.591999 -0.004453 0.000000 0.000796 1.000000
-5.496000 5.591999 -0.004453 0.000000 0.000796 1.000000
4 0 1 2 3
4 4 5 6 7
4 8 9 10 11
