ply
format ascii 1.0
comment Created by Blender 2.69 (sub 0) - www.blender.org, source file: 'cornell.blend'
element vertex 4
property float x
property float y
property float z
property float nx
property float ny
property float nz
element face 1
property list uchar uint vertex_indices
end_header
-5.531209 5.252039 5.126090 0.999957 0.000000 0.009265
-5.531208 0.452039 5.126090 0.999957 0.000000 0.009265
-5.486738 0.452039 0.326296 0.999957 0.000000 0.009265
-5.486738 5.252039 0.326296 0.999957 0.000000 0.009265
4 0 1 2 3
