ply
format ascii 1.0
comment Created by Blender 2.77 (sub 0) - www.blender.org, source file: 'cornell.blend'
element vertex 18
property float x
property float y
property float z
property float nx
property float ny
property float nz
element face 5
property list uchar uint vertex_indices
end_header
-3.810142 3.787634 1.677679 -1.000000 0.000000 -0.000000
-3.810142 1.787634 1.677679 -1.000000 0.000000 -0.000000
-3.810142 1.787634 3.677679 -1.000000 0.000000 -0.000000
-3.810142 3.787634 3.677679 -1.000000 0.000000 -0.000000
-3.810142 3.787634 3.677679 0.000000 1.000000 -0.000000
-1.810142 3.787634 2.677679 0.000000 1.000000 -0.000000
-3.810142 3.787634 1.677679 0.000000 1.000000 -0.000000
-1.810142 1.787634 2.677679 0.000000 -1.000000 0.000000
-3.810142 1.787634 3.677679 0.000000 -1.000000 0.000000
-3.810142 1.787634 1.677679 0.000000 -1.000000 0.000000
-3.810142 1.787634 1.677679 0.447214 0.000000 -0.894427
-3.810142 3.787634 1.677679 0.447214 0.000000 -0.894427
-1.810142 3.787634 2.677679 0.447214 0.000000 -0.894427
-1.810142 1.787634 2.677679 0.447214 0.000000 -0.894427
-1.810142 1.787634 2.677679 0.447214 0.000000 0.894427
-1.810142 3.787634 2.677679 0.447214 0.000000 0.894427
-3.810142 3.787634 3.677679 0.447214 0.000000 0.894427
-3.810142 1.787634 3.677679 0.447214 0.000000 0.894427
4 0 1 2 3
3 4 5 6
3 7 8 9
4 10 11 12 13
4 14 15 16 17
