ply
format ascii 1.0
comment Created by Blender3D 248 - www.blender.org, source file: bigmonkey.blend
element vertex 24
property float x
property float y
property float z
property float nx
property float ny
property float nz
property uchar red
property uchar green
property uchar blue
element face 12
property list uchar uint vertex_indices
end_header
-7.349062 -3.321893 8.041127 0.000000 -0.000001 -1.000000 255 255 255
-1.408620 -3.321893 8.041130 0.000000 -0.000001 -1.000000 255 255 255
-1.408618 -4.321539 8.041131 0.000000 -0.000001 -1.000000 255 255 255
-7.349062 -4.321539 8.041128 0.000000 -0.000001 -1.000000 255 255 255
-8.661257 -5.299833 8.041127 0.000000 0.000000 -1.000000 255 255 255
-2.720815 -5.299833 8.041130 0.000000 0.000000 -1.000000 255 255 255
-8.661257 -6.299479 8.041127 0.000000 0.000000 -1.000000 255 255 255
-2.720813 -6.299479 8.041130 0.000000 0.000000 -1.000000 255 255 255
-9.707210 -7.277773 8.041128 0.000000 0.000000 -1.000000 255 255 255
-3.766767 -7.277773 8.041131 0.000000 0.000000 -1.000000 255 255 255
-9.707210 -8.277418 8.041128 0.000000 0.000000 -1.000000 255 255 255
-3.766766 -8.277418 8.041131 0.000000 0.000000 -1.000000 255 255 255
1.428460 -10.114975 2.591576 0.000000 1.000000 -0.000000 255 255 255
0.358436 -10.114975 2.591575 0.000000 1.000000 -0.000000 255 255 255
0.358432 -10.114973 6.962508 0.000000 1.000000 -0.000000 255 255 255
1.428456 -10.114973 6.962508 0.000000 1.000000 -0.000000 255 255 255
3.545656 -10.114973 1.821972 -0.000000 1.000000 0.000000 255 255 255
2.475632 -10.114973 1.821971 -0.000000 1.000000 0.000000 255 255 255
2.475629 -10.114973 6.192904 -0.000000 1.000000 0.000000 255 255 255
3.545653 -10.114973 6.192904 -0.000000 1.000000 -0.000000 255 255 255
5.662849 -10.114973 5.227401 0.000000 1.000000 -0.000000 255 255 255
4.592829 -10.114975 0.856468 0.000000 1.000000 -0.000000 255 255 255
4.592825 -10.114973 5.227401 0.000000 1.000000 -0.000000 255 255 255
5.662853 -10.114975 0.856468 0.000000 1.000000 -0.000000 255 255 255
3 0 1 2 
3 0 2 3 
3 4 5 6 
3 5 7 6 
3 8 9 10 
3 9 11 10 
3 12 13 14 
3 15 12 14 
3 16 17 18 
3 19 16 18 
3 20 21 22 
3 20 23 21 
