ply
format ascii 1.0
comment Created by Blender3D 248 - www.blender.org, source file: bigmonkey.blend
element vertex 28
property float x
property float y
property float z
property float nx
property float ny
property float nz
property uchar red
property uchar green
property uchar blue
element face 12
property list uchar uint vertex_indices
end_header
21.933380 11.934731 8.791371 0.000000 1.000000 0.000001 255 255 255
21.933371 11.934738 -0.080016 0.000000 1.000000 0.000001 255 255 255
-15.782325 11.934748 -0.080016 0.000000 1.000000 0.000001 255 255 255
-15.782331 11.934740 8.791371 0.000000 1.000000 0.000001 255 255 255
-15.782334 -25.780958 -0.080016 -1.000000 0.000000 -0.000001 255 255 255
-15.782340 -25.780954 8.791371 -1.000000 0.000000 -0.000001 255 255 255
-15.782331 11.934740 8.791371 -1.000000 0.000000 -0.000001 255 255 255
-15.782325 11.934748 -0.080016 -1.000000 0.000000 -0.000001 255 255 255
21.933371 -25.780962 -0.080016 -0.000000 -1.000000 -0.000001 255 255 255
21.933359 -25.780973 8.791371 -0.000000 -1.000000 -0.000001 255 255 255
-15.782334 -25.780958 -0.080016 -0.000000 -1.000000 -0.000001 255 255 255
21.933359 -25.780973 8.791371 -0.000001 -1.000000 0.000000 255 255 255
-15.782340 -25.780954 8.791371 -0.000001 -1.000000 0.000000 255 255 255
-15.782334 -25.780958 -0.080016 -0.000001 -1.000000 0.000000 255 255 255
21.933371 11.934738 -0.080016 1.000000 0.000000 -0.000001 255 255 255
21.933380 11.934731 8.791371 1.000000 0.000000 -0.000001 255 255 255
21.933371 -25.780962 -0.080016 1.000000 0.000000 -0.000001 255 255 255
21.933380 11.934731 8.791371 1.000000 -0.000001 0.000001 255 255 255
21.933359 -25.780973 8.791371 1.000000 -0.000001 0.000001 255 255 255
21.933371 -25.780962 -0.080016 1.000000 -0.000001 0.000001 255 255 255
21.933380 11.934731 8.791371 -0.000000 -0.000000 1.000000 255 255 255
-15.782331 11.934740 8.791371 -0.000000 -0.000000 1.000000 255 255 255
21.933359 -25.780973 8.791371 -0.000000 -0.000000 1.000000 255 255 255
-15.782340 -25.780954 8.791371 0.000000 -0.000000 1.000000 255 255 255
21.933371 11.934738 -0.080016 0.000000 0.000000 -1.000000 255 255 255
21.933371 -25.780962 -0.080016 0.000000 0.000000 -1.000000 255 255 255
-15.782334 -25.780958 -0.080016 0.000000 0.000000 -1.000000 255 255 255
-15.782325 11.934748 -0.080016 0.000000 -0.000000 -1.000000 255 255 255
3 0 1 2 
3 0 2 3 
3 4 5 6 
3 4 6 7 
3 8 9 10 
3 11 12 13 
3 14 15 16 
3 17 18 19 
3 20 21 22 
3 21 23 22 
3 24 25 26 
3 24 26 27 
