ply
format ascii 1.0
comment Created by SmallLuxGPU exporter for Blender 2.5, source file: kitchen.blend
element vertex 472
property float x
property float y
property float z
property uchar red
property uchar green
property uchar blue
element face 218
property list uchar uint vertex_indices
end_header
10.050007 -1.325860 0.900000 255 255 255
10.049999 -1.326764 0.900709 255 255 255
10.058803 -1.328515 0.900709 255 255 255
10.059155 -1.327683 0.900000 255 255 255
10.049999 -1.326764 0.900709 255 255 255
10.050007 -1.325860 0.900000 255 255 255
10.040858 -1.327677 0.900000 255 255 255
10.041196 -1.328515 0.900709 255 255 255
10.033102 -1.332856 0.900000 255 255 255
10.033732 -1.333502 0.900709 255 255 255
10.041196 -1.328515 0.900709 255 255 255
10.040858 -1.327677 0.900000 255 255 255
10.027918 -1.340610 0.900000 255 255 255
10.028746 -1.340965 0.900709 255 255 255
10.033732 -1.333502 0.900709 255 255 255
10.033102 -1.332856 0.900000 255 255 255
10.026095 -1.349757 0.900000 255 255 255
10.026995 -1.349769 0.900709 255 255 255
10.028746 -1.340965 0.900709 255 255 255
10.027918 -1.340610 0.900000 255 255 255
10.027912 -1.358906 0.900000 255 255 255
10.028746 -1.358572 0.900709 255 255 255
10.026995 -1.349769 0.900709 255 255 255
10.026095 -1.349757 0.900000 255 255 255
10.033092 -1.366663 0.900000 255 255 255
10.033732 -1.366035 0.900709 255 255 255
10.028746 -1.358572 0.900709 255 255 255
10.027912 -1.358906 0.900000 255 255 255
10.040845 -1.371847 0.900000 255 255 255
10.041196 -1.371022 0.900709 255 255 255
10.033732 -1.366035 0.900709 255 255 255
10.033092 -1.366663 0.900000 255 255 255
10.049992 -1.373669 0.900000 255 255 255
10.049999 -1.372773 0.900709 255 255 255
10.041196 -1.371022 0.900709 255 255 255
10.040845 -1.371847 0.900000 255 255 255
10.059140 -1.371853 0.900000 255 255 255
10.058803 -1.371022 0.900709 255 255 255
10.049999 -1.372773 0.900709 255 255 255
10.049992 -1.373669 0.900000 255 255 255
10.066897 -1.366673 0.900000 255 255 255
10.066266 -1.366035 0.900709 255 255 255
10.058803 -1.371022 0.900709 255 255 255
10.059140 -1.371853 0.900000 255 255 255
10.072082 -1.358920 0.900000 255 255 255
10.071253 -1.358572 0.900709 255 255 255
10.066266 -1.366035 0.900709 255 255 255
10.066897 -1.366673 0.900000 255 255 255
10.073904 -1.349772 0.900000 255 255 255
10.073004 -1.349769 0.900709 255 255 255
10.071253 -1.358572 0.900709 255 255 255
10.072082 -1.358920 0.900000 255 255 255
10.072087 -1.340624 0.900000 255 255 255
10.071253 -1.340965 0.900709 255 255 255
10.073004 -1.349769 0.900709 255 255 255
10.073904 -1.349772 0.900000 255 255 255
10.066908 -1.332867 0.900000 255 255 255
10.066266 -1.333502 0.900709 255 255 255
10.071253 -1.340965 0.900709 255 255 255
10.072087 -1.340624 0.900000 255 255 255
10.059155 -1.327683 0.900000 255 255 255
10.058803 -1.328515 0.900709 255 255 255
10.066266 -1.333502 0.900709 255 255 255
10.066908 -1.332867 0.900000 255 255 255
10.078908 -0.808909 1.690000 255 255 255
9.884166 -1.003651 1.690000 255 255 255
9.884166 -1.003651 1.660000 255 255 255
10.078908 -0.808909 1.660000 255 255 255
10.078908 -0.808909 1.660000 255 255 255
9.759999 -0.490000 1.660000 255 255 255
9.759999 -0.490000 1.690000 255 255 255
10.078908 -0.808909 1.690000 255 255 255
9.884166 -1.003651 1.660000 255 255 255
9.884166 -1.003651 1.690000 255 255 255
9.883529 -1.003651 1.689549 255 255 255
9.883529 -1.003651 1.660451 255 255 255
9.884166 -1.003651 1.660000 255 255 255
9.565257 -0.684742 1.660000 255 255 255
9.759999 -0.490000 1.660000 255 255 255
10.078908 -0.808909 1.660000 255 255 255
9.883529 -1.003651 1.660451 255 255 255
9.565257 -0.685380 1.660451 255 255 255
9.565257 -0.684742 1.660000 255 255 255
9.884166 -1.003651 1.660000 255 255 255
9.883529 -1.003651 1.689549 255 255 255
9.565257 -0.685380 1.689549 255 255 255
9.565257 -0.685380 1.660451 255 255 255
9.883529 -1.003651 1.660451 255 255 255
9.759999 -0.490000 1.660000 255 255 255
9.565257 -0.684742 1.660000 255 255 255
9.565257 -0.684742 1.690000 255 255 255
9.759999 -0.490000 1.690000 255 255 255
9.565257 -0.685380 1.660451 255 255 255
9.565257 -0.685380 1.689549 255 255 255
9.565257 -0.684742 1.690000 255 255 255
9.565257 -0.684742 1.660000 255 255 255
10.001126 -0.731127 1.500000 255 255 255
9.800385 -0.931868 1.500000 255 255 255
9.800385 -0.931868 1.425000 255 255 255
10.001126 -0.731127 1.425000 255 255 255
10.001126 -0.731127 1.500000 255 255 255
10.001126 -0.731127 1.635000 255 255 255
9.800385 -0.931868 1.635000 255 255 255
9.800385 -0.931868 1.500000 255 255 255
10.000420 -0.730420 1.421000 255 255 255
10.001126 -0.731127 1.425000 255 255 255
9.800385 -0.931868 1.425000 255 255 255
9.799678 -0.931161 1.421000 255 255 255
9.774141 -0.504142 1.420000 255 255 255
9.573400 -0.704884 1.420000 255 255 255
9.573400 -0.704884 1.500000 255 255 255
9.774141 -0.504142 1.500000 255 255 255
9.997591 -0.727592 1.420000 255 255 255
9.796849 -0.928333 1.420000 255 255 255
9.573400 -0.704884 1.420000 255 255 255
9.774141 -0.504142 1.420000 255 255 255
9.800385 -0.931868 1.500000 255 255 255
9.800385 -0.931868 1.635000 255 255 255
9.797604 -0.931868 1.634758 255 255 255
9.797604 -0.931868 1.500000 255 255 255
9.797604 -0.931868 1.500000 255 255 255
9.797604 -0.931868 1.425242 255 255 255
9.800385 -0.931868 1.425000 255 255 255
9.800385 -0.931868 1.500000 255 255 255
9.799678 -0.931161 1.421000 255 255 255
9.800385 -0.931868 1.425000 255 255 255
9.797604 -0.931868 1.425242 255 255 255
9.797141 -0.931405 1.422622 255 255 255
9.799678 -0.931161 1.421000 255 255 255
9.796849 -0.928333 1.420000 255 255 255
9.997591 -0.727592 1.420000 255 255 255
10.000420 -0.730420 1.421000 255 255 255
9.573400 -0.704884 1.420000 255 255 255
9.573400 -0.707665 1.421967 255 255 255
9.573400 -0.707665 1.500000 255 255 255
9.573400 -0.704884 1.500000 255 255 255
9.796849 -0.928333 1.420000 255 255 255
9.795288 -0.929552 1.421967 255 255 255
9.573400 -0.707665 1.421967 255 255 255
9.573400 -0.704884 1.420000 255 255 255
9.573400 -0.707665 1.500000 255 255 255
9.573400 -0.707665 1.638034 255 255 255
9.573400 -0.704884 1.640000 255 255 255
9.573400 -0.704884 1.500000 255 255 255
9.573400 -0.704884 1.500000 255 255 255
9.573400 -0.704884 1.640000 255 255 255
9.774141 -0.504142 1.640000 255 255 255
9.774141 -0.504142 1.500000 255 255 255
9.797141 -0.931405 1.422622 255 255 255
9.795288 -0.929552 1.421967 255 255 255
9.796849 -0.928333 1.420000 255 255 255
9.799678 -0.931161 1.421000 255 255 255
10.000420 -0.730420 1.639000 255 255 255
9.997591 -0.727592 1.640000 255 255 255
9.796849 -0.928333 1.640000 255 255 255
9.799678 -0.931161 1.639000 255 255 255
9.774141 -0.504142 1.640000 255 255 255
9.573400 -0.704884 1.640000 255 255 255
9.796849 -0.928333 1.640000 255 255 255
9.997591 -0.727592 1.640000 255 255 255
9.799678 -0.931161 1.639000 255 255 255
9.800385 -0.931868 1.635000 255 255 255
10.001126 -0.731127 1.635000 255 255 255
10.000420 -0.730420 1.639000 255 255 255
9.799678 -0.931161 1.639000 255 255 255
9.796849 -0.928333 1.640000 255 255 255
9.795288 -0.929552 1.638034 255 255 255
9.797141 -0.931405 1.637378 255 255 255
9.573400 -0.704884 1.640000 255 255 255
9.573400 -0.707665 1.638034 255 255 255
9.795288 -0.929552 1.638034 255 255 255
9.796849 -0.928333 1.640000 255 255 255
9.797141 -0.931405 1.637378 255 255 255
9.797604 -0.931868 1.634758 255 255 255
9.800385 -0.931868 1.635000 255 255 255
9.799678 -0.931161 1.639000 255 255 255
9.883847 -1.003970 1.690000 255 255 255
9.877095 -1.010722 1.690000 255 255 255
9.877095 -1.010722 1.660000 255 255 255
9.883847 -1.003970 1.660000 255 255 255
9.883847 -1.003970 1.690000 255 255 255
9.564939 -0.685061 1.690000 255 255 255
9.558187 -0.691813 1.690000 255 255 255
9.877095 -1.010722 1.690000 255 255 255
9.883847 -1.003970 1.660000 255 255 255
9.877095 -1.010722 1.660000 255 255 255
9.558187 -0.691813 1.660000 255 255 255
9.564939 -0.685061 1.660000 255 255 255
9.877095 -1.010722 1.690000 255 255 255
9.558187 -0.691813 1.690000 255 255 255
9.558187 -0.692451 1.689549 255 255 255
9.876457 -1.010722 1.689549 255 255 255
9.877095 -1.010722 1.660000 255 255 255
9.877095 -1.010722 1.690000 255 255 255
9.876457 -1.010722 1.689549 255 255 255
9.876457 -1.010722 1.660451 255 255 255
9.876457 -1.010722 1.660451 255 255 255
9.558187 -0.692451 1.660451 255 255 255
9.558187 -0.691813 1.660000 255 255 255
9.877095 -1.010722 1.660000 255 255 255
9.876457 -1.010722 1.689549 255 255 255
9.558187 -0.692451 1.689549 255 255 255
9.558187 -0.692451 1.660451 255 255 255
9.876457 -1.010722 1.660451 255 255 255
9.564939 -0.685061 1.660000 255 255 255
9.564939 -0.685061 1.690000 255 255 255
9.883847 -1.003970 1.690000 255 255 255
9.883847 -1.003970 1.660000 255 255 255
9.564939 -0.685061 1.660000 255 255 255
9.558187 -0.691813 1.660000 255 255 255
9.558187 -0.691813 1.690000 255 255 255
9.564939 -0.685061 1.690000 255 255 255
9.558187 -0.692451 1.660451 255 255 255
9.558187 -0.692451 1.689549 255 255 255
9.558187 -0.691813 1.690000 255 255 255
9.558187 -0.691813 1.660000 255 255 255
7.329999 -0.800000 1.250000 255 255 255
7.329999 -0.898033 1.250000 255 255 255
7.605000 -0.898033 1.250000 255 255 255
7.605000 -0.800000 1.250000 255 255 255
7.329999 -0.800000 1.250000 255 255 255
7.054999 -0.800000 1.250000 255 255 255
7.054999 -0.898033 1.250000 255 255 255
7.329999 -0.898033 1.250000 255 255 255
7.609000 -0.800000 1.249000 255 255 255
7.605000 -0.800000 1.250000 255 255 255
7.605000 -0.898033 1.250000 255 255 255
7.609000 -0.898033 1.249000 255 255 255
7.610000 -0.800000 0.830000 255 255 255
7.610000 -0.898033 0.830000 255 255 255
7.329999 -0.898033 0.830000 255 255 255
7.329999 -0.800000 0.830000 255 255 255
7.610000 -0.800000 1.245000 255 255 255
7.610000 -0.898033 1.245000 255 255 255
7.610000 -0.898033 0.830000 255 255 255
7.610000 -0.800000 0.830000 255 255 255
7.329999 -0.898033 1.250000 255 255 255
7.054999 -0.898033 1.250000 255 255 255
7.055242 -0.900000 1.248033 255 255 255
7.329999 -0.900000 1.248033 255 255 255
7.329999 -0.900000 1.248033 255 255 255
7.604757 -0.900000 1.248033 255 255 255
7.605000 -0.898033 1.250000 255 255 255
7.329999 -0.898033 1.250000 255 255 255
7.609000 -0.898033 1.249000 255 255 255
7.605000 -0.898033 1.250000 255 255 255
7.604757 -0.900000 1.248033 255 255 255
7.607378 -0.900000 1.247378 255 255 255
7.609000 -0.898033 1.249000 255 255 255
7.610000 -0.898033 1.245000 255 255 255
7.610000 -0.800000 1.245000 255 255 255
7.609000 -0.800000 1.249000 255 255 255
7.610000 -0.898033 0.830000 255 255 255
7.608033 -0.900000 0.831967 255 255 255
7.329999 -0.900000 0.831967 255 255 255
7.329999 -0.898033 0.830000 255 255 255
7.610000 -0.898033 1.245000 255 255 255
7.608033 -0.900000 1.244758 255 255 255
7.608033 -0.900000 0.831967 255 255 255
7.610000 -0.898033 0.830000 255 255 255
7.329999 -0.900000 0.831967 255 255 255
7.051966 -0.900000 0.831967 255 255 255
7.049999 -0.898033 0.830000 255 255 255
7.329999 -0.898033 0.830000 255 255 255
7.329999 -0.898033 0.830000 255 255 255
7.049999 -0.898033 0.830000 255 255 255
7.049999 -0.800000 0.830000 255 255 255
7.329999 -0.800000 0.830000 255 255 255
7.607378 -0.900000 1.247378 255 255 255
7.608033 -0.900000 1.244758 255 255 255
7.610000 -0.898033 1.245000 255 255 255
7.609000 -0.898033 1.249000 255 255 255
7.051000 -0.800000 1.249000 255 255 255
7.049999 -0.800000 1.245000 255 255 255
7.049999 -0.898033 1.245000 255 255 255
7.051000 -0.898033 1.249000 255 255 255
7.049999 -0.800000 0.830000 255 255 255
7.049999 -0.898033 0.830000 255 255 255
7.049999 -0.898033 1.245000 255 255 255
7.049999 -0.800000 1.245000 255 255 255
7.051000 -0.898033 1.249000 255 255 255
7.054999 -0.898033 1.250000 255 255 255
7.054999 -0.800000 1.250000 255 255 255
7.051000 -0.800000 1.249000 255 255 255
7.051000 -0.898033 1.249000 255 255 255
7.049999 -0.898033 1.245000 255 255 255
7.051966 -0.900000 1.244758 255 255 255
7.052621 -0.900000 1.247378 255 255 255
7.049999 -0.898033 0.830000 255 255 255
7.051966 -0.900000 0.831967 255 255 255
7.051966 -0.900000 1.244758 255 255 255
7.049999 -0.898033 1.245000 255 255 255
7.052621 -0.900000 1.247378 255 255 255
7.055242 -0.900000 1.248033 255 255 255
7.054999 -0.898033 1.250000 255 255 255
7.051000 -0.898033 1.249000 255 255 255
7.329999 -0.800000 1.310000 255 255 255
7.029999 -0.800000 1.310000 255 255 255
7.029999 -0.800000 1.340000 255 255 255
7.329999 -0.800000 1.340000 255 255 255
7.329999 -0.800000 1.340000 255 255 255
7.630000 -0.800000 1.340000 255 255 255
7.630000 -0.800000 1.310000 255 255 255
7.329999 -0.800000 1.310000 255 255 255
7.329999 -0.800000 1.340000 255 255 255
7.329999 -0.899549 1.340000 255 255 255
7.630000 -0.899549 1.340000 255 255 255
7.630000 -0.800000 1.340000 255 255 255
7.329999 -0.800000 1.340000 255 255 255
7.029999 -0.800000 1.340000 255 255 255
7.029999 -0.899549 1.340000 255 255 255
7.329999 -0.899549 1.340000 255 255 255
7.630000 -0.800000 1.340000 255 255 255
7.630000 -0.899549 1.340000 255 255 255
7.630000 -0.899549 1.310000 255 255 255
7.630000 -0.800000 1.310000 255 255 255
7.630000 -0.800000 1.310000 255 255 255
7.630000 -0.899549 1.310000 255 255 255
7.329999 -0.899549 1.310000 255 255 255
7.329999 -0.800000 1.310000 255 255 255
7.329999 -0.899549 1.310000 255 255 255
7.029999 -0.899549 1.310000 255 255 255
7.029999 -0.800000 1.310000 255 255 255
7.329999 -0.800000 1.310000 255 255 255
7.329999 -0.900000 1.310451 255 255 255
7.629549 -0.900000 1.310451 255 255 255
7.629549 -0.900000 1.339549 255 255 255
7.329999 -0.900000 1.339549 255 255 255
7.329999 -0.900000 1.310451 255 255 255
7.030450 -0.900000 1.310451 255 255 255
7.029999 -0.899549 1.310000 255 255 255
7.329999 -0.899549 1.310000 255 255 255
7.329999 -0.900000 1.339549 255 255 255
7.629549 -0.900000 1.339549 255 255 255
7.630000 -0.899549 1.340000 255 255 255
7.329999 -0.899549 1.340000 255 255 255
7.329999 -0.900000 1.339549 255 255 255
7.030450 -0.900000 1.339549 255 255 255
7.030450 -0.900000 1.310451 255 255 255
7.329999 -0.900000 1.310451 255 255 255
7.329999 -0.899549 1.340000 255 255 255
7.029999 -0.899549 1.340000 255 255 255
7.030450 -0.900000 1.339549 255 255 255
7.329999 -0.900000 1.339549 255 255 255
7.630000 -0.899549 1.310000 255 255 255
7.630000 -0.899549 1.340000 255 255 255
7.629549 -0.900000 1.339549 255 255 255
7.629549 -0.900000 1.310451 255 255 255
7.629549 -0.900000 1.310451 255 255 255
7.329999 -0.900000 1.310451 255 255 255
7.329999 -0.899549 1.310000 255 255 255
7.630000 -0.899549 1.310000 255 255 255
7.029999 -0.800000 1.310000 255 255 255
7.029999 -0.899549 1.310000 255 255 255
7.029999 -0.899549 1.340000 255 255 255
7.029999 -0.800000 1.340000 255 255 255
7.030450 -0.900000 1.310451 255 255 255
7.030450 -0.900000 1.339549 255 255 255
7.029999 -0.899549 1.340000 255 255 255
7.029999 -0.899549 1.310000 255 255 255
7.971000 -0.411000 0.800000 255 255 255
7.971000 -0.882170 0.800000 255 255 255
8.528999 -0.882170 0.800000 255 255 255
8.528999 -0.411000 0.800000 255 255 255
7.604757 -0.900000 1.248033 255 255 255
7.329999 -0.900000 1.248033 255 255 255
7.329999 -0.900000 0.831967 255 255 255
7.607378 -0.900000 1.247378 255 255 255
7.604757 -0.900000 1.248033 255 255 255
7.329999 -0.900000 0.831967 255 255 255
7.608033 -0.900000 1.244758 255 255 255
7.607378 -0.900000 1.247378 255 255 255
7.329999 -0.900000 0.831967 255 255 255
7.608033 -0.900000 0.831967 255 255 255
7.608033 -0.900000 1.244758 255 255 255
7.329999 -0.900000 0.831967 255 255 255
7.329999 -0.900000 1.248033 255 255 255
7.055242 -0.900000 1.248033 255 255 255
7.052621 -0.900000 1.247378 255 255 255
7.329999 -0.900000 0.831967 255 255 255
7.329999 -0.900000 1.248033 255 255 255
7.052621 -0.900000 1.247378 255 255 255
7.329999 -0.900000 0.831967 255 255 255
7.052621 -0.900000 1.247378 255 255 255
7.051966 -0.900000 1.244758 255 255 255
7.329999 -0.900000 0.831967 255 255 255
7.051966 -0.900000 1.244758 255 255 255
7.051966 -0.900000 0.831967 255 255 255
7.051000 -0.800000 1.249000 255 255 255
7.054999 -0.800000 1.250000 255 255 255
7.329999 -0.800000 1.250000 255 255 255
7.051000 -0.800000 1.249000 255 255 255
7.329999 -0.800000 1.250000 255 255 255
7.329999 -0.800000 0.830000 255 255 255
7.049999 -0.800000 1.245000 255 255 255
7.051000 -0.800000 1.249000 255 255 255
7.329999 -0.800000 0.830000 255 255 255
7.049999 -0.800000 0.830000 255 255 255
7.049999 -0.800000 1.245000 255 255 255
7.329999 -0.800000 0.830000 255 255 255
7.329999 -0.800000 0.830000 255 255 255
7.329999 -0.800000 1.250000 255 255 255
7.605000 -0.800000 1.250000 255 255 255
7.329999 -0.800000 0.830000 255 255 255
7.605000 -0.800000 1.250000 255 255 255
7.609000 -0.800000 1.249000 255 255 255
7.329999 -0.800000 0.830000 255 255 255
7.609000 -0.800000 1.249000 255 255 255
7.610000 -0.800000 1.245000 255 255 255
7.329999 -0.800000 0.830000 255 255 255
7.610000 -0.800000 1.245000 255 255 255
7.610000 -0.800000 0.830000 255 255 255
9.797604 -0.931868 1.500000 255 255 255
9.573400 -0.707665 1.500000 255 255 255
9.573400 -0.707665 1.421967 255 255 255
9.797604 -0.931868 1.425242 255 255 255
9.797604 -0.931868 1.500000 255 255 255
9.573400 -0.707665 1.421967 255 255 255
9.797141 -0.931405 1.422622 255 255 255
9.797604 -0.931868 1.425242 255 255 255
9.573400 -0.707665 1.421967 255 255 255
9.795288 -0.929552 1.421967 255 255 255
9.797141 -0.931405 1.422622 255 255 255
9.573400 -0.707665 1.421967 255 255 255
9.795288 -0.929552 1.638034 255 255 255
9.573400 -0.707665 1.638034 255 255 255
9.573400 -0.707665 1.500000 255 255 255
9.797141 -0.931405 1.637378 255 255 255
9.795288 -0.929552 1.638034 255 255 255
9.573400 -0.707665 1.500000 255 255 255
9.797604 -0.931868 1.634758 255 255 255
9.797141 -0.931405 1.637378 255 255 255
9.573400 -0.707665 1.500000 255 255 255
9.797604 -0.931868 1.500000 255 255 255
9.797604 -0.931868 1.634758 255 255 255
9.573400 -0.707665 1.500000 255 255 255
9.774141 -0.504142 1.640000 255 255 255
9.997591 -0.727592 1.640000 255 255 255
10.000420 -0.730420 1.639000 255 255 255
9.774141 -0.504142 1.500000 255 255 255
9.774141 -0.504142 1.640000 255 255 255
10.000420 -0.730420 1.639000 255 255 255
9.774141 -0.504142 1.500000 255 255 255
10.000420 -0.730420 1.639000 255 255 255
10.001126 -0.731127 1.635000 255 255 255
9.774141 -0.504142 1.500000 255 255 255
10.001126 -0.731127 1.635000 255 255 255
10.001126 -0.731127 1.500000 255 255 255
9.774141 -0.504142 1.500000 255 255 255
10.001126 -0.731127 1.500000 255 255 255
10.001126 -0.731127 1.425000 255 255 255
9.774141 -0.504142 1.420000 255 255 255
9.774141 -0.504142 1.500000 255 255 255
10.001126 -0.731127 1.425000 255 255 255
9.774141 -0.504142 1.420000 255 255 255
10.001126 -0.731127 1.425000 255 255 255
10.000420 -0.730420 1.421000 255 255 255
9.774141 -0.504142 1.420000 255 255 255
10.000420 -0.730420 1.421000 255 255 255
9.997591 -0.727592 1.420000 255 255 255
10.078908 -0.808909 1.690000 255 255 255
9.759999 -0.490000 1.690000 255 255 255
9.565257 -0.684742 1.690000 255 255 255
10.078908 -0.808909 1.690000 255 255 255
9.565257 -0.684742 1.690000 255 255 255
9.565257 -0.685380 1.689549 255 255 255
10.078908 -0.808909 1.690000 255 255 255
9.565257 -0.685380 1.689549 255 255 255
9.883529 -1.003651 1.689549 255 255 255
9.884166 -1.003651 1.690000 255 255 255
10.078908 -0.808909 1.690000 255 255 255
9.883529 -1.003651 1.689549 255 255 255
3 0 1 2
3 0 2 3
3 4 5 6
3 4 6 7
3 8 9 10
3 8 10 11
3 12 13 14
3 12 14 15
3 16 17 18
3 16 18 19
3 20 21 22
3 20 22 23
3 24 25 26
3 24 26 27
3 28 29 30
3 28 30 31
3 32 33 34
3 32 34 35
3 36 37 38
3 36 38 39
3 40 41 42
3 40 42 43
3 44 45 46
3 44 46 47
3 48 49 50
3 48 50 51
3 52 53 54
3 52 54 55
3 56 57 58
3 56 58 59
3 60 61 62
3 60 62 63
3 64 65 66
3 64 66 67
3 68 69 70
3 68 70 71
3 72 73 74
3 72 74 75
3 76 77 78
3 76 78 79
3 80 81 82
3 80 82 83
3 84 85 86
3 84 86 87
3 88 89 90
3 88 90 91
3 92 93 94
3 92 94 95
3 96 97 98
3 96 98 99
3 100 101 102
3 100 102 103
3 104 105 106
3 104 106 107
3 108 109 110
3 108 110 111
3 112 113 114
3 112 114 115
3 116 117 118
3 116 118 119
3 120 121 122
3 120 122 123
3 124 125 126
3 124 126 127
3 128 129 130
3 128 130 131
3 132 133 134
3 132 134 135
3 136 137 138
3 136 138 139
3 140 141 142
3 140 142 143
3 144 145 146
3 144 146 147
3 148 149 150
3 148 150 151
3 152 153 154
3 152 154 155
3 156 157 158
3 156 158 159
3 160 161 162
3 160 162 163
3 164 165 166
3 164 166 167
3 168 169 170
3 168 170 171
3 172 173 174
3 172 174 175
3 176 177 178
3 176 178 179
3 180 181 182
3 180 182 183
3 184 185 186
3 184 186 187
3 188 189 190
3 188 190 191
3 192 193 194
3 192 194 195
3 196 197 198
3 196 198 199
3 200 201 202
3 200 202 203
3 204 205 206
3 204 206 207
3 208 209 210
3 208 210 211
3 212 213 214
3 212 214 215
3 216 217 218
3 216 218 219
3 220 221 222
3 220 222 223
3 224 225 226
3 224 226 227
3 228 229 230
3 228 230 231
3 232 233 234
3 232 234 235
3 236 237 238
3 236 238 239
3 240 241 242
3 240 242 243
3 244 245 246
3 244 246 247
3 248 249 250
3 248 250 251
3 252 253 254
3 252 254 255
3 256 257 258
3 256 258 259
3 260 261 262
3 260 262 263
3 264 265 266
3 264 266 267
3 268 269 270
3 268 270 271
3 272 273 274
3 272 274 275
3 276 277 278
3 276 278 279
3 280 281 282
3 280 282 283
3 284 285 286
3 284 286 287
3 288 289 290
3 288 290 291
3 292 293 294
3 292 294 295
3 296 297 298
3 296 298 299
3 300 301 302
3 300 302 303
3 304 305 306
3 304 306 307
3 308 309 310
3 308 310 311
3 312 313 314
3 312 314 315
3 316 317 318
3 316 318 319
3 320 321 322
3 320 322 323
3 324 325 326
3 324 326 327
3 328 329 330
3 328 330 331
3 332 333 334
3 332 334 335
3 336 337 338
3 336 338 339
3 340 341 342
3 340 342 343
3 344 345 346
3 344 346 347
3 348 349 350
3 348 350 351
3 352 353 354
3 352 354 355
3 356 357 358
3 356 358 359
3 360 361 362
3 360 362 363
3 364 365 366
3 367 368 369
3 370 371 372
3 373 374 375
3 376 377 378
3 379 380 381
3 382 383 384
3 385 386 387
3 388 389 390
3 391 392 393
3 394 395 396
3 397 398 399
3 400 401 402
3 403 404 405
3 406 407 408
3 409 410 411
3 412 413 414
3 415 416 417
3 418 419 420
3 421 422 423
3 424 425 426
3 427 428 429
3 430 431 432
3 433 434 435
3 436 437 438
3 439 440 441
3 442 443 444
3 445 446 447
3 448 449 450
3 451 452 453
3 454 455 456
3 457 458 459
3 460 461 462
3 463 464 465
3 466 467 468
3 469 470 471
