ply
format ascii 1.0
comment Created by SmallLuxGPU exporter for Blender 2.5, source file: kitchen.blend
element vertex 176
property float x
property float y
property float z
property uchar red
property uchar green
property uchar blue
element face 168
property list uchar uint vertex_indices
end_header
7.050450 -0.890000 0.810451 255 255 255
7.050450 -0.890000 0.829549 255 255 255
7.049999 -0.889549 0.830000 255 255 255
7.049999 -0.889549 0.810000 255 255 255
7.049999 -0.800000 0.810000 255 255 255
7.049999 -0.889549 0.810000 255 255 255
7.049999 -0.889549 0.830000 255 255 255
7.049999 -0.800000 0.830000 255 255 255
7.049999 -0.800000 0.810000 255 255 255
7.049999 -0.800000 0.830000 255 255 255
7.609999 -0.800000 0.830000 255 255 255
7.609999 -0.800000 0.810000 255 255 255
7.050450 -0.890000 0.810451 255 255 255
7.609549 -0.890000 0.810451 255 255 255
7.609549 -0.890000 0.829549 255 255 255
7.050450 -0.890000 0.829549 255 255 255
7.609549 -0.890000 0.810451 255 255 255
7.050450 -0.890000 0.810451 255 255 255
7.049999 -0.889549 0.810000 255 255 255
7.609999 -0.889549 0.810000 255 255 255
7.609999 -0.889549 0.810000 255 255 255
7.609999 -0.889549 0.830000 255 255 255
7.609549 -0.890000 0.829549 255 255 255
7.609549 -0.890000 0.810451 255 255 255
7.609999 -0.889549 0.830000 255 255 255
7.049999 -0.889549 0.830000 255 255 255
7.050450 -0.890000 0.829549 255 255 255
7.609549 -0.890000 0.829549 255 255 255
7.609999 -0.800000 0.810000 255 255 255
7.609999 -0.889549 0.810000 255 255 255
7.049999 -0.889549 0.810000 255 255 255
7.049999 -0.800000 0.810000 255 255 255
7.609999 -0.800000 0.830000 255 255 255
7.049999 -0.800000 0.830000 255 255 255
7.049999 -0.889549 0.830000 255 255 255
7.609999 -0.889549 0.830000 255 255 255
7.609999 -0.800000 0.830000 255 255 255
7.609999 -0.889549 0.830000 255 255 255
7.609999 -0.889549 0.810000 255 255 255
7.609999 -0.800000 0.810000 255 255 255
9.565257 -0.685380 1.639549 255 255 255
9.578762 -0.698884 1.639549 255 255 255
9.579399 -0.698884 1.640000 255 255 255
9.565257 -0.684742 1.640000 255 255 255
9.759999 -0.490000 1.640000 255 255 255
9.565257 -0.684742 1.640000 255 255 255
9.579399 -0.698884 1.640000 255 255 255
9.774141 -0.504142 1.640000 255 255 255
9.759999 -0.490000 1.640000 255 255 255
9.774141 -0.504142 1.640000 255 255 255
9.774141 -0.504142 1.420000 255 255 255
9.759999 -0.490000 1.420000 255 255 255
9.578762 -0.698884 1.420451 255 255 255
9.578762 -0.698884 1.639549 255 255 255
9.565257 -0.685380 1.639549 255 255 255
9.565257 -0.685380 1.420451 255 255 255
9.565257 -0.685380 1.420451 255 255 255
9.565257 -0.685380 1.639549 255 255 255
9.565257 -0.684742 1.640000 255 255 255
9.565257 -0.684742 1.420000 255 255 255
9.565257 -0.684742 1.420000 255 255 255
9.579399 -0.698884 1.420000 255 255 255
9.578762 -0.698884 1.420451 255 255 255
9.565257 -0.685380 1.420451 255 255 255
9.579399 -0.698884 1.420000 255 255 255
9.579399 -0.698884 1.640000 255 255 255
9.578762 -0.698884 1.639549 255 255 255
9.578762 -0.698884 1.420451 255 255 255
9.759999 -0.490000 1.420000 255 255 255
9.565257 -0.684742 1.420000 255 255 255
9.565257 -0.684742 1.640000 255 255 255
9.759999 -0.490000 1.640000 255 255 255
9.774141 -0.504142 1.420000 255 255 255
9.774141 -0.504142 1.640000 255 255 255
9.579399 -0.698884 1.640000 255 255 255
9.579399 -0.698884 1.420000 255 255 255
9.774141 -0.504142 1.420000 255 255 255
9.579399 -0.698884 1.420000 255 255 255
9.565257 -0.684742 1.420000 255 255 255
9.759999 -0.490000 1.420000 255 255 255
10.072562 -1.345282 0.900355 255 255 255
10.073008 -1.349770 0.900355 255 255 255
10.072565 -1.349769 0.901676 255 255 255
10.072127 -1.345367 0.901676 255 255 255
10.070848 -1.341133 0.901676 255 255 255
10.071258 -1.340965 0.900355 255 255 255
10.071697 -1.340799 0.900089 255 255 255
10.073030 -1.345219 0.900089 255 255 255
10.073484 -1.349800 0.900089 255 255 255
10.069128 -1.336989 0.900355 255 255 255
10.068759 -1.337234 0.901676 255 255 255
10.065956 -1.333812 0.901676 255 255 255
10.066271 -1.333500 0.900355 255 255 255
10.066607 -1.333100 0.900089 255 255 255
10.069521 -1.336700 0.900089 255 255 255
10.062782 -1.330642 0.900355 255 255 255
10.062534 -1.331010 0.901676 255 255 255
10.058636 -1.328921 0.901676 255 255 255
10.058807 -1.328511 0.900355 255 255 255
10.059015 -1.328014 0.900089 255 255 255
10.063061 -1.330179 0.900089 255 255 255
10.054491 -1.327206 0.900355 255 255 255
10.054401 -1.327641 0.901676 255 255 255
10.050000 -1.327203 0.901676 255 255 255
10.050003 -1.326759 0.900355 255 255 255
10.050005 -1.326224 0.900089 255 255 255
10.054603 -1.326683 0.900089 255 255 255
10.045515 -1.327204 0.900355 255 255 255
10.045599 -1.327640 0.901676 255 255 255
10.041365 -1.328920 0.901676 255 255 255
10.041198 -1.328508 0.900355 255 255 255
10.040994 -1.328010 0.900089 255 255 255
10.045407 -1.326680 0.900089 255 255 255
10.037222 -1.330638 0.900355 255 255 255
10.037466 -1.331009 0.901676 255 255 255
10.034044 -1.333811 0.901676 255 255 255
10.033732 -1.333495 0.900355 255 255 255
10.033400 -1.333092 0.900089 255 255 255
10.036947 -1.330173 0.900089 255 255 255
10.030874 -1.336983 0.900355 255 255 255
10.031240 -1.337233 0.901676 255 255 255
10.029152 -1.341132 0.901676 255 255 255
10.028744 -1.340958 0.900355 255 255 255
10.028306 -1.340789 0.900089 255 255 255
10.030484 -1.336690 0.900089 255 255 255
10.027438 -1.345275 0.900355 255 255 255
10.027872 -1.345366 0.901676 255 255 255
10.027433 -1.349767 0.901676 255 255 255
10.026991 -1.349763 0.900355 255 255 255
10.026515 -1.349789 0.900089 255 255 255
10.026972 -1.345209 0.900089 255 255 255
10.027437 -1.354251 0.900355 255 255 255
10.027871 -1.354169 0.901676 255 255 255
10.029151 -1.358403 0.901676 255 255 255
10.028741 -1.358568 0.900355 255 255 255
10.028300 -1.358777 0.900089 255 255 255
10.026969 -1.354370 0.900089 255 255 255
10.030870 -1.362544 0.900355 255 255 255
10.031240 -1.362302 0.901676 255 255 255
10.034042 -1.365724 0.901676 255 255 255
10.033728 -1.366033 0.900355 255 255 255
10.033389 -1.366397 0.900089 255 255 255
10.030473 -1.362835 0.900089 255 255 255
10.037216 -1.368892 0.900355 255 255 255
10.037464 -1.368527 0.901676 255 255 255
10.041363 -1.370616 0.901676 255 255 255
10.041191 -1.371022 0.900355 255 255 255
10.041007 -1.371490 0.900089 255 255 255
10.036950 -1.369315 0.900089 255 255 255
10.045508 -1.372328 0.900355 255 255 255
10.045597 -1.371896 0.901676 255 255 255
10.049998 -1.372334 0.901676 255 255 255
10.049995 -1.372775 0.900355 255 255 255
10.049994 -1.373279 0.900089 255 255 255
10.045413 -1.372823 0.900089 255 255 255
10.054483 -1.372329 0.900355 255 255 255
10.054400 -1.371896 0.901676 255 255 255
10.058634 -1.370616 0.901676 255 255 255
10.058801 -1.371025 0.900355 255 255 255
10.058982 -1.371494 0.900089 255 255 255
10.054575 -1.372825 0.900089 255 255 255
10.062777 -1.368896 0.900355 255 255 255
10.062533 -1.368528 0.901676 255 255 255
10.065955 -1.365725 0.901676 255 255 255
10.066266 -1.366039 0.900355 255 255 255
10.066602 -1.366405 0.900089 255 255 255
10.063040 -1.369321 0.900089 255 255 255
10.069124 -1.362550 0.900355 255 255 255
10.068758 -1.362303 0.901676 255 255 255
10.070847 -1.358404 0.901676 255 255 255
10.071255 -1.358575 0.900355 255 255 255
10.071694 -1.358787 0.900089 255 255 255
10.069519 -1.362844 0.900089 255 255 255
10.072560 -1.354258 0.900355 255 255 255
10.072127 -1.354170 0.901676 255 255 255
10.073028 -1.354381 0.900089 255 255 255
3 0 1 2
3 0 2 3
3 4 5 6
3 4 6 7
3 8 9 10
3 8 10 11
3 12 13 14
3 12 14 15
3 16 17 18
3 16 18 19
3 20 21 22
3 20 22 23
3 24 25 26
3 24 26 27
3 28 29 30
3 28 30 31
3 32 33 34
3 32 34 35
3 36 37 38
3 36 38 39
3 40 41 42
3 40 42 43
3 44 45 46
3 44 46 47
3 48 49 50
3 48 50 51
3 52 53 54
3 52 54 55
3 56 57 58
3 56 58 59
3 60 61 62
3 60 62 63
3 64 65 66
3 64 66 67
3 68 69 70
3 68 70 71
3 72 73 74
3 72 74 75
3 76 77 78
3 76 78 79
3 80 81 82
3 80 82 83
3 80 83 84
3 80 84 85
3 80 85 86
3 80 86 87
3 80 87 88
3 80 88 81
3 89 85 84
3 89 84 90
3 89 90 91
3 89 91 92
3 89 92 93
3 89 93 94
3 89 94 86
3 89 86 85
3 95 92 91
3 95 91 96
3 95 96 97
3 95 97 98
3 95 98 99
3 95 99 100
3 95 100 93
3 95 93 92
3 101 98 97
3 101 97 102
3 101 102 103
3 101 103 104
3 101 104 105
3 101 105 106
3 101 106 99
3 101 99 98
3 107 104 103
3 107 103 108
3 107 108 109
3 107 109 110
3 107 110 111
3 107 111 112
3 107 112 105
3 107 105 104
3 113 110 109
3 113 109 114
3 113 114 115
3 113 115 116
3 113 116 117
3 113 117 118
3 113 118 111
3 113 111 110
3 119 116 115
3 119 115 120
3 119 120 121
3 119 121 122
3 119 122 123
3 119 123 124
3 119 124 117
3 119 117 116
3 125 122 121
3 125 121 126
3 125 126 127
3 125 127 128
3 125 128 129
3 125 129 130
3 125 130 123
3 125 123 122
3 131 128 127
3 131 127 132
3 131 132 133
3 131 133 134
3 131 134 135
3 131 135 136
3 131 136 129
3 131 129 128
3 137 134 133
3 137 133 138
3 137 138 139
3 137 139 140
3 137 140 141
3 137 141 142
3 137 142 135
3 137 135 134
3 143 140 139
3 143 139 144
3 143 144 145
3 143 145 146
3 143 146 147
3 143 147 148
3 143 148 141
3 143 141 140
3 149 146 145
3 149 145 150
3 149 150 151
3 149 151 152
3 149 152 153
3 149 153 154
3 149 154 147
3 149 147 146
3 155 152 151
3 155 151 156
3 155 156 157
3 155 157 158
3 155 158 159
3 155 159 160
3 155 160 153
3 155 153 152
3 161 158 157
3 161 157 162
3 161 162 163
3 161 163 164
3 161 164 165
3 161 165 166
3 161 166 159
3 161 159 158
3 167 164 163
3 167 163 168
3 167 168 169
3 167 169 170
3 167 170 171
3 167 171 172
3 167 172 165
3 167 165 164
3 173 170 169
3 173 169 174
3 173 174 82
3 173 82 81
3 173 81 88
3 173 88 175
3 173 175 171
3 173 171 170
