ply
format ascii 1.0
comment Created by SmallLuxGPU exporter for Blender 2.5, source file: kitchen.blend
element vertex 120
property float x
property float y
property float z
property uchar red
property uchar green
property uchar blue
element face 60
property list uchar uint vertex_indices
end_header
8.505563 -0.613286 1.492739 255 255 255
8.275144 -0.613286 1.492739 255 255 255
8.275144 -0.611356 1.492739 255 255 255
8.505563 -0.611356 1.492739 255 255 255
8.505563 -0.613286 2.057392 255 255 255
8.505563 -0.613286 1.492739 255 255 255
8.505563 -0.611356 1.492739 255 255 255
8.505563 -0.611356 2.057392 255 255 255
8.505563 -0.611356 1.492739 255 255 255
8.275144 -0.611356 1.492739 255 255 255
8.275144 -0.611356 2.057392 255 255 255
8.505563 -0.611356 2.057392 255 255 255
8.275144 -0.613286 1.492739 255 255 255
8.505563 -0.613286 1.492739 255 255 255
8.505563 -0.613286 2.057392 255 255 255
8.275144 -0.613286 2.057392 255 255 255
8.505563 -0.611356 2.057392 255 255 255
8.275144 -0.611356 2.057392 255 255 255
8.275144 -0.613286 2.057392 255 255 255
8.505563 -0.613286 2.057392 255 255 255
8.275144 -0.611356 1.492739 255 255 255
8.275144 -0.613286 1.492739 255 255 255
8.275144 -0.613286 2.057392 255 255 255
8.275144 -0.611356 2.057392 255 255 255
9.405562 -0.613286 1.492739 255 255 255
9.025144 -0.613286 1.492739 255 255 255
9.025144 -0.611356 1.492739 255 255 255
9.405562 -0.611356 1.492739 255 255 255
9.405562 -0.611356 1.492739 255 255 255
9.405562 -0.611356 2.057392 255 255 255
9.405562 -0.613286 2.057392 255 255 255
9.405562 -0.613286 1.492739 255 255 255
9.405562 -0.611356 1.492739 255 255 255
9.025144 -0.611356 1.492739 255 255 255
9.025144 -0.611356 2.057392 255 255 255
9.405562 -0.611356 2.057392 255 255 255
9.405562 -0.613286 2.057392 255 255 255
9.025144 -0.613286 2.057392 255 255 255
9.025144 -0.613286 1.492739 255 255 255
9.405562 -0.613286 1.492739 255 255 255
9.405562 -0.611356 2.057392 255 255 255
9.025144 -0.611356 2.057392 255 255 255
9.025144 -0.613286 2.057392 255 255 255
9.405562 -0.613286 2.057392 255 255 255
9.025144 -0.611356 1.492739 255 255 255
9.025144 -0.613286 1.492739 255 255 255
9.025144 -0.613286 2.057392 255 255 255
9.025144 -0.611356 2.057392 255 255 255
8.594429 -0.613286 1.492739 255 255 255
8.594429 -0.613286 2.057392 255 255 255
8.594429 -0.611356 2.057392 255 255 255
8.594429 -0.611356 1.492739 255 255 255
8.594429 -0.613286 1.492739 255 255 255
8.974848 -0.613286 1.492739 255 255 255
8.974848 -0.613286 2.057392 255 255 255
8.594429 -0.613286 2.057392 255 255 255
8.594429 -0.611356 1.492739 255 255 255
8.974848 -0.611356 1.492739 255 255 255
8.974848 -0.613286 1.492739 255 255 255
8.594429 -0.613286 1.492739 255 255 255
8.594429 -0.613286 2.057392 255 255 255
8.974848 -0.613286 2.057392 255 255 255
8.974848 -0.611356 2.057392 255 255 255
8.594429 -0.611356 2.057392 255 255 255
8.594429 -0.611356 2.057392 255 255 255
8.974848 -0.611356 2.057392 255 255 255
8.974848 -0.611356 1.492739 255 255 255
8.594429 -0.611356 1.492739 255 255 255
8.974848 -0.611356 2.057392 255 255 255
8.974848 -0.613286 2.057392 255 255 255
8.974848 -0.613286 1.492739 255 255 255
8.974848 -0.611356 1.492739 255 255 255
7.994429 -0.613286 1.492739 255 255 255
7.994429 -0.613286 2.057392 255 255 255
7.994429 -0.611356 2.057392 255 255 255
7.994429 -0.611356 1.492739 255 255 255
7.994429 -0.613286 1.492739 255 255 255
8.224848 -0.613286 1.492739 255 255 255
8.224848 -0.613286 2.057392 255 255 255
7.994429 -0.613286 2.057392 255 255 255
7.994429 -0.611356 1.492739 255 255 255
8.224848 -0.611356 1.492739 255 255 255
8.224848 -0.613286 1.492739 255 255 255
7.994429 -0.613286 1.492739 255 255 255
7.994429 -0.613286 2.057392 255 255 255
8.224848 -0.613286 2.057392 255 255 255
8.224848 -0.611356 2.057392 255 255 255
7.994429 -0.611356 2.057392 255 255 255
7.994429 -0.611356 2.057392 255 255 255
8.224848 -0.611356 2.057392 255 255 255
8.224848 -0.611356 1.492739 255 255 255
7.994429 -0.611356 1.492739 255 255 255
8.224848 -0.611356 2.057392 255 255 255
8.224848 -0.613286 2.057392 255 255 255
8.224848 -0.613286 1.492739 255 255 255
8.224848 -0.611356 1.492739 255 255 255
7.694428 -0.613286 1.492739 255 255 255
7.694428 -0.613286 2.057392 255 255 255
7.694428 -0.611356 2.057392 255 255 255
7.694428 -0.611356 1.492739 255 255 255
7.694428 -0.613286 1.492739 255 255 255
7.919847 -0.613286 1.492739 255 255 255
7.919847 -0.613286 2.057392 255 255 255
7.694428 -0.613286 2.057392 255 255 255
7.694428 -0.611356 1.492739 255 255 255
7.919847 -0.611356 1.492739 255 255 255
7.919847 -0.613286 1.492739 255 255 255
7.694428 -0.613286 1.492739 255 255 255
7.694428 -0.613286 2.057392 255 255 255
7.919847 -0.613286 2.057392 255 255 255
7.919847 -0.611356 2.057392 255 255 255
7.694428 -0.611356 2.057392 255 255 255
7.694428 -0.611356 2.057392 255 255 255
7.919847 -0.611356 2.057392 255 255 255
7.919847 -0.611356 1.492739 255 255 255
7.694428 -0.611356 1.492739 255 255 255
7.919847 -0.611356 2.057392 255 255 255
7.919847 -0.613286 2.057392 255 255 255
7.919847 -0.613286 1.492739 255 255 255
7.919847 -0.611356 1.492739 255 255 255
3 0 1 2
3 0 2 3
3 4 5 6
3 4 6 7
3 8 9 10
3 8 10 11
3 12 13 14
3 12 14 15
3 16 17 18
3 16 18 19
3 20 21 22
3 20 22 23
3 24 25 26
3 24 26 27
3 28 29 30
3 28 30 31
3 32 33 34
3 32 34 35
3 36 37 38
3 36 38 39
3 40 41 42
3 40 42 43
3 44 45 46
3 44 46 47
3 48 49 50
3 48 50 51
3 52 53 54
3 52 54 55
3 56 57 58
3 56 58 59
3 60 61 62
3 60 62 63
3 64 65 66
3 64 66 67
3 68 69 70
3 68 70 71
3 72 73 74
3 72 74 75
3 76 77 78
3 76 78 79
3 80 81 82
3 80 82 83
3 84 85 86
3 84 86 87
3 88 89 90
3 88 90 91
3 92 93 94
3 92 94 95
3 96 97 98
3 96 98 99
3 100 101 102
3 100 102 103
3 104 105 106
3 104 106 107
3 108 109 110
3 108 110 111
3 112 113 114
3 112 114 115
3 116 117 118
3 116 118 119
