ply
format ascii 1.0
comment Created by SmallLuxGPU exporter for Blender 2.5, source file: kitchen.blend
element vertex 128
property float x
property float y
property float z
property uchar red
property uchar green
property uchar blue
element face 64
property list uchar uint vertex_indices
end_header
7.907722 -0.428766 2.556167 255 255 255
7.907722 -0.413157 2.570413 255 255 255
7.887933 -0.408628 2.570413 255 255 255
7.887933 -0.424238 2.556167 255 255 255
7.887933 -0.424238 2.556167 255 255 255
7.887933 -0.412003 2.542144 255 255 255
7.907722 -0.416531 2.542144 255 255 255
7.907722 -0.428766 2.556167 255 255 255
7.907722 -0.413157 2.570413 255 255 255
7.907722 -0.428766 2.556167 255 255 255
7.926969 -0.424238 2.556167 255 255 255
7.926969 -0.408628 2.570413 255 255 255
7.907722 -0.428766 2.556167 255 255 255
7.907722 -0.416531 2.542144 255 255 255
7.926969 -0.412003 2.542144 255 255 255
7.926969 -0.424238 2.556167 255 255 255
9.419188 -0.428766 2.556167 255 255 255
9.419188 -0.413157 2.570413 255 255 255
9.399398 -0.408628 2.570413 255 255 255
9.399398 -0.424238 2.556167 255 255 255
9.399398 -0.424238 2.556167 255 255 255
9.399398 -0.412003 2.542144 255 255 255
9.419188 -0.416531 2.542144 255 255 255
9.419188 -0.428766 2.556167 255 255 255
9.419188 -0.413157 2.570413 255 255 255
9.419188 -0.428766 2.556167 255 255 255
9.438434 -0.424238 2.556167 255 255 255
9.438434 -0.408628 2.570413 255 255 255
9.419188 -0.428766 2.556167 255 255 255
9.419188 -0.416531 2.542144 255 255 255
9.438434 -0.412003 2.542144 255 255 255
9.438434 -0.424238 2.556167 255 255 255
9.688313 -0.596792 2.556167 255 255 255
9.699349 -0.585755 2.570413 255 255 255
9.688559 -0.568559 2.570413 255 255 255
9.677521 -0.579596 2.556167 255 255 255
9.677521 -0.579596 2.556167 255 255 255
9.686172 -0.570945 2.542144 255 255 255
9.696964 -0.588140 2.542144 255 255 255
9.688313 -0.596792 2.556167 255 255 255
9.699349 -0.585755 2.570413 255 255 255
9.688313 -0.596792 2.556167 255 255 255
9.705124 -0.607199 2.556167 255 255 255
9.716161 -0.596161 2.570413 255 255 255
9.688313 -0.596792 2.556167 255 255 255
9.696964 -0.588140 2.542144 255 255 255
9.713775 -0.598547 2.542144 255 255 255
9.705124 -0.607199 2.556167 255 255 255
9.889936 -0.798416 2.556167 255 255 255
9.900973 -0.787378 2.570413 255 255 255
9.890182 -0.770183 2.570413 255 255 255
9.879145 -0.781220 2.556167 255 255 255
9.879145 -0.781220 2.556167 255 255 255
9.887796 -0.772569 2.542144 255 255 255
9.898588 -0.789764 2.542144 255 255 255
9.889936 -0.798416 2.556167 255 255 255
9.900973 -0.787378 2.570413 255 255 255
9.889936 -0.798416 2.556167 255 255 255
9.906748 -0.808823 2.556167 255 255 255
9.917785 -0.797785 2.570413 255 255 255
9.889936 -0.798416 2.556167 255 255 255
9.898588 -0.789764 2.542144 255 255 255
9.915399 -0.800171 2.542144 255 255 255
9.906748 -0.808823 2.556167 255 255 255
8.797538 -0.428766 2.556167 255 255 255
8.797538 -0.413157 2.570413 255 255 255
8.777748 -0.408628 2.570413 255 255 255
8.777748 -0.424238 2.556167 255 255 255
8.777748 -0.424238 2.556167 255 255 255
8.777748 -0.412003 2.542144 255 255 255
8.797538 -0.416531 2.542144 255 255 255
8.797538 -0.428766 2.556167 255 255 255
8.797538 -0.413157 2.570413 255 255 255
8.797538 -0.428766 2.556167 255 255 255
8.816784 -0.424238 2.556167 255 255 255
8.816784 -0.408628 2.570413 255 255 255
8.797538 -0.428766 2.556167 255 255 255
8.797538 -0.416531 2.542144 255 255 255
8.816784 -0.412003 2.542144 255 255 255
8.816784 -0.424238 2.556167 255 255 255
9.106439 -0.428766 2.556167 255 255 255
9.106439 -0.413157 2.570413 255 255 255
9.086649 -0.408628 2.570413 255 255 255
9.086649 -0.424238 2.556167 255 255 255
9.086649 -0.424238 2.556167 255 255 255
9.086649 -0.412003 2.542144 255 255 255
9.106439 -0.416531 2.542144 255 255 255
9.106439 -0.428766 2.556167 255 255 255
9.106439 -0.413157 2.570413 255 255 255
9.106439 -0.428766 2.556167 255 255 255
9.125685 -0.424238 2.556167 255 255 255
9.125685 -0.408628 2.570413 255 255 255
9.106439 -0.428766 2.556167 255 255 255
9.106439 -0.416531 2.542144 255 255 255
9.125685 -0.412003 2.542144 255 255 255
9.125685 -0.424238 2.556167 255 255 255
8.512399 -0.428766 2.556167 255 255 255
8.512399 -0.413157 2.570413 255 255 255
8.492609 -0.408628 2.570413 255 255 255
8.492609 -0.424238 2.556167 255 255 255
8.492609 -0.424238 2.556167 255 255 255
8.492609 -0.412003 2.542144 255 255 255
8.512399 -0.416531 2.542144 255 255 255
8.512399 -0.428766 2.556167 255 255 255
8.512399 -0.413157 2.570413 255 255 255
8.512399 -0.428766 2.556167 255 255 255
8.531645 -0.424238 2.556167 255 255 255
8.531645 -0.408628 2.570413 255 255 255
8.512399 -0.428766 2.556167 255 255 255
8.512399 -0.416531 2.542144 255 255 255
8.531645 -0.412003 2.542144 255 255 255
8.531645 -0.424238 2.556167 255 255 255
8.203498 -0.428766 2.556167 255 255 255
8.203498 -0.413157 2.570413 255 255 255
8.183708 -0.408628 2.570413 255 255 255
8.183708 -0.424238 2.556167 255 255 255
8.183708 -0.424238 2.556167 255 255 255
8.183708 -0.412003 2.542144 255 255 255
8.203498 -0.416531 2.542144 255 255 255
8.203498 -0.428766 2.556167 255 255 255
8.203498 -0.413157 2.570413 255 255 255
8.203498 -0.428766 2.556167 255 255 255
8.222744 -0.424238 2.556167 255 255 255
8.222744 -0.408628 2.570413 255 255 255
8.203498 -0.428766 2.556167 255 255 255
8.203498 -0.416531 2.542144 255 255 255
8.222744 -0.412003 2.542144 255 255 255
8.222744 -0.424238 2.556167 255 255 255
3 0 1 2
3 0 2 3
3 4 5 6
3 4 6 7
3 8 9 10
3 8 10 11
3 12 13 14
3 12 14 15
3 16 17 18
3 16 18 19
3 20 21 22
3 20 22 23
3 24 25 26
3 24 26 27
3 28 29 30
3 28 30 31
3 32 33 34
3 32 34 35
3 36 37 38
3 36 38 39
3 40 41 42
3 40 42 43
3 44 45 46
3 44 46 47
3 48 49 50
3 48 50 51
3 52 53 54
3 52 54 55
3 56 57 58
3 56 58 59
3 60 61 62
3 60 62 63
3 64 65 66
3 64 66 67
3 68 69 70
3 68 70 71
3 72 73 74
3 72 74 75
3 76 77 78
3 76 78 79
3 80 81 82
3 80 82 83
3 84 85 86
3 84 86 87
3 88 89 90
3 88 90 91
3 92 93 94
3 92 94 95
3 96 97 98
3 96 98 99
3 100 101 102
3 100 102 103
3 104 105 106
3 104 106 107
3 108 109 110
3 108 110 111
3 112 113 114
3 112 114 115
3 116 117 118
3 116 118 119
3 120 121 122
3 120 122 123
3 124 125 126
3 124 126 127
