ply
format ascii 1.0
comment Created by SmallLuxGPU exporter for Blender 2.5, source file: kitchen.blend
element vertex 16
property float x
property float y
property float z
property uchar red
property uchar green
property uchar blue
element face 6
property list uchar uint vertex_indices
end_header
8.801528 -3.019110 2.558421 255 255 255
8.447887 -3.019110 2.558421 255 255 255
8.609463 -1.368510 2.558421 255 255 255
8.639953 -1.368510 2.558421 255 255 255
8.609463 -1.368510 2.558421 255 255 255
8.447887 -3.019110 2.558421 255 255 255
8.624707 -2.193810 2.584687 255 255 255
8.447887 -3.019110 2.558421 255 255 255
8.801528 -3.019110 2.558421 255 255 255
8.624707 -2.193810 2.584687 255 255 255
8.801528 -3.019110 2.558421 255 255 255
8.639953 -1.368510 2.558421 255 255 255
8.624707 -2.193810 2.584687 255 255 255
8.639953 -1.368510 2.558421 255 255 255
8.609463 -1.368510 2.558421 255 255 255
8.624707 -2.193810 2.584687 255 255 255
3 0 1 2
3 0 2 3
3 4 5 6
3 7 8 9
3 10 11 12
3 13 14 15
