ply
format ascii 1.0
comment Created by SmallLuxGPU exporter for Blender 2.5, source file: kitchen.blend
element vertex 48
property float x
property float y
property float z
property uchar red
property uchar green
property uchar blue
element face 18
property list uchar uint vertex_indices
end_header
1.692422 -2.207787 2.558421 255 255 255
1.084544 -2.207787 2.558421 255 255 255
1.084544 -1.614551 2.558421 255 255 255
1.692422 -1.614551 2.558421 255 255 255
1.084544 -1.614551 2.558421 255 255 255
1.084544 -2.207787 2.558421 255 255 255
1.388483 -1.911169 2.584687 255 255 255
1.084544 -2.207787 2.558421 255 255 255
1.692422 -2.207787 2.558421 255 255 255
1.388483 -1.911169 2.584687 255 255 255
1.692422 -2.207787 2.558421 255 255 255
1.692422 -1.614551 2.558421 255 255 255
1.388483 -1.911169 2.584687 255 255 255
1.692422 -1.614551 2.558421 255 255 255
1.084544 -1.614551 2.558421 255 255 255
1.388483 -1.911169 2.584687 255 255 255
4.689340 -2.207787 2.558421 255 255 255
4.081461 -2.207787 2.558421 255 255 255
4.081461 -1.614551 2.558421 255 255 255
4.689340 -1.614551 2.558421 255 255 255
4.081461 -1.614551 2.558421 255 255 255
4.081461 -2.207787 2.558421 255 255 255
4.385400 -1.911169 2.584687 255 255 255
4.081461 -2.207787 2.558421 255 255 255
4.689340 -2.207787 2.558421 255 255 255
4.385400 -1.911169 2.584687 255 255 255
4.689340 -2.207787 2.558421 255 255 255
4.689340 -1.614551 2.558421 255 255 255
4.385400 -1.911169 2.584687 255 255 255
4.689340 -1.614551 2.558421 255 255 255
4.081461 -1.614551 2.558421 255 255 255
4.385400 -1.911169 2.584687 255 255 255
9.233054 -5.446392 2.558421 255 255 255
8.625175 -5.446392 2.558421 255 255 255
8.625175 -4.853156 2.558421 255 255 255
9.233054 -4.853156 2.558421 255 255 255
8.625175 -4.853156 2.558421 255 255 255
8.625175 -5.446392 2.558421 255 255 255
8.929114 -5.149774 2.584687 255 255 255
8.625175 -5.446392 2.558421 255 255 255
9.233054 -5.446392 2.558421 255 255 255
8.929114 -5.149774 2.584687 255 255 255
9.233054 -5.446392 2.558421 255 255 255
9.233054 -4.853156 2.558421 255 255 255
8.929114 -5.149774 2.584687 255 255 255
9.233054 -4.853156 2.558421 255 255 255
8.625175 -4.853156 2.558421 255 255 255
8.929114 -5.149774 2.584687 255 255 255
3 0 1 2
3 0 2 3
3 4 5 6
3 7 8 9
3 10 11 12
3 13 14 15
3 16 17 18
3 16 18 19
3 20 21 22
3 23 24 25
3 26 27 28
3 29 30 31
3 32 33 34
3 32 34 35
3 36 37 38
3 39 40 41
3 42 43 44
3 45 46 47
