ply
format ascii 1.0
comment Created by SmallLuxGPU exporter for Blender 2.5, source file: kitchen.blend
element vertex 621
property float x
property float y
property float z
property uchar red
property uchar green
property uchar blue
element face 1208
property list uchar uint vertex_indices
end_header
8.386562 -0.440436 0.807040 255 255 255
8.386286 -0.443185 0.803017 255 255 255
8.360585 -0.443106 0.803017 255 255 255
8.360320 -0.440356 0.807040 255 255 255
8.360068 -0.437747 0.810999 255 255 255
8.386825 -0.437829 0.810999 255 255 255
8.413035 -0.443111 0.811037 255 255 255
8.412278 -0.445607 0.807066 255 255 255
8.411484 -0.448233 0.803024 255 255 255
8.436440 -0.455787 0.807142 255 255 255
8.435185 -0.458157 0.803043 255 255 255
8.437646 -0.453521 0.811151 255 255 255
8.459787 -0.468494 0.811265 255 255 255
8.458185 -0.470447 0.807218 255 255 255
8.456525 -0.472474 0.803062 255 255 255
8.476647 -0.489057 0.807243 255 255 255
8.474633 -0.490702 0.803068 255 255 255
8.478593 -0.487467 0.811303 255 255 255
8.493398 -0.509678 0.811303 255 255 255
8.491179 -0.510858 0.807243 255 255 255
8.488882 -0.512080 0.803068 255 255 255
8.501132 -0.535095 0.807243 255 255 255
8.498641 -0.535845 0.803068 255 255 255
8.503538 -0.534371 0.811303 255 255 255
8.508716 -0.560557 0.811303 255 255 255
8.506214 -0.560799 0.807243 255 255 255
8.503625 -0.561048 0.803068 255 255 255
8.506134 -0.586999 0.807243 255 255 255
8.503547 -0.586739 0.803068 255 255 255
8.508634 -0.587251 0.811303 255 255 255
8.503397 -0.613425 0.811303 255 255 255
8.500993 -0.612691 0.807243 255 255 255
8.498506 -0.611931 0.803068 255 255 255
8.490892 -0.636867 0.807243 255 255 255
8.488602 -0.635636 0.803068 255 255 255
8.493106 -0.638056 0.811303 255 255 255
8.478271 -0.660270 0.811265 255 255 255
8.476324 -0.658659 0.807218 255 255 255
8.474307 -0.656987 0.803062 255 255 255
8.457780 -0.677202 0.807142 255 255 255
8.456096 -0.675116 0.803043 255 255 255
8.459395 -0.679197 0.811151 255 255 255
8.437226 -0.694115 0.811037 255 255 255
8.436007 -0.691810 0.807066 255 255 255
8.434725 -0.689384 0.803024 255 255 255
8.411752 -0.701796 0.807040 255 255 255
8.410955 -0.699151 0.803017 255 255 255
8.412507 -0.704305 0.810999 255 255 255
8.386258 -0.709496 0.810999 255 255 255
8.386006 -0.706887 0.807040 255 255 255
8.385742 -0.704136 0.803017 255 255 255
8.359764 -0.706806 0.807040 255 255 255
8.360041 -0.704058 0.803017 255 255 255
8.359502 -0.709414 0.810999 255 255 255
8.333264 -0.704164 0.810999 255 255 255
8.334031 -0.701657 0.807040 255 255 255
8.334838 -0.699015 0.803017 255 255 255
8.309816 -0.691541 0.807040 255 255 255
8.311123 -0.689107 0.803017 255 255 255
8.308576 -0.693849 0.810999 255 255 255
8.286345 -0.678958 0.810999 255 255 255
8.288013 -0.676936 0.807040 255 255 255
8.289769 -0.674804 0.803017 255 255 255
8.269512 -0.658323 0.807040 255 255 255
8.271651 -0.656575 0.803017 255 255 255
8.267483 -0.659981 0.810999 255 255 255
8.252644 -0.637716 0.810999 255 255 255
8.254957 -0.636486 0.807040 255 255 255
8.257397 -0.635188 0.803017 255 255 255
8.244988 -0.612210 0.807040 255 255 255
8.247634 -0.611413 0.803017 255 255 255
8.242479 -0.612965 0.810999 255 255 255
8.237289 -0.586716 0.810999 255 255 255
8.239898 -0.586465 0.807040 255 255 255
8.242648 -0.586200 0.803017 255 255 255
8.239978 -0.560222 0.807040 255 255 255
8.242726 -0.560498 0.803017 255 255 255
8.237370 -0.559960 0.810999 255 255 255
8.242620 -0.533723 0.810999 255 255 255
8.245128 -0.534489 0.807040 255 255 255
8.247769 -0.535296 0.803017 255 255 255
8.255244 -0.510274 0.807040 255 255 255
8.257677 -0.511581 0.803017 255 255 255
8.252935 -0.509034 0.810999 255 255 255
8.267826 -0.486803 0.810999 255 255 255
8.269849 -0.488470 0.807040 255 255 255
8.271981 -0.490228 0.803017 255 255 255
8.288462 -0.469970 0.807040 255 255 255
8.290210 -0.472109 0.803017 255 255 255
8.286804 -0.467941 0.810999 255 255 255
8.309069 -0.453101 0.810999 255 255 255
8.310299 -0.455415 0.807040 255 255 255
8.311596 -0.457855 0.803017 255 255 255
8.334575 -0.445447 0.807040 255 255 255
8.333819 -0.442937 0.810999 255 255 255
8.335371 -0.448092 0.803017 255 255 255
8.386147 -0.444560 0.801134 255 255 255
8.385921 -0.446807 0.800524 255 255 255
8.360934 -0.446731 0.800524 255 255 255
8.360718 -0.444482 0.801134 255 255 255
8.411084 -0.449549 0.801134 255 255 255
8.410424 -0.451710 0.800524 255 255 255
8.434549 -0.459353 0.801134 255 255 255
8.455678 -0.473505 0.801134 255 255 255
8.454241 -0.475249 0.800524 255 255 255
8.433480 -0.461343 0.800524 255 255 255
8.473605 -0.491542 0.801134 255 255 255
8.487710 -0.512703 0.801134 255 255 255
8.485715 -0.513764 0.800524 255 255 255
8.471856 -0.492972 0.800524 255 255 255
8.497370 -0.536228 0.801134 255 255 255
8.502302 -0.561175 0.801134 255 255 255
8.500053 -0.561392 0.800524 255 255 255
8.495207 -0.536879 0.800524 255 255 255
8.502225 -0.586606 0.801134 255 255 255
8.497235 -0.611542 0.801134 255 255 255
8.495074 -0.610882 0.800524 255 255 255
8.499977 -0.586380 0.800524 255 255 255
8.487432 -0.635007 0.801134 255 255 255
8.473279 -0.656136 0.801134 255 255 255
8.471536 -0.654699 0.800524 255 255 255
8.485442 -0.633938 0.800524 255 255 255
8.455242 -0.674063 0.801134 255 255 255
8.434081 -0.688168 0.801134 255 255 255
8.433021 -0.686173 0.800524 255 255 255
8.453813 -0.672314 0.800524 255 255 255
8.410557 -0.697828 0.801134 255 255 255
8.385609 -0.702761 0.801134 255 255 255
8.385392 -0.700512 0.800524 255 255 255
8.409905 -0.695665 0.800524 255 255 255
8.360179 -0.702683 0.801134 255 255 255
8.335242 -0.697693 0.801134 255 255 255
8.335902 -0.695533 0.800524 255 255 255
8.360405 -0.700435 0.800524 255 255 255
8.311777 -0.687890 0.801134 255 255 255
8.290648 -0.673737 0.801134 255 255 255
8.292086 -0.671994 0.800524 255 255 255
8.312846 -0.685900 0.800524 255 255 255
8.272721 -0.655700 0.801134 255 255 255
8.258616 -0.634539 0.801134 255 255 255
8.260612 -0.633478 0.800524 255 255 255
8.274470 -0.654271 0.800524 255 255 255
8.248957 -0.611015 0.801134 255 255 255
8.244024 -0.586067 0.801134 255 255 255
8.246273 -0.585850 0.800524 255 255 255
8.251120 -0.610364 0.800524 255 255 255
8.244102 -0.560637 0.801134 255 255 255
8.249091 -0.535700 0.801134 255 255 255
8.251252 -0.536361 0.800524 255 255 255
8.246349 -0.560863 0.800524 255 255 255
8.258895 -0.512235 0.801134 255 255 255
8.273047 -0.491107 0.801134 255 255 255
8.274791 -0.492544 0.800524 255 255 255
8.260885 -0.513304 0.800524 255 255 255
8.291084 -0.473179 0.801134 255 255 255
8.312245 -0.459075 0.801134 255 255 255
8.313306 -0.461070 0.800524 255 255 255
8.292514 -0.474929 0.800524 255 255 255
8.335770 -0.449415 0.801134 255 255 255
8.336421 -0.451578 0.800524 255 255 255
8.385382 -0.452174 0.800320 255 255 255
8.374315 -0.460543 0.800320 255 255 255
8.359739 -0.458358 0.800320 255 255 255
8.361452 -0.452101 0.800320 255 255 255
8.408847 -0.456869 0.800320 255 255 255
8.392144 -0.467869 0.800320 255 255 255
8.430927 -0.466094 0.800320 255 255 255
8.409513 -0.482147 0.800320 255 255 255
8.450809 -0.479412 0.800320 255 255 255
8.437411 -0.502424 0.800320 255 255 255
8.467679 -0.496385 0.800320 255 255 255
8.466811 -0.510233 0.800320 255 255 255
8.480951 -0.516297 0.800320 255 255 255
8.476681 -0.521180 0.800320 255 255 255
8.490042 -0.538434 0.800320 255 255 255
8.482945 -0.540570 0.800320 255 255 255
8.494683 -0.561910 0.800320 255 255 255
8.488427 -0.560197 0.800320 255 255 255
8.494611 -0.585840 0.800320 255 255 255
8.486241 -0.574773 0.800320 255 255 255
8.489915 -0.609305 0.800320 255 255 255
8.474133 -0.605349 0.800320 255 255 255
8.480690 -0.631386 0.800320 255 255 255
8.467565 -0.635883 0.800320 255 255 255
8.467373 -0.651268 0.800320 255 255 255
8.461227 -0.649190 0.800320 255 255 255
8.450399 -0.668137 0.800320 255 255 255
8.445710 -0.662399 0.800320 255 255 255
8.430488 -0.681410 0.800320 255 255 255
8.429675 -0.674974 0.800320 255 255 255
8.408351 -0.690500 0.800320 255 255 255
8.415372 -0.678533 0.800320 255 255 255
8.384875 -0.695142 0.800320 255 255 255
8.384142 -0.678887 0.800320 255 255 255
8.360945 -0.695069 0.800320 255 255 255
8.351767 -0.684663 0.800320 255 255 255
8.337480 -0.690373 0.800320 255 255 255
8.337048 -0.683901 0.800320 255 255 255
8.315399 -0.681148 0.800320 255 255 255
8.318906 -0.674619 0.800320 255 255 255
8.295517 -0.667831 0.800320 255 255 255
8.301152 -0.664618 0.800320 255 255 255
8.278647 -0.650858 0.800320 255 255 255
8.292390 -0.652765 0.800320 255 255 255
8.265375 -0.630945 0.800320 255 255 255
8.285270 -0.618246 0.800320 255 255 255
8.256285 -0.608809 0.800320 255 255 255
8.262386 -0.596347 0.800320 255 255 255
8.251643 -0.585333 0.800320 255 255 255
8.257458 -0.582457 0.800320 255 255 255
8.251716 -0.561403 0.800320 255 255 255
8.259089 -0.562145 0.800320 255 255 255
8.256412 -0.537938 0.800320 255 255 255
8.261537 -0.541914 0.800320 255 255 255
8.265636 -0.515857 0.800320 255 255 255
8.269134 -0.529284 0.800320 255 255 255
8.278954 -0.495975 0.800320 255 255 255
8.291600 -0.504877 0.800320 255 255 255
8.295927 -0.479105 0.800320 255 255 255
8.309774 -0.479974 0.800320 255 255 255
8.315840 -0.465833 0.800320 255 255 255
8.320722 -0.470104 0.800320 255 255 255
8.337976 -0.456743 0.800320 255 255 255
8.340113 -0.463839 0.800320 255 255 255
8.333508 -0.441902 0.814211 255 255 255
8.333517 -0.441931 0.813350 255 255 255
8.308575 -0.452174 0.813350 255 255 255
8.308560 -0.452146 0.814211 255 255 255
8.308560 -0.452146 0.818254 255 255 255
8.333508 -0.441902 0.818254 255 255 255
8.359964 -0.436670 0.818254 255 255 255
8.359964 -0.436670 0.814211 255 255 255
8.359967 -0.436701 0.813350 255 255 255
8.286119 -0.467104 0.814211 255 255 255
8.286139 -0.467128 0.813350 255 255 255
8.267015 -0.486135 0.813350 255 255 255
8.266992 -0.486115 0.814211 255 255 255
8.266992 -0.486115 0.818254 255 255 255
8.286119 -0.467104 0.818254 255 255 255
8.251983 -0.508522 0.814211 255 255 255
8.252010 -0.508537 0.813350 255 255 255
8.241616 -0.533416 0.813350 255 255 255
8.241586 -0.533407 0.814211 255 255 255
8.241586 -0.533407 0.818254 255 255 255
8.251983 -0.508522 0.818254 255 255 255
8.236295 -0.559851 0.814211 255 255 255
8.236325 -0.559854 0.813350 255 255 255
8.236243 -0.586817 0.813350 255 255 255
8.236213 -0.586820 0.814211 255 255 255
8.236213 -0.586820 0.818254 255 255 255
8.236295 -0.559851 0.818254 255 255 255
8.241444 -0.613277 0.814211 255 255 255
8.241473 -0.613268 0.813350 255 255 255
8.251716 -0.638210 0.813350 255 255 255
8.251688 -0.638224 0.814211 255 255 255
8.251688 -0.638224 0.818254 255 255 255
8.241444 -0.613277 0.818254 255 255 255
8.266645 -0.660665 0.814211 255 255 255
8.266669 -0.660645 0.813350 255 255 255
8.285677 -0.679769 0.813350 255 255 255
8.285657 -0.679793 0.814211 255 255 255
8.285657 -0.679793 0.818254 255 255 255
8.266645 -0.660665 0.818254 255 255 255
8.308064 -0.694802 0.814211 255 255 255
8.308079 -0.694774 0.813350 255 255 255
8.332957 -0.705169 0.813350 255 255 255
8.332949 -0.705199 0.814211 255 255 255
8.332949 -0.705199 0.818254 255 255 255
8.308064 -0.694802 0.818254 255 255 255
8.359393 -0.710490 0.814211 255 255 255
8.359396 -0.710459 0.813350 255 255 255
8.386359 -0.710541 0.813350 255 255 255
8.386362 -0.710572 0.814211 255 255 255
8.386362 -0.710572 0.818254 255 255 255
8.359393 -0.710490 0.818254 255 255 255
8.412819 -0.705341 0.814211 255 255 255
8.412809 -0.705311 0.813350 255 255 255
8.437746 -0.695065 0.813356 255 255 255
8.437766 -0.695097 0.814211 255 255 255
8.437766 -0.695097 0.818254 255 255 255
8.412819 -0.705341 0.818254 255 255 255
8.460207 -0.680139 0.814211 255 255 255
8.460166 -0.680097 0.813375 255 255 255
8.479273 -0.661079 0.813394 255 255 255
8.479335 -0.661127 0.814211 255 255 255
8.479335 -0.661127 0.818254 255 255 255
8.460207 -0.680139 0.818254 255 255 255
8.494344 -0.638721 0.814211 255 255 255
8.494269 -0.638680 0.813400 255 255 255
8.504659 -0.613811 0.813400 255 255 255
8.504741 -0.613836 0.814211 255 255 255
8.504741 -0.613836 0.818254 255 255 255
8.494344 -0.638721 0.818254 255 255 255
8.510032 -0.587391 0.814211 255 255 255
8.509947 -0.587383 0.813400 255 255 255
8.510030 -0.560431 0.813400 255 255 255
8.510115 -0.560423 0.814211 255 255 255
8.510115 -0.560423 0.818254 255 255 255
8.510032 -0.587391 0.818254 255 255 255
8.504883 -0.533966 0.814211 255 255 255
8.504802 -0.533990 0.813400 255 255 255
8.494563 -0.509058 0.813400 255 255 255
8.494638 -0.509018 0.814211 255 255 255
8.494638 -0.509018 0.818254 255 255 255
8.504883 -0.533966 0.818254 255 255 255
8.479681 -0.486577 0.814211 255 255 255
8.479615 -0.486631 0.813400 255 255 255
8.460617 -0.467508 0.813394 255 255 255
8.460670 -0.467449 0.814211 255 255 255
8.460670 -0.467449 0.818254 255 255 255
8.479681 -0.486577 0.818254 255 255 255
8.438263 -0.452441 0.814211 255 255 255
8.438231 -0.452489 0.813375 255 255 255
8.413364 -0.442079 0.813356 255 255 255
8.413378 -0.442044 0.814211 255 255 255
8.413378 -0.442044 0.818254 255 255 255
8.438263 -0.452441 0.818254 255 255 255
8.386933 -0.436753 0.814211 255 255 255
8.386930 -0.436784 0.813350 255 255 255
8.386933 -0.436753 0.818254 255 255 255
8.386933 -0.436753 0.828455 255 255 255
8.359964 -0.436670 0.828455 255 255 255
8.359964 -0.436670 0.849143 255 255 255
8.386933 -0.436753 0.849143 255 255 255
8.413378 -0.442044 0.849143 255 255 255
8.413378 -0.442044 0.828455 255 255 255
8.438263 -0.452441 0.828455 255 255 255
8.438263 -0.452441 0.849143 255 255 255
8.460670 -0.467449 0.849143 255 255 255
8.460670 -0.467449 0.828455 255 255 255
8.479681 -0.486577 0.828455 255 255 255
8.479681 -0.486577 0.849143 255 255 255
8.494638 -0.509018 0.849143 255 255 255
8.494638 -0.509018 0.828455 255 255 255
8.504883 -0.533966 0.828455 255 255 255
8.504883 -0.533966 0.849143 255 255 255
8.510115 -0.560423 0.849143 255 255 255
8.510115 -0.560423 0.828455 255 255 255
8.510032 -0.587391 0.828455 255 255 255
8.510032 -0.587391 0.849143 255 255 255
8.504741 -0.613836 0.849143 255 255 255
8.504741 -0.613836 0.828455 255 255 255
8.494344 -0.638721 0.828455 255 255 255
8.494344 -0.638721 0.849143 255 255 255
8.479335 -0.661127 0.849143 255 255 255
8.479335 -0.661127 0.828455 255 255 255
8.460207 -0.680139 0.828455 255 255 255
8.460207 -0.680139 0.849143 255 255 255
8.437766 -0.695097 0.849143 255 255 255
8.437766 -0.695097 0.828455 255 255 255
8.412819 -0.705341 0.828455 255 255 255
8.412819 -0.705341 0.849143 255 255 255
8.386362 -0.710572 0.849143 255 255 255
8.386362 -0.710572 0.828455 255 255 255
8.359393 -0.710490 0.828455 255 255 255
8.359393 -0.710490 0.849143 255 255 255
8.332949 -0.705199 0.849143 255 255 255
8.332949 -0.705199 0.828455 255 255 255
8.308064 -0.694802 0.828455 255 255 255
8.308064 -0.694802 0.849143 255 255 255
8.285657 -0.679793 0.849143 255 255 255
8.285657 -0.679793 0.828455 255 255 255
8.266645 -0.660665 0.828455 255 255 255
8.266645 -0.660665 0.849143 255 255 255
8.251688 -0.638224 0.849143 255 255 255
8.251688 -0.638224 0.828455 255 255 255
8.241444 -0.613277 0.828455 255 255 255
8.241444 -0.613277 0.849143 255 255 255
8.236213 -0.586820 0.849143 255 255 255
8.236213 -0.586820 0.828455 255 255 255
8.236295 -0.559851 0.828455 255 255 255
8.236295 -0.559851 0.849143 255 255 255
8.241586 -0.533407 0.849143 255 255 255
8.241586 -0.533407 0.828455 255 255 255
8.251983 -0.508522 0.828455 255 255 255
8.251983 -0.508522 0.849143 255 255 255
8.266992 -0.486115 0.849143 255 255 255
8.266992 -0.486115 0.828455 255 255 255
8.286119 -0.467104 0.828455 255 255 255
8.286119 -0.467104 0.849143 255 255 255
8.308560 -0.452146 0.849143 255 255 255
8.308560 -0.452146 0.828455 255 255 255
8.333508 -0.441902 0.828455 255 255 255
8.333508 -0.441902 0.849143 255 255 255
8.333508 -0.441902 0.884647 255 255 255
8.308560 -0.452146 0.884647 255 255 255
8.308560 -0.452146 0.918660 255 255 255
8.333508 -0.441902 0.918660 255 255 255
8.359964 -0.436670 0.918660 255 255 255
8.359964 -0.436670 0.884647 255 255 255
8.286119 -0.467104 0.884647 255 255 255
8.266992 -0.486115 0.884647 255 255 255
8.266992 -0.486115 0.918660 255 255 255
8.286119 -0.467104 0.918660 255 255 255
8.251983 -0.508522 0.884647 255 255 255
8.241586 -0.533407 0.884647 255 255 255
8.241586 -0.533407 0.918660 255 255 255
8.251983 -0.508522 0.918660 255 255 255
8.236295 -0.559851 0.884647 255 255 255
8.236213 -0.586820 0.884647 255 255 255
8.236213 -0.586820 0.918660 255 255 255
8.236295 -0.559851 0.918660 255 255 255
8.241444 -0.613277 0.884647 255 255 255
8.251688 -0.638224 0.884647 255 255 255
8.251688 -0.638224 0.918660 255 255 255
8.241444 -0.613277 0.918660 255 255 255
8.266645 -0.660665 0.884647 255 255 255
8.285657 -0.679793 0.884647 255 255 255
8.285657 -0.679793 0.918660 255 255 255
8.266645 -0.660665 0.918660 255 255 255
8.308064 -0.694802 0.884647 255 255 255
8.332949 -0.705199 0.884647 255 255 255
8.332949 -0.705199 0.918660 255 255 255
8.308064 -0.694802 0.918660 255 255 255
8.359393 -0.710490 0.884647 255 255 255
8.386362 -0.710572 0.884647 255 255 255
8.386362 -0.710572 0.918660 255 255 255
8.359393 -0.710490 0.918660 255 255 255
8.412819 -0.705341 0.884647 255 255 255
8.437766 -0.695097 0.884647 255 255 255
8.437766 -0.695097 0.918660 255 255 255
8.412819 -0.705341 0.918660 255 255 255
8.460207 -0.680139 0.884647 255 255 255
8.479335 -0.661127 0.884647 255 255 255
8.479335 -0.661127 0.918660 255 255 255
8.460207 -0.680139 0.918660 255 255 255
8.494344 -0.638721 0.884647 255 255 255
8.504741 -0.613836 0.884647 255 255 255
8.504741 -0.613836 0.918660 255 255 255
8.494344 -0.638721 0.918660 255 255 255
8.510032 -0.587391 0.884647 255 255 255
8.510115 -0.560423 0.884647 255 255 255
8.510115 -0.560423 0.918660 255 255 255
8.510032 -0.587391 0.918660 255 255 255
8.504883 -0.533966 0.884647 255 255 255
8.494638 -0.509018 0.884647 255 255 255
8.494638 -0.509018 0.918660 255 255 255
8.504883 -0.533966 0.918660 255 255 255
8.479681 -0.486577 0.884647 255 255 255
8.460670 -0.467449 0.884647 255 255 255
8.460670 -0.467449 0.918660 255 255 255
8.479681 -0.486577 0.918660 255 255 255
8.438263 -0.452441 0.884647 255 255 255
8.413378 -0.442044 0.884647 255 255 255
8.413378 -0.442044 0.918660 255 255 255
8.438263 -0.452441 0.918660 255 255 255
8.386933 -0.436753 0.884647 255 255 255
8.386933 -0.436753 0.918660 255 255 255
8.386933 -0.436753 0.934880 255 255 255
8.359964 -0.436670 0.934880 255 255 255
8.359949 -0.436513 0.940862 255 255 255
8.386950 -0.436596 0.940862 255 255 255
8.413424 -0.441893 0.940862 255 255 255
8.413378 -0.442044 0.934880 255 255 255
8.438263 -0.452441 0.934880 255 255 255
8.438337 -0.452302 0.940862 255 255 255
8.460770 -0.467328 0.940862 255 255 255
8.460670 -0.467449 0.934880 255 255 255
8.479681 -0.486577 0.934880 255 255 255
8.479803 -0.486478 0.940862 255 255 255
8.494778 -0.508944 0.940862 255 255 255
8.494638 -0.509018 0.934880 255 255 255
8.504883 -0.533966 0.934880 255 255 255
8.505033 -0.533920 0.940862 255 255 255
8.510271 -0.560407 0.940862 255 255 255
8.510115 -0.560423 0.934880 255 255 255
8.510032 -0.587391 0.934880 255 255 255
8.510189 -0.587407 0.940862 255 255 255
8.504891 -0.613882 0.940862 255 255 255
8.504741 -0.613836 0.934880 255 255 255
8.494344 -0.638721 0.934880 255 255 255
8.494483 -0.638795 0.940862 255 255 255
8.479457 -0.661228 0.940862 255 255 255
8.479335 -0.661127 0.934880 255 255 255
8.460207 -0.680139 0.934880 255 255 255
8.460307 -0.680261 0.940862 255 255 255
8.437840 -0.695236 0.940862 255 255 255
8.437766 -0.695097 0.934880 255 255 255
8.412819 -0.705341 0.934880 255 255 255
8.412864 -0.705492 0.940862 255 255 255
8.386377 -0.710729 0.940862 255 255 255
8.386362 -0.710572 0.934880 255 255 255
8.359393 -0.710490 0.934880 255 255 255
8.359377 -0.710647 0.940862 255 255 255
8.332902 -0.705349 0.940862 255 255 255
8.332949 -0.705199 0.934880 255 255 255
8.308064 -0.694802 0.934880 255 255 255
8.307989 -0.694941 0.940862 255 255 255
8.285557 -0.679915 0.940862 255 255 255
8.285657 -0.679793 0.934880 255 255 255
8.266645 -0.660665 0.934880 255 255 255
8.266523 -0.660765 0.940862 255 255 255
8.251549 -0.638298 0.940862 255 255 255
8.251688 -0.638224 0.934880 255 255 255
8.241444 -0.613277 0.934880 255 255 255
8.241293 -0.613322 0.940862 255 255 255
8.236055 -0.586835 0.940862 255 255 255
8.236213 -0.586820 0.934880 255 255 255
8.236295 -0.559851 0.934880 255 255 255
8.236137 -0.559835 0.940862 255 255 255
8.241435 -0.533360 0.940862 255 255 255
8.241586 -0.533407 0.934880 255 255 255
8.251983 -0.508522 0.934880 255 255 255
8.251843 -0.508448 0.940862 255 255 255
8.266870 -0.486015 0.940862 255 255 255
8.266992 -0.486115 0.934880 255 255 255
8.286119 -0.467104 0.934880 255 255 255
8.286019 -0.466982 0.940862 255 255 255
8.308486 -0.452007 0.940862 255 255 255
8.308560 -0.452146 0.934880 255 255 255
8.333508 -0.441902 0.934880 255 255 255
8.333463 -0.441751 0.940862 255 255 255
8.333326 -0.441298 0.944165 255 255 255
8.308265 -0.451590 0.944165 255 255 255
8.307633 -0.450402 0.945892 255 255 255
8.332938 -0.440011 0.945892 255 255 255
8.359775 -0.434705 0.945892 255 255 255
8.359904 -0.436043 0.944165 255 255 255
8.285721 -0.466616 0.944165 255 255 255
8.266505 -0.485714 0.944165 255 255 255
8.265468 -0.484859 0.945892 255 255 255
8.284870 -0.465575 0.945892 255 255 255
8.251428 -0.508224 0.944165 255 255 255
8.240983 -0.533222 0.944165 255 255 255
8.239697 -0.532829 0.945892 255 255 255
8.250243 -0.507588 0.945892 255 255 255
8.235667 -0.559788 0.944165 255 255 255
8.235585 -0.586881 0.944165 255 255 255
8.234246 -0.587010 0.945892 255 255 255
8.234330 -0.559654 0.945892 255 255 255
8.240840 -0.613459 0.944165 255 255 255
8.251131 -0.638520 0.944165 255 255 255
8.249945 -0.639152 0.945892 255 255 255
8.239552 -0.613846 0.945892 255 255 255
8.266157 -0.661064 0.944165 255 255 255
8.285256 -0.680280 0.944165 255 255 255
8.284401 -0.681317 0.945892 255 255 255
8.265117 -0.661915 0.945892 255 255 255
8.307766 -0.695357 0.944165 255 255 255
8.332764 -0.705801 0.944165 255 255 255
8.332371 -0.707087 0.945892 255 255 255
8.307130 -0.696541 0.945892 255 255 255
8.359330 -0.711117 0.944165 255 255 255
8.386422 -0.711200 0.944165 255 255 255
8.386552 -0.712538 0.945892 255 255 255
8.359196 -0.712455 0.945892 255 255 255
8.413000 -0.705945 0.944165 255 255 255
8.438062 -0.695653 0.944165 255 255 255
8.438693 -0.696840 0.945892 255 255 255
8.413388 -0.707232 0.945892 255 255 255
8.460606 -0.680627 0.944165 255 255 255
8.479821 -0.661528 0.944165 255 255 255
8.480859 -0.662383 0.945892 255 255 255
8.461456 -0.681668 0.945892 255 255 255
8.494899 -0.639019 0.944165 255 255 255
8.505343 -0.614020 0.944165 255 255 255
8.506629 -0.614413 0.945892 255 255 255
8.496083 -0.639655 0.945892 255 255 255
8.510659 -0.587454 0.944165 255 255 255
8.510741 -0.560362 0.944165 255 255 255
8.512080 -0.560233 0.945892 255 255 255
8.511996 -0.587589 0.945892 255 255 255
8.505486 -0.533784 0.944165 255 255 255
8.495195 -0.508722 0.944165 255 255 255
8.496382 -0.508091 0.945892 255 255 255
8.506774 -0.533397 0.945892 255 255 255
8.480169 -0.486179 0.944165 255 255 255
8.461070 -0.466963 0.944165 255 255 255
8.461926 -0.465925 0.945892 255 255 255
8.481210 -0.485328 0.945892 255 255 255
8.438560 -0.451886 0.944165 255 255 255
8.413562 -0.441441 0.944165 255 255 255
8.413956 -0.440156 0.945892 255 255 255
8.439197 -0.450701 0.945892 255 255 255
8.386996 -0.436126 0.944165 255 255 255
8.387131 -0.434788 0.945892 255 255 255
8.386921 -0.436877 0.812691 255 255 255
8.413324 -0.442185 0.812716 255 255 255
8.359977 -0.436795 0.812691 255 255 255
8.438133 -0.452635 0.812792 255 255 255
8.460461 -0.467686 0.812868 255 255 255
8.479418 -0.486793 0.812894 255 255 255
8.494338 -0.509178 0.812894 255 255 255
8.504557 -0.534064 0.812894 255 255 255
8.509775 -0.560455 0.812894 255 255 255
8.509693 -0.587357 0.812894 255 255 255
8.504415 -0.613737 0.812894 255 255 255
8.494044 -0.638560 0.812894 255 255 255
8.479085 -0.660935 0.812868 255 255 255
8.460043 -0.679973 0.812792 255 255 255
8.437686 -0.694969 0.812716 255 255 255
8.412783 -0.705222 0.812691 255 255 255
8.386350 -0.710448 0.812691 255 255 255
8.359406 -0.710366 0.812691 255 255 255
8.332985 -0.705079 0.812691 255 255 255
8.266742 -0.660586 0.812691 255 255 255
8.251799 -0.638166 0.812691 255 255 255
8.285737 -0.679697 0.812691 255 255 255
8.252092 -0.508581 0.812691 255 255 255
8.267088 -0.486195 0.812691 255 255 255
8.241706 -0.533443 0.812691 255 255 255
8.333544 -0.442021 0.812691 255 255 255
8.308619 -0.452256 0.812691 255 255 255
8.342508 -0.471798 0.800320 255 255 255
8.346107 -0.487553 0.800320 255 255 255
8.267360 -0.562977 0.800320 255 255 255
8.292842 -0.552181 0.800320 255 255 255
8.322840 -0.667298 0.800320 255 255 255
8.343401 -0.647248 0.800320 255 255 255
8.440451 -0.655963 0.800320 255 255 255
8.426764 -0.639214 0.800320 255 255 255
8.474987 -0.542966 0.800320 255 255 255
8.451243 -0.559122 0.800320 255 255 255
8.351855 -0.518040 0.800320 255 255 255
8.366500 -0.558091 0.800320 255 255 255
8.396791 -0.602536 0.800320 255 255 255
8.308123 -0.694692 0.812691 255 255 255
8.241563 -0.613241 0.812691 255 255 255
8.236337 -0.586808 0.812691 255 255 255
8.286199 -0.467200 0.812691 255 255 255
8.236419 -0.559864 0.812691 255 255 255
3 0 1 2
3 0 2 3
3 0 3 4
3 0 4 5
3 0 5 6
3 0 6 7
3 0 7 8
3 0 8 1
3 9 10 8
3 9 8 7
3 9 7 6
3 9 6 11
3 9 11 12
3 9 12 13
3 9 13 14
3 9 14 10
3 15 16 14
3 15 14 13
3 15 13 12
3 15 12 17
3 15 17 18
3 15 18 19
3 15 19 20
3 15 20 16
3 21 22 20
3 21 20 19
3 21 19 18
3 21 18 23
3 21 23 24
3 21 24 25
3 21 25 26
3 21 26 22
3 27 28 26
3 27 26 25
3 27 25 24
3 27 24 29
3 27 29 30
3 27 30 31
3 27 31 32
3 27 32 28
3 33 34 32
3 33 32 31
3 33 31 30
3 33 30 35
3 33 35 36
3 33 36 37
3 33 37 38
3 33 38 34
3 39 40 38
3 39 38 37
3 39 37 36
3 39 36 41
3 39 41 42
3 39 42 43
3 39 43 44
3 39 44 40
3 45 46 44
3 45 44 43
3 45 43 42
3 45 42 47
3 45 47 48
3 45 48 49
3 45 49 50
3 45 50 46
3 51 52 50
3 51 50 49
3 51 49 48
3 51 48 53
3 51 53 54
3 51 54 55
3 51 55 56
3 51 56 52
3 57 58 56
3 57 56 55
3 57 55 54
3 57 54 59
3 57 59 60
3 57 60 61
3 57 61 62
3 57 62 58
3 63 64 62
3 63 62 61
3 63 61 60
3 63 60 65
3 63 65 66
3 63 66 67
3 63 67 68
3 63 68 64
3 69 70 68
3 69 68 67
3 69 67 66
3 69 66 71
3 69 71 72
3 69 72 73
3 69 73 74
3 69 74 70
3 75 76 74
3 75 74 73
3 75 73 72
3 75 72 77
3 75 77 78
3 75 78 79
3 75 79 80
3 75 80 76
3 81 82 80
3 81 80 79
3 81 79 78
3 81 78 83
3 81 83 84
3 81 84 85
3 81 85 86
3 81 86 82
3 87 88 86
3 87 86 85
3 87 85 84
3 87 84 89
3 87 89 90
3 87 90 91
3 87 91 92
3 87 92 88
3 93 94 4
3 93 4 3
3 93 3 2
3 93 2 95
3 93 95 92
3 93 92 91
3 93 91 90
3 93 90 94
3 96 97 98
3 96 98 99
3 96 99 2
3 96 2 1
3 96 1 8
3 96 8 100
3 96 100 101
3 96 101 97
3 102 10 14
3 102 14 103
3 102 103 104
3 102 104 105
3 102 105 101
3 102 101 100
3 102 100 8
3 102 8 10
3 106 16 20
3 106 20 107
3 106 107 108
3 106 108 109
3 106 109 104
3 106 104 103
3 106 103 14
3 106 14 16
3 110 22 26
3 110 26 111
3 110 111 112
3 110 112 113
3 110 113 108
3 110 108 107
3 110 107 20
3 110 20 22
3 114 28 32
3 114 32 115
3 114 115 116
3 114 116 117
3 114 117 112
3 114 112 111
3 114 111 26
3 114 26 28
3 118 34 38
3 118 38 119
3 118 119 120
3 118 120 121
3 118 121 116
3 118 116 115
3 118 115 32
3 118 32 34
3 122 40 44
3 122 44 123
3 122 123 124
3 122 124 125
3 122 125 120
3 122 120 119
3 122 119 38
3 122 38 40
3 126 46 50
3 126 50 127
3 126 127 128
3 126 128 129
3 126 129 124
3 126 124 123
3 126 123 44
3 126 44 46
3 130 52 56
3 130 56 131
3 130 131 132
3 130 132 133
3 130 133 128
3 130 128 127
3 130 127 50
3 130 50 52
3 134 58 62
3 134 62 135
3 134 135 136
3 134 136 137
3 134 137 132
3 134 132 131
3 134 131 56
3 134 56 58
3 138 64 68
3 138 68 139
3 138 139 140
3 138 140 141
3 138 141 136
3 138 136 135
3 138 135 62
3 138 62 64
3 142 70 74
3 142 74 143
3 142 143 144
3 142 144 145
3 142 145 140
3 142 140 139
3 142 139 68
3 142 68 70
3 146 76 80
3 146 80 147
3 146 147 148
3 146 148 149
3 146 149 144
3 146 144 143
3 146 143 74
3 146 74 76
3 150 82 86
3 150 86 151
3 150 151 152
3 150 152 153
3 150 153 148
3 150 148 147
3 150 147 80
3 150 80 82
3 154 88 92
3 154 92 155
3 154 155 156
3 154 156 157
3 154 157 152
3 154 152 151
3 154 151 86
3 154 86 88
3 158 95 2
3 158 2 99
3 158 99 98
3 158 98 159
3 158 159 156
3 158 156 155
3 158 155 92
3 158 92 95
3 160 161 162
3 160 162 163
3 160 163 98
3 160 98 97
3 160 97 101
3 160 101 164
3 160 164 165
3 160 165 161
3 166 167 165
3 166 165 164
3 166 164 101
3 166 101 105
3 166 105 104
3 166 104 168
3 166 168 169
3 166 169 167
3 170 171 169
3 170 169 168
3 170 168 104
3 170 104 109
3 170 109 108
3 170 108 172
3 170 172 173
3 170 173 171
3 174 175 173
3 174 173 172
3 174 172 108
3 174 108 113
3 174 113 112
3 174 112 176
3 174 176 177
3 174 177 175
3 178 179 177
3 178 177 176
3 178 176 112
3 178 112 117
3 178 117 116
3 178 116 180
3 178 180 181
3 178 181 179
3 182 183 181
3 182 181 180
3 182 180 116
3 182 116 121
3 182 121 120
3 182 120 184
3 182 184 185
3 182 185 183
3 186 187 185
3 186 185 184
3 186 184 120
3 186 120 125
3 186 125 124
3 186 124 188
3 186 188 189
3 186 189 187
3 190 191 189
3 190 189 188
3 190 188 124
3 190 124 129
3 190 129 128
3 190 128 192
3 190 192 193
3 190 193 191
3 194 195 193
3 194 193 192
3 194 192 128
3 194 128 133
3 194 133 132
3 194 132 196
3 194 196 197
3 194 197 195
3 198 199 197
3 198 197 196
3 198 196 132
3 198 132 137
3 198 137 136
3 198 136 200
3 198 200 201
3 198 201 199
3 202 203 201
3 202 201 200
3 202 200 136
3 202 136 141
3 202 141 140
3 202 140 204
3 202 204 205
3 202 205 203
3 206 207 205
3 206 205 204
3 206 204 140
3 206 140 145
3 206 145 144
3 206 144 208
3 206 208 209
3 206 209 207
3 210 211 209
3 210 209 208
3 210 208 144
3 210 144 149
3 210 149 148
3 210 148 212
3 210 212 213
3 210 213 211
3 214 215 213
3 214 213 212
3 214 212 148
3 214 148 153
3 214 153 152
3 214 152 216
3 214 216 217
3 214 217 215
3 218 219 217
3 218 217 216
3 218 216 152
3 218 152 157
3 218 157 156
3 218 156 220
3 218 220 221
3 218 221 219
3 222 223 221
3 222 221 220
3 222 220 156
3 222 156 159
3 222 159 98
3 222 98 163
3 222 163 162
3 222 162 223
3 224 225 226
3 224 226 227
3 224 227 228
3 224 228 229
3 224 229 230
3 224 230 231
3 224 231 232
3 224 232 225
3 233 234 235
3 233 235 236
3 233 236 237
3 233 237 238
3 233 238 228
3 233 228 227
3 233 227 226
3 233 226 234
3 239 240 241
3 239 241 242
3 239 242 243
3 239 243 244
3 239 244 237
3 239 237 236
3 239 236 235
3 239 235 240
3 245 246 247
3 245 247 248
3 245 248 249
3 245 249 250
3 245 250 243
3 245 243 242
3 245 242 241
3 245 241 246
3 251 252 253
3 251 253 254
3 251 254 255
3 251 255 256
3 251 256 249
3 251 249 248
3 251 248 247
3 251 247 252
3 257 258 259
3 257 259 260
3 257 260 261
3 257 261 262
3 257 262 255
3 257 255 254
3 257 254 253
3 257 253 258
3 263 264 265
3 263 265 266
3 263 266 267
3 263 267 268
3 263 268 261
3 263 261 260
3 263 260 259
3 263 259 264
3 269 270 271
3 269 271 272
3 269 272 273
3 269 273 274
3 269 274 267
3 269 267 266
3 269 266 265
3 269 265 270
3 275 276 277
3 275 277 278
3 275 278 279
3 275 279 280
3 275 280 273
3 275 273 272
3 275 272 271
3 275 271 276
3 281 282 283
3 281 283 284
3 281 284 285
3 281 285 286
3 281 286 279
3 281 279 278
3 281 278 277
3 281 277 282
3 287 288 289
3 287 289 290
3 287 290 291
3 287 291 292
3 287 292 285
3 287 285 284
3 287 284 283
3 287 283 288
3 293 294 295
3 293 295 296
3 293 296 297
3 293 297 298
3 293 298 291
3 293 291 290
3 293 290 289
3 293 289 294
3 299 300 301
3 299 301 302
3 299 302 303
3 299 303 304
3 299 304 297
3 299 297 296
3 299 296 295
3 299 295 300
3 305 306 307
3 305 307 308
3 305 308 309
3 305 309 310
3 305 310 303
3 305 303 302
3 305 302 301
3 305 301 306
3 311 312 313
3 311 313 314
3 311 314 315
3 311 315 316
3 311 316 309
3 311 309 308
3 311 308 307
3 311 307 312
3 317 318 232
3 317 232 231
3 317 231 230
3 317 230 319
3 317 319 315
3 317 315 314
3 317 314 313
3 317 313 318
3 320 319 230
3 320 230 321
3 320 321 322
3 320 322 323
3 320 323 324
3 320 324 325
3 320 325 315
3 320 315 319
3 326 316 315
3 326 315 325
3 326 325 324
3 326 324 327
3 326 327 328
3 326 328 329
3 326 329 309
3 326 309 316
3 330 310 309
3 330 309 329
3 330 329 328
3 330 328 331
3 330 331 332
3 330 332 333
3 330 333 303
3 330 303 310
3 334 304 303
3 334 303 333
3 334 333 332
3 334 332 335
3 334 335 336
3 334 336 337
3 334 337 297
3 334 297 304
3 338 298 297
3 338 297 337
3 338 337 336
3 338 336 339
3 338 339 340
3 338 340 341
3 338 341 291
3 338 291 298
3 342 292 291
3 342 291 341
3 342 341 340
3 342 340 343
3 342 343 344
3 342 344 345
3 342 345 285
3 342 285 292
3 346 286 285
3 346 285 345
3 346 345 344
3 346 344 347
3 346 347 348
3 346 348 349
3 346 349 279
3 346 279 286
3 350 280 279
3 350 279 349
3 350 349 348
3 350 348 351
3 350 351 352
3 350 352 353
3 350 353 273
3 350 273 280
3 354 274 273
3 354 273 353
3 354 353 352
3 354 352 355
3 354 355 356
3 354 356 357
3 354 357 267
3 354 267 274
3 358 268 267
3 358 267 357
3 358 357 356
3 358 356 359
3 358 359 360
3 358 360 361
3 358 361 261
3 358 261 268
3 362 262 261
3 362 261 361
3 362 361 360
3 362 360 363
3 362 363 364
3 362 364 365
3 362 365 255
3 362 255 262
3 366 256 255
3 366 255 365
3 366 365 364
3 366 364 367
3 366 367 368
3 366 368 369
3 366 369 249
3 366 249 256
3 370 250 249
3 370 249 369
3 370 369 368
3 370 368 371
3 370 371 372
3 370 372 373
3 370 373 243
3 370 243 250
3 374 244 243
3 374 243 373
3 374 373 372
3 374 372 375
3 374 375 376
3 374 376 377
3 374 377 237
3 374 237 244
3 378 238 237
3 378 237 377
3 378 377 376
3 378 376 379
3 378 379 380
3 378 380 381
3 378 381 228
3 378 228 238
3 382 229 228
3 382 228 381
3 382 381 380
3 382 380 383
3 382 383 322
3 382 322 321
3 382 321 230
3 382 230 229
3 384 383 380
3 384 380 385
3 384 385 386
3 384 386 387
3 384 387 388
3 384 388 389
3 384 389 322
3 384 322 383
3 390 379 376
3 390 376 391
3 390 391 392
3 390 392 393
3 390 393 386
3 390 386 385
3 390 385 380
3 390 380 379
3 394 375 372
3 394 372 395
3 394 395 396
3 394 396 397
3 394 397 392
3 394 392 391
3 394 391 376
3 394 376 375
3 398 371 368
3 398 368 399
3 398 399 400
3 398 400 401
3 398 401 396
3 398 396 395
3 398 395 372
3 398 372 371
3 402 367 364
3 402 364 403
3 402 403 404
3 402 404 405
3 402 405 400
3 402 400 399
3 402 399 368
3 402 368 367
3 406 363 360
3 406 360 407
3 406 407 408
3 406 408 409
3 406 409 404
3 406 404 403
3 406 403 364
3 406 364 363
3 410 359 356
3 410 356 411
3 410 411 412
3 410 412 413
3 410 413 408
3 410 408 407
3 410 407 360
3 410 360 359
3 414 355 352
3 414 352 415
3 414 415 416
3 414 416 417
3 414 417 412
3 414 412 411
3 414 411 356
3 414 356 355
3 418 351 348
3 418 348 419
3 418 419 420
3 418 420 421
3 418 421 416
3 418 416 415
3 418 415 352
3 418 352 351
3 422 347 344
3 422 344 423
3 422 423 424
3 422 424 425
3 422 425 420
3 422 420 419
3 422 419 348
3 422 348 347
3 426 343 340
3 426 340 427
3 426 427 428
3 426 428 429
3 426 429 424
3 426 424 423
3 426 423 344
3 426 344 343
3 430 339 336
3 430 336 431
3 430 431 432
3 430 432 433
3 430 433 428
3 430 428 427
3 430 427 340
3 430 340 339
3 434 335 332
3 434 332 435
3 434 435 436
3 434 436 437
3 434 437 432
3 434 432 431
3 434 431 336
3 434 336 335
3 438 331 328
3 438 328 439
3 438 439 440
3 438 440 441
3 438 441 436
3 438 436 435
3 438 435 332
3 438 332 331
3 442 327 324
3 442 324 443
3 442 443 444
3 442 444 445
3 442 445 440
3 442 440 439
3 442 439 328
3 442 328 327
3 446 323 322
3 446 322 389
3 446 389 388
3 446 388 447
3 446 447 444
3 446 444 443
3 446 443 324
3 446 324 323
3 448 447 388
3 448 388 449
3 448 449 450
3 448 450 451
3 448 451 452
3 448 452 453
3 448 453 444
3 448 444 447
3 454 445 444
3 454 444 453
3 454 453 452
3 454 452 455
3 454 455 456
3 454 456 457
3 454 457 440
3 454 440 445
3 458 441 440
3 458 440 457
3 458 457 456
3 458 456 459
3 458 459 460
3 458 460 461
3 458 461 436
3 458 436 441
3 462 437 436
3 462 436 461
3 462 461 460
3 462 460 463
3 462 463 464
3 462 464 465
3 462 465 432
3 462 432 437
3 466 433 432
3 466 432 465
3 466 465 464
3 466 464 467
3 466 467 468
3 466 468 469
3 466 469 428
3 466 428 433
3 470 429 428
3 470 428 469
3 470 469 468
3 470 468 471
3 470 471 472
3 470 472 473
3 470 473 424
3 470 424 429
3 474 425 424
3 474 424 473
3 474 473 472
3 474 472 475
3 474 475 476
3 474 476 477
3 474 477 420
3 474 420 425
3 478 421 420
3 478 420 477
3 478 477 476
3 478 476 479
3 478 479 480
3 478 480 481
3 478 481 416
3 478 416 421
3 482 417 416
3 482 416 481
3 482 481 480
3 482 480 483
3 482 483 484
3 482 484 485
3 482 485 412
3 482 412 417
3 486 413 412
3 486 412 485
3 486 485 484
3 486 484 487
3 486 487 488
3 486 488 489
3 486 489 408
3 486 408 413
3 490 409 408
3 490 408 489
3 490 489 488
3 490 488 491
3 490 491 492
3 490 492 493
3 490 493 404
3 490 404 409
3 494 405 404
3 494 404 493
3 494 493 492
3 494 492 495
3 494 495 496
3 494 496 497
3 494 497 400
3 494 400 405
3 498 401 400
3 498 400 497
3 498 497 496
3 498 496 499
3 498 499 500
3 498 500 501
3 498 501 396
3 498 396 401
3 502 397 396
3 502 396 501
3 502 501 500
3 502 500 503
3 502 503 504
3 502 504 505
3 502 505 392
3 502 392 397
3 506 393 392
3 506 392 505
3 506 505 504
3 506 504 507
3 506 507 508
3 506 508 509
3 506 509 386
3 506 386 393
3 510 387 386
3 510 386 509
3 510 509 508
3 510 508 511
3 510 511 450
3 510 450 449
3 510 449 388
3 510 388 387
3 512 511 508
3 512 508 513
3 512 513 514
3 512 514 515
3 512 515 516
3 512 516 517
3 512 517 450
3 512 450 511
3 518 507 504
3 518 504 519
3 518 519 520
3 518 520 521
3 518 521 514
3 518 514 513
3 518 513 508
3 518 508 507
3 522 503 500
3 522 500 523
3 522 523 524
3 522 524 525
3 522 525 520
3 522 520 519
3 522 519 504
3 522 504 503
3 526 499 496
3 526 496 527
3 526 527 528
3 526 528 529
3 526 529 524
3 526 524 523
3 526 523 500
3 526 500 499
3 530 495 492
3 530 492 531
3 530 531 532
3 530 532 533
3 530 533 528
3 530 528 527
3 530 527 496
3 530 496 495
3 534 491 488
3 534 488 535
3 534 535 536
3 534 536 537
3 534 537 532
3 534 532 531
3 534 531 492
3 534 492 491
3 538 487 484
3 538 484 539
3 538 539 540
3 538 540 541
3 538 541 536
3 538 536 535
3 538 535 488
3 538 488 487
3 542 483 480
3 542 480 543
3 542 543 544
3 542 544 545
3 542 545 540
3 542 540 539
3 542 539 484
3 542 484 483
3 546 479 476
3 546 476 547
3 546 547 548
3 546 548 549
3 546 549 544
3 546 544 543
3 546 543 480
3 546 480 479
3 550 475 472
3 550 472 551
3 550 551 552
3 550 552 553
3 550 553 548
3 550 548 547
3 550 547 476
3 550 476 475
3 554 471 468
3 554 468 555
3 554 555 556
3 554 556 557
3 554 557 552
3 554 552 551
3 554 551 472
3 554 472 471
3 558 467 464
3 558 464 559
3 558 559 560
3 558 560 561
3 558 561 556
3 558 556 555
3 558 555 468
3 558 468 467
3 562 463 460
3 562 460 563
3 562 563 564
3 562 564 565
3 562 565 560
3 562 560 559
3 562 559 464
3 562 464 463
3 566 459 456
3 566 456 567
3 566 567 568
3 566 568 569
3 566 569 564
3 566 564 563
3 566 563 460
3 566 460 459
3 570 455 452
3 570 452 571
3 570 571 572
3 570 572 573
3 570 573 568
3 570 568 567
3 570 567 456
3 570 456 455
3 574 451 450
3 574 450 517
3 574 517 516
3 574 516 575
3 574 575 572
3 574 572 571
3 574 571 452
3 574 452 451
3 576 577 6
3 576 6 5
3 576 5 4
3 576 4 578
3 576 578 232
3 576 232 318
3 576 318 313
3 576 313 577
3 579 580 12
3 579 12 11
3 579 11 6
3 579 6 577
3 579 577 313
3 579 313 312
3 579 312 307
3 579 307 580
3 581 582 18
3 581 18 17
3 581 17 12
3 581 12 580
3 581 580 307
3 581 307 306
3 581 306 301
3 581 301 582
3 583 584 24
3 583 24 23
3 583 23 18
3 583 18 582
3 583 582 301
3 583 301 300
3 583 300 295
3 583 295 584
3 585 586 30
3 585 30 29
3 585 29 24
3 585 24 584
3 585 584 295
3 585 295 294
3 585 294 289
3 585 289 586
3 587 588 36
3 587 36 35
3 587 35 30
3 587 30 586
3 587 586 289
3 587 289 288
3 587 288 283
3 587 283 588
3 589 590 42
3 589 42 41
3 589 41 36
3 589 36 588
3 589 588 283
3 589 283 282
3 589 282 277
3 589 277 590
3 591 592 48
3 591 48 47
3 591 47 42
3 591 42 590
3 591 590 277
3 591 277 276
3 591 276 271
3 591 271 592
3 593 594 54
3 593 54 53
3 593 53 48
3 593 48 592
3 593 592 271
3 593 271 270
3 593 270 265
3 593 265 594
3 595 596 66
3 595 66 65
3 595 65 60
3 595 60 597
3 595 597 259
3 595 259 258
3 595 258 253
3 595 253 596
3 598 599 84
3 598 84 83
3 598 83 78
3 598 78 600
3 598 600 241
3 598 241 240
3 598 240 235
3 598 235 599
3 601 578 4
3 601 4 94
3 601 94 90
3 601 90 602
3 601 602 226
3 601 226 225
3 601 225 232
3 601 232 578
3 603 604 217
3 603 217 219
3 603 219 221
3 603 221 223
3 603 223 162
3 603 162 161
3 603 161 165
3 603 165 604
3 605 606 205
3 605 205 207
3 605 207 209
3 605 209 211
3 605 211 213
3 605 213 215
3 605 215 217
3 605 217 606
3 607 608 193
3 607 193 195
3 607 195 197
3 607 197 199
3 607 199 201
3 607 201 203
3 607 203 205
3 607 205 608
3 609 610 181
3 609 181 183
3 609 183 185
3 609 185 187
3 609 187 189
3 609 189 191
3 609 191 193
3 609 193 610
3 611 612 169
3 611 169 171
3 611 171 173
3 611 173 175
3 611 175 177
3 611 177 179
3 611 179 181
3 611 181 612
3 613 614 205
3 613 205 606
3 613 606 217
3 613 217 604
3 613 604 165
3 613 165 167
3 613 167 169
3 613 169 614
3 615 614 169
3 615 169 612
3 615 612 181
3 615 181 610
3 615 610 193
3 615 193 608
3 615 608 205
3 615 205 614
3 616 597 60
3 616 60 59
3 616 59 54
3 616 54 594
3 616 594 265
3 616 265 264
3 616 264 259
3 616 259 597
3 617 618 72
3 617 72 71
3 617 71 66
3 617 66 596
3 617 596 253
3 617 253 252
3 617 252 247
3 617 247 618
3 619 89 84
3 619 84 599
3 619 599 235
3 619 235 234
3 619 234 226
3 619 226 602
3 619 602 90
3 619 90 89
3 620 77 72
3 620 72 618
3 620 618 247
3 620 247 246
3 620 246 241
3 620 241 600
3 620 600 78
3 620 78 77
