ply
format ascii 1.0
comment Created by SmallLuxGPU exporter for Blender 2.5, source file: kitchen.blend
element vertex 996
property float x
property float y
property float z
property uchar red
property uchar green
property uchar blue
element face 498
property list uchar uint vertex_indices
end_header
10.374127 -0.898057 0.000051 255 255 255
10.587726 -1.111656 0.000051 255 255 255
10.595049 -0.898057 0.000051 255 255 255
10.587726 -0.684458 0.000051 255 255 255
10.160528 -0.684458 0.000051 255 255 255
10.374127 -0.898057 0.000051 255 255 255
10.587726 -0.684458 0.000051 255 255 255
10.374126 -0.470859 0.000051 255 255 255
9.946928 -0.470859 0.000051 255 255 255
10.160528 -0.684458 0.000051 255 255 255
10.374126 -0.470859 0.000051 255 255 255
10.160527 -0.257260 0.000051 255 255 255
9.733330 -0.257260 0.000051 255 255 255
9.946928 -0.470859 0.000051 255 255 255
10.160527 -0.257260 0.000051 255 255 255
9.946928 -0.043661 0.000051 255 255 255
9.519731 -0.043660 0.000051 255 255 255
9.733330 -0.257260 0.000051 255 255 255
9.946928 -0.043661 0.000051 255 255 255
9.733329 0.169939 0.000051 255 255 255
9.306131 0.169939 0.000051 255 255 255
9.519731 -0.043660 0.000051 255 255 255
9.733329 0.169939 0.000051 255 255 255
9.519730 0.383538 0.000051 255 255 255
9.092531 0.383538 0.000051 255 255 255
9.306131 0.169939 0.000051 255 255 255
9.519730 0.383538 0.000051 255 255 255
9.306130 0.597137 0.000051 255 255 255
8.878933 0.597137 0.000051 255 255 255
9.092531 0.383538 0.000051 255 255 255
9.306130 0.597137 0.000051 255 255 255
9.092531 0.810736 0.000051 255 255 255
8.665334 0.810736 0.000051 255 255 255
8.878933 0.597137 0.000051 255 255 255
9.092531 0.810736 0.000051 255 255 255
8.878932 1.024335 0.000051 255 255 255
8.451735 1.024335 0.000051 255 255 255
8.665334 0.810736 0.000051 255 255 255
8.878932 1.024335 0.000051 255 255 255
8.665333 1.237935 0.000051 255 255 255
8.238135 1.237935 0.000051 255 255 255
8.451735 1.024335 0.000051 255 255 255
8.665333 1.237935 0.000051 255 255 255
8.451734 1.451534 0.000051 255 255 255
10.374126 -1.325255 0.000051 255 255 255
10.587727 -1.538855 0.000051 255 255 255
10.595049 -1.325255 0.000051 255 255 255
10.587726 -1.111656 0.000051 255 255 255
10.160528 -1.111656 0.000051 255 255 255
10.374126 -1.325255 0.000051 255 255 255
10.587726 -1.111656 0.000051 255 255 255
10.374127 -0.898057 0.000051 255 255 255
9.946929 -0.898057 0.000051 255 255 255
10.160528 -1.111656 0.000051 255 255 255
10.374127 -0.898057 0.000051 255 255 255
10.160528 -0.684458 0.000051 255 255 255
9.733330 -0.684458 0.000051 255 255 255
9.946929 -0.898057 0.000051 255 255 255
10.160528 -0.684458 0.000051 255 255 255
9.946928 -0.470859 0.000051 255 255 255
9.519731 -0.470859 0.000051 255 255 255
9.733330 -0.684458 0.000051 255 255 255
9.946928 -0.470859 0.000051 255 255 255
9.733330 -0.257260 0.000051 255 255 255
9.306131 -0.257260 0.000051 255 255 255
9.519731 -0.470859 0.000051 255 255 255
9.733330 -0.257260 0.000051 255 255 255
9.519731 -0.043660 0.000051 255 255 255
9.092532 -0.043660 0.000051 255 255 255
9.306131 -0.257260 0.000051 255 255 255
9.519731 -0.043660 0.000051 255 255 255
9.306131 0.169939 0.000051 255 255 255
8.878933 0.169939 0.000051 255 255 255
9.092532 -0.043660 0.000051 255 255 255
9.306131 0.169939 0.000051 255 255 255
9.092531 0.383538 0.000051 255 255 255
8.665334 0.383538 0.000051 255 255 255
8.878933 0.169939 0.000051 255 255 255
9.092531 0.383538 0.000051 255 255 255
8.878933 0.597137 0.000051 255 255 255
8.451735 0.597137 0.000051 255 255 255
8.665334 0.383538 0.000051 255 255 255
8.878933 0.597137 0.000051 255 255 255
8.665334 0.810736 0.000051 255 255 255
8.238135 0.810736 0.000051 255 255 255
8.451735 0.597137 0.000051 255 255 255
8.665334 0.810736 0.000051 255 255 255
8.451735 1.024335 0.000051 255 255 255
8.024536 1.024336 0.000051 255 255 255
8.238135 0.810736 0.000051 255 255 255
8.451735 1.024335 0.000051 255 255 255
8.238135 1.237935 0.000051 255 255 255
10.374127 -1.752454 0.000051 255 255 255
10.587727 -1.966053 0.000051 255 255 255
10.595049 -1.752454 0.000051 255 255 255
10.587727 -1.538855 0.000051 255 255 255
10.160528 -1.538854 0.000051 255 255 255
10.374127 -1.752454 0.000051 255 255 255
10.587727 -1.538855 0.000051 255 255 255
10.374126 -1.325255 0.000051 255 255 255
9.946929 -1.325255 0.000051 255 255 255
10.160528 -1.538854 0.000051 255 255 255
10.374126 -1.325255 0.000051 255 255 255
10.160528 -1.111656 0.000051 255 255 255
9.733330 -1.111656 0.000051 255 255 255
9.946929 -1.325255 0.000051 255 255 255
10.160528 -1.111656 0.000051 255 255 255
9.946929 -0.898057 0.000051 255 255 255
9.519731 -0.898057 0.000051 255 255 255
9.733330 -1.111656 0.000051 255 255 255
9.946929 -0.898057 0.000051 255 255 255
9.733330 -0.684458 0.000051 255 255 255
9.306131 -0.684458 0.000051 255 255 255
9.519731 -0.898057 0.000051 255 255 255
9.733330 -0.684458 0.000051 255 255 255
9.519731 -0.470859 0.000051 255 255 255
9.092532 -0.470859 0.000051 255 255 255
9.306131 -0.684458 0.000051 255 255 255
9.519731 -0.470859 0.000051 255 255 255
9.306131 -0.257260 0.000051 255 255 255
8.878933 -0.257259 0.000051 255 255 255
9.092532 -0.470859 0.000051 255 255 255
9.306131 -0.257260 0.000051 255 255 255
9.092532 -0.043660 0.000051 255 255 255
8.665334 -0.043660 0.000051 255 255 255
8.878933 -0.257259 0.000051 255 255 255
9.092532 -0.043660 0.000051 255 255 255
8.878933 0.169939 0.000051 255 255 255
8.451735 0.169939 0.000051 255 255 255
8.665334 -0.043660 0.000051 255 255 255
8.878933 0.169939 0.000051 255 255 255
8.665334 0.383538 0.000051 255 255 255
8.238135 0.383538 0.000051 255 255 255
8.451735 0.169939 0.000051 255 255 255
8.665334 0.383538 0.000051 255 255 255
8.451735 0.597137 0.000051 255 255 255
8.024536 0.597137 0.000051 255 255 255
8.238135 0.383538 0.000051 255 255 255
8.451735 0.597137 0.000051 255 255 255
8.238135 0.810736 0.000051 255 255 255
7.810937 0.810737 0.000051 255 255 255
8.024536 0.597137 0.000051 255 255 255
8.238135 0.810736 0.000051 255 255 255
8.024536 1.024336 0.000051 255 255 255
10.374127 -2.179652 0.000051 255 255 255
10.587727 -2.393251 0.000051 255 255 255
10.595049 -2.179652 0.000051 255 255 255
10.587727 -1.966053 0.000051 255 255 255
10.160528 -1.966053 0.000051 255 255 255
10.374127 -2.179652 0.000051 255 255 255
10.587727 -1.966053 0.000051 255 255 255
10.374127 -1.752454 0.000051 255 255 255
9.946929 -1.752454 0.000051 255 255 255
10.160528 -1.966053 0.000051 255 255 255
10.374127 -1.752454 0.000051 255 255 255
10.160528 -1.538854 0.000051 255 255 255
9.733330 -1.538854 0.000051 255 255 255
9.946929 -1.752454 0.000051 255 255 255
10.160528 -1.538854 0.000051 255 255 255
9.946929 -1.325255 0.000051 255 255 255
9.519731 -1.325255 0.000051 255 255 255
9.733330 -1.538854 0.000051 255 255 255
9.946929 -1.325255 0.000051 255 255 255
9.733330 -1.111656 0.000051 255 255 255
9.306131 -1.111656 0.000051 255 255 255
9.519731 -1.325255 0.000051 255 255 255
9.733330 -1.111656 0.000051 255 255 255
9.519731 -0.898057 0.000051 255 255 255
9.092532 -0.898057 0.000051 255 255 255
9.306131 -1.111656 0.000051 255 255 255
9.519731 -0.898057 0.000051 255 255 255
9.306131 -0.684458 0.000051 255 255 255
8.878933 -0.684458 0.000051 255 255 255
9.092532 -0.898057 0.000051 255 255 255
9.306131 -0.684458 0.000051 255 255 255
9.092532 -0.470859 0.000051 255 255 255
8.665334 -0.470858 0.000051 255 255 255
8.878933 -0.684458 0.000051 255 255 255
9.092532 -0.470859 0.000051 255 255 255
8.878933 -0.257259 0.000051 255 255 255
8.451735 -0.257259 0.000051 255 255 255
8.665334 -0.470858 0.000051 255 255 255
8.878933 -0.257259 0.000051 255 255 255
8.665334 -0.043660 0.000051 255 255 255
8.238135 -0.043660 0.000051 255 255 255
8.451735 -0.257259 0.000051 255 255 255
8.665334 -0.043660 0.000051 255 255 255
8.451735 0.169939 0.000051 255 255 255
8.024536 0.169939 0.000051 255 255 255
8.238135 -0.043660 0.000051 255 255 255
8.451735 0.169939 0.000051 255 255 255
8.238135 0.383538 0.000051 255 255 255
7.810937 0.383538 0.000051 255 255 255
8.024536 0.169939 0.000051 255 255 255
8.238135 0.383538 0.000051 255 255 255
8.024536 0.597137 0.000051 255 255 255
7.597338 0.597137 0.000051 255 255 255
7.810937 0.383538 0.000051 255 255 255
8.024536 0.597137 0.000051 255 255 255
7.810937 0.810737 0.000051 255 255 255
10.374127 -2.606850 0.000051 255 255 255
10.587727 -2.820449 0.000051 255 255 255
10.595049 -2.606850 0.000051 255 255 255
10.587727 -2.393251 0.000051 255 255 255
10.160528 -2.393251 0.000051 255 255 255
10.374127 -2.606850 0.000051 255 255 255
10.587727 -2.393251 0.000051 255 255 255
10.374127 -2.179652 0.000051 255 255 255
9.946929 -2.179652 0.000051 255 255 255
10.160528 -2.393251 0.000051 255 255 255
10.374127 -2.179652 0.000051 255 255 255
10.160528 -1.966053 0.000051 255 255 255
9.733330 -1.966053 0.000051 255 255 255
9.946929 -2.179652 0.000051 255 255 255
10.160528 -1.966053 0.000051 255 255 255
9.946929 -1.752454 0.000051 255 255 255
9.519731 -1.752454 0.000051 255 255 255
9.733330 -1.966053 0.000051 255 255 255
9.946929 -1.752454 0.000051 255 255 255
9.733330 -1.538854 0.000051 255 255 255
9.306131 -1.538854 0.000051 255 255 255
9.519731 -1.752454 0.000051 255 255 255
9.733330 -1.538854 0.000051 255 255 255
9.519731 -1.325255 0.000051 255 255 255
9.092532 -1.325255 0.000051 255 255 255
9.306131 -1.538854 0.000051 255 255 255
9.519731 -1.325255 0.000051 255 255 255
9.306131 -1.111656 0.000051 255 255 255
8.878933 -1.111656 0.000051 255 255 255
9.092532 -1.325255 0.000051 255 255 255
9.306131 -1.111656 0.000051 255 255 255
9.092532 -0.898057 0.000051 255 255 255
8.665334 -0.898057 0.000051 255 255 255
8.878933 -1.111656 0.000051 255 255 255
9.092532 -0.898057 0.000051 255 255 255
8.878933 -0.684458 0.000051 255 255 255
8.451735 -0.684457 0.000051 255 255 255
8.665334 -0.898057 0.000051 255 255 255
8.878933 -0.684458 0.000051 255 255 255
8.665334 -0.470858 0.000051 255 255 255
8.238135 -0.470858 0.000051 255 255 255
8.451735 -0.684457 0.000051 255 255 255
8.665334 -0.470858 0.000051 255 255 255
8.451735 -0.257259 0.000051 255 255 255
8.024536 -0.257259 0.000051 255 255 255
8.238135 -0.470858 0.000051 255 255 255
8.451735 -0.257259 0.000051 255 255 255
8.238135 -0.043660 0.000051 255 255 255
7.810937 -0.043660 0.000051 255 255 255
8.024536 -0.257259 0.000051 255 255 255
8.238135 -0.043660 0.000051 255 255 255
8.024536 0.169939 0.000051 255 255 255
7.597338 0.169939 0.000051 255 255 255
7.810937 -0.043660 0.000051 255 255 255
8.024536 0.169939 0.000051 255 255 255
7.810937 0.383538 0.000051 255 255 255
7.383739 0.383538 0.000051 255 255 255
7.597338 0.169939 0.000051 255 255 255
7.810937 0.383538 0.000051 255 255 255
7.597338 0.597137 0.000051 255 255 255
10.374127 -3.034048 0.000051 255 255 255
10.587727 -3.247647 0.000051 255 255 255
10.595049 -3.034048 0.000051 255 255 255
10.587727 -2.820449 0.000051 255 255 255
10.160528 -2.820449 0.000051 255 255 255
10.374127 -3.034048 0.000051 255 255 255
10.587727 -2.820449 0.000051 255 255 255
10.374127 -2.606850 0.000051 255 255 255
9.946929 -2.606850 0.000051 255 255 255
10.160528 -2.820449 0.000051 255 255 255
10.374127 -2.606850 0.000051 255 255 255
10.160528 -2.393251 0.000051 255 255 255
9.733330 -2.393251 0.000051 255 255 255
9.946929 -2.606850 0.000051 255 255 255
10.160528 -2.393251 0.000051 255 255 255
9.946929 -2.179652 0.000051 255 255 255
9.519731 -2.179651 0.000051 255 255 255
9.733330 -2.393251 0.000051 255 255 255
9.946929 -2.179652 0.000051 255 255 255
9.733330 -1.966053 0.000051 255 255 255
9.306131 -1.966053 0.000051 255 255 255
9.519731 -2.179651 0.000051 255 255 255
9.733330 -1.966053 0.000051 255 255 255
9.519731 -1.752454 0.000051 255 255 255
9.092532 -1.752453 0.000051 255 255 255
9.306131 -1.966053 0.000051 255 255 255
9.519731 -1.752454 0.000051 255 255 255
9.306131 -1.538854 0.000051 255 255 255
8.878933 -1.538854 0.000051 255 255 255
9.092532 -1.752453 0.000051 255 255 255
9.306131 -1.538854 0.000051 255 255 255
9.092532 -1.325255 0.000051 255 255 255
8.665334 -1.325255 0.000051 255 255 255
8.878933 -1.538854 0.000051 255 255 255
9.092532 -1.325255 0.000051 255 255 255
8.878933 -1.111656 0.000051 255 255 255
8.451735 -1.111656 0.000051 255 255 255
8.665334 -1.325255 0.000051 255 255 255
8.878933 -1.111656 0.000051 255 255 255
8.665334 -0.898057 0.000051 255 255 255
8.238135 -0.898057 0.000051 255 255 255
8.451735 -1.111656 0.000051 255 255 255
8.665334 -0.898057 0.000051 255 255 255
8.451735 -0.684457 0.000051 255 255 255
8.024536 -0.684457 0.000051 255 255 255
8.238135 -0.898057 0.000051 255 255 255
8.451735 -0.684457 0.000051 255 255 255
8.238135 -0.470858 0.000051 255 255 255
7.810937 -0.470858 0.000051 255 255 255
8.024536 -0.684457 0.000051 255 255 255
8.238135 -0.470858 0.000051 255 255 255
8.024536 -0.257259 0.000051 255 255 255
7.597338 -0.257259 0.000051 255 255 255
7.810937 -0.470858 0.000051 255 255 255
8.024536 -0.257259 0.000051 255 255 255
7.810937 -0.043660 0.000051 255 255 255
7.383739 -0.043660 0.000051 255 255 255
7.597338 -0.257259 0.000051 255 255 255
7.810937 -0.043660 0.000051 255 255 255
7.597338 0.169939 0.000051 255 255 255
7.170140 0.169940 0.000051 255 255 255
7.383739 -0.043660 0.000051 255 255 255
7.597338 0.169939 0.000051 255 255 255
7.383739 0.383538 0.000051 255 255 255
10.374127 -3.461246 0.000051 255 255 255
10.587727 -3.674845 0.000051 255 255 255
10.595050 -3.461246 0.000051 255 255 255
10.587727 -3.247647 0.000051 255 255 255
10.160528 -3.247647 0.000051 255 255 255
10.374127 -3.461246 0.000051 255 255 255
10.587727 -3.247647 0.000051 255 255 255
10.374127 -3.034048 0.000051 255 255 255
9.946929 -3.034048 0.000051 255 255 255
10.160528 -3.247647 0.000051 255 255 255
10.374127 -3.034048 0.000051 255 255 255
10.160528 -2.820449 0.000051 255 255 255
9.733330 -2.820449 0.000051 255 255 255
9.946929 -3.034048 0.000051 255 255 255
10.160528 -2.820449 0.000051 255 255 255
9.946929 -2.606850 0.000051 255 255 255
9.519731 -2.606850 0.000051 255 255 255
9.733330 -2.820449 0.000051 255 255 255
9.946929 -2.606850 0.000051 255 255 255
9.733330 -2.393251 0.000051 255 255 255
9.306131 -2.393251 0.000051 255 255 255
9.519731 -2.606850 0.000051 255 255 255
9.733330 -2.393251 0.000051 255 255 255
9.519731 -2.179651 0.000051 255 255 255
9.092533 -2.179651 0.000051 255 255 255
9.306131 -2.393251 0.000051 255 255 255
9.519731 -2.179651 0.000051 255 255 255
9.306131 -1.966053 0.000051 255 255 255
8.878934 -1.966052 0.000051 255 255 255
9.092533 -2.179651 0.000051 255 255 255
9.306131 -1.966053 0.000051 255 255 255
9.092532 -1.752453 0.000051 255 255 255
8.665335 -1.752453 0.000051 255 255 255
8.878934 -1.966052 0.000051 255 255 255
9.092532 -1.752453 0.000051 255 255 255
8.878933 -1.538854 0.000051 255 255 255
8.451735 -1.538854 0.000051 255 255 255
8.665335 -1.752453 0.000051 255 255 255
8.878933 -1.538854 0.000051 255 255 255
8.665334 -1.325255 0.000051 255 255 255
8.238136 -1.325255 0.000051 255 255 255
8.451735 -1.538854 0.000051 255 255 255
8.665334 -1.325255 0.000051 255 255 255
8.451735 -1.111656 0.000051 255 255 255
8.024536 -1.111655 0.000051 255 255 255
8.238136 -1.325255 0.000051 255 255 255
8.451735 -1.111656 0.000051 255 255 255
8.238135 -0.898057 0.000051 255 255 255
7.810937 -0.898056 0.000051 255 255 255
8.024536 -1.111655 0.000051 255 255 255
8.238135 -0.898057 0.000051 255 255 255
8.024536 -0.684457 0.000051 255 255 255
7.597338 -0.684457 0.000051 255 255 255
7.810937 -0.898056 0.000051 255 255 255
8.024536 -0.684457 0.000051 255 255 255
7.810937 -0.470858 0.000051 255 255 255
7.383739 -0.470858 0.000051 255 255 255
7.597338 -0.684457 0.000051 255 255 255
7.810937 -0.470858 0.000051 255 255 255
7.597338 -0.257259 0.000051 255 255 255
7.170140 -0.257259 0.000051 255 255 255
7.383739 -0.470858 0.000051 255 255 255
7.597338 -0.257259 0.000051 255 255 255
7.383739 -0.043660 0.000051 255 255 255
6.956541 -0.043660 0.000051 255 255 255
7.170140 -0.257259 0.000051 255 255 255
7.383739 -0.043660 0.000051 255 255 255
7.170140 0.169940 0.000051 255 255 255
10.374127 -3.888445 0.000051 255 255 255
10.587727 -4.102044 0.000051 255 255 255
10.595049 -3.888444 0.000051 255 255 255
10.587727 -3.674845 0.000051 255 255 255
10.160528 -3.674845 0.000051 255 255 255
10.374127 -3.888445 0.000051 255 255 255
10.587727 -3.674845 0.000051 255 255 255
10.374127 -3.461246 0.000051 255 255 255
9.946929 -3.461246 0.000051 255 255 255
10.160528 -3.674845 0.000051 255 255 255
10.374127 -3.461246 0.000051 255 255 255
10.160528 -3.247647 0.000051 255 255 255
9.733330 -3.247647 0.000051 255 255 255
9.946929 -3.461246 0.000051 255 255 255
10.160528 -3.247647 0.000051 255 255 255
9.946929 -3.034048 0.000051 255 255 255
9.519731 -3.034048 0.000051 255 255 255
9.733330 -3.247647 0.000051 255 255 255
9.946929 -3.034048 0.000051 255 255 255
9.733330 -2.820449 0.000051 255 255 255
9.306131 -2.820449 0.000051 255 255 255
9.519731 -3.034048 0.000051 255 255 255
9.733330 -2.820449 0.000051 255 255 255
9.519731 -2.606850 0.000051 255 255 255
9.092532 -2.606850 0.000051 255 255 255
9.306131 -2.820449 0.000051 255 255 255
9.519731 -2.606850 0.000051 255 255 255
9.306131 -2.393251 0.000051 255 255 255
8.878934 -2.393251 0.000051 255 255 255
9.092532 -2.606850 0.000051 255 255 255
9.306131 -2.393251 0.000051 255 255 255
9.092533 -2.179651 0.000051 255 255 255
8.665335 -2.179651 0.000051 255 255 255
8.878934 -2.393251 0.000051 255 255 255
9.092533 -2.179651 0.000051 255 255 255
8.878934 -1.966052 0.000051 255 255 255
8.451735 -1.966052 0.000051 255 255 255
8.665335 -2.179651 0.000051 255 255 255
8.878934 -1.966052 0.000051 255 255 255
8.665335 -1.752453 0.000051 255 255 255
8.238136 -1.752453 0.000051 255 255 255
8.451735 -1.966052 0.000051 255 255 255
8.665335 -1.752453 0.000051 255 255 255
8.451735 -1.538854 0.000051 255 255 255
8.024537 -1.538854 0.000051 255 255 255
8.238136 -1.752453 0.000051 255 255 255
8.451735 -1.538854 0.000051 255 255 255
8.238136 -1.325255 0.000051 255 255 255
7.810937 -1.325255 0.000051 255 255 255
8.024537 -1.538854 0.000051 255 255 255
8.238136 -1.325255 0.000051 255 255 255
8.024536 -1.111655 0.000051 255 255 255
7.597338 -1.111655 0.000051 255 255 255
7.810937 -1.325255 0.000051 255 255 255
8.024536 -1.111655 0.000051 255 255 255
7.810937 -0.898056 0.000051 255 255 255
7.383739 -0.898056 0.000051 255 255 255
7.597338 -1.111655 0.000051 255 255 255
7.810937 -0.898056 0.000051 255 255 255
7.597338 -0.684457 0.000051 255 255 255
7.170140 -0.684457 0.000051 255 255 255
7.383739 -0.898056 0.000051 255 255 255
7.597338 -0.684457 0.000051 255 255 255
7.383739 -0.470858 0.000051 255 255 255
6.956541 -0.470858 0.000051 255 255 255
7.170140 -0.684457 0.000051 255 255 255
7.383739 -0.470858 0.000051 255 255 255
7.170140 -0.257259 0.000051 255 255 255
6.742942 -0.257259 0.000051 255 255 255
6.956541 -0.470858 0.000051 255 255 255
7.170140 -0.257259 0.000051 255 255 255
6.956541 -0.043660 0.000051 255 255 255
10.374127 -4.315642 0.000051 255 255 255
10.587727 -4.529242 0.000051 255 255 255
10.595050 -4.315643 0.000051 255 255 255
10.587727 -4.102044 0.000051 255 255 255
10.160528 -4.102044 0.000051 255 255 255
10.374127 -4.315642 0.000051 255 255 255
10.587727 -4.102044 0.000051 255 255 255
10.374127 -3.888445 0.000051 255 255 255
9.946929 -3.888444 0.000051 255 255 255
10.160528 -4.102044 0.000051 255 255 255
10.374127 -3.888445 0.000051 255 255 255
10.160528 -3.674846 0.000051 255 255 255
9.733330 -3.674845 0.000051 255 255 255
9.946929 -3.888444 0.000051 255 255 255
10.160528 -3.674845 0.000051 255 255 255
9.946929 -3.461246 0.000051 255 255 255
9.519731 -3.461246 0.000051 255 255 255
9.733330 -3.674845 0.000051 255 255 255
9.946929 -3.461246 0.000051 255 255 255
9.733330 -3.247647 0.000051 255 255 255
9.306131 -3.247647 0.000051 255 255 255
9.519731 -3.461246 0.000051 255 255 255
9.733330 -3.247647 0.000051 255 255 255
9.519731 -3.034048 0.000051 255 255 255
9.092533 -3.034048 0.000051 255 255 255
9.306131 -3.247647 0.000051 255 255 255
9.519731 -3.034048 0.000051 255 255 255
9.306131 -2.820449 0.000051 255 255 255
8.878934 -2.820449 0.000051 255 255 255
9.092533 -3.034048 0.000051 255 255 255
9.306131 -2.820449 0.000051 255 255 255
9.092532 -2.606850 0.000051 255 255 255
8.665335 -2.606850 0.000051 255 255 255
8.878934 -2.820449 0.000051 255 255 255
9.092532 -2.606850 0.000051 255 255 255
8.878934 -2.393251 0.000051 255 255 255
8.451735 -2.393250 0.000051 255 255 255
8.665335 -2.606850 0.000051 255 255 255
8.878934 -2.393251 0.000051 255 255 255
8.665335 -2.179651 0.000051 255 255 255
8.238136 -2.179651 0.000051 255 255 255
8.451735 -2.393250 0.000051 255 255 255
8.665335 -2.179651 0.000051 255 255 255
8.451735 -1.966052 0.000051 255 255 255
8.024537 -1.966052 0.000051 255 255 255
8.238136 -2.179651 0.000051 255 255 255
8.451735 -1.966052 0.000051 255 255 255
8.238136 -1.752453 0.000051 255 255 255
7.810938 -1.752453 0.000051 255 255 255
8.024537 -1.966052 0.000051 255 255 255
8.238136 -1.752453 0.000051 255 255 255
8.024537 -1.538854 0.000051 255 255 255
7.597339 -1.538854 0.000051 255 255 255
7.810938 -1.752453 0.000051 255 255 255
8.024537 -1.538854 0.000051 255 255 255
7.810937 -1.325255 0.000051 255 255 255
7.383739 -1.325254 0.000051 255 255 255
7.597339 -1.538854 0.000051 255 255 255
7.810937 -1.325255 0.000051 255 255 255
7.597338 -1.111655 0.000051 255 255 255
7.170140 -1.111655 0.000051 255 255 255
7.383739 -1.325254 0.000051 255 255 255
7.597338 -1.111655 0.000051 255 255 255
7.383739 -0.898056 0.000051 255 255 255
6.956541 -0.898056 0.000051 255 255 255
7.170140 -1.111655 0.000051 255 255 255
7.383739 -0.898056 0.000051 255 255 255
7.170140 -0.684457 0.000051 255 255 255
6.742942 -0.684457 0.000051 255 255 255
6.956541 -0.898056 0.000051 255 255 255
7.170140 -0.684457 0.000051 255 255 255
6.956541 -0.470858 0.000051 255 255 255
6.529343 -0.470858 0.000051 255 255 255
6.742942 -0.684457 0.000051 255 255 255
6.956541 -0.470858 0.000051 255 255 255
6.742942 -0.257259 0.000051 255 255 255
10.160528 -4.529242 0.000051 255 255 255
10.374127 -4.742841 0.000051 255 255 255
10.587727 -4.529242 0.000051 255 255 255
10.374127 -4.315643 0.000051 255 255 255
9.946929 -4.315643 0.000051 255 255 255
10.160528 -4.529242 0.000051 255 255 255
10.374127 -4.315642 0.000051 255 255 255
10.160528 -4.102044 0.000051 255 255 255
9.733330 -4.102043 0.000051 255 255 255
9.946929 -4.315643 0.000051 255 255 255
10.160528 -4.102044 0.000051 255 255 255
9.946929 -3.888444 0.000051 255 255 255
9.519732 -3.888444 0.000051 255 255 255
9.733330 -4.102043 0.000051 255 255 255
9.946929 -3.888444 0.000051 255 255 255
9.733330 -3.674845 0.000051 255 255 255
9.306132 -3.674845 0.000051 255 255 255
9.519732 -3.888444 0.000051 255 255 255
9.733330 -3.674845 0.000051 255 255 255
9.519731 -3.461246 0.000051 255 255 255
9.092533 -3.461246 0.000051 255 255 255
9.306132 -3.674845 0.000051 255 255 255
9.519731 -3.461246 0.000051 255 255 255
9.306131 -3.247647 0.000051 255 255 255
8.878934 -3.247647 0.000051 255 255 255
9.092533 -3.461246 0.000051 255 255 255
9.306131 -3.247647 0.000051 255 255 255
9.092533 -3.034048 0.000051 255 255 255
8.665335 -3.034048 0.000051 255 255 255
8.878934 -3.247647 0.000051 255 255 255
9.092533 -3.034048 0.000051 255 255 255
8.878934 -2.820449 0.000051 255 255 255
8.451735 -2.820449 0.000051 255 255 255
8.665335 -3.034048 0.000051 255 255 255
8.878934 -2.820449 0.000051 255 255 255
8.665335 -2.606850 0.000051 255 255 255
8.238136 -2.606850 0.000051 255 255 255
8.451735 -2.820449 0.000051 255 255 255
8.665335 -2.606850 0.000051 255 255 255
8.451735 -2.393250 0.000051 255 255 255
8.024537 -2.393250 0.000051 255 255 255
8.238136 -2.606850 0.000051 255 255 255
8.451735 -2.393250 0.000051 255 255 255
8.238136 -2.179651 0.000051 255 255 255
7.810938 -2.179651 0.000051 255 255 255
8.024537 -2.393250 0.000051 255 255 255
8.238136 -2.179651 0.000051 255 255 255
8.024537 -1.966052 0.000051 255 255 255
7.597339 -1.966052 0.000051 255 255 255
7.810938 -2.179651 0.000051 255 255 255
8.024537 -1.966052 0.000051 255 255 255
7.810938 -1.752453 0.000051 255 255 255
7.383739 -1.752453 0.000051 255 255 255
7.597339 -1.966052 0.000051 255 255 255
7.810938 -1.752453 0.000051 255 255 255
7.597339 -1.538854 0.000051 255 255 255
7.170140 -1.538854 0.000051 255 255 255
7.383739 -1.752453 0.000051 255 255 255
7.597339 -1.538854 0.000051 255 255 255
7.383739 -1.325254 0.000051 255 255 255
6.956541 -1.325254 0.000051 255 255 255
7.170140 -1.538854 0.000051 255 255 255
7.383739 -1.325254 0.000051 255 255 255
7.170140 -1.111655 0.000051 255 255 255
6.742942 -1.111655 0.000051 255 255 255
6.956541 -1.325254 0.000051 255 255 255
7.170140 -1.111655 0.000051 255 255 255
6.956541 -0.898056 0.000051 255 255 255
6.529343 -0.898056 0.000051 255 255 255
6.742942 -1.111655 0.000051 255 255 255
6.956541 -0.898056 0.000051 255 255 255
6.742942 -0.684457 0.000051 255 255 255
6.315743 -0.684457 0.000051 255 255 255
6.529343 -0.898056 0.000051 255 255 255
6.742942 -0.684457 0.000051 255 255 255
6.529343 -0.470858 0.000051 255 255 255
9.946929 -4.742841 0.000051 255 255 255
10.160528 -4.956440 0.000051 255 255 255
10.374127 -4.742841 0.000051 255 255 255
10.160528 -4.529242 0.000051 255 255 255
9.733331 -4.529242 0.000051 255 255 255
9.946929 -4.742841 0.000051 255 255 255
10.160528 -4.529242 0.000051 255 255 255
9.946929 -4.315643 0.000051 255 255 255
9.519731 -4.315642 0.000051 255 255 255
9.733331 -4.529242 0.000051 255 255 255
9.946929 -4.315643 0.000051 255 255 255
9.733330 -4.102044 0.000051 255 255 255
9.306132 -4.102043 0.000051 255 255 255
9.519731 -4.315642 0.000051 255 255 255
9.733330 -4.102043 0.000051 255 255 255
9.519732 -3.888444 0.000051 255 255 255
9.092533 -3.888444 0.000051 255 255 255
9.306132 -4.102043 0.000051 255 255 255
9.519732 -3.888444 0.000051 255 255 255
9.306132 -3.674845 0.000051 255 255 255
8.878934 -3.674845 0.000051 255 255 255
9.092533 -3.888444 0.000051 255 255 255
9.306132 -3.674845 0.000051 255 255 255
9.092533 -3.461246 0.000051 255 255 255
8.665335 -3.461246 0.000051 255 255 255
8.878934 -3.674845 0.000051 255 255 255
9.092533 -3.461246 0.000051 255 255 255
8.878934 -3.247647 0.000051 255 255 255
8.451735 -3.247647 0.000051 255 255 255
8.665335 -3.461246 0.000051 255 255 255
8.878934 -3.247647 0.000051 255 255 255
8.665335 -3.034048 0.000051 255 255 255
8.238136 -3.034048 0.000051 255 255 255
8.451735 -3.247647 0.000051 255 255 255
8.665335 -3.034048 0.000051 255 255 255
8.451735 -2.820449 0.000051 255 255 255
8.024537 -2.820449 0.000051 255 255 255
8.238136 -3.034048 0.000051 255 255 255
8.451735 -2.820449 0.000051 255 255 255
8.238136 -2.606850 0.000051 255 255 255
7.810938 -2.606849 0.000051 255 255 255
8.024537 -2.820449 0.000051 255 255 255
8.238136 -2.606850 0.000051 255 255 255
8.024537 -2.393250 0.000051 255 255 255
7.597339 -2.393250 0.000051 255 255 255
7.810938 -2.606849 0.000051 255 255 255
8.024537 -2.393250 0.000051 255 255 255
7.810938 -2.179651 0.000051 255 255 255
7.383739 -2.179651 0.000051 255 255 255
7.597339 -2.393250 0.000051 255 255 255
7.810938 -2.179651 0.000051 255 255 255
7.597339 -1.966052 0.000051 255 255 255
7.170140 -1.966052 0.000051 255 255 255
7.383739 -2.179651 0.000051 255 255 255
7.597339 -1.966052 0.000051 255 255 255
7.383739 -1.752453 0.000051 255 255 255
6.956541 -1.752453 0.000051 255 255 255
7.170140 -1.966052 0.000051 255 255 255
7.383739 -1.752453 0.000051 255 255 255
7.170140 -1.538854 0.000051 255 255 255
6.742942 -1.538853 0.000051 255 255 255
6.956541 -1.752453 0.000051 255 255 255
7.170140 -1.538854 0.000051 255 255 255
6.956541 -1.325254 0.000051 255 255 255
6.529343 -1.325254 0.000051 255 255 255
6.742942 -1.538853 0.000051 255 255 255
6.956541 -1.325254 0.000051 255 255 255
6.742942 -1.111655 0.000051 255 255 255
6.315743 -1.111655 0.000051 255 255 255
6.529343 -1.325254 0.000051 255 255 255
6.742942 -1.111655 0.000051 255 255 255
6.529343 -0.898056 0.000051 255 255 255
6.102144 -0.898056 0.000051 255 255 255
6.315743 -1.111655 0.000051 255 255 255
6.529343 -0.898056 0.000051 255 255 255
6.315743 -0.684457 0.000051 255 255 255
9.733330 -4.956439 0.000051 255 255 255
9.946929 -5.170039 0.000051 255 255 255
10.160528 -4.956440 0.000051 255 255 255
9.946930 -4.742841 0.000051 255 255 255
9.519732 -4.742841 0.000051 255 255 255
9.733330 -4.956439 0.000051 255 255 255
9.946929 -4.742841 0.000051 255 255 255
9.733331 -4.529242 0.000051 255 255 255
9.306132 -4.529242 0.000051 255 255 255
9.519732 -4.742841 0.000051 255 255 255
9.733331 -4.529242 0.000051 255 255 255
9.519732 -4.315642 0.000051 255 255 255
9.092533 -4.315642 0.000051 255 255 255
9.306132 -4.529242 0.000051 255 255 255
9.519731 -4.315642 0.000051 255 255 255
9.306132 -4.102043 0.000051 255 255 255
8.878934 -4.102043 0.000051 255 255 255
9.092533 -4.315642 0.000051 255 255 255
9.306132 -4.102043 0.000051 255 255 255
9.092533 -3.888444 0.000051 255 255 255
8.665335 -3.888444 0.000051 255 255 255
8.878934 -4.102043 0.000051 255 255 255
9.092533 -3.888444 0.000051 255 255 255
8.878934 -3.674845 0.000051 255 255 255
8.451735 -3.674845 0.000051 255 255 255
8.665335 -3.888444 0.000051 255 255 255
8.878934 -3.674845 0.000051 255 255 255
8.665335 -3.461246 0.000051 255 255 255
8.238136 -3.461246 0.000051 255 255 255
8.451735 -3.674845 0.000051 255 255 255
8.665335 -3.461246 0.000051 255 255 255
8.451735 -3.247647 0.000051 255 255 255
8.024537 -3.247647 0.000051 255 255 255
8.238136 -3.461246 0.000051 255 255 255
8.451735 -3.247647 0.000051 255 255 255
8.238136 -3.034048 0.000051 255 255 255
7.810938 -3.034048 0.000051 255 255 255
8.024537 -3.247647 0.000051 255 255 255
8.238136 -3.034048 0.000051 255 255 255
8.024537 -2.820449 0.000051 255 255 255
7.597339 -2.820448 0.000051 255 255 255
7.810938 -3.034048 0.000051 255 255 255
8.024537 -2.820449 0.000051 255 255 255
7.810938 -2.606849 0.000051 255 255 255
7.383739 -2.606849 0.000051 255 255 255
7.597339 -2.820448 0.000051 255 255 255
7.810938 -2.606849 0.000051 255 255 255
7.597339 -2.393250 0.000051 255 255 255
7.170140 -2.393250 0.000051 255 255 255
7.383739 -2.606849 0.000051 255 255 255
7.597339 -2.393250 0.000051 255 255 255
7.383739 -2.179651 0.000051 255 255 255
6.956541 -2.179651 0.000051 255 255 255
7.170140 -2.393250 0.000051 255 255 255
7.383739 -2.179651 0.000051 255 255 255
7.170140 -1.966052 0.000051 255 255 255
6.742942 -1.966052 0.000051 255 255 255
6.956541 -2.179651 0.000051 255 255 255
7.170140 -1.966052 0.000051 255 255 255
6.956541 -1.752453 0.000051 255 255 255
6.529343 -1.752452 0.000051 255 255 255
6.742942 -1.966052 0.000051 255 255 255
6.956541 -1.752453 0.000051 255 255 255
6.742942 -1.538853 0.000051 255 255 255
6.315744 -1.538853 0.000051 255 255 255
6.529343 -1.752452 0.000051 255 255 255
6.742942 -1.538853 0.000051 255 255 255
6.529343 -1.325254 0.000051 255 255 255
6.102145 -1.325254 0.000051 255 255 255
6.315744 -1.538853 0.000051 255 255 255
6.529343 -1.325254 0.000051 255 255 255
6.315743 -1.111655 0.000051 255 255 255
5.888546 -1.111655 0.000051 255 255 255
6.102145 -1.325254 0.000051 255 255 255
6.315743 -1.111655 0.000051 255 255 255
6.102144 -0.898056 0.000051 255 255 255
9.519732 -5.170039 0.000051 255 255 255
9.733330 -5.383638 0.000051 255 255 255
9.946929 -5.170039 0.000051 255 255 255
9.733331 -4.956440 0.000051 255 255 255
9.306132 -4.956440 0.000051 255 255 255
9.519732 -5.170039 0.000051 255 255 255
9.733330 -4.956439 0.000051 255 255 255
9.519732 -4.742841 0.000051 255 255 255
9.092533 -4.742841 0.000051 255 255 255
9.306132 -4.956440 0.000051 255 255 255
9.519732 -4.742841 0.000051 255 255 255
9.306132 -4.529242 0.000051 255 255 255
8.878934 -4.529242 0.000051 255 255 255
9.092533 -4.742841 0.000051 255 255 255
9.306132 -4.529242 0.000051 255 255 255
9.092533 -4.315642 0.000051 255 255 255
8.665335 -4.315642 0.000051 255 255 255
8.878934 -4.529242 0.000051 255 255 255
9.092533 -4.315642 0.000051 255 255 255
8.878934 -4.102043 0.000051 255 255 255
8.451735 -4.102043 0.000051 255 255 255
8.665335 -4.315642 0.000051 255 255 255
8.878934 -4.102043 0.000051 255 255 255
8.665335 -3.888444 0.000051 255 255 255
8.238136 -3.888444 0.000051 255 255 255
8.451735 -4.102043 0.000051 255 255 255
8.665335 -3.888444 0.000051 255 255 255
8.451735 -3.674845 0.000051 255 255 255
8.024537 -3.674845 0.000051 255 255 255
8.238136 -3.888444 0.000051 255 255 255
8.451735 -3.674845 0.000051 255 255 255
8.238136 -3.461246 0.000051 255 255 255
7.810938 -3.461246 0.000051 255 255 255
8.024537 -3.674845 0.000051 255 255 255
8.238136 -3.461246 0.000051 255 255 255
8.024537 -3.247647 0.000051 255 255 255
7.597339 -3.247647 0.000051 255 255 255
7.810938 -3.461246 0.000051 255 255 255
8.024537 -3.247647 0.000051 255 255 255
7.810938 -3.034048 0.000051 255 255 255
7.383740 -3.034048 0.000051 255 255 255
7.597339 -3.247647 0.000051 255 255 255
7.810938 -3.034048 0.000051 255 255 255
7.597339 -2.820448 0.000051 255 255 255
7.170141 -2.820448 0.000051 255 255 255
7.383740 -3.034048 0.000051 255 255 255
7.597339 -2.820448 0.000051 255 255 255
7.383739 -2.606849 0.000051 255 255 255
6.956542 -2.606849 0.000051 255 255 255
7.170141 -2.820448 0.000051 255 255 255
7.383739 -2.606849 0.000051 255 255 255
7.170140 -2.393250 0.000051 255 255 255
6.742942 -2.393250 0.000051 255 255 255
6.956542 -2.606849 0.000051 255 255 255
7.170140 -2.393250 0.000051 255 255 255
6.956541 -2.179651 0.000051 255 255 255
6.529343 -2.179651 0.000051 255 255 255
6.742942 -2.393250 0.000051 255 255 255
6.956541 -2.179651 0.000051 255 255 255
6.742942 -1.966052 0.000051 255 255 255
6.315744 -1.966051 0.000051 255 255 255
6.529343 -2.179651 0.000051 255 255 255
6.742942 -1.966052 0.000051 255 255 255
6.529343 -1.752452 0.000051 255 255 255
6.102145 -1.752452 0.000051 255 255 255
6.315744 -1.966051 0.000051 255 255 255
6.529343 -1.752452 0.000051 255 255 255
6.315744 -1.538853 0.000051 255 255 255
5.888546 -1.538853 0.000051 255 255 255
6.102145 -1.752452 0.000051 255 255 255
6.315744 -1.538853 0.000051 255 255 255
6.102145 -1.325254 0.000051 255 255 255
5.674946 -1.325254 0.000051 255 255 255
5.888546 -1.538853 0.000051 255 255 255
6.102145 -1.325254 0.000051 255 255 255
5.888546 -1.111655 0.000051 255 255 255
9.306132 -5.383638 0.000051 255 255 255
9.519732 -5.597237 0.000051 255 255 255
9.733330 -5.383638 0.000051 255 255 255
9.519732 -5.170039 0.000051 255 255 255
9.092533 -5.170039 0.000051 255 255 255
9.306132 -5.383638 0.000051 255 255 255
9.519732 -5.170039 0.000051 255 255 255
9.306132 -4.956440 0.000051 255 255 255
8.878934 -4.956439 0.000051 255 255 255
9.092533 -5.170039 0.000051 255 255 255
9.306132 -4.956440 0.000051 255 255 255
9.092533 -4.742841 0.000051 255 255 255
8.665335 -4.742841 0.000051 255 255 255
8.878934 -4.956439 0.000051 255 255 255
9.092533 -4.742841 0.000051 255 255 255
8.878934 -4.529242 0.000051 255 255 255
8.451735 -4.529242 0.000051 255 255 255
8.665335 -4.742841 0.000051 255 255 255
8.878934 -4.529242 0.000051 255 255 255
8.665335 -4.315642 0.000051 255 255 255
8.238136 -4.315642 0.000051 255 255 255
8.451735 -4.529242 0.000051 255 255 255
8.665335 -4.315642 0.000051 255 255 255
8.451735 -4.102043 0.000051 255 255 255
8.024537 -4.102043 0.000051 255 255 255
8.238136 -4.315642 0.000051 255 255 255
8.451735 -4.102043 0.000051 255 255 255
8.238136 -3.888444 0.000051 255 255 255
7.810938 -3.888444 0.000051 255 255 255
8.024537 -4.102043 0.000051 255 255 255
8.238136 -3.888444 0.000051 255 255 255
8.024537 -3.674845 0.000051 255 255 255
7.597339 -3.674845 0.000051 255 255 255
7.810938 -3.888444 0.000051 255 255 255
8.024537 -3.674845 0.000051 255 255 255
7.810938 -3.461246 0.000051 255 255 255
7.383740 -3.461246 0.000051 255 255 255
7.597339 -3.674845 0.000051 255 255 255
7.810938 -3.461246 0.000051 255 255 255
7.597339 -3.247647 0.000051 255 255 255
7.170141 -3.247647 0.000051 255 255 255
7.383740 -3.461246 0.000051 255 255 255
7.597339 -3.247647 0.000051 255 255 255
7.383740 -3.034048 0.000051 255 255 255
6.956542 -3.034047 0.000051 255 255 255
7.170141 -3.247647 0.000051 255 255 255
7.383740 -3.034048 0.000051 255 255 255
7.170141 -2.820448 0.000051 255 255 255
6.742942 -2.820448 0.000051 255 255 255
6.956542 -3.034047 0.000051 255 255 255
7.170141 -2.820448 0.000051 255 255 255
6.956542 -2.606849 0.000051 255 255 255
6.529343 -2.606849 0.000051 255 255 255
6.742942 -2.820448 0.000051 255 255 255
6.956542 -2.606849 0.000051 255 255 255
6.742942 -2.393250 0.000051 255 255 255
6.315744 -2.393250 0.000051 255 255 255
6.529343 -2.606849 0.000051 255 255 255
6.742942 -2.393250 0.000051 255 255 255
6.529343 -2.179651 0.000051 255 255 255
6.102145 -2.179651 0.000051 255 255 255
6.315744 -2.393250 0.000051 255 255 255
6.529343 -2.179651 0.000051 255 255 255
6.315744 -1.966051 0.000051 255 255 255
5.888546 -1.966051 0.000051 255 255 255
6.102145 -2.179651 0.000051 255 255 255
6.315744 -1.966051 0.000051 255 255 255
6.102145 -1.752452 0.000051 255 255 255
5.674946 -1.752452 0.000051 255 255 255
5.888546 -1.966051 0.000051 255 255 255
6.102145 -1.752452 0.000051 255 255 255
5.888546 -1.538853 0.000051 255 255 255
5.461347 -1.538853 0.000051 255 255 255
5.674946 -1.752452 0.000051 255 255 255
5.888546 -1.538853 0.000051 255 255 255
5.674946 -1.325254 0.000051 255 255 255
9.092533 -5.597237 0.000051 255 255 255
9.306132 -5.810836 0.000051 255 255 255
9.519732 -5.597237 0.000051 255 255 255
9.306132 -5.383638 0.000051 255 255 255
8.878934 -5.383638 0.000051 255 255 255
9.092533 -5.597237 0.000051 255 255 255
9.306132 -5.383638 0.000051 255 255 255
9.092533 -5.170039 0.000051 255 255 255
8.665335 -5.170039 0.000051 255 255 255
8.878934 -5.383638 0.000051 255 255 255
9.092533 -5.170039 0.000051 255 255 255
8.878934 -4.956440 0.000051 255 255 255
8.451735 -4.956440 0.000051 255 255 255
8.665335 -5.170039 0.000051 255 255 255
8.878934 -4.956439 0.000051 255 255 255
8.665335 -4.742841 0.000051 255 255 255
8.238136 -4.742841 0.000051 255 255 255
8.451735 -4.956440 0.000051 255 255 255
8.665335 -4.742841 0.000051 255 255 255
8.451735 -4.529242 0.000051 255 255 255
8.024537 -4.529242 0.000051 255 255 255
8.238136 -4.742841 0.000051 255 255 255
8.451735 -4.529242 0.000051 255 255 255
8.238136 -4.315642 0.000051 255 255 255
7.810938 -4.315642 0.000051 255 255 255
8.024537 -4.529242 0.000051 255 255 255
8.238136 -4.315642 0.000051 255 255 255
8.024537 -4.102043 0.000051 255 255 255
7.597339 -4.102043 0.000051 255 255 255
7.810938 -4.315642 0.000051 255 255 255
8.024537 -4.102043 0.000051 255 255 255
7.810938 -3.888444 0.000051 255 255 255
7.383740 -3.888444 0.000051 255 255 255
7.597339 -4.102043 0.000051 255 255 255
7.810938 -3.888444 0.000051 255 255 255
7.597339 -3.674845 0.000051 255 255 255
7.170141 -3.674845 0.000051 255 255 255
7.383740 -3.888444 0.000051 255 255 255
7.597339 -3.674845 0.000051 255 255 255
7.383740 -3.461246 0.000051 255 255 255
6.956542 -3.461246 0.000051 255 255 255
7.170141 -3.674845 0.000051 255 255 255
7.383740 -3.461246 0.000051 255 255 255
7.170141 -3.247647 0.000051 255 255 255
6.742942 -3.247647 0.000051 255 255 255
6.956542 -3.461246 0.000051 255 255 255
7.170141 -3.247647 0.000051 255 255 255
6.956542 -3.034047 0.000051 255 255 255
6.529343 -3.034047 0.000051 255 255 255
6.742942 -3.247647 0.000051 255 255 255
6.956542 -3.034047 0.000051 255 255 255
6.742942 -2.820448 0.000051 255 255 255
6.315744 -2.820448 0.000051 255 255 255
6.529343 -3.034047 0.000051 255 255 255
6.742942 -2.820448 0.000051 255 255 255
6.529343 -2.606849 0.000051 255 255 255
6.102145 -2.606849 0.000051 255 255 255
6.315744 -2.820448 0.000051 255 255 255
6.529343 -2.606849 0.000051 255 255 255
6.315744 -2.393250 0.000051 255 255 255
5.888546 -2.393250 0.000051 255 255 255
6.102145 -2.606849 0.000051 255 255 255
6.315744 -2.393250 0.000051 255 255 255
6.102145 -2.179651 0.000051 255 255 255
5.674946 -2.179651 0.000051 255 255 255
5.888546 -2.393250 0.000051 255 255 255
6.102145 -2.179651 0.000051 255 255 255
5.888546 -1.966051 0.000051 255 255 255
5.461347 -1.966051 0.000051 255 255 255
5.674946 -2.179651 0.000051 255 255 255
5.888546 -1.966051 0.000051 255 255 255
5.674946 -1.752452 0.000051 255 255 255
5.247748 -1.752452 0.000051 255 255 255
5.461347 -1.966051 0.000051 255 255 255
5.674946 -1.752452 0.000051 255 255 255
5.461347 -1.538853 0.000051 255 255 255
3 0 1 2
3 0 2 3
3 4 5 6
3 4 6 7
3 8 9 10
3 8 10 11
3 12 13 14
3 12 14 15
3 16 17 18
3 16 18 19
3 20 21 22
3 20 22 23
3 24 25 26
3 24 26 27
3 28 29 30
3 28 30 31
3 32 33 34
3 32 34 35
3 36 37 38
3 36 38 39
3 40 41 42
3 40 42 43
3 44 45 46
3 44 46 47
3 48 49 50
3 48 50 51
3 52 53 54
3 52 54 55
3 56 57 58
3 56 58 59
3 60 61 62
3 60 62 63
3 64 65 66
3 64 66 67
3 68 69 70
3 68 70 71
3 72 73 74
3 72 74 75
3 76 77 78
3 76 78 79
3 80 81 82
3 80 82 83
3 84 85 86
3 84 86 87
3 88 89 90
3 88 90 91
3 92 93 94
3 92 94 95
3 96 97 98
3 96 98 99
3 100 101 102
3 100 102 103
3 104 105 106
3 104 106 107
3 108 109 110
3 108 110 111
3 112 113 114
3 112 114 115
3 116 117 118
3 116 118 119
3 120 121 122
3 120 122 123
3 124 125 126
3 124 126 127
3 128 129 130
3 128 130 131
3 132 133 134
3 132 134 135
3 136 137 138
3 136 138 139
3 140 141 142
3 140 142 143
3 144 145 146
3 144 146 147
3 148 149 150
3 148 150 151
3 152 153 154
3 152 154 155
3 156 157 158
3 156 158 159
3 160 161 162
3 160 162 163
3 164 165 166
3 164 166 167
3 168 169 170
3 168 170 171
3 172 173 174
3 172 174 175
3 176 177 178
3 176 178 179
3 180 181 182
3 180 182 183
3 184 185 186
3 184 186 187
3 188 189 190
3 188 190 191
3 192 193 194
3 192 194 195
3 196 197 198
3 196 198 199
3 200 201 202
3 200 202 203
3 204 205 206
3 204 206 207
3 208 209 210
3 208 210 211
3 212 213 214
3 212 214 215
3 216 217 218
3 216 218 219
3 220 221 222
3 220 222 223
3 224 225 226
3 224 226 227
3 228 229 230
3 228 230 231
3 232 233 234
3 232 234 235
3 236 237 238
3 236 238 239
3 240 241 242
3 240 242 243
3 244 245 246
3 244 246 247
3 248 249 250
3 248 250 251
3 252 253 254
3 252 254 255
3 256 257 258
3 256 258 259
3 260 261 262
3 260 262 263
3 264 265 266
3 264 266 267
3 268 269 270
3 268 270 271
3 272 273 274
3 272 274 275
3 276 277 278
3 276 278 279
3 280 281 282
3 280 282 283
3 284 285 286
3 284 286 287
3 288 289 290
3 288 290 291
3 292 293 294
3 292 294 295
3 296 297 298
3 296 298 299
3 300 301 302
3 300 302 303
3 304 305 306
3 304 306 307
3 308 309 310
3 308 310 311
3 312 313 314
3 312 314 315
3 316 317 318
3 316 318 319
3 320 321 322
3 320 322 323
3 324 325 326
3 324 326 327
3 328 329 330
3 328 330 331
3 332 333 334
3 332 334 335
3 336 337 338
3 336 338 339
3 340 341 342
3 340 342 343
3 344 345 346
3 344 346 347
3 348 349 350
3 348 350 351
3 352 353 354
3 352 354 355
3 356 357 358
3 356 358 359
3 360 361 362
3 360 362 363
3 364 365 366
3 364 366 367
3 368 369 370
3 368 370 371
3 372 373 374
3 372 374 375
3 376 377 378
3 376 378 379
3 380 381 382
3 380 382 383
3 384 385 386
3 384 386 387
3 388 389 390
3 388 390 391
3 392 393 394
3 392 394 395
3 396 397 398
3 396 398 399
3 400 401 402
3 400 402 403
3 404 405 406
3 404 406 407
3 408 409 410
3 408 410 411
3 412 413 414
3 412 414 415
3 416 417 418
3 416 418 419
3 420 421 422
3 420 422 423
3 424 425 426
3 424 426 427
3 428 429 430
3 428 430 431
3 432 433 434
3 432 434 435
3 436 437 438
3 436 438 439
3 440 441 442
3 440 442 443
3 444 445 446
3 444 446 447
3 448 449 450
3 448 450 451
3 452 453 454
3 452 454 455
3 456 457 458
3 456 458 459
3 460 461 462
3 460 462 463
3 464 465 466
3 464 466 467
3 468 469 470
3 468 470 471
3 472 473 474
3 472 474 475
3 476 477 478
3 476 478 479
3 480 481 482
3 480 482 483
3 484 485 486
3 484 486 487
3 488 489 490
3 488 490 491
3 492 493 494
3 492 494 495
3 496 497 498
3 496 498 499
3 500 501 502
3 500 502 503
3 504 505 506
3 504 506 507
3 508 509 510
3 508 510 511
3 512 513 514
3 512 514 515
3 516 517 518
3 516 518 519
3 520 521 522
3 520 522 523
3 524 525 526
3 524 526 527
3 528 529 530
3 528 530 531
3 532 533 534
3 532 534 535
3 536 537 538
3 536 538 539
3 540 541 542
3 540 542 543
3 544 545 546
3 544 546 547
3 548 549 550
3 548 550 551
3 552 553 554
3 552 554 555
3 556 557 558
3 556 558 559
3 560 561 562
3 560 562 563
3 564 565 566
3 564 566 567
3 568 569 570
3 568 570 571
3 572 573 574
3 572 574 575
3 576 577 578
3 576 578 579
3 580 581 582
3 580 582 583
3 584 585 586
3 584 586 587
3 588 589 590
3 588 590 591
3 592 593 594
3 592 594 595
3 596 597 598
3 596 598 599
3 600 601 602
3 600 602 603
3 604 605 606
3 604 606 607
3 608 609 610
3 608 610 611
3 612 613 614
3 612 614 615
3 616 617 618
3 616 618 619
3 620 621 622
3 620 622 623
3 624 625 626
3 624 626 627
3 628 629 630
3 628 630 631
3 632 633 634
3 632 634 635
3 636 637 638
3 636 638 639
3 640 641 642
3 640 642 643
3 644 645 646
3 644 646 647
3 648 649 650
3 648 650 651
3 652 653 654
3 652 654 655
3 656 657 658
3 656 658 659
3 660 661 662
3 660 662 663
3 664 665 666
3 664 666 667
3 668 669 670
3 668 670 671
3 672 673 674
3 672 674 675
3 676 677 678
3 676 678 679
3 680 681 682
3 680 682 683
3 684 685 686
3 684 686 687
3 688 689 690
3 688 690 691
3 692 693 694
3 692 694 695
3 696 697 698
3 696 698 699
3 700 701 702
3 700 702 703
3 704 705 706
3 704 706 707
3 708 709 710
3 708 710 711
3 712 713 714
3 712 714 715
3 716 717 718
3 716 718 719
3 720 721 722
3 720 722 723
3 724 725 726
3 724 726 727
3 728 729 730
3 728 730 731
3 732 733 734
3 732 734 735
3 736 737 738
3 736 738 739
3 740 741 742
3 740 742 743
3 744 745 746
3 744 746 747
3 748 749 750
3 748 750 751
3 752 753 754
3 752 754 755
3 756 757 758
3 756 758 759
3 760 761 762
3 760 762 763
3 764 765 766
3 764 766 767
3 768 769 770
3 768 770 771
3 772 773 774
3 772 774 775
3 776 777 778
3 776 778 779
3 780 781 782
3 780 782 783
3 784 785 786
3 784 786 787
3 788 789 790
3 788 790 791
3 792 793 794
3 792 794 795
3 796 797 798
3 796 798 799
3 800 801 802
3 800 802 803
3 804 805 806
3 804 806 807
3 808 809 810
3 808 810 811
3 812 813 814
3 812 814 815
3 816 817 818
3 816 818 819
3 820 821 822
3 820 822 823
3 824 825 826
3 824 826 827
3 828 829 830
3 828 830 831
3 832 833 834
3 832 834 835
3 836 837 838
3 836 838 839
3 840 841 842
3 840 842 843
3 844 845 846
3 844 846 847
3 848 849 850
3 848 850 851
3 852 853 854
3 852 854 855
3 856 857 858
3 856 858 859
3 860 861 862
3 860 862 863
3 864 865 866
3 864 866 867
3 868 869 870
3 868 870 871
3 872 873 874
3 872 874 875
3 876 877 878
3 876 878 879
3 880 881 882
3 880 882 883
3 884 885 886
3 884 886 887
3 888 889 890
3 888 890 891
3 892 893 894
3 892 894 895
3 896 897 898
3 896 898 899
3 900 901 902
3 900 902 903
3 904 905 906
3 904 906 907
3 908 909 910
3 908 910 911
3 912 913 914
3 912 914 915
3 916 917 918
3 916 918 919
3 920 921 922
3 920 922 923
3 924 925 926
3 924 926 927
3 928 929 930
3 928 930 931
3 932 933 934
3 932 934 935
3 936 937 938
3 936 938 939
3 940 941 942
3 940 942 943
3 944 945 946
3 944 946 947
3 948 949 950
3 948 950 951
3 952 953 954
3 952 954 955
3 956 957 958
3 956 958 959
3 960 961 962
3 960 962 963
3 964 965 966
3 964 966 967
3 968 969 970
3 968 970 971
3 972 973 974
3 972 974 975
3 976 977 978
3 976 978 979
3 980 981 982
3 980 982 983
3 984 985 986
3 984 986 987
3 988 989 990
3 988 990 991
3 992 993 994
3 992 994 995
