ply
format ascii 1.0
comment Created by SmallLuxGPU exporter for Blender 2.5, source file: kitchen.blend
element vertex 24
property float x
property float y
property float z
property uchar red
property uchar green
property uchar blue
element face 12
property list uchar uint vertex_indices
end_header
36.111588 20.880600 -2.590777 255 255 255
36.111588 -21.480604 -2.590777 255 255 255
-15.711591 -21.480600 -2.590777 255 255 255
-15.711577 20.880610 -2.590777 255 255 255
36.111599 20.880590 -2.335771 255 255 255
-15.711585 20.880602 -2.335771 255 255 255
-15.711596 -21.480597 -2.335771 255 255 255
36.111568 -21.480616 -2.335771 255 255 255
36.111588 20.880600 -2.590777 255 255 255
36.111599 20.880590 -2.335771 255 255 255
36.111568 -21.480616 -2.335771 255 255 255
36.111588 -21.480604 -2.590777 255 255 255
36.111588 -21.480604 -2.590777 255 255 255
36.111568 -21.480616 -2.335771 255 255 255
-15.711596 -21.480597 -2.335771 255 255 255
-15.711591 -21.480600 -2.590777 255 255 255
-15.711591 -21.480600 -2.590777 255 255 255
-15.711596 -21.480597 -2.335771 255 255 255
-15.711585 20.880602 -2.335771 255 255 255
-15.711577 20.880610 -2.590777 255 255 255
36.111599 20.880590 -2.335771 255 255 255
36.111588 20.880600 -2.590777 255 255 255
-15.711577 20.880610 -2.590777 255 255 255
-15.711585 20.880602 -2.335771 255 255 255
3 0 1 2
3 0 2 3
3 4 5 6
3 4 6 7
3 8 9 10
3 8 10 11
3 12 13 14
3 12 14 15
3 16 17 18
3 16 18 19
3 20 21 22
3 20 22 23
