ply
format ascii 1.0
comment Created by Blender3D 249 - www.blender.org, source file: 
element vertex 24
property float x
property float y
property float z
element face 6
property list uchar uint vertex_indices
end_header
-6.521816 -1.891238 -0.975730 
-6.521816 2.360468 -0.975730 
0.208196 2.360467 -0.975730 
0.208194 -1.891239 -0.975730 
-6.521818 -1.891237 1.024271 
0.208195 -1.891238 1.024271 
0.208196 2.360467 1.024271 
-6.521814 2.360469 1.024271 
-6.521816 -1.891238 -0.975730 
-6.521818 -1.891237 1.024271 
-6.521814 2.360469 1.024271 
-6.521816 2.360468 -0.975730 
-6.521816 2.360468 -0.975730 
-6.521814 2.360469 1.024271 
0.208196 2.360467 1.024271 
0.208196 2.360467 -0.975730 
0.208196 2.360467 -0.975730 
0.208196 2.360467 1.024271 
0.208195 -1.891238 1.024271 
0.208194 -1.891239 -0.975730 
-6.521818 -1.891237 1.024271 
-6.521816 -1.891238 -0.975730 
0.208194 -1.891239 -0.975730 
0.208195 -1.891238 1.024271 
4 0 1 2 3 
4 4 5 6 7 
4 8 9 10 11 
4 12 13 14 15 
4 16 17 18 19 
4 20 21 22 23 
