ply
format ascii 1.0
comment Created by SmallLuxGPU exporter for Blender 2.5, source file: SLGclassroom.fixed.blend
element vertex 180
property float x
property float y
property float z
property uchar red
property uchar green
property uchar blue
element face 60
property list uchar uint vertex_indices
end_header
-0.240422 -0.404420 -0.404331 255 255 255
-0.335417 -0.945165 -0.403529 255 255 255
-0.333536 -0.946204 0.152605 255 255 255
-0.240422 -0.404422 0.152606 255 255 255
-0.240422 -0.404420 -0.404331 255 255 255
-0.333536 -0.946204 0.152605 255 255 255
-0.217847 -0.404505 -0.408926 255 255 255
-0.236413 -0.401707 -0.408926 255 255 255
-0.236397 -0.401712 0.157195 255 255 255
-0.236397 -0.401712 0.157195 255 255 255
-0.217831 -0.404510 0.157195 255 255 255
-0.217847 -0.404505 -0.408926 255 255 255
-0.217831 -0.404510 0.157195 255 255 255
-0.236397 -0.401712 0.157195 255 255 255
-0.330635 -0.949964 0.157195 255 255 255
-0.330635 -0.949964 0.157195 255 255 255
-0.312069 -0.952762 0.157195 255 255 255
-0.217831 -0.404510 0.157195 255 255 255
-0.312069 -0.952762 0.157195 255 255 255
-0.330635 -0.949964 0.157195 255 255 255
-0.332530 -0.948912 -0.408114 255 255 255
-0.332530 -0.948912 -0.408114 255 255 255
-0.313964 -0.951710 -0.408114 255 255 255
-0.312069 -0.952762 0.157195 255 255 255
-0.313964 -0.951710 -0.408114 255 255 255
-0.332530 -0.948912 -0.408114 255 255 255
-0.236413 -0.401707 -0.408926 255 255 255
-0.236413 -0.401707 -0.408926 255 255 255
-0.217847 -0.404505 -0.408926 255 255 255
-0.313964 -0.951710 -0.408114 255 255 255
-0.217831 -0.404510 0.157195 255 255 255
-0.312069 -0.952762 0.157195 255 255 255
-0.313964 -0.951710 -0.408114 255 255 255
-0.313964 -0.951710 -0.408114 255 255 255
-0.217847 -0.404505 -0.408926 255 255 255
-0.217831 -0.404510 0.157195 255 255 255
-0.236413 -0.401707 -0.408926 255 255 255
-0.240422 -0.404420 -0.404331 255 255 255
-0.236397 -0.401712 0.157195 255 255 255
-0.240422 -0.404420 -0.404331 255 255 255
-0.240422 -0.404422 0.152606 255 255 255
-0.236397 -0.401712 0.157195 255 255 255
-0.330635 -0.949964 0.157195 255 255 255
-0.236397 -0.401712 0.157195 255 255 255
-0.240422 -0.404422 0.152606 255 255 255
-0.240422 -0.404422 0.152606 255 255 255
-0.333536 -0.946204 0.152605 255 255 255
-0.330635 -0.949964 0.157195 255 255 255
-0.332530 -0.948912 -0.408114 255 255 255
-0.330635 -0.949964 0.157195 255 255 255
-0.333536 -0.946204 0.152605 255 255 255
-0.333536 -0.946204 0.152605 255 255 255
-0.335417 -0.945165 -0.403529 255 255 255
-0.332530 -0.948912 -0.408114 255 255 255
-0.236413 -0.401707 -0.408926 255 255 255
-0.332530 -0.948912 -0.408114 255 255 255
-0.335417 -0.945165 -0.403529 255 255 255
-0.335417 -0.945165 -0.403529 255 255 255
-0.240422 -0.404420 -0.404331 255 255 255
-0.236413 -0.401707 -0.408926 255 255 255
-0.374394 1.249112 -0.404529 255 255 255
-0.239242 0.715910 -0.403727 255 255 255
-0.237080 0.715631 0.152567 255 255 255
-0.374394 1.249110 0.152567 255 255 255
-0.374394 1.249112 -0.404529 255 255 255
-0.237080 0.715631 0.152567 255 255 255
-0.353532 1.257186 -0.409124 255 255 255
-0.371814 1.253063 -0.409124 255 255 255
-0.371797 1.253065 0.157156 255 255 255
-0.371797 1.253065 0.157156 255 255 255
-0.353515 1.257188 0.157156 255 255 255
-0.353532 1.257186 -0.409124 255 255 255
-0.353515 1.257188 0.157156 255 255 255
-0.371797 1.253065 0.157156 255 255 255
-0.232854 0.713209 0.157156 255 255 255
-0.232854 0.713209 0.157156 255 255 255
-0.214572 0.717332 0.157156 255 255 255
-0.353515 1.257188 0.157156 255 255 255
-0.214572 0.717332 0.157156 255 255 255
-0.232854 0.713209 0.157156 255 255 255
-0.235036 0.713496 -0.408312 255 255 255
-0.235036 0.713496 -0.408312 255 255 255
-0.216754 0.717619 -0.408312 255 255 255
-0.214572 0.717332 0.157156 255 255 255
-0.216754 0.717619 -0.408312 255 255 255
-0.235036 0.713496 -0.408312 255 255 255
-0.371814 1.253063 -0.409124 255 255 255
-0.371814 1.253063 -0.409124 255 255 255
-0.353532 1.257186 -0.409124 255 255 255
-0.216754 0.717619 -0.408312 255 255 255
-0.353515 1.257188 0.157156 255 255 255
-0.214572 0.717332 0.157156 255 255 255
-0.216754 0.717619 -0.408312 255 255 255
-0.216754 0.717619 -0.408312 255 255 255
-0.353532 1.257186 -0.409124 255 255 255
-0.353515 1.257188 0.157156 255 255 255
-0.371814 1.253063 -0.409124 255 255 255
-0.374394 1.249112 -0.404529 255 255 255
-0.371797 1.253065 0.157156 255 255 255
-0.374394 1.249112 -0.404529 255 255 255
-0.374394 1.249110 0.152567 255 255 255
-0.371797 1.253065 0.157156 255 255 255
-0.232854 0.713209 0.157156 255 255 255
-0.371797 1.253065 0.157156 255 255 255
-0.374394 1.249110 0.152567 255 255 255
-0.374394 1.249110 0.152567 255 255 255
-0.237080 0.715631 0.152567 255 255 255
-0.232854 0.713209 0.157156 255 255 255
-0.235036 0.713496 -0.408312 255 255 255
-0.232854 0.713209 0.157156 255 255 255
-0.237080 0.715631 0.152567 255 255 255
-0.237080 0.715631 0.152567 255 255 255
-0.239242 0.715910 -0.403727 255 255 255
-0.235036 0.713496 -0.408312 255 255 255
-0.371814 1.253063 -0.409124 255 255 255
-0.235036 0.713496 -0.408312 255 255 255
-0.239242 0.715910 -0.403727 255 255 255
-0.239242 0.715910 -0.403727 255 255 255
-0.374394 1.249112 -0.404529 255 255 255
-0.371814 1.253063 -0.409124 255 255 255
-0.235848 0.709992 -0.414477 255 255 255
-0.237869 -0.397719 -0.413674 255 255 255
-0.235836 -0.399225 0.161498 255 255 255
-0.235848 0.709987 0.161498 255 255 255
-0.235848 0.709992 -0.414477 255 255 255
-0.235836 -0.399225 0.161498 255 255 255
-0.213545 0.716612 -0.419071 255 255 255
-0.232350 0.716612 -0.419071 255 255 255
-0.232334 0.716607 0.166087 255 255 255
-0.232334 0.716607 0.166087 255 255 255
-0.213529 0.716607 0.166087 255 255 255
-0.213545 0.716612 -0.419071 255 255 255
-0.213529 0.716607 0.166087 255 255 255
-0.232334 0.716607 0.166087 255 255 255
-0.232334 -0.405857 0.166088 255 255 255
-0.232334 -0.405857 0.166088 255 255 255
-0.213529 -0.405857 0.166088 255 255 255
-0.213529 0.716607 0.166087 255 255 255
-0.213529 -0.405857 0.166088 255 255 255
-0.232334 -0.405857 0.166088 255 255 255
-0.234383 -0.404327 -0.418259 255 255 255
-0.234383 -0.404327 -0.418259 255 255 255
-0.215578 -0.404327 -0.418259 255 255 255
-0.213529 -0.405857 0.166088 255 255 255
-0.215578 -0.404327 -0.418259 255 255 255
-0.234383 -0.404327 -0.418259 255 255 255
-0.232350 0.716612 -0.419071 255 255 255
-0.232350 0.716612 -0.419071 255 255 255
-0.213545 0.716612 -0.419071 255 255 255
-0.215578 -0.404327 -0.418259 255 255 255
-0.213529 0.716607 0.166087 255 255 255
-0.213529 -0.405857 0.166088 255 255 255
-0.215578 -0.404327 -0.418259 255 255 255
-0.215578 -0.404327 -0.418259 255 255 255
-0.213545 0.716612 -0.419071 255 255 255
-0.213529 0.716607 0.166087 255 255 255
-0.232350 0.716612 -0.419071 255 255 255
-0.235848 0.709992 -0.414477 255 255 255
-0.232334 0.716607 0.166087 255 255 255
-0.235848 0.709992 -0.414477 255 255 255
-0.235848 0.709987 0.161498 255 255 255
-0.232334 0.716607 0.166087 255 255 255
-0.232334 -0.405857 0.166088 255 255 255
-0.232334 0.716607 0.166087 255 255 255
-0.235848 0.709987 0.161498 255 255 255
-0.235848 0.709987 0.161498 255 255 255
-0.235836 -0.399225 0.161498 255 255 255
-0.232334 -0.405857 0.166088 255 255 255
-0.234383 -0.404327 -0.418259 255 255 255
-0.232334 -0.405857 0.166088 255 255 255
-0.235836 -0.399225 0.161498 255 255 255
-0.235836 -0.399225 0.161498 255 255 255
-0.237869 -0.397719 -0.413674 255 255 255
-0.234383 -0.404327 -0.418259 255 255 255
-0.232350 0.716612 -0.419071 255 255 255
-0.234383 -0.404327 -0.418259 255 255 255
-0.237869 -0.397719 -0.413674 255 255 255
-0.237869 -0.397719 -0.413674 255 255 255
-0.235848 0.709992 -0.414477 255 255 255
-0.232350 0.716612 -0.419071 255 255 255
3 0 1 2
3 3 4 5
3 6 7 8
3 9 10 11
3 12 13 14
3 15 16 17
3 18 19 20
3 21 22 23
3 24 25 26
3 27 28 29
3 30 31 32
3 33 34 35
3 36 37 38
3 39 40 41
3 42 43 44
3 45 46 47
3 48 49 50
3 51 52 53
3 54 55 56
3 57 58 59
3 60 61 62
3 63 64 65
3 66 67 68
3 69 70 71
3 72 73 74
3 75 76 77
3 78 79 80
3 81 82 83
3 84 85 86
3 87 88 89
3 90 91 92
3 93 94 95
3 96 97 98
3 99 100 101
3 102 103 104
3 105 106 107
3 108 109 110
3 111 112 113
3 114 115 116
3 117 118 119
3 120 121 122
3 123 124 125
3 126 127 128
3 129 130 131
3 132 133 134
3 135 136 137
3 138 139 140
3 141 142 143
3 144 145 146
3 147 148 149
3 150 151 152
3 153 154 155
3 156 157 158
3 159 160 161
3 162 163 164
3 165 166 167
3 168 169 170
3 171 172 173
3 174 175 176
3 177 178 179
