ply
format ascii 1.0
comment Created by SmallLuxGPU exporter for Blender 2.5, source file: SLGclassroom.fixed.blend
element vertex 249
property float x
property float y
property float z
property uchar red
property uchar green
property uchar blue
element face 83
property list uchar uint vertex_indices
end_header
-6.182140 1.842475 -0.747556 255 255 255
-6.183890 1.832107 -0.751015 255 255 255
-6.180890 1.841038 -0.836391 255 255 255
-6.183890 1.832107 -0.751015 255 255 255
-6.183890 1.832107 -0.836391 255 255 255
-6.180890 1.841038 -0.836391 255 255 255
-6.263204 1.832252 -0.751015 255 255 255
-6.183890 1.832107 -0.751015 255 255 255
-6.182140 1.842475 -0.747556 255 255 255
-6.182140 1.842475 -0.747556 255 255 255
-6.272110 1.839883 -0.746981 255 255 255
-6.263204 1.832252 -0.751015 255 255 255
-6.092610 -1.511125 -0.746092 255 255 255
-6.091703 -1.512908 -0.836391 255 255 255
-6.094703 -1.500094 -0.836391 255 255 255
-6.094703 -1.500094 -0.836391 255 255 255
-6.094703 -1.500094 -0.749078 255 255 255
-6.092610 -1.511125 -0.746092 255 255 255
-6.094703 -1.500094 -0.749078 255 255 255
-6.263244 -1.499744 -0.749078 255 255 255
-6.272074 -1.508223 -0.745043 255 255 255
-6.272074 -1.508223 -0.745043 255 255 255
-6.092610 -1.511125 -0.746092 255 255 255
-6.094703 -1.500094 -0.749078 255 255 255
-6.263204 1.832252 -0.751015 255 255 255
-6.272110 1.839883 -0.746981 255 255 255
-6.263244 -1.499744 -0.749078 255 255 255
-6.272110 1.839883 -0.746981 255 255 255
-6.272074 -1.508223 -0.745043 255 255 255
-6.263244 -1.499744 -0.749078 255 255 255
-6.183890 1.832107 -0.836391 255 255 255
-6.183890 1.832107 -0.751015 255 255 255
-6.263204 1.832252 -0.751015 255 255 255
-6.263204 1.832252 -0.751015 255 255 255
-6.263204 1.832253 -0.836391 255 255 255
-6.183890 1.832107 -0.836391 255 255 255
-6.263244 -1.499744 -0.836391 255 255 255
-6.263244 -1.499744 -0.749078 255 255 255
-6.094703 -1.500094 -0.749078 255 255 255
-6.094703 -1.500094 -0.749078 255 255 255
-6.094703 -1.500094 -0.836391 255 255 255
-6.263244 -1.499744 -0.836391 255 255 255
-6.263204 1.832253 -0.836391 255 255 255
-6.263204 1.832252 -0.751015 255 255 255
-6.263244 -1.499744 -0.749078 255 255 255
-6.263244 -1.499744 -0.749078 255 255 255
-6.263244 -1.499744 -0.836391 255 255 255
-6.263204 1.832253 -0.836391 255 255 255
-2.917069 -1.720529 -0.748728 255 255 255
-1.633871 -1.720179 -0.748728 255 255 255
-1.633871 -1.720179 -0.836391 255 255 255
-2.917068 -1.720529 -0.836391 255 255 255
-2.917069 -1.720529 -0.748728 255 255 255
-1.633871 -1.720179 -0.836391 255 255 255
-1.633871 -1.720179 -0.748728 255 255 255
-2.917069 -1.720529 -0.748728 255 255 255
-1.625040 -1.728658 -0.744694 255 255 255
-2.917069 -1.720529 -0.748728 255 255 255
-2.927801 -1.729905 -0.744694 255 255 255
-1.625040 -1.728658 -0.744694 255 255 255
-1.625415 -1.732387 -0.836391 255 255 255
-1.633871 -1.720179 -0.836391 255 255 255
-1.633871 -1.720179 -0.748728 255 255 255
-1.633871 -1.720179 -0.748728 255 255 255
-1.625040 -1.728658 -0.744694 255 255 255
-1.625415 -1.732387 -0.836391 255 255 255
-2.917069 -1.511216 -0.748728 255 255 255
-2.917069 -1.720529 -0.748728 255 255 255
-2.917068 -1.720529 -0.836391 255 255 255
-2.917068 -1.720529 -0.836391 255 255 255
-2.917069 -1.511216 -0.836391 255 255 255
-2.917069 -1.511216 -0.748728 255 255 255
-2.927801 -1.729905 -0.744694 255 255 255
-2.917069 -1.720529 -0.748728 255 255 255
-2.927801 -1.514733 -0.744694 255 255 255
-2.917069 -1.511216 -0.748728 255 255 255
-2.919647 -1.507609 -0.747759 255 255 255
-2.927801 -1.514733 -0.744694 255 255 255
-2.927801 -1.514733 -0.744694 255 255 255
-2.917069 -1.720529 -0.748728 255 255 255
-2.917069 -1.511216 -0.748728 255 255 255
-3.387764 -1.505357 -0.748728 255 255 255
-2.919969 -1.505357 -0.748728 255 255 255
-2.919969 -1.505357 -0.836391 255 255 255
-2.919969 -1.505357 -0.836391 255 255 255
-3.387764 -1.505357 -0.836391 255 255 255
-3.387764 -1.505357 -0.748728 255 255 255
-3.379991 -1.514733 -0.744694 255 255 255
-2.927801 -1.514733 -0.744694 255 255 255
-2.919647 -1.507609 -0.747759 255 255 255
-3.387764 -1.505357 -0.748728 255 255 255
-3.388089 -1.507619 -0.747755 255 255 255
-3.379991 -1.514733 -0.744694 255 255 255
-3.387764 -1.505357 -0.748728 255 255 255
-3.379991 -1.514733 -0.744694 255 255 255
-2.919647 -1.507609 -0.747759 255 255 255
-3.387764 -1.505357 -0.748728 255 255 255
-2.919647 -1.507609 -0.747759 255 255 255
-2.919969 -1.505357 -0.748728 255 255 255
-3.390664 -1.721079 -0.748729 255 255 255
-3.390664 -1.511216 -0.748728 255 255 255
-3.390664 -1.511216 -0.836391 255 255 255
-3.390664 -1.511216 -0.836391 255 255 255
-3.390664 -1.721079 -0.836391 255 255 255
-3.390664 -1.721079 -0.748729 255 255 255
-3.379991 -1.730455 -0.744694 255 255 255
-3.379991 -1.514733 -0.744694 255 255 255
-3.388089 -1.507619 -0.747755 255 255 255
-3.390664 -1.721079 -0.748729 255 255 255
-3.379991 -1.730455 -0.744694 255 255 255
-3.388089 -1.507619 -0.747755 255 255 255
-3.390664 -1.721079 -0.748729 255 255 255
-3.388089 -1.507619 -0.747755 255 255 255
-3.390664 -1.511216 -0.748728 255 255 255
-6.081496 -1.721079 -0.748729 255 255 255
-3.390664 -1.721079 -0.748729 255 255 255
-3.390664 -1.721079 -0.836391 255 255 255
-3.390664 -1.721079 -0.836391 255 255 255
-6.081496 -1.719927 -0.836391 255 255 255
-6.081496 -1.721079 -0.748729 255 255 255
-6.091703 -1.730455 -0.744694 255 255 255
-3.379991 -1.730455 -0.744694 255 255 255
-3.390664 -1.721079 -0.748729 255 255 255
-3.390664 -1.721079 -0.748729 255 255 255
-6.081496 -1.721079 -0.748729 255 255 255
-6.091703 -1.730455 -0.744694 255 255 255
-6.081496 -1.528832 -0.748729 255 255 255
-6.081496 -1.721079 -0.748729 255 255 255
-6.081496 -1.719927 -0.836391 255 255 255
-6.081496 -1.719927 -0.836391 255 255 255
-6.081496 -1.527680 -0.836391 255 255 255
-6.081496 -1.528832 -0.748729 255 255 255
-6.091702 -1.521289 -0.744826 255 255 255
-6.091703 -1.730455 -0.744694 255 255 255
-6.081496 -1.721079 -0.748729 255 255 255
-6.081496 -1.721079 -0.748729 255 255 255
-6.081496 -1.528832 -0.748729 255 255 255
-6.091702 -1.521289 -0.744826 255 255 255
-6.081496 -1.528832 -0.748729 255 255 255
-6.081496 -1.527680 -0.836391 255 255 255
-6.091702 -1.521289 -0.836391 255 255 255
-6.091702 -1.521289 -0.836391 255 255 255
-6.091702 -1.521289 -0.744826 255 255 255
-6.081496 -1.528832 -0.748729 255 255 255
-2.919969 -1.505357 -0.748728 255 255 255
-2.919647 -1.507609 -0.747759 255 255 255
-2.917069 -1.511216 -0.748728 255 255 255
-3.390664 -1.511216 -0.748728 255 255 255
-3.388089 -1.507619 -0.747755 255 255 255
-3.387764 -1.505357 -0.748728 255 255 255
-2.919969 -1.505357 -0.836391 255 255 255
-2.919969 -1.505357 -0.748728 255 255 255
-2.917069 -1.511216 -0.748728 255 255 255
-2.917069 -1.511216 -0.748728 255 255 255
-2.917069 -1.511216 -0.836391 255 255 255
-2.919969 -1.505357 -0.836391 255 255 255
-3.390664 -1.511216 -0.836391 255 255 255
-3.390664 -1.511216 -0.748728 255 255 255
-3.387764 -1.505357 -0.748728 255 255 255
-3.387764 -1.505357 -0.748728 255 255 255
-3.387764 -1.505357 -0.836391 255 255 255
-3.390664 -1.511216 -0.836391 255 255 255
-6.091703 -1.512908 -0.836391 255 255 255
-6.263204 1.832252 -0.836391 255 255 255
-6.094703 -1.500094 -0.836391 255 255 255
-6.091703 -1.512908 -0.836391 255 255 255
-6.183890 1.832107 -0.836391 255 255 255
-6.263204 1.832252 -0.836391 255 255 255
-6.091703 -1.512908 -0.836391 255 255 255
-3.379977 1.856652 -0.836391 255 255 255
-6.183890 1.832107 -0.836391 255 255 255
-6.091703 -1.512908 -0.836391 255 255 255
-3.374991 -1.512779 -0.836391 255 255 255
-3.379977 1.856652 -0.836391 255 255 255
-6.091703 -1.512908 -0.836391 255 255 255
-6.091702 -1.728504 -0.836391 255 255 255
-3.374991 -1.512779 -0.836391 255 255 255
-6.091702 -1.728504 -0.836391 255 255 255
-3.379991 -1.522880 -0.836391 255 255 255
-3.374991 -1.512779 -0.836391 255 255 255
-6.091702 -1.728504 -0.836391 255 255 255
-3.379991 -1.728503 -0.836391 255 255 255
-3.379991 -1.522880 -0.836391 255 255 255
-3.374991 -1.512779 -0.836391 255 255 255
-2.931206 -1.512778 -0.836391 255 255 255
-3.379977 1.856652 -0.836391 255 255 255
-2.931206 -1.512778 -0.836391 255 255 255
-3.374992 1.846551 -0.836391 255 255 255
-3.379977 1.856652 -0.836391 255 255 255
-2.931206 -1.512778 -0.836391 255 255 255
-1.080040 -1.728503 -0.836391 255 255 255
-3.374992 1.846551 -0.836391 255 255 255
-2.931206 -1.512778 -0.836391 255 255 255
-2.926206 -1.522881 -0.836391 255 255 255
-1.080040 -1.728503 -0.836391 255 255 255
-2.926206 -1.522881 -0.836391 255 255 255
-1.619458 -1.728503 -0.836391 255 255 255
-1.080040 -1.728503 -0.836391 255 255 255
-2.926206 -1.522881 -0.836391 255 255 255
-2.926206 -1.728503 -0.836391 255 255 255
-1.619458 -1.728503 -0.836391 255 255 255
-1.080040 -1.728503 -0.836391 255 255 255
-0.148431 1.838164 -0.836391 255 255 255
-3.374992 1.846551 -0.836391 255 255 255
-1.080040 -1.728503 -0.836391 255 255 255
-0.234620 -1.500093 -0.836391 255 255 255
-0.148431 1.838164 -0.836391 255 255 255
-1.080040 -1.728503 -0.836391 255 255 255
-0.242968 -1.504205 -0.836391 255 255 255
-0.234620 -1.500093 -0.836391 255 255 255
-0.243147 -1.512779 -0.836391 255 255 255
-0.242968 -1.504205 -0.836391 255 255 255
-1.080040 -1.728503 -0.836391 255 255 255
-1.080040 -1.728503 -0.836391 255 255 255
-0.243147 -1.728503 -0.836391 255 255 255
-0.243147 -1.512779 -0.836391 255 255 255
-0.234620 -1.500093 -0.836391 255 255 255
-0.048011 -1.499743 -0.836391 255 255 255
-0.148431 1.838164 -0.836391 255 255 255
-0.048011 -1.499743 -0.836391 255 255 255
-0.145431 1.832108 -0.836391 255 255 255
-0.148431 1.838164 -0.836391 255 255 255
-0.048011 -1.499743 -0.836391 255 255 255
-0.048050 1.832253 -0.836391 255 255 255
-0.145431 1.832108 -0.836391 255 255 255
-0.148431 1.838164 -0.836391 255 255 255
-2.931207 1.846550 -0.836391 255 255 255
-3.374992 1.846551 -0.836391 255 255 255
-0.148431 1.838164 -0.836391 255 255 255
-0.149177 2.229664 -0.836391 255 255 255
-2.931207 1.846550 -0.836391 255 255 255
-0.149177 2.229664 -0.836391 255 255 255
-2.926192 1.856652 -0.836391 255 255 255
-2.931207 1.846550 -0.836391 255 255 255
-0.149177 2.229664 -0.836391 255 255 255
-2.925483 2.229648 -0.836391 255 255 255
-2.926192 1.856652 -0.836391 255 255 255
-3.379977 1.856652 -0.836391 255 255 255
-6.180890 1.841038 -0.836391 255 255 255
-6.183890 1.832107 -0.836391 255 255 255
-3.379977 1.856652 -0.836391 255 255 255
-6.180144 2.229663 -0.836391 255 255 255
-6.180890 1.841038 -0.836391 255 255 255
-3.379977 1.856652 -0.836391 255 255 255
-3.379268 2.229648 -0.836391 255 255 255
-6.180144 2.229663 -0.836391 255 255 255
-6.263204 1.832252 -0.836391 255 255 255
-6.263244 -1.499744 -0.836391 255 255 255
-6.094703 -1.500094 -0.836391 255 255 255
3 0 1 2
3 3 4 5
3 6 7 8
3 9 10 11
3 12 13 14
3 15 16 17
3 18 19 20
3 21 22 23
3 24 25 26
3 27 28 29
3 30 31 32
3 33 34 35
3 36 37 38
3 39 40 41
3 42 43 44
3 45 46 47
3 48 49 50
3 51 52 53
3 54 55 56
3 57 58 59
3 60 61 62
3 63 64 65
3 66 67 68
3 69 70 71
3 72 73 74
3 75 76 77
3 78 79 80
3 81 82 83
3 84 85 86
3 87 88 89
3 90 91 92
3 93 94 95
3 96 97 98
3 99 100 101
3 102 103 104
3 105 106 107
3 108 109 110
3 111 112 113
3 114 115 116
3 117 118 119
3 120 121 122
3 123 124 125
3 126 127 128
3 129 130 131
3 132 133 134
3 135 136 137
3 138 139 140
3 141 142 143
3 144 145 146
3 147 148 149
3 150 151 152
3 153 154 155
3 156 157 158
3 159 160 161
3 162 163 164
3 165 166 167
3 168 169 170
3 171 172 173
3 174 175 176
3 177 178 179
3 180 181 182
3 183 184 185
3 186 187 188
3 189 190 191
3 192 193 194
3 195 196 197
3 198 199 200
3 201 202 203
3 204 205 206
3 207 208 209
3 210 211 212
3 213 214 215
3 216 217 218
3 219 220 221
3 222 223 224
3 225 226 227
3 228 229 230
3 231 232 233
3 234 235 236
3 237 238 239
3 240 241 242
3 243 244 245
3 246 247 248
