ply
format ascii 1.0
comment Created by SmallLuxGPU exporter for Blender 2.5, source file: SLGclassroom.fixed.blend
element vertex 540
property float x
property float y
property float z
property uchar red
property uchar green
property uchar blue
element face 720
property list uchar uint vertex_indices
end_header
-0.931134 0.135291 0.524217 255 255 255
-0.930456 0.135291 0.528060 255 255 255
-0.930456 -0.222615 0.528060 255 255 255
-0.931134 -0.222615 0.524217 255 255 255
-0.933084 0.135291 0.520838 255 255 255
-0.933084 -0.222615 0.520838 255 255 255
-0.936073 0.135291 0.518330 255 255 255
-0.936073 -0.222615 0.518330 255 255 255
-0.939740 0.135291 0.516996 255 255 255
-0.939740 -0.222615 0.516996 255 255 255
-0.943642 0.135291 0.516996 255 255 255
-0.943642 -0.222615 0.516996 255 255 255
-0.947308 0.135291 0.518330 255 255 255
-0.947308 -0.222615 0.518330 255 255 255
-0.950297 0.135291 0.520838 255 255 255
-0.950297 -0.222615 0.520838 255 255 255
-0.952248 0.135291 0.524217 255 255 255
-0.952248 -0.222615 0.524217 255 255 255
-0.952926 0.135291 0.528060 255 255 255
-0.952926 -0.222615 0.528060 255 255 255
-0.952248 0.135291 0.531902 255 255 255
-0.952248 -0.222615 0.531902 255 255 255
-0.950297 0.135291 0.535281 255 255 255
-0.950297 -0.222615 0.535281 255 255 255
-0.947308 0.135291 0.537789 255 255 255
-0.947308 -0.222615 0.537789 255 255 255
-0.943642 0.135291 0.539124 255 255 255
-0.943642 -0.222615 0.539124 255 255 255
-0.939740 0.135291 0.539124 255 255 255
-0.939740 -0.222615 0.539124 255 255 255
-0.936073 0.135291 0.537789 255 255 255
-0.936073 -0.222615 0.537789 255 255 255
-0.933084 0.135291 0.535281 255 255 255
-0.933084 -0.222615 0.535281 255 255 255
-0.931134 0.135291 0.531902 255 255 255
-0.931134 -0.222615 0.531902 255 255 255
-0.931133 0.485355 0.524217 255 255 255
-0.930456 0.485355 0.528060 255 255 255
-0.933084 0.485355 0.520838 255 255 255
-0.936073 0.485355 0.518330 255 255 255
-0.939740 0.485355 0.516996 255 255 255
-0.943642 0.485355 0.516996 255 255 255
-0.947308 0.485355 0.518330 255 255 255
-0.950297 0.485355 0.520838 255 255 255
-0.952248 0.485355 0.524217 255 255 255
-0.952925 0.485355 0.528060 255 255 255
-0.952248 0.485355 0.531902 255 255 255
-0.950297 0.485355 0.535281 255 255 255
-0.947308 0.485355 0.537789 255 255 255
-0.943642 0.485355 0.539124 255 255 255
-0.939740 0.485355 0.539124 255 255 255
-0.936073 0.485355 0.537789 255 255 255
-0.933084 0.485355 0.535281 255 255 255
-0.931133 0.485355 0.531902 255 255 255
-0.820587 0.135291 0.524217 255 255 255
-0.819909 0.135291 0.528060 255 255 255
-0.819909 -0.222615 0.528060 255 255 255
-0.820586 -0.222615 0.524217 255 255 255
-0.822537 0.135291 0.520838 255 255 255
-0.822537 -0.222615 0.520838 255 255 255
-0.825526 0.135291 0.518330 255 255 255
-0.825526 -0.222615 0.518330 255 255 255
-0.829193 0.135291 0.516996 255 255 255
-0.829193 -0.222615 0.516996 255 255 255
-0.833095 0.135291 0.516996 255 255 255
-0.833095 -0.222615 0.516996 255 255 255
-0.836761 0.135291 0.518330 255 255 255
-0.836761 -0.222615 0.518330 255 255 255
-0.839750 0.135291 0.520838 255 255 255
-0.839750 -0.222615 0.520838 255 255 255
-0.841701 0.135291 0.524217 255 255 255
-0.841701 -0.222615 0.524217 255 255 255
-0.842378 0.135291 0.528060 255 255 255
-0.842378 -0.222615 0.528060 255 255 255
-0.841701 0.135291 0.531902 255 255 255
-0.841701 -0.222615 0.531902 255 255 255
-0.839750 0.135291 0.535281 255 255 255
-0.839750 -0.222615 0.535281 255 255 255
-0.836761 0.135291 0.537789 255 255 255
-0.836761 -0.222615 0.537789 255 255 255
-0.833095 0.135291 0.539124 255 255 255
-0.833095 -0.222615 0.539124 255 255 255
-0.829193 0.135291 0.539124 255 255 255
-0.829193 -0.222615 0.539124 255 255 255
-0.825526 0.135291 0.537789 255 255 255
-0.825526 -0.222615 0.537789 255 255 255
-0.822537 0.135291 0.535281 255 255 255
-0.822537 -0.222615 0.535281 255 255 255
-0.820587 0.135291 0.531902 255 255 255
-0.820586 -0.222615 0.531902 255 255 255
-0.820586 0.485355 0.524217 255 255 255
-0.819909 0.485355 0.528060 255 255 255
-0.822537 0.485355 0.520838 255 255 255
-0.825526 0.485355 0.518330 255 255 255
-0.829193 0.485355 0.516996 255 255 255
-0.833095 0.485355 0.516996 255 255 255
-0.836761 0.485355 0.518330 255 255 255
-0.839750 0.485355 0.520838 255 255 255
-0.841701 0.485355 0.524217 255 255 255
-0.842378 0.485355 0.528060 255 255 255
-0.841701 0.485355 0.531902 255 255 255
-0.839750 0.485355 0.535281 255 255 255
-0.836761 0.485355 0.537789 255 255 255
-0.833095 0.485355 0.539124 255 255 255
-0.829193 0.485355 0.539124 255 255 255
-0.825526 0.485355 0.537789 255 255 255
-0.822537 0.485355 0.535281 255 255 255
-0.820586 0.485355 0.531902 255 255 255
-2.166527 0.135291 0.524217 255 255 255
-2.165849 0.135291 0.528060 255 255 255
-2.165849 -0.222615 0.528060 255 255 255
-2.166527 -0.222615 0.524217 255 255 255
-2.168478 0.135291 0.520838 255 255 255
-2.168478 -0.222615 0.520838 255 255 255
-2.171467 0.135291 0.518330 255 255 255
-2.171467 -0.222615 0.518330 255 255 255
-2.175133 0.135291 0.516996 255 255 255
-2.175133 -0.222615 0.516996 255 255 255
-2.179035 0.135291 0.516996 255 255 255
-2.179035 -0.222615 0.516996 255 255 255
-2.182702 0.135291 0.518330 255 255 255
-2.182702 -0.222615 0.518330 255 255 255
-2.185691 0.135291 0.520838 255 255 255
-2.185691 -0.222615 0.520838 255 255 255
-2.187642 0.135291 0.524217 255 255 255
-2.187642 -0.222615 0.524217 255 255 255
-2.188319 0.135291 0.528060 255 255 255
-2.188319 -0.222615 0.528060 255 255 255
-2.187642 0.135291 0.531902 255 255 255
-2.187642 -0.222615 0.531902 255 255 255
-2.185691 0.135291 0.535281 255 255 255
-2.185691 -0.222615 0.535281 255 255 255
-2.182702 0.135291 0.537789 255 255 255
-2.182702 -0.222615 0.537789 255 255 255
-2.179035 0.135291 0.539124 255 255 255
-2.179035 -0.222615 0.539124 255 255 255
-2.175133 0.135291 0.539124 255 255 255
-2.175133 -0.222615 0.539124 255 255 255
-2.171467 0.135291 0.537789 255 255 255
-2.171467 -0.222615 0.537789 255 255 255
-2.168478 0.135291 0.535281 255 255 255
-2.168478 -0.222615 0.535281 255 255 255
-2.166527 0.135291 0.531902 255 255 255
-2.166527 -0.222615 0.531902 255 255 255
-2.166527 0.485355 0.524217 255 255 255
-2.165849 0.485355 0.528060 255 255 255
-2.168478 0.485355 0.520838 255 255 255
-2.171467 0.485355 0.518330 255 255 255
-2.175133 0.485355 0.516996 255 255 255
-2.179035 0.485355 0.516996 255 255 255
-2.182702 0.485355 0.518330 255 255 255
-2.185691 0.485355 0.520838 255 255 255
-2.187641 0.485355 0.524217 255 255 255
-2.188319 0.485355 0.528060 255 255 255
-2.187641 0.485355 0.531902 255 255 255
-2.185691 0.485355 0.535281 255 255 255
-2.182702 0.485355 0.537789 255 255 255
-2.179035 0.485355 0.539124 255 255 255
-2.175133 0.485355 0.539124 255 255 255
-2.171467 0.485355 0.537789 255 255 255
-2.168478 0.485355 0.535281 255 255 255
-2.166527 0.485355 0.531902 255 255 255
-2.055980 0.135291 0.524217 255 255 255
-2.055303 0.135291 0.528060 255 255 255
-2.055302 -0.222615 0.528060 255 255 255
-2.055980 -0.222615 0.524217 255 255 255
-2.057931 0.135291 0.520838 255 255 255
-2.057931 -0.222615 0.520838 255 255 255
-2.060920 0.135291 0.518330 255 255 255
-2.060920 -0.222615 0.518330 255 255 255
-2.064586 0.135291 0.516996 255 255 255
-2.064586 -0.222615 0.516996 255 255 255
-2.068488 0.135291 0.516996 255 255 255
-2.068488 -0.222615 0.516996 255 255 255
-2.072155 0.135291 0.518330 255 255 255
-2.072155 -0.222615 0.518330 255 255 255
-2.075144 0.135291 0.520838 255 255 255
-2.075144 -0.222615 0.520838 255 255 255
-2.077095 0.135291 0.524217 255 255 255
-2.077095 -0.222615 0.524217 255 255 255
-2.077772 0.135291 0.528060 255 255 255
-2.077772 -0.222615 0.528060 255 255 255
-2.077095 0.135291 0.531902 255 255 255
-2.077095 -0.222615 0.531902 255 255 255
-2.075144 0.135291 0.535281 255 255 255
-2.075144 -0.222615 0.535281 255 255 255
-2.072155 0.135291 0.537789 255 255 255
-2.072155 -0.222615 0.537789 255 255 255
-2.068488 0.135291 0.539124 255 255 255
-2.068488 -0.222615 0.539124 255 255 255
-2.064586 0.135291 0.539124 255 255 255
-2.064586 -0.222615 0.539124 255 255 255
-2.060920 0.135291 0.537789 255 255 255
-2.060920 -0.222615 0.537789 255 255 255
-2.057931 0.135291 0.535281 255 255 255
-2.057931 -0.222615 0.535281 255 255 255
-2.055980 0.135291 0.531902 255 255 255
-2.055980 -0.222615 0.531902 255 255 255
-2.055980 0.485355 0.524217 255 255 255
-2.055302 0.485355 0.528060 255 255 255
-2.057931 0.485355 0.520838 255 255 255
-2.060920 0.485355 0.518330 255 255 255
-2.064586 0.485355 0.516996 255 255 255
-2.068488 0.485355 0.516996 255 255 255
-2.072155 0.485355 0.518330 255 255 255
-2.075143 0.485355 0.520838 255 255 255
-2.077094 0.485355 0.524217 255 255 255
-2.077772 0.485355 0.528060 255 255 255
-2.077094 0.485355 0.531902 255 255 255
-2.075143 0.485355 0.535281 255 255 255
-2.072155 0.485355 0.537789 255 255 255
-2.068488 0.485355 0.539124 255 255 255
-2.064586 0.485355 0.539124 255 255 255
-2.060920 0.485355 0.537789 255 255 255
-2.057931 0.485355 0.535281 255 255 255
-2.055980 0.485355 0.531902 255 255 255
-3.692679 0.135291 0.524217 255 255 255
-3.692001 0.135291 0.528060 255 255 255
-3.692001 -0.222615 0.528060 255 255 255
-3.692679 -0.222615 0.524217 255 255 255
-3.694630 0.135291 0.520838 255 255 255
-3.694630 -0.222615 0.520838 255 255 255
-3.697619 0.135291 0.518330 255 255 255
-3.697619 -0.222615 0.518330 255 255 255
-3.701285 0.135291 0.516996 255 255 255
-3.701285 -0.222615 0.516996 255 255 255
-3.705187 0.135291 0.516996 255 255 255
-3.705187 -0.222615 0.516996 255 255 255
-3.708853 0.135291 0.518330 255 255 255
-3.708853 -0.222615 0.518330 255 255 255
-3.711842 0.135291 0.520838 255 255 255
-3.711842 -0.222615 0.520838 255 255 255
-3.713793 0.135291 0.524217 255 255 255
-3.713793 -0.222615 0.524217 255 255 255
-3.714471 0.135291 0.528060 255 255 255
-3.714471 -0.222615 0.528060 255 255 255
-3.713793 0.135291 0.531902 255 255 255
-3.713793 -0.222615 0.531902 255 255 255
-3.711842 0.135291 0.535281 255 255 255
-3.711842 -0.222615 0.535281 255 255 255
-3.708853 0.135291 0.537789 255 255 255
-3.708853 -0.222615 0.537789 255 255 255
-3.705187 0.135291 0.539124 255 255 255
-3.705187 -0.222615 0.539124 255 255 255
-3.701285 0.135291 0.539124 255 255 255
-3.701285 -0.222615 0.539124 255 255 255
-3.697619 0.135291 0.537789 255 255 255
-3.697619 -0.222615 0.537789 255 255 255
-3.694630 0.135291 0.535281 255 255 255
-3.694630 -0.222615 0.535281 255 255 255
-3.692679 0.135291 0.531902 255 255 255
-3.692679 -0.222615 0.531902 255 255 255
-3.692679 0.485355 0.524217 255 255 255
-3.692001 0.485355 0.528060 255 255 255
-3.694629 0.485355 0.520838 255 255 255
-3.697619 0.485355 0.518330 255 255 255
-3.701285 0.485355 0.516996 255 255 255
-3.705187 0.485355 0.516996 255 255 255
-3.708853 0.485355 0.518330 255 255 255
-3.711842 0.485355 0.520838 255 255 255
-3.713793 0.485355 0.524217 255 255 255
-3.714471 0.485355 0.528060 255 255 255
-3.713793 0.485355 0.531902 255 255 255
-3.711842 0.485355 0.535281 255 255 255
-3.708853 0.485355 0.537789 255 255 255
-3.705187 0.485355 0.539124 255 255 255
-3.701285 0.485355 0.539124 255 255 255
-3.697619 0.485355 0.537789 255 255 255
-3.694629 0.485355 0.535281 255 255 255
-3.692679 0.485355 0.531902 255 255 255
-3.582132 0.135291 0.524217 255 255 255
-3.581454 0.135291 0.528060 255 255 255
-3.581454 -0.222615 0.528060 255 255 255
-3.582132 -0.222615 0.524217 255 255 255
-3.584083 0.135291 0.520838 255 255 255
-3.584083 -0.222615 0.520838 255 255 255
-3.587071 0.135291 0.518330 255 255 255
-3.587071 -0.222615 0.518330 255 255 255
-3.590738 0.135291 0.516996 255 255 255
-3.590738 -0.222615 0.516996 255 255 255
-3.594640 0.135291 0.516996 255 255 255
-3.594640 -0.222615 0.516996 255 255 255
-3.598306 0.135291 0.518330 255 255 255
-3.598306 -0.222615 0.518330 255 255 255
-3.601295 0.135291 0.520838 255 255 255
-3.601295 -0.222615 0.520838 255 255 255
-3.603246 0.135291 0.524217 255 255 255
-3.603246 -0.222615 0.524217 255 255 255
-3.603924 0.135291 0.528060 255 255 255
-3.603924 -0.222615 0.528060 255 255 255
-3.603246 0.135291 0.531902 255 255 255
-3.603246 -0.222615 0.531902 255 255 255
-3.601295 0.135291 0.535281 255 255 255
-3.601295 -0.222615 0.535281 255 255 255
-3.598306 0.135291 0.537789 255 255 255
-3.598306 -0.222615 0.537789 255 255 255
-3.594640 0.135291 0.539124 255 255 255
-3.594640 -0.222615 0.539124 255 255 255
-3.590738 0.135291 0.539124 255 255 255
-3.590738 -0.222615 0.539124 255 255 255
-3.587071 0.135291 0.537789 255 255 255
-3.587071 -0.222615 0.537789 255 255 255
-3.584083 0.135291 0.535281 255 255 255
-3.584083 -0.222615 0.535281 255 255 255
-3.582132 0.135291 0.531902 255 255 255
-3.582132 -0.222615 0.531902 255 255 255
-3.582132 0.485355 0.524217 255 255 255
-3.581454 0.485355 0.528060 255 255 255
-3.584083 0.485355 0.520838 255 255 255
-3.587071 0.485355 0.518330 255 255 255
-3.590738 0.485355 0.516996 255 255 255
-3.594640 0.485355 0.516996 255 255 255
-3.598306 0.485355 0.518330 255 255 255
-3.601295 0.485355 0.520838 255 255 255
-3.603246 0.485355 0.524217 255 255 255
-3.603924 0.485355 0.528060 255 255 255
-3.603246 0.485355 0.531902 255 255 255
-3.601295 0.485355 0.535281 255 255 255
-3.598306 0.485355 0.537789 255 255 255
-3.594640 0.485355 0.539124 255 255 255
-3.590738 0.485355 0.539124 255 255 255
-3.587071 0.485355 0.537789 255 255 255
-3.584083 0.485355 0.535281 255 255 255
-3.582132 0.485355 0.531902 255 255 255
-4.696915 0.135291 0.524217 255 255 255
-4.696238 0.135291 0.528060 255 255 255
-4.696238 -0.222615 0.528060 255 255 255
-4.696915 -0.222615 0.524217 255 255 255
-4.698866 0.135291 0.520838 255 255 255
-4.698866 -0.222615 0.520838 255 255 255
-4.701855 0.135291 0.518330 255 255 255
-4.701855 -0.222615 0.518330 255 255 255
-4.705522 0.135291 0.516996 255 255 255
-4.705522 -0.222615 0.516996 255 255 255
-4.709424 0.135291 0.516996 255 255 255
-4.709424 -0.222615 0.516996 255 255 255
-4.713090 0.135291 0.518330 255 255 255
-4.713090 -0.222615 0.518330 255 255 255
-4.716079 0.135291 0.520838 255 255 255
-4.716079 -0.222615 0.520838 255 255 255
-4.718029 0.135291 0.524217 255 255 255
-4.718029 -0.222615 0.524217 255 255 255
-4.718707 0.135291 0.528060 255 255 255
-4.718707 -0.222615 0.528060 255 255 255
-4.718029 0.135291 0.531902 255 255 255
-4.718029 -0.222615 0.531902 255 255 255
-4.716079 0.135291 0.535281 255 255 255
-4.716079 -0.222615 0.535281 255 255 255
-4.713090 0.135291 0.537789 255 255 255
-4.713090 -0.222615 0.537789 255 255 255
-4.709424 0.135291 0.539124 255 255 255
-4.709424 -0.222615 0.539124 255 255 255
-4.705522 0.135291 0.539124 255 255 255
-4.705522 -0.222615 0.539124 255 255 255
-4.701855 0.135291 0.537789 255 255 255
-4.701855 -0.222615 0.537789 255 255 255
-4.698866 0.135291 0.535281 255 255 255
-4.698866 -0.222615 0.535281 255 255 255
-4.696915 0.135291 0.531902 255 255 255
-4.696915 -0.222615 0.531902 255 255 255
-4.696915 0.485355 0.524217 255 255 255
-4.696238 0.485355 0.528060 255 255 255
-4.698866 0.485355 0.520838 255 255 255
-4.701855 0.485355 0.518330 255 255 255
-4.705522 0.485355 0.516996 255 255 255
-4.709423 0.485355 0.516996 255 255 255
-4.713090 0.485355 0.518330 255 255 255
-4.716079 0.485355 0.520838 255 255 255
-4.718029 0.485355 0.524217 255 255 255
-4.718707 0.485355 0.528060 255 255 255
-4.718029 0.485355 0.531902 255 255 255
-4.716079 0.485355 0.535281 255 255 255
-4.713090 0.485355 0.537789 255 255 255
-4.709423 0.485355 0.539124 255 255 255
-4.705522 0.485355 0.539124 255 255 255
-4.701855 0.485355 0.537789 255 255 255
-4.698866 0.485355 0.535281 255 255 255
-4.696915 0.485355 0.531902 255 255 255
-4.586368 0.135291 0.524217 255 255 255
-4.585690 0.135291 0.528060 255 255 255
-4.585690 -0.222615 0.528060 255 255 255
-4.586368 -0.222615 0.524217 255 255 255
-4.588319 0.135291 0.520838 255 255 255
-4.588319 -0.222615 0.520838 255 255 255
-4.591308 0.135291 0.518330 255 255 255
-4.591308 -0.222615 0.518330 255 255 255
-4.594975 0.135291 0.516996 255 255 255
-4.594975 -0.222615 0.516996 255 255 255
-4.598876 0.135291 0.516996 255 255 255
-4.598876 -0.222615 0.516996 255 255 255
-4.602542 0.135291 0.518330 255 255 255
-4.602542 -0.222615 0.518330 255 255 255
-4.605532 0.135291 0.520838 255 255 255
-4.605532 -0.222615 0.520838 255 255 255
-4.607482 0.135291 0.524217 255 255 255
-4.607482 -0.222615 0.524217 255 255 255
-4.608160 0.135291 0.528060 255 255 255
-4.608160 -0.222615 0.528060 255 255 255
-4.607482 0.135291 0.531902 255 255 255
-4.607482 -0.222615 0.531902 255 255 255
-4.605532 0.135291 0.535281 255 255 255
-4.605532 -0.222615 0.535281 255 255 255
-4.602542 0.135291 0.537789 255 255 255
-4.602542 -0.222615 0.537789 255 255 255
-4.598876 0.135291 0.539124 255 255 255
-4.598876 -0.222615 0.539124 255 255 255
-4.594975 0.135291 0.539124 255 255 255
-4.594975 -0.222615 0.539124 255 255 255
-4.591308 0.135291 0.537789 255 255 255
-4.591308 -0.222615 0.537789 255 255 255
-4.588319 0.135291 0.535281 255 255 255
-4.588319 -0.222615 0.535281 255 255 255
-4.586368 0.135291 0.531902 255 255 255
-4.586368 -0.222615 0.531902 255 255 255
-4.586368 0.485355 0.524217 255 255 255
-4.585690 0.485355 0.528060 255 255 255
-4.588319 0.485355 0.520838 255 255 255
-4.591308 0.485355 0.518330 255 255 255
-4.594974 0.485355 0.516996 255 255 255
-4.598876 0.485355 0.516996 255 255 255
-4.602542 0.485355 0.518330 255 255 255
-4.605532 0.485355 0.520838 255 255 255
-4.607482 0.485355 0.524217 255 255 255
-4.608160 0.485355 0.528060 255 255 255
-4.607482 0.485355 0.531902 255 255 255
-4.605532 0.485355 0.535281 255 255 255
-4.602542 0.485355 0.537789 255 255 255
-4.598876 0.485355 0.539124 255 255 255
-4.594974 0.485355 0.539124 255 255 255
-4.591308 0.485355 0.537789 255 255 255
-4.588319 0.485355 0.535281 255 255 255
-4.586368 0.485355 0.531902 255 255 255
-5.756087 0.135291 0.524217 255 255 255
-5.755409 0.135291 0.528060 255 255 255
-5.755409 -0.222615 0.528060 255 255 255
-5.756087 -0.222615 0.524217 255 255 255
-5.758038 0.135291 0.520838 255 255 255
-5.758038 -0.222615 0.520838 255 255 255
-5.761026 0.135291 0.518330 255 255 255
-5.761026 -0.222615 0.518330 255 255 255
-5.764693 0.135291 0.516996 255 255 255
-5.764693 -0.222615 0.516996 255 255 255
-5.768595 0.135291 0.516996 255 255 255
-5.768595 -0.222615 0.516996 255 255 255
-5.772262 0.135291 0.518330 255 255 255
-5.772262 -0.222615 0.518330 255 255 255
-5.775251 0.135291 0.520838 255 255 255
-5.775251 -0.222615 0.520838 255 255 255
-5.777201 0.135291 0.524217 255 255 255
-5.777201 -0.222615 0.524217 255 255 255
-5.777879 0.135291 0.528060 255 255 255
-5.777879 -0.222615 0.528060 255 255 255
-5.777201 0.135291 0.531902 255 255 255
-5.777201 -0.222615 0.531902 255 255 255
-5.775251 0.135291 0.535281 255 255 255
-5.775251 -0.222615 0.535281 255 255 255
-5.772262 0.135291 0.537789 255 255 255
-5.772262 -0.222615 0.537789 255 255 255
-5.768595 0.135291 0.539124 255 255 255
-5.768595 -0.222615 0.539124 255 255 255
-5.764693 0.135291 0.539124 255 255 255
-5.764693 -0.222615 0.539124 255 255 255
-5.761026 0.135291 0.537789 255 255 255
-5.761026 -0.222615 0.537789 255 255 255
-5.758038 0.135291 0.535281 255 255 255
-5.758038 -0.222615 0.535281 255 255 255
-5.756087 0.135291 0.531902 255 255 255
-5.756087 -0.222615 0.531902 255 255 255
-5.756087 0.485355 0.524217 255 255 255
-5.755409 0.485355 0.528060 255 255 255
-5.758038 0.485355 0.520838 255 255 255
-5.761026 0.485355 0.518330 255 255 255
-5.764693 0.485355 0.516996 255 255 255
-5.768595 0.485355 0.516996 255 255 255
-5.772261 0.485355 0.518330 255 255 255
-5.775250 0.485355 0.520838 255 255 255
-5.777201 0.485355 0.524217 255 255 255
-5.777879 0.485355 0.528060 255 255 255
-5.777201 0.485355 0.531902 255 255 255
-5.775250 0.485355 0.535281 255 255 255
-5.772261 0.485355 0.537789 255 255 255
-5.768595 0.485355 0.539124 255 255 255
-5.764693 0.485355 0.539124 255 255 255
-5.761026 0.485355 0.537789 255 255 255
-5.758038 0.485355 0.535281 255 255 255
-5.756087 0.485355 0.531902 255 255 255
-5.645540 0.135291 0.524217 255 255 255
-5.644863 0.135291 0.528060 255 255 255
-5.644863 -0.222615 0.528060 255 255 255
-5.645540 -0.222615 0.524217 255 255 255
-5.647491 0.135291 0.520838 255 255 255
-5.647491 -0.222615 0.520838 255 255 255
-5.650480 0.135291 0.518330 255 255 255
-5.650480 -0.222615 0.518330 255 255 255
-5.654146 0.135291 0.516996 255 255 255
-5.654146 -0.222615 0.516996 255 255 255
-5.658048 0.135291 0.516996 255 255 255
-5.658048 -0.222615 0.516996 255 255 255
-5.661715 0.135291 0.518330 255 255 255
-5.661715 -0.222615 0.518330 255 255 255
-5.664703 0.135291 0.520838 255 255 255
-5.664703 -0.222615 0.520838 255 255 255
-5.666655 0.135291 0.524217 255 255 255
-5.666655 -0.222615 0.524217 255 255 255
-5.667332 0.135291 0.528060 255 255 255
-5.667332 -0.222615 0.528060 255 255 255
-5.666655 0.135291 0.531902 255 255 255
-5.666655 -0.222615 0.531902 255 255 255
-5.664703 0.135291 0.535281 255 255 255
-5.664703 -0.222615 0.535281 255 255 255
-5.661715 0.135291 0.537789 255 255 255
-5.661715 -0.222615 0.537789 255 255 255
-5.658048 0.135291 0.539124 255 255 255
-5.658048 -0.222615 0.539124 255 255 255
-5.654146 0.135291 0.539124 255 255 255
-5.654146 -0.222615 0.539124 255 255 255
-5.650480 0.135291 0.537789 255 255 255
-5.650480 -0.222615 0.537789 255 255 255
-5.647491 0.135291 0.535281 255 255 255
-5.647491 -0.222615 0.535281 255 255 255
-5.645540 0.135291 0.531902 255 255 255
-5.645540 -0.222615 0.531902 255 255 255
-5.645539 0.485355 0.524217 255 255 255
-5.644862 0.485355 0.528060 255 255 255
-5.647491 0.485355 0.520838 255 255 255
-5.650480 0.485355 0.518330 255 255 255
-5.654146 0.485355 0.516996 255 255 255
-5.658048 0.485355 0.516996 255 255 255
-5.661715 0.485355 0.518330 255 255 255
-5.664703 0.485355 0.520838 255 255 255
-5.666654 0.485355 0.524217 255 255 255
-5.667332 0.485355 0.528060 255 255 255
-5.666654 0.485355 0.531902 255 255 255
-5.664703 0.485355 0.535281 255 255 255
-5.661715 0.485355 0.537789 255 255 255
-5.658048 0.485355 0.539124 255 255 255
-5.654146 0.485355 0.539124 255 255 255
-5.650480 0.485355 0.537789 255 255 255
-5.647491 0.485355 0.535281 255 255 255
-5.645539 0.485355 0.531902 255 255 255
3 0 1 2
3 3 0 2
3 4 0 3
3 3 5 4
3 6 4 5
3 5 7 6
3 8 6 7
3 7 9 8
3 10 8 9
3 9 11 10
3 12 10 11
3 11 13 12
3 14 12 13
3 13 15 14
3 16 14 15
3 15 17 16
3 18 16 17
3 17 19 18
3 20 18 19
3 19 21 20
3 22 20 21
3 21 23 22
3 24 22 23
3 23 25 24
3 26 24 25
3 25 27 26
3 28 26 27
3 27 29 28
3 30 28 29
3 29 31 30
3 32 30 31
3 31 33 32
3 34 32 33
3 33 35 34
3 1 34 35
3 35 2 1
3 0 36 37
3 1 0 37
3 4 38 36
3 36 0 4
3 6 39 38
3 38 4 6
3 8 40 39
3 39 6 8
3 10 41 40
3 40 8 10
3 12 42 41
3 41 10 12
3 14 43 42
3 42 12 14
3 16 44 43
3 43 14 16
3 18 45 44
3 44 16 18
3 20 46 45
3 45 18 20
3 22 47 46
3 46 20 22
3 24 48 47
3 47 22 24
3 26 49 48
3 48 24 26
3 28 50 49
3 49 26 28
3 30 51 50
3 50 28 30
3 32 52 51
3 51 30 32
3 34 53 52
3 52 32 34
3 1 37 53
3 53 34 1
3 54 55 56
3 56 57 54
3 58 54 57
3 57 59 58
3 60 58 59
3 59 61 60
3 62 60 61
3 61 63 62
3 64 62 63
3 63 65 64
3 66 64 65
3 65 67 66
3 68 66 67
3 67 69 68
3 70 68 69
3 69 71 70
3 72 70 71
3 71 73 72
3 74 72 73
3 73 75 74
3 76 74 75
3 75 77 76
3 78 76 77
3 77 79 78
3 80 78 79
3 79 81 80
3 82 80 81
3 81 83 82
3 84 82 83
3 83 85 84
3 86 84 85
3 85 87 86
3 88 86 87
3 87 89 88
3 55 88 89
3 89 56 55
3 54 90 91
3 91 55 54
3 58 92 90
3 90 54 58
3 60 93 92
3 92 58 60
3 62 94 93
3 93 60 62
3 64 95 94
3 94 62 64
3 66 96 95
3 95 64 66
3 68 97 96
3 96 66 68
3 70 98 97
3 97 68 70
3 72 99 98
3 98 70 72
3 74 100 99
3 99 72 74
3 76 101 100
3 100 74 76
3 78 102 101
3 101 76 78
3 80 103 102
3 102 78 80
3 82 104 103
3 103 80 82
3 84 105 104
3 104 82 84
3 86 106 105
3 105 84 86
3 88 107 106
3 106 86 88
3 55 91 107
3 107 88 55
3 108 109 110
3 111 108 110
3 112 108 111
3 111 113 112
3 114 112 113
3 113 115 114
3 116 114 115
3 115 117 116
3 118 116 117
3 117 119 118
3 120 118 119
3 119 121 120
3 122 120 121
3 121 123 122
3 124 122 123
3 123 125 124
3 126 124 125
3 125 127 126
3 128 126 127
3 127 129 128
3 130 128 129
3 129 131 130
3 132 130 131
3 131 133 132
3 134 132 133
3 133 135 134
3 136 134 135
3 135 137 136
3 138 136 137
3 137 139 138
3 140 138 139
3 139 141 140
3 142 140 141
3 141 143 142
3 109 142 143
3 143 110 109
3 108 144 145
3 109 108 145
3 112 146 144
3 144 108 112
3 114 147 146
3 146 112 114
3 116 148 147
3 147 114 116
3 118 149 148
3 148 116 118
3 120 150 149
3 149 118 120
3 122 151 150
3 150 120 122
3 124 152 151
3 151 122 124
3 126 153 152
3 152 124 126
3 128 154 153
3 153 126 128
3 130 155 154
3 154 128 130
3 132 156 155
3 155 130 132
3 134 157 156
3 156 132 134
3 136 158 157
3 157 134 136
3 138 159 158
3 158 136 138
3 140 160 159
3 159 138 140
3 142 161 160
3 160 140 142
3 109 145 161
3 161 142 109
3 162 163 164
3 164 165 162
3 166 162 165
3 165 167 166
3 168 166 167
3 167 169 168
3 170 168 169
3 169 171 170
3 172 170 171
3 171 173 172
3 174 172 173
3 173 175 174
3 176 174 175
3 175 177 176
3 178 176 177
3 177 179 178
3 180 178 179
3 179 181 180
3 182 180 181
3 181 183 182
3 184 182 183
3 183 185 184
3 186 184 185
3 185 187 186
3 188 186 187
3 187 189 188
3 190 188 189
3 189 191 190
3 192 190 191
3 191 193 192
3 194 192 193
3 193 195 194
3 196 194 195
3 195 197 196
3 163 196 197
3 197 164 163
3 162 198 199
3 199 163 162
3 166 200 198
3 198 162 166
3 168 201 200
3 200 166 168
3 170 202 201
3 201 168 170
3 172 203 202
3 202 170 172
3 174 204 203
3 203 172 174
3 176 205 204
3 204 174 176
3 178 206 205
3 205 176 178
3 180 207 206
3 206 178 180
3 182 208 207
3 207 180 182
3 184 209 208
3 208 182 184
3 186 210 209
3 209 184 186
3 188 211 210
3 210 186 188
3 190 212 211
3 211 188 190
3 192 213 212
3 212 190 192
3 194 214 213
3 213 192 194
3 196 215 214
3 214 194 196
3 163 199 215
3 215 196 163
3 216 217 218
3 219 216 218
3 220 216 219
3 219 221 220
3 222 220 221
3 221 223 222
3 224 222 223
3 223 225 224
3 226 224 225
3 225 227 226
3 228 226 227
3 227 229 228
3 230 228 229
3 229 231 230
3 232 230 231
3 231 233 232
3 234 232 233
3 233 235 234
3 236 234 235
3 235 237 236
3 238 236 237
3 237 239 238
3 240 238 239
3 239 241 240
3 242 240 241
3 241 243 242
3 244 242 243
3 243 245 244
3 246 244 245
3 245 247 246
3 248 246 247
3 247 249 248
3 250 248 249
3 249 251 250
3 217 250 251
3 251 218 217
3 216 252 253
3 217 216 253
3 220 254 252
3 252 216 220
3 222 255 254
3 254 220 222
3 224 256 255
3 255 222 224
3 226 257 256
3 256 224 226
3 228 258 257
3 257 226 228
3 230 259 258
3 258 228 230
3 232 260 259
3 259 230 232
3 234 261 260
3 260 232 234
3 236 262 261
3 261 234 236
3 238 263 262
3 262 236 238
3 240 264 263
3 263 238 240
3 242 265 264
3 264 240 242
3 244 266 265
3 265 242 244
3 246 267 266
3 266 244 246
3 248 268 267
3 267 246 248
3 250 269 268
3 268 248 250
3 217 253 269
3 269 250 217
3 270 271 272
3 272 273 270
3 274 270 273
3 273 275 274
3 276 274 275
3 275 277 276
3 278 276 277
3 277 279 278
3 280 278 279
3 279 281 280
3 282 280 281
3 281 283 282
3 284 282 283
3 283 285 284
3 286 284 285
3 285 287 286
3 288 286 287
3 287 289 288
3 290 288 289
3 289 291 290
3 292 290 291
3 291 293 292
3 294 292 293
3 293 295 294
3 296 294 295
3 295 297 296
3 298 296 297
3 297 299 298
3 300 298 299
3 299 301 300
3 302 300 301
3 301 303 302
3 304 302 303
3 303 305 304
3 271 304 305
3 305 272 271
3 270 306 307
3 307 271 270
3 274 308 306
3 306 270 274
3 276 309 308
3 308 274 276
3 278 310 309
3 309 276 278
3 280 311 310
3 310 278 280
3 282 312 311
3 311 280 282
3 284 313 312
3 312 282 284
3 286 314 313
3 313 284 286
3 288 315 314
3 314 286 288
3 290 316 315
3 315 288 290
3 292 317 316
3 316 290 292
3 294 318 317
3 317 292 294
3 296 319 318
3 318 294 296
3 298 320 319
3 319 296 298
3 300 321 320
3 320 298 300
3 302 322 321
3 321 300 302
3 304 323 322
3 322 302 304
3 271 307 323
3 323 304 271
3 324 325 326
3 327 324 326
3 328 324 327
3 327 329 328
3 330 328 329
3 329 331 330
3 332 330 331
3 331 333 332
3 334 332 333
3 333 335 334
3 336 334 335
3 335 337 336
3 338 336 337
3 337 339 338
3 340 338 339
3 339 341 340
3 342 340 341
3 341 343 342
3 344 342 343
3 343 345 344
3 346 344 345
3 345 347 346
3 348 346 347
3 347 349 348
3 350 348 349
3 349 351 350
3 352 350 351
3 351 353 352
3 354 352 353
3 353 355 354
3 356 354 355
3 355 357 356
3 358 356 357
3 357 359 358
3 325 358 359
3 359 326 325
3 324 360 361
3 325 324 361
3 328 362 360
3 360 324 328
3 330 363 362
3 362 328 330
3 332 364 363
3 363 330 332
3 334 365 364
3 364 332 334
3 336 366 365
3 365 334 336
3 338 367 366
3 366 336 338
3 340 368 367
3 367 338 340
3 342 369 368
3 368 340 342
3 344 370 369
3 369 342 344
3 346 371 370
3 370 344 346
3 348 372 371
3 371 346 348
3 350 373 372
3 372 348 350
3 352 374 373
3 373 350 352
3 354 375 374
3 374 352 354
3 356 376 375
3 375 354 356
3 358 377 376
3 376 356 358
3 325 361 377
3 377 358 325
3 378 379 380
3 380 381 378
3 382 378 381
3 381 383 382
3 384 382 383
3 383 385 384
3 386 384 385
3 385 387 386
3 388 386 387
3 387 389 388
3 390 388 389
3 389 391 390
3 392 390 391
3 391 393 392
3 394 392 393
3 393 395 394
3 396 394 395
3 395 397 396
3 398 396 397
3 397 399 398
3 400 398 399
3 399 401 400
3 402 400 401
3 401 403 402
3 404 402 403
3 403 405 404
3 406 404 405
3 405 407 406
3 408 406 407
3 407 409 408
3 410 408 409
3 409 411 410
3 412 410 411
3 411 413 412
3 379 412 413
3 413 380 379
3 378 414 415
3 415 379 378
3 382 416 414
3 414 378 382
3 384 417 416
3 416 382 384
3 386 418 417
3 417 384 386
3 388 419 418
3 418 386 388
3 390 420 419
3 419 388 390
3 392 421 420
3 420 390 392
3 394 422 421
3 421 392 394
3 396 423 422
3 422 394 396
3 398 424 423
3 423 396 398
3 400 425 424
3 424 398 400
3 402 426 425
3 425 400 402
3 404 427 426
3 426 402 404
3 406 428 427
3 427 404 406
3 408 429 428
3 428 406 408
3 410 430 429
3 429 408 410
3 412 431 430
3 430 410 412
3 379 415 431
3 431 412 379
3 432 433 434
3 435 432 434
3 436 432 435
3 435 437 436
3 438 436 437
3 437 439 438
3 440 438 439
3 439 441 440
3 442 440 441
3 441 443 442
3 444 442 443
3 443 445 444
3 446 444 445
3 445 447 446
3 448 446 447
3 447 449 448
3 450 448 449
3 449 451 450
3 452 450 451
3 451 453 452
3 454 452 453
3 453 455 454
3 456 454 455
3 455 457 456
3 458 456 457
3 457 459 458
3 460 458 459
3 459 461 460
3 462 460 461
3 461 463 462
3 464 462 463
3 463 465 464
3 466 464 465
3 465 467 466
3 433 466 467
3 467 434 433
3 432 468 469
3 433 432 469
3 436 470 468
3 468 432 436
3 438 471 470
3 470 436 438
3 440 472 471
3 471 438 440
3 442 473 472
3 472 440 442
3 444 474 473
3 473 442 444
3 446 475 474
3 474 444 446
3 448 476 475
3 475 446 448
3 450 477 476
3 476 448 450
3 452 478 477
3 477 450 452
3 454 479 478
3 478 452 454
3 456 480 479
3 479 454 456
3 458 481 480
3 480 456 458
3 460 482 481
3 481 458 460
3 462 483 482
3 482 460 462
3 464 484 483
3 483 462 464
3 466 485 484
3 484 464 466
3 433 469 485
3 485 466 433
3 486 487 488
3 488 489 486
3 490 486 489
3 489 491 490
3 492 490 491
3 491 493 492
3 494 492 493
3 493 495 494
3 496 494 495
3 495 497 496
3 498 496 497
3 497 499 498
3 500 498 499
3 499 501 500
3 502 500 501
3 501 503 502
3 504 502 503
3 503 505 504
3 506 504 505
3 505 507 506
3 508 506 507
3 507 509 508
3 510 508 509
3 509 511 510
3 512 510 511
3 511 513 512
3 514 512 513
3 513 515 514
3 516 514 515
3 515 517 516
3 518 516 517
3 517 519 518
3 520 518 519
3 519 521 520
3 487 520 521
3 521 488 487
3 486 522 523
3 523 487 486
3 490 524 522
3 522 486 490
3 492 525 524
3 524 490 492
3 494 526 525
3 525 492 494
3 496 527 526
3 526 494 496
3 498 528 527
3 527 496 498
3 500 529 528
3 528 498 500
3 502 530 529
3 529 500 502
3 504 531 530
3 530 502 504
3 506 532 531
3 531 504 506
3 508 533 532
3 532 506 508
3 510 534 533
3 533 508 510
3 512 535 534
3 534 510 512
3 514 536 535
3 535 512 514
3 516 537 536
3 536 514 516
3 518 538 537
3 537 516 518
3 520 539 538
3 538 518 520
3 487 523 539
3 539 520 487
