ply
format ascii 1.0
comment Created by SmallLuxGPU exporter for Blender 2.5, source file: alloy.blend
element vertex 24
property float x
property float y
property float z
property float nx
property float ny
property float nz
property float s
property float t
element face 12
property list uchar uint vertex_indices
end_header
0.000000 6.000000 -1.200000 0 0 -1 0 1
0.000000 -6.000000 -1.200000 0 0 -1 1 1
-6.000000 -5.999999 -1.200000 0 0 -1 1 0
-5.999999 6.000002 -1.200000 0 0 -1 0 0
0.000001 5.999997 0.000000 0 -0 1 0 1
-6.000000 6.000000 0.000000 0 -0 1 1 1
-6.000001 -5.999998 0.000000 0 -0 1 1 0
-0.000002 -6.000004 0.000000 0 -0 1 0 0
0.000000 6.000000 -1.200000 1 -1.39077e-07 1.98682e-07 0 1
0.000001 5.999997 0.000000 1 -1.39077e-07 1.98682e-07 1 1
-0.000002 -6.000004 0.000000 1 -1.39077e-07 1.98682e-07 1 0
0.000000 -6.000000 -1.200000 1 -1.39077e-07 1.98682e-07 0 0
0.000000 -6.000000 -1.200000 -5.5631e-07 -1 -1.19209e-06 0 1
-0.000002 -6.000004 0.000000 -5.5631e-07 -1 -1.19209e-06 1 1
-6.000001 -5.999998 0.000000 -5.5631e-07 -1 -1.19209e-06 1 0
-6.000000 -5.999999 -1.200000 -5.5631e-07 -1 -1.19209e-06 0 0
-6.000000 -5.999999 -1.200000 -1 9.93411e-08 -5.96046e-07 0 1
-6.000001 -5.999998 0.000000 -1 9.93411e-08 -5.96046e-07 1 1
-6.000000 6.000000 0.000000 -1 9.93411e-08 -5.96046e-07 1 0
-5.999999 6.000002 -1.200000 -1 9.93411e-08 -5.96046e-07 0 0
0.000001 5.999997 0.000000 4.76837e-07 1 1.98682e-06 0 1
0.000000 6.000000 -1.200000 4.76837e-07 1 1.98682e-06 1 1
-5.999999 6.000002 -1.200000 4.76837e-07 1 1.98682e-06 1 0
-6.000000 6.000000 0.000000 4.76837e-07 1 1.98682e-06 0 0
3 0 1 2
3 0 2 3
3 4 5 6
3 4 6 7
3 8 9 10
3 8 10 11
3 12 13 14
3 12 14 15
3 16 17 18
3 16 18 19
3 20 21 22
3 20 22 23
