ply
format ascii 1.0
comment Created by Blender 2.83.5 - www.blender.org, source file: ''
element vertex 8
property float x
property float y
property float z
property float nx
property float ny
property float nz
property float s
property float t
element face 2
property list uchar uint vertex_indices
end_header
0.700000 0.700000 0.300000 1.000000 -0.000000 0.000000 0.375000 0.500000
0.700000 0.700000 1.700000 1.000000 -0.000000 0.000000 0.625000 0.500000
0.700000 -0.700000 1.700000 1.000000 -0.000000 0.000000 0.625000 0.750000
0.700000 -0.700000 0.300000 1.000000 -0.000000 0.000000 0.375000 0.750000
-0.700000 0.700000 0.300000 0.000000 0.000000 -1.000000 0.125000 0.500000
0.700000 0.700000 0.300000 0.000000 0.000000 -1.000000 0.375000 0.500000
0.700000 -0.700000 0.300000 0.000000 0.000000 -1.000000 0.375000 0.750000
-0.700000 -0.700000 0.300000 0.000000 0.000000 -1.000000 0.125000 0.750000
4 0 1 2 3
4 4 5 6 7
