ply
format ascii 1.0
comment Created by Blender3D 249 - www.blender.org, source file: luxball.blend
element vertex 4
property float x
property float y
property float z
property float nx
property float ny
property float nz
property uchar red
property uchar green
property uchar blue
element face 2
property list uchar uint vertex_indices
end_header
-1.115137 -1.184413 2.050469 0.259164 0.459481 -0.849536 255 255 255
-0.988495 -0.959885 2.210542 0.259164 0.459481 -0.849536 255 255 255
-0.724200 -1.108957 2.210542 0.259164 0.459481 -0.849536 255 255 255
-0.850842 -1.333485 2.050469 0.259164 0.459481 -0.849536 255 255 255
3 0 1 2 
3 0 2 3 
