ply
format ascii 1.0
comment Created by Blender 2.80 (sub 75) - www.blender.org, source file: ''
element vertex 24
property float x
property float y
property float z
property float nx
property float ny
property float nz
property float s
property float t
element face 12
property list uchar uint vertex_indices
end_header
3.775332 3.845772 3.607152 -0.000000 -1.000000 0.000000 0.239898 0.499901
-3.755316 3.845773 0.003744 -0.000000 -1.000000 0.000000 0.479081 0.999762
3.775332 3.845772 0.003744 -0.000000 -1.000000 0.000000 0.479081 0.499901
-3.755317 3.845772 3.607152 0.000000 -1.000000 -0.000000 0.239898 0.999762
-3.755317 -3.674709 0.003744 1.000000 -0.000000 0.000000 0.500576 0.739759
-3.755317 3.845772 3.607152 1.000000 -0.000000 0.000000 0.999762 0.500576
-3.755317 -3.674709 3.607152 1.000000 -0.000000 0.000000 0.500576 0.500576
-3.755316 3.845773 0.003744 1.000000 -0.000000 0.000000 0.999762 0.739759
3.775332 -3.674710 0.003744 0.000000 1.000000 0.000000 0.239421 0.999762
-3.755317 -3.674709 0.003744 0.000000 1.000000 0.000000 0.239421 0.499901
3.775331 -3.674710 3.607152 0.000000 1.000000 0.000000 0.000238 0.999762
-3.755317 -3.674709 3.607152 0.000000 1.000000 0.000000 0.000238 0.499901
3.775332 3.845772 0.003744 -1.000000 0.000000 -0.000000 0.999762 0.740235
3.775332 -3.674710 0.003744 -1.000000 0.000000 -0.000000 0.500576 0.740235
3.775332 3.845772 3.607152 -1.000000 0.000000 -0.000000 0.999762 0.979418
3.775331 -3.674710 3.607152 -1.000000 0.000000 -0.000000 0.500576 0.979418
3.775332 3.845772 3.607152 0.000000 0.000000 -1.000000 0.500576 0.500099
-3.755317 -3.674709 3.607152 0.000000 0.000000 -1.000000 0.999762 0.000238
-3.755317 3.845772 3.607152 0.000000 0.000000 -1.000000 0.500576 0.000238
3.775331 -3.674710 3.607152 0.000000 0.000000 -1.000000 0.999762 0.500099
3.775332 3.845772 0.003744 0.000000 -0.000000 1.000000 0.000238 0.499424
-3.755317 -3.674709 0.003744 0.000000 -0.000000 1.000000 0.500099 0.000238
3.775332 -3.674710 0.003744 0.000000 -0.000000 1.000000 0.000238 0.000238
-3.755316 3.845773 0.003744 -0.000000 0.000000 1.000000 0.500099 0.499424
3 0 1 2
3 0 3 1
3 4 5 6
3 4 7 5
3 8 9 10
3 10 9 11
3 12 13 14
3 14 13 15
3 16 17 18
3 16 19 17
3 20 21 22
3 20 23 21
