ply
format ascii 1.0
comment Created by Blender 2.71 (sub 0) - www.blender.org, source file: ''
element vertex 175
property float x
property float y
property float z
property float nx
property float ny
property float nz
property float s
property float t
element face 320
property list uchar uint vertex_indices
end_header
2.559863 1.069985 0.906801 0.000000 0.000000 -1.000000 0.000000 0.209448
2.815515 0.884245 0.947128 0.210944 -0.153264 -0.965392 0.066874 0.186062
2.462214 0.769449 0.947128 -0.080569 -0.247963 -0.965392 0.037346 0.272252
3.470340 0.408492 1.602336 0.723594 -0.525712 -0.447218 0.258005 0.296589
3.326824 0.512762 1.337727 0.604205 -0.438978 -0.664968 0.217981 0.242035
3.582478 0.698503 1.533030 0.815180 -0.285714 -0.503800 0.287600 0.228251
2.559863 1.069985 0.906801 0.000000 0.000000 -1.000000 1.000000 0.209448
2.462214 0.769449 0.947128 -0.080569 -0.247963 -0.965392 1.037346 0.272252
2.243857 1.069985 0.947129 -0.260750 0.000000 -0.965392 0.976009 0.283120
2.462214 1.370521 0.947128 -0.080569 0.247963 -0.965392 0.933597 0.209213
2.815515 1.255725 0.947128 0.210944 0.153264 -0.965392 0.985400 0.129945
3.642834 0.512760 1.849039 0.864986 -0.438978 -0.243049 0.305294 0.318776
2.212098 -0.000343 1.602335 -0.276376 -0.850642 -0.447218 0.107535 0.511920
2.522569 -0.017373 1.533028 -0.019837 -0.863552 -0.503800 0.137059 0.456597
2.364563 -0.132173 1.849038 -0.150212 -0.958281 -0.243049 0.143341 0.550087
1.434452 1.069985 1.602340 -0.894406 0.000000 -0.447188 0.931192 0.541677
1.514194 0.769448 1.533032 -0.827448 -0.247963 -0.503800 0.971887 0.538447
1.356190 0.884245 1.849041 -0.957823 -0.153264 -0.243049 0.945416 0.617667
2.212098 2.140313 1.602335 -0.276376 0.850642 -0.447218 0.777620 0.352932
1.950906 1.971601 1.533029 -0.491531 0.710288 -0.503800 0.816723 0.389966
2.011258 2.157348 1.849037 -0.441725 0.863582 -0.243049 0.773111 0.433295
3.470340 1.731478 1.602336 0.723594 0.525712 -0.447218 0.546897 0.147136
3.229176 1.927749 1.533029 0.523637 0.686972 -0.503800 0.634595 0.158119
3.424479 1.927752 1.849037 0.684805 0.686972 -0.243049 0.572771 0.222992
3.424479 0.212218 1.849037 0.684805 -0.686972 -0.243049 0.263316 0.376871
2.011258 -0.017378 1.849037 -0.441725 -0.863582 -0.243049 0.099806 0.591284
1.356190 1.255726 1.849041 -0.957823 0.153264 -0.243049 0.897877 0.589489
2.364563 2.272143 1.849038 -0.150212 0.958281 -0.243049 0.734666 0.373852
3.642834 1.627210 1.849039 0.864986 0.438978 -0.243049 0.498039 0.209752
2.907627 -0.000343 2.727762 0.276376 -0.850642 0.447218 0.277620 0.647068
3.168819 0.168369 2.797069 0.491531 -0.710288 0.503800 0.316723 0.610034
2.852810 0.168371 2.992371 0.230781 -0.710288 0.664968 0.311450 0.703906
1.649385 0.408492 2.727762 -0.723594 -0.525712 0.447218 0.046898 0.852864
1.890549 0.212222 2.797069 -0.523637 -0.686972 0.503800 0.134595 0.841881
1.792902 0.512762 2.992371 -0.604205 -0.438978 0.664968 0.083777 0.930324
1.649385 1.731478 2.727762 -0.723594 0.525712 0.447218 0.758005 0.703411
1.537247 1.441468 2.797068 -0.815180 0.285714 0.503800 0.787600 0.771749
1.792902 1.627208 2.992371 -0.604205 0.438978 0.664968 0.717981 0.757965
2.907627 2.140313 2.727762 0.276376 0.850642 0.447218 0.607535 0.488080
2.597156 2.157343 2.797070 0.019837 0.863552 0.503800 0.637059 0.543403
2.852810 1.971599 2.992371 0.230781 0.710288 0.664968 0.590088 0.561053
3.685273 1.069985 2.727757 0.894406 0.000000 0.447188 0.431192 0.458323
3.605531 1.370522 2.797065 0.827448 0.247963 0.503800 0.471887 0.461553
3.507879 1.069985 2.992366 0.746849 0.000000 0.664968 0.442725 0.535786
2.266915 0.168371 1.337726 -0.230781 -0.710288 -0.664968 0.090088 0.438947
2.355453 0.440867 1.094714 -0.162450 -0.499985 -0.850642 0.067194 0.353893
2.626286 0.204077 1.254565 0.059206 -0.683493 -0.727531 0.121991 0.367040
2.733751 0.534826 1.039635 0.140629 -0.432844 -0.890408 0.100043 0.269821
2.890617 0.052048 1.503540 0.262856 -0.808985 -0.525712 0.173898 0.393436
3.015103 0.330413 1.254567 0.353832 -0.587756 -0.727531 0.165383 0.294555
3.229176 0.212222 1.533029 0.523637 -0.686972 -0.503800 0.215932 0.336303
3.095024 0.681172 1.094715 0.425306 -0.309000 -0.850642 0.151472 0.196389
3.582478 1.441468 1.533030 0.815180 0.285714 -0.503800 0.451746 0.127014
3.326824 1.627208 1.337727 0.604205 0.438978 -0.664968 0.583777 0.069676
3.630189 1.069985 1.503542 0.850642 0.000000 -0.525712 0.346657 0.159764
3.403917 1.274396 1.254567 0.668325 0.154881 -0.727531 0.326345 0.060529
3.403918 0.865573 1.254568 0.668325 -0.154881 -0.727531 0.238778 0.150919
3.403917 1.274396 1.254567 0.668325 0.154881 -0.727531 1.326345 0.060529
3.095024 1.458798 1.094715 0.425306 0.309000 -0.850642 0.902714 0.042347
3.122565 1.069984 1.039636 0.455123 0.000000 -0.890408 0.115667 0.101198
3.122565 1.069984 1.039636 0.455123 0.000000 -0.890408 1.115667 0.101198
2.815515 0.884245 0.947128 0.210944 -0.153264 -0.965392 1.066874 0.186062
1.611846 1.069985 1.337732 -0.746849 0.000000 -0.664968 0.942725 0.464214
1.898364 1.069985 1.094718 -0.525712 0.000000 -0.850642 0.957320 0.373054
1.756855 0.739237 1.254569 -0.631733 -0.267495 -0.727531 0.989750 0.451351
2.104627 0.739237 1.039636 -0.368206 -0.267495 -0.890408 1.011469 0.356011
1.693949 0.440865 1.503542 -0.688162 -0.499985 -0.525712 1.019751 0.531484
1.997161 0.408488 1.254567 -0.449629 -0.518143 -0.727531 1.042227 0.442062
1.997161 0.408488 1.254567 -0.449629 -0.518143 -0.727531 0.042227 0.442062
1.950906 0.168369 1.533029 -0.491531 -0.710288 -0.503800 0.067371 0.521725
1.693949 0.440865 1.503542 -0.688162 -0.499985 -0.525712 0.019751 0.531484
2.104627 0.739237 1.039636 -0.368206 -0.267495 -0.890408 0.011469 0.356011
2.266915 1.971599 1.337726 -0.230781 0.710288 -0.664968 0.811450 0.296094
2.355453 1.699103 1.094714 -0.162450 0.499985 -0.850642 0.863854 0.240878
1.997161 1.731480 1.254566 -0.449629 0.518143 -0.727531 0.860796 0.340763
2.104627 1.400732 1.039635 -0.368206 0.267495 -0.890408 0.917614 0.300544
1.693949 1.699106 1.503542 -0.688162 0.499985 -0.525712 0.858660 0.440684
1.756855 1.400732 1.254568 -0.631733 0.267495 -0.727531 0.906353 0.402494
1.514194 1.370522 1.533032 -0.827448 0.247963 -0.503800 0.898066 0.495166
3.015101 1.809557 1.254566 0.353832 0.587756 -0.727531 0.737835 0.115021
2.733748 1.605145 1.039635 0.140629 0.432844 -0.890408 0.870110 0.141114
2.890617 2.087923 1.503540 0.262856 0.808985 -0.525712 0.708156 0.211058
2.626284 1.935894 1.254567 0.059206 0.683493 -0.727531 0.790624 0.206639
2.522569 2.157343 1.533028 -0.019837 0.863552 -0.503800 0.752120 0.284355
3.763535 0.884245 2.481057 0.957823 -0.153264 0.243049 0.397877 0.410511
3.763535 1.255726 2.481057 0.957823 0.153264 0.243049 0.445416 0.382333
3.756530 0.681171 2.165049 0.951048 -0.309000 0.000000 0.354716 0.359462
3.818111 1.069985 2.165049 0.999939 0.000000 -0.008850 0.406842 0.317827
3.751692 0.865573 1.817274 0.949614 -0.154881 -0.272408 0.351917 0.259567
3.756530 1.458800 2.165049 0.951048 0.309000 0.000000 0.466226 0.294036
3.751692 1.274397 1.817274 0.949614 0.154881 -0.272408 0.421937 0.216325
2.755162 -0.132173 2.481060 0.150212 -0.958281 0.243049 0.234666 0.626148
3.108468 -0.017378 2.481061 0.441725 -0.863582 0.243049 0.273111 0.566705
2.559863 -0.188263 2.165049 0.000000 -1.000000 0.000000 0.187402 0.591668
2.948683 -0.126680 2.165049 0.309000 -0.951018 -0.008850 0.228663 0.532768
2.733751 -0.126678 1.817272 0.146123 -0.950987 -0.272408 0.180701 0.492545
3.299443 0.052041 2.165049 0.587756 -0.809015 0.000000 0.268348 0.471775
3.122571 -0.000342 1.817272 0.440748 -0.855251 -0.272408 0.222416 0.429625
1.476891 0.512760 2.481059 -0.864986 -0.438978 0.243049 0.998039 0.790248
1.695247 0.212218 2.481060 -0.684805 -0.686972 0.243049 1.072771 0.777008
1.649385 0.408492 2.727762 -0.723594 -0.525712 0.447218 1.046898 0.852864
1.363196 0.681171 2.165049 -0.951048 -0.309000 0.000000 0.966226 0.705964
1.541916 0.330408 2.165049 -0.808985 -0.587756 -0.008850 1.029109 0.706863
1.475500 0.534822 1.817274 -0.859310 -0.432844 -0.272408 0.995961 0.620247
1.541916 0.330408 2.165049 -0.808985 -0.587756 -0.008850 0.029109 0.706863
1.820282 0.052041 2.165049 -0.587756 -0.809015 0.000000 0.088945 0.684652
1.695247 0.212218 2.481060 -0.684805 -0.686972 0.243049 0.072771 0.777008
1.715806 0.204070 1.817272 -0.677206 -0.683493 -0.272408 1.051303 0.610451
1.715806 0.204070 1.817272 -0.677206 -0.683493 -0.272408 0.051303 0.610451
1.695246 1.927752 2.481060 -0.684805 0.686972 0.243049 0.763316 0.623129
1.476891 1.627210 2.481059 -0.864986 0.438978 0.243049 0.805294 0.681224
1.820282 2.087929 2.165049 -0.587756 0.809015 0.000000 0.768348 0.528225
1.541916 1.809562 2.165049 -0.808985 0.587756 -0.008850 0.809389 0.587422
1.715806 1.935900 1.817272 -0.677206 0.683493 -0.272408 0.813190 0.483807
1.363196 1.458800 2.165049 -0.951048 0.309000 0.000000 0.854716 0.640538
1.475500 1.605148 1.817274 -0.859310 0.432844 -0.272408 0.856770 0.540613
3.108468 2.157348 2.481061 0.441725 0.863582 0.243049 0.599805 0.408716
2.755162 2.272143 2.481060 0.150212 0.958281 0.243049 0.643341 0.449913
3.299443 2.087929 2.165049 0.587756 0.809015 0.000000 0.588945 0.315348
2.948683 2.266650 2.165049 0.309000 0.951018 -0.008850 0.641641 0.355872
3.122571 2.140312 1.817272 0.440748 0.855251 -0.272408 0.639045 0.252069
2.559863 2.328233 2.165049 0.000000 1.000000 0.000000 0.687402 0.408332
2.733751 2.266648 1.817272 0.146123 0.950987 -0.272408 0.695513 0.309395
3.403921 0.204072 2.512824 0.677206 -0.683493 0.272408 0.313190 0.516192
3.577809 0.330408 2.165046 0.808985 -0.587756 0.008850 0.309389 0.412577
3.425776 0.440865 2.826555 0.688162 -0.499985 0.525712 0.358660 0.559317
3.644226 0.534823 2.512822 0.859310 -0.432844 0.272408 0.356770 0.459386
3.605531 0.769448 2.797065 0.827448 -0.247963 0.503800 0.398066 0.504834
1.997154 -0.000342 2.512825 -0.440748 -0.855251 0.272408 0.139045 0.747930
2.171042 -0.126680 2.165048 -0.309000 -0.951018 0.008850 0.141641 0.644128
2.229108 0.052047 2.826557 -0.262856 -0.808985 0.525712 0.208156 0.788942
2.385974 -0.126678 2.512825 -0.146123 -0.950987 0.272408 0.195513 0.690605
2.597156 -0.017373 2.797070 0.019837 -0.863552 0.503800 0.252121 0.715645
1.368033 1.274397 2.512824 -0.949614 0.154881 0.272408 0.851917 0.740433
1.301614 1.069985 2.165050 -0.999939 0.000000 0.008850 0.906842 0.682174
1.489536 1.069985 2.826555 -0.850642 0.000000 0.525712 0.846657 0.840237
1.368034 0.865573 2.512824 -0.949614 -0.154881 0.272408 0.921937 0.783675
1.537247 0.698503 2.797068 -0.815180 -0.285714 0.503800 0.951746 0.872986
2.385975 2.266649 2.512825 -0.146123 0.950987 0.272408 0.680701 0.507454
2.171043 2.266651 2.165048 -0.309000 0.951018 0.008850 0.728663 0.467232
2.229108 2.087923 2.826557 -0.262856 0.808985 0.525712 0.673898 0.606564
1.997155 2.140313 2.512825 -0.440748 0.855251 0.272408 0.722416 0.570374
1.890549 1.927749 2.797069 -0.523637 0.686972 0.503800 0.715931 0.663697
3.644226 1.605146 2.512824 0.859310 0.432844 0.272408 0.495961 0.379753
3.577810 1.809561 2.165049 0.808985 0.587756 0.008850 0.529109 0.293137
3.425776 1.699106 2.826555 0.688162 0.499985 0.525712 0.519751 0.468517
3.403921 1.935898 2.512825 0.677206 0.683493 0.272408 0.551303 0.389549
3.168819 1.971601 2.797069 0.491531 0.710288 0.503800 0.567371 0.478275
2.657511 0.769449 3.382970 0.080569 -0.247963 0.965392 0.433597 0.790787
2.875868 1.069985 3.382969 0.260750 0.000000 0.965392 0.476009 0.716880
2.559863 1.069985 3.423297 0.000000 0.000000 1.000000 0.500000 0.790552
2.764272 0.440867 3.235384 0.162450 -0.499985 0.850642 0.363854 0.759122
3.015097 0.739238 3.290463 0.368206 -0.267495 0.890408 0.417614 0.699456
3.122563 0.408489 3.075532 0.449629 -0.518143 0.727531 0.360796 0.659237
3.221361 1.069985 3.235380 0.525712 0.000000 0.850642 0.457320 0.626946
3.362869 0.739237 3.075530 0.631733 -0.267495 0.727531 0.406353 0.597507
2.304211 0.884245 3.382970 -0.210944 -0.153233 0.965392 0.485400 0.870055
2.024701 0.681172 3.235383 -0.425306 -0.309000 0.850642 0.402714 0.957653
2.385976 0.534828 3.290464 -0.140629 -0.432844 0.890408 0.370110 0.858887
2.104624 0.330414 3.075533 -0.353832 -0.587725 0.727531 0.237835 0.884979
2.493440 0.204078 3.075533 -0.059206 -0.683493 0.727531 0.290624 0.793361
2.304211 1.255725 3.382970 -0.210944 0.153233 0.965392 0.566874 0.813938
2.024701 1.458798 3.235383 -0.425306 0.309000 0.850642 0.651472 0.803611
1.997162 1.069985 3.290463 -0.455123 0.000000 0.890408 0.615666 0.898802
1.715809 1.274396 3.075531 -0.668325 0.154881 0.727531 0.738777 0.849081
1.715809 0.865574 3.075531 -0.668325 -0.154881 0.727531 0.826345 0.939471
1.792902 0.512762 2.992371 -0.604205 -0.438978 0.664968 1.083777 0.930324
2.657511 1.370521 3.382970 0.080569 0.247963 0.965392 0.537346 0.727748
2.764272 1.699103 3.235384 0.162450 0.499985 0.850642 0.567194 0.646107
2.385976 1.605143 3.290464 -0.140629 0.432844 0.890408 0.600043 0.730179
2.493440 1.935893 3.075533 -0.059206 0.683493 0.727531 0.621991 0.632960
2.104624 1.809556 3.075533 -0.353832 0.587725 0.727531 0.665383 0.705445
3.015097 1.400732 3.290463 0.368206 0.267495 0.890408 0.511469 0.643989
3.362869 1.400733 3.075530 0.631733 0.267495 0.727531 0.489750 0.548649
3.122563 1.731482 3.075532 0.449629 0.518143 0.727531 0.542227 0.557939
3 0 1 2
3 3 4 5
3 6 7 8
3 6 8 9
3 6 9 10
3 3 5 11
3 12 13 14
3 15 16 17
3 18 19 20
3 21 22 23
3 3 11 24
3 12 14 25
3 15 17 26
3 18 20 27
3 21 23 28
3 29 30 31
3 32 33 34
3 35 36 37
3 38 39 40
3 41 42 43
3 44 13 12
3 45 46 44
3 2 47 45
3 44 46 13
3 46 48 13
3 45 47 46
3 47 49 46
3 46 49 48
3 49 50 48
3 2 1 47
3 1 51 47
3 47 51 49
3 51 4 49
3 49 4 50
3 4 3 50
3 52 53 21
3 54 55 52
3 5 56 54
3 52 55 53
3 57 58 53
3 54 56 55
3 56 59 55
3 57 60 58
3 60 10 58
3 5 4 56
3 4 51 56
3 56 51 59
3 51 1 59
3 60 61 10
3 61 6 10
3 62 16 15
3 63 64 62
3 8 65 63
3 62 64 16
3 64 66 16
3 63 65 64
3 65 67 64
3 64 67 66
3 68 69 70
3 8 7 65
3 2 45 71
3 71 45 68
3 45 44 68
3 68 44 69
3 44 12 69
3 72 19 18
3 73 74 72
3 9 75 73
3 72 74 19
3 74 76 19
3 73 75 74
3 75 77 74
3 74 77 76
3 77 78 76
3 9 8 75
3 8 63 75
3 75 63 77
3 63 62 77
3 77 62 78
3 62 15 78
3 53 22 21
3 58 79 53
3 10 80 58
3 53 79 22
3 79 81 22
3 58 80 79
3 80 82 79
3 79 82 81
3 82 83 81
3 10 9 80
3 9 73 80
3 80 73 82
3 73 72 82
3 82 72 83
3 72 18 83
3 84 85 41
3 86 87 84
3 11 88 86
3 84 87 85
3 87 89 85
3 86 88 87
3 88 90 87
3 87 90 89
3 90 28 89
3 11 5 88
3 5 54 88
3 88 54 90
3 54 52 90
3 90 52 28
3 52 21 28
3 91 92 29
3 93 94 91
3 14 95 93
3 91 94 92
3 94 96 92
3 93 95 94
3 95 97 94
3 94 97 96
3 97 24 96
3 14 13 95
3 13 48 95
3 95 48 97
3 48 50 97
3 97 50 24
3 50 3 24
3 98 99 100
3 101 102 98
3 17 103 101
3 98 102 99
3 104 105 106
3 101 103 102
3 103 107 102
3 104 108 105
3 108 25 105
3 17 16 103
3 16 66 103
3 103 66 107
3 70 69 108
3 108 69 25
3 69 12 25
3 109 110 35
3 111 112 109
3 20 113 111
3 109 112 110
3 112 114 110
3 111 113 112
3 113 115 112
3 112 115 114
3 115 26 114
3 20 19 113
3 19 76 113
3 113 76 115
3 76 78 115
3 115 78 26
3 78 15 26
3 116 117 38
3 118 119 116
3 23 120 118
3 116 119 117
3 119 121 117
3 118 120 119
3 120 122 119
3 119 122 121
3 122 27 121
3 23 22 120
3 22 81 120
3 120 81 122
3 81 83 122
3 122 83 27
3 83 18 27
3 92 30 29
3 96 123 92
3 24 124 96
3 92 123 30
3 123 125 30
3 96 124 123
3 124 126 123
3 123 126 125
3 126 127 125
3 24 11 124
3 11 86 124
3 124 86 126
3 86 84 126
3 126 84 127
3 84 41 127
3 106 33 32
3 105 128 106
3 25 129 105
3 106 128 33
3 128 130 33
3 105 129 128
3 129 131 128
3 128 131 130
3 131 132 130
3 25 14 129
3 14 93 129
3 129 93 131
3 93 91 131
3 131 91 132
3 91 29 132
3 110 36 35
3 114 133 110
3 26 134 114
3 110 133 36
3 133 135 36
3 114 134 133
3 134 136 133
3 133 136 135
3 136 137 135
3 26 17 134
3 17 101 134
3 134 101 136
3 101 98 136
3 136 98 137
3 98 100 137
3 117 39 38
3 121 138 117
3 27 139 121
3 117 138 39
3 138 140 39
3 121 139 138
3 139 141 138
3 138 141 140
3 141 142 140
3 27 20 139
3 20 111 139
3 139 111 141
3 111 109 141
3 141 109 142
3 109 35 142
3 85 42 41
3 89 143 85
3 28 144 89
3 85 143 42
3 143 145 42
3 89 144 143
3 144 146 143
3 143 146 145
3 146 147 145
3 28 23 144
3 23 118 144
3 144 118 146
3 118 116 146
3 146 116 147
3 116 38 147
3 148 149 150
3 151 152 148
3 31 153 151
3 148 152 149
3 152 154 149
3 151 153 152
3 153 155 152
3 152 155 154
3 155 43 154
3 31 30 153
3 30 125 153
3 153 125 155
3 125 127 155
3 155 127 43
3 127 41 43
3 156 148 150
3 157 158 156
3 34 159 157
3 156 158 148
3 158 151 148
3 157 159 158
3 159 160 158
3 158 160 151
3 160 31 151
3 34 33 159
3 33 130 159
3 159 130 160
3 130 132 160
3 160 132 31
3 132 29 31
3 161 156 150
3 162 163 161
3 37 164 162
3 161 163 156
3 163 157 156
3 162 164 163
3 164 165 163
3 163 165 157
3 165 166 157
3 37 36 164
3 36 135 164
3 164 135 165
3 135 137 165
3 165 137 166
3 137 100 166
3 167 161 150
3 168 169 167
3 40 170 168
3 167 169 161
3 169 162 161
3 168 170 169
3 170 171 169
3 169 171 162
3 171 37 162
3 40 39 170
3 39 140 170
3 170 140 171
3 140 142 171
3 171 142 37
3 142 35 37
3 149 167 150
3 154 172 149
3 43 173 154
3 149 172 167
3 172 168 167
3 154 173 172
3 173 174 172
3 172 174 168
3 174 40 168
3 43 42 173
3 42 145 173
3 173 145 174
3 145 147 174
3 174 147 40
3 147 38 40
