ply
format ascii 1.0
comment Created by Blender3D 249 - www.blender.org, source file: simple-mat.blend
element vertex 38
property float x
property float y
property float z
property float nx
property float ny
property float nz
property uchar red
property uchar green
property uchar blue
element face 16
property list uchar uint vertex_indices
end_header
-4.900000 4.900000 5.858243 1.000000 -0.000000 0.000000 255 255 255
-4.900002 -4.899998 5.858243 1.000000 -0.000000 0.000000 255 255 255
-4.900002 -4.899998 0.490000 1.000000 -0.000000 0.000000 255 255 255
-4.900000 4.900000 0.490000 1.000000 -0.000000 0.000000 255 255 255
4.900002 4.899997 0.490000 0.000000 1.000000 0.000002 255 255 255
4.900000 4.900000 -0.490000 0.000000 1.000000 0.000002 255 255 255
-4.900000 4.900000 0.490000 0.000000 1.000000 0.000002 255 255 255
-4.899998 4.900002 -0.490000 0.000000 1.000000 0.000002 255 255 255
-4.900001 -4.899999 -0.490000 -1.000000 0.000000 -0.000001 255 255 255
-4.900002 -4.899998 0.490000 -1.000000 0.000000 -0.000001 255 255 255
-4.900000 4.900000 0.490000 -1.000000 0.000000 -0.000001 255 255 255
-4.899998 4.900002 -0.490000 -1.000000 0.000000 -0.000001 255 255 255
4.900000 -4.900000 -0.490000 -0.000000 -1.000000 -0.000003 255 255 255
4.899997 -4.900003 0.490000 -0.000000 -1.000000 -0.000003 255 255 255
-4.900001 -4.899999 -0.490000 -0.000000 -1.000000 -0.000003 255 255 255
4.899997 -4.900003 0.490000 -0.000000 -1.000000 0.000001 255 255 255
-4.900002 -4.899998 0.490000 -0.000000 -1.000000 0.000001 255 255 255
-4.900001 -4.899999 -0.490000 -0.000000 -1.000000 0.000001 255 255 255
4.900000 4.900000 -0.490000 1.000000 0.000000 -0.000002 255 255 255
4.900002 4.899997 0.490000 1.000000 0.000000 -0.000002 255 255 255
4.900000 -4.900000 -0.490000 1.000000 0.000000 -0.000002 255 255 255
4.900002 4.899997 0.490000 1.000000 -0.000001 0.000003 255 255 255
4.899997 -4.900003 0.490000 1.000000 -0.000001 0.000003 255 255 255
4.900000 -4.900000 -0.490000 1.000000 -0.000001 0.000003 255 255 255
4.900002 4.899997 0.490000 -0.000000 -0.000000 1.000000 255 255 255
-4.900000 4.900000 0.490000 -0.000000 -0.000000 1.000000 255 255 255
4.899997 -4.900003 0.490000 -0.000000 -0.000000 1.000000 255 255 255
-4.900002 -4.899998 0.490000 0.000000 -0.000000 1.000000 255 255 255
4.900000 4.900000 -0.490000 0.000000 0.000000 -1.000000 255 255 255
4.900000 -4.900000 -0.490000 0.000000 0.000000 -1.000000 255 255 255
-4.899998 4.900002 -0.490000 0.000000 0.000000 -1.000000 255 255 255
-4.900001 -4.899999 -0.490000 0.000000 -0.000000 -1.000000 255 255 255
-4.900000 4.900000 0.490000 0.000000 0.000000 0.000000 255 255 255
4.900002 4.899997 0.490000 0.000000 0.000000 0.000000 255 255 255
4.900002 4.899997 0.490000 0.000000 0.000000 0.000000 255 255 255
-4.900000 4.900000 0.490000 0.000000 0.000000 0.000000 255 255 255
-4.900002 -4.899998 0.490000 0.000000 0.000000 0.000000 255 255 255
-4.900002 -4.899998 0.490000 0.000000 0.000000 0.000000 255 255 255
3 0 1 2 
3 0 2 3 
3 4 5 6 
3 5 7 6 
3 8 9 10 
3 8 10 11 
3 12 13 14 
3 15 16 17 
3 18 19 20 
3 21 22 23 
3 24 25 26 
3 25 27 26 
3 28 29 30 
3 29 31 30 
4 32 33 34 35 
4 36 32 35 37 
